# This file uses meters as units for non-parametric coordinates.

v -3.381813 4.113060 3.143979
v 3.381813 4.113060 3.143979
v -3.381813 4.113060 -3.143979
v 3.381813 4.113060 -3.143979
v -1.215649 5.233889 1.183082
v 1.215642 5.233889 1.183082
v 1.215642 5.233889 -1.183082
v -1.215649 5.233889 -1.183082
v -2.212397 4.634989 -2.141388
v -2.212397 4.634989 2.141388
v 2.212389 4.634989 2.141388
v 2.212389 4.634989 -2.141388
v -0.326679 6.119734 0.319208
v 0.326672 6.119734 0.319208
v 0.326672 6.119734 -0.319208
v -0.326679 6.119734 -0.319208
v -3.381813 3.387150 -3.143979
v -3.381813 3.387150 3.143979
v 3.381813 3.387150 3.143979
v 3.381798 3.387150 -3.143979
v -3.306839 3.701754 3.014606
v -3.306839 3.701754 -3.014606
v 3.306831 3.701754 3.014606
v 3.306816 3.701754 -3.014606
v -3.370043 -0.000000 -2.855775
v -3.223875 -0.000000 -2.855775
v -3.370043 3.777543 -2.855775
v -3.223875 3.777543 -2.855775
v -3.370043 3.777543 -3.067611
v -3.223875 3.777543 -3.067611
v -3.370043 -0.000000 -3.067611
v -3.223875 -0.000000 -3.067611
v 3.180971 -0.000000 -2.855775
v 3.327139 -0.000000 -2.855775
v 3.180971 3.777543 -2.855775
v 3.327139 3.777543 -2.855775
v 3.180971 3.777543 -3.067611
v 3.327139 3.777543 -3.067611
v 3.180971 -0.000000 -3.067611
v 3.327139 -0.000000 -3.067611
v -3.370043 -0.000000 3.056467
v -3.223875 -0.000000 3.056467
v -3.370043 3.777543 3.056467
v -3.223875 3.777543 3.056467
v -3.370043 3.777543 2.844630
v -3.223875 3.777543 2.844630
v -3.370043 -0.000000 2.844630
v -3.223875 -0.000000 2.844630
v 3.180971 -0.000000 3.056467
v 3.327139 -0.000000 3.056467
v 3.180971 3.777543 3.056467
v 3.327139 3.777543 3.056467
v 3.180971 3.777543 2.844630
v 3.327139 3.777543 2.844630
v 3.180971 -0.000000 2.844630
v 3.327139 -0.000000 2.844630
vt 0.054108 0.925688
vt 0.054108 0.925688
vt 0.054108 0.925688
vt 0.054108 0.925688
vt 0.078786 0.925688
vt 0.078786 0.925688
vt 0.078786 0.925688
vt 0.078786 0.925688
vt 0.054108 0.925688
vt 0.054108 0.925688
vt 0.054108 0.925688
vt 0.054108 0.925688
vt 0.064855 0.925688
vt 0.064855 0.925688
vt 0.064855 0.925688
vt 0.064855 0.925688
vt 0.064855 0.925688
vt 0.064855 0.925688
vt 0.064855 0.925688
vt 0.064855 0.925688
vt 0.071131 0.925688
vt 0.071131 0.925688
vt 0.071131 0.925688
vt 0.071131 0.925688
vt 0.076194 0.925688
vt 0.076194 0.925688
vt 0.076194 0.925688
vt 0.076194 0.925688
vt 0.071131 0.925688
vt 0.071131 0.925688
vt 0.071131 0.925688
vt 0.071131 0.925688
vt 0.076194 0.925688
vt 0.076194 0.925688
vt 0.076194 0.925688
vt 0.076194 0.925688
vt 0.083849 0.925688
vt 0.083849 0.925688
vt 0.083849 0.925688
vt 0.083849 0.925688
vt 0.078786 0.925688
vt 0.078786 0.925688
vt 0.078786 0.925688
vt 0.078786 0.925688
vt 0.083849 0.925688
vt 0.083849 0.925688
vt 0.083849 0.925688
vt 0.083849 0.925688
vt 0.078786 0.925688
vt 0.078786 0.925688
vt 0.078786 0.925688
vt 0.078786 0.925688
vt 0.066081 0.925688
vt 0.066081 0.925688
vt 0.066081 0.925688
vt 0.066081 0.925688
vt 0.071145 0.925688
vt 0.071145 0.925688
vt 0.071145 0.925688
vt 0.071145 0.925688
vt 0.066081 0.925688
vt 0.066081 0.925688
vt 0.066081 0.925688
vt 0.066081 0.925688
vt 0.071145 0.925688
vt 0.071145 0.925688
vt 0.071145 0.925688
vt 0.071145 0.925688
vt 0.039065 0.925851
vt 0.039065 0.925851
vt 0.039065 0.925851
vt 0.039065 0.925851
vt 0.039065 0.925851
vt 0.039065 0.925851
vt 0.039065 0.925851
vt 0.039065 0.925851
vt 0.039065 0.925851
vt 0.039065 0.925851
vt 0.039065 0.925851
vt 0.039065 0.925851
vt 0.039065 0.925851
vt 0.039065 0.925851
vt 0.039065 0.925851
vt 0.039065 0.925851
vt 0.238849 0.085739
vt 0.238849 0.085739
vt 0.238849 0.085739
vt 0.238849 0.085739
vt 0.299612 0.085739
vt 0.299611 0.085739
vt 0.299611 0.085739
vt 0.299612 0.085739
vt 0.238849 0.085739
vt 0.238849 0.085739
vt 0.238849 0.085739
vt 0.238849 0.085739
vt 0.204548 0.085739
vt 0.204548 0.085739
vt 0.204548 0.085739
vt 0.204548 0.085739
vt 0.265310 0.085739
vt 0.265310 0.085739
vt 0.265310 0.085739
vt 0.265310 0.085739
vt 0.265310 0.085739
vt 0.265310 0.085739
vt 0.265310 0.085739
vt 0.265310 0.085739
vt 0.238849 0.085739
vt 0.238849 0.085739
vt 0.238849 0.085739
vt 0.238849 0.085739
vt 0.299612 0.085739
vt 0.299611 0.085739
vt 0.299611 0.085739
vt 0.299612 0.085739
vt 0.238849 0.085739
vt 0.238849 0.085739
vt 0.238849 0.085739
vt 0.238849 0.085739
vt 0.204548 0.085739
vt 0.204548 0.085739
vt 0.204548 0.085739
vt 0.204548 0.085739
vt 0.265310 0.085739
vt 0.265310 0.085739
vt 0.265310 0.085739
vt 0.265310 0.085739
vt 0.265310 0.085739
vt 0.265310 0.085739
vt 0.265310 0.085739
vt 0.265310 0.085739
vt 0.238849 0.085739
vt 0.238849 0.085739
vt 0.238849 0.085739
vt 0.238849 0.085739
vt 0.299612 0.085739
vt 0.299611 0.085739
vt 0.299611 0.085739
vt 0.299612 0.085739
vt 0.238849 0.085739
vt 0.238849 0.085739
vt 0.238849 0.085739
vt 0.238849 0.085739
vt 0.204548 0.085739
vt 0.204548 0.085739
vt 0.204548 0.085739
vt 0.204548 0.085739
vt 0.265310 0.085739
vt 0.265310 0.085739
vt 0.265310 0.085739
vt 0.265310 0.085739
vt 0.265310 0.085739
vt 0.265310 0.085739
vt 0.265310 0.085739
vt 0.265310 0.085739
vt 0.238849 0.085739
vt 0.238849 0.085739
vt 0.238849 0.085739
vt 0.238849 0.085739
vt 0.299612 0.085739
vt 0.299611 0.085739
vt 0.299611 0.085739
vt 0.299612 0.085739
vt 0.238849 0.085739
vt 0.238849 0.085739
vt 0.238849 0.085739
vt 0.238849 0.085739
vt 0.204548 0.085739
vt 0.204548 0.085739
vt 0.204548 0.085739
vt 0.204548 0.085739
vt 0.265310 0.085739
vt 0.265310 0.085739
vt 0.265310 0.085739
vt 0.265310 0.085739
vt 0.265310 0.085739
vt 0.265310 0.085739
vt 0.265310 0.085739
vt 0.265310 0.085739
vn 0.000000 0.000000 1.000000
vn 0.000000 0.000000 1.000000
vn 0.000000 0.000000 1.000000
vn 0.000000 0.000000 1.000000
vn 0.000000 1.000000 0.000000
vn 0.000000 1.000000 0.000000
vn 0.000000 1.000000 0.000000
vn 0.000000 1.000000 0.000000
vn 0.000000 0.000000 -1.000000
vn 0.000000 0.000000 -1.000000
vn 0.000000 0.000000 -1.000000
vn 0.000000 0.000000 -1.000000
vn 1.000000 -0.000010 -0.000001
vn 1.000000 -0.000010 -0.000001
vn 1.000000 -0.000010 -0.000001
vn 1.000000 -0.000010 -0.000001
vn -1.000000 0.000000 0.000000
vn -1.000000 0.000000 0.000000
vn -1.000000 0.000000 0.000000
vn -1.000000 0.000000 0.000000
vn 0.000000 0.880404 0.474225
vn 0.000000 0.880404 0.474225
vn 0.000000 0.848015 0.529973
vn 0.000000 0.848015 0.529973
vn 0.427793 0.903877 0.000000
vn 0.427793 0.903877 0.000000
vn 0.515034 0.857170 0.000000
vn 0.515034 0.857170 0.000000
vn 0.000000 0.880404 -0.474225
vn 0.000000 0.880404 -0.474225
vn 0.000000 0.848015 -0.529973
vn 0.000000 0.848015 -0.529973
vn -0.427795 0.903876 0.000000
vn -0.427795 0.903876 0.000000
vn -0.515034 0.857170 0.000000
vn -0.515034 0.857170 0.000000
vn -0.407565 0.913176 0.000000
vn -0.407565 0.913176 0.000000
vn -0.427795 0.903876 0.000000
vn -0.427795 0.903876 0.000000
vn 0.000000 0.887006 0.461758
vn 0.000000 0.887006 0.461758
vn 0.000000 0.880404 0.474225
vn 0.000000 0.880404 0.474225
vn 0.407563 0.913177 0.000000
vn 0.407563 0.913177 0.000000
vn 0.427793 0.903877 0.000000
vn 0.427793 0.903877 0.000000
vn 0.000000 0.887006 -0.461758
vn 0.000000 0.887006 -0.461758
vn 0.000000 0.880404 -0.474225
vn 0.000000 0.880404 -0.474225
vn 0.000000 0.698173 0.715929
vn 0.000000 0.698173 0.715929
vn 0.000000 0.698173 0.715929
vn 0.000000 0.698173 0.715929
vn 0.705861 0.708351 0.000000
vn 0.705861 0.708351 0.000000
vn 0.705861 0.708351 0.000000
vn 0.705861 0.708351 0.000000
vn 0.000000 0.698173 -0.715929
vn 0.000000 0.698173 -0.715929
vn 0.000000 0.698173 -0.715929
vn 0.000000 0.698173 -0.715929
vn -0.705861 0.708351 0.000000
vn -0.705861 0.708351 0.000000
vn -0.705861 0.708351 0.000000
vn -0.705861 0.708351 0.000000
vn 0.972759 -0.231819 0.000000
vn 0.972759 -0.231819 0.000000
vn 0.972759 -0.231819 0.000000
vn 0.972759 -0.231819 0.000000
vn 0.000000 -0.380322 -0.924854
vn 0.000000 -0.380322 -0.924854
vn 0.000000 -0.380322 -0.924854
vn 0.000000 -0.380322 -0.924854
vn -0.972753 -0.231843 0.000002
vn -0.972753 -0.231843 0.000002
vn -0.972753 -0.231843 0.000002
vn -0.972753 -0.231843 0.000002
vn 0.000000 -0.380322 0.924854
vn 0.000000 -0.380322 0.924854
vn 0.000000 -0.380322 0.924854
vn 0.000000 -0.380322 0.924854
vn 0.000000 0.000000 1.000000
vn 0.000000 0.000000 1.000000
vn 0.000000 0.000000 1.000000
vn 0.000000 0.000000 1.000000
vn 0.000000 1.000000 0.000000
vn 0.000000 1.000000 0.000000
vn 0.000000 1.000000 0.000000
vn 0.000000 1.000000 0.000000
vn 0.000000 0.000000 -1.000000
vn 0.000000 0.000000 -1.000000
vn 0.000000 0.000000 -1.000000
vn 0.000000 0.000000 -1.000000
vn 0.000000 -1.000000 0.000000
vn 0.000000 -1.000000 0.000000
vn 0.000000 -1.000000 0.000000
vn 0.000000 -1.000000 0.000000
vn 1.000000 0.000000 0.000000
vn 1.000000 0.000000 0.000000
vn 1.000000 0.000000 0.000000
vn 1.000000 0.000000 0.000000
vn -1.000000 0.000000 0.000000
vn -1.000000 0.000000 0.000000
vn -1.000000 0.000000 0.000000
vn -1.000000 0.000000 0.000000
vn 0.000000 0.000000 1.000000
vn 0.000000 0.000000 1.000000
vn 0.000000 0.000000 1.000000
vn 0.000000 0.000000 1.000000
vn 0.000000 1.000000 0.000000
vn 0.000000 1.000000 0.000000
vn 0.000000 1.000000 0.000000
vn 0.000000 1.000000 0.000000
vn 0.000000 0.000000 -1.000000
vn 0.000000 0.000000 -1.000000
vn 0.000000 0.000000 -1.000000
vn 0.000000 0.000000 -1.000000
vn 0.000000 -1.000000 0.000000
vn 0.000000 -1.000000 0.000000
vn 0.000000 -1.000000 0.000000
vn 0.000000 -1.000000 0.000000
vn 1.000000 0.000000 0.000000
vn 1.000000 0.000000 0.000000
vn 1.000000 0.000000 0.000000
vn 1.000000 0.000000 0.000000
vn -1.000000 0.000000 0.000000
vn -1.000000 0.000000 0.000000
vn -1.000000 0.000000 0.000000
vn -1.000000 0.000000 0.000000
vn 0.000000 0.000000 1.000000
vn 0.000000 0.000000 1.000000
vn 0.000000 0.000000 1.000000
vn 0.000000 0.000000 1.000000
vn 0.000000 1.000000 0.000000
vn 0.000000 1.000000 0.000000
vn 0.000000 1.000000 0.000000
vn 0.000000 1.000000 0.000000
vn 0.000000 0.000000 -1.000000
vn 0.000000 0.000000 -1.000000
vn 0.000000 0.000000 -1.000000
vn 0.000000 0.000000 -1.000000
vn 0.000000 -1.000000 0.000000
vn 0.000000 -1.000000 0.000000
vn 0.000000 -1.000000 0.000000
vn 0.000000 -1.000000 0.000000
vn 1.000000 0.000000 0.000000
vn 1.000000 0.000000 0.000000
vn 1.000000 0.000000 0.000000
vn 1.000000 0.000000 0.000000
vn -1.000000 0.000000 0.000000
vn -1.000000 0.000000 0.000000
vn -1.000000 0.000000 0.000000
vn -1.000000 0.000000 0.000000
vn 0.000000 0.000000 1.000000
vn 0.000000 0.000000 1.000000
vn 0.000000 0.000000 1.000000
vn 0.000000 0.000000 1.000000
vn 0.000000 1.000000 0.000000
vn 0.000000 1.000000 0.000000
vn 0.000000 1.000000 0.000000
vn 0.000000 1.000000 0.000000
vn 0.000000 0.000000 -1.000000
vn 0.000000 0.000000 -1.000000
vn 0.000000 0.000000 -1.000000
vn 0.000000 0.000000 -1.000000
vn 0.000000 -1.000000 0.000000
vn 0.000000 -1.000000 0.000000
vn 0.000000 -1.000000 0.000000
vn 0.000000 -1.000000 0.000000
vn 1.000000 0.000000 0.000000
vn 1.000000 0.000000 0.000000
vn 1.000000 0.000000 0.000000
vn 1.000000 0.000000 0.000000
vn -1.000000 0.000000 0.000000
vn -1.000000 0.000000 0.000000
vn -1.000000 0.000000 0.000000
vn -1.000000 0.000000 0.000000
s off
f 18/1/1 19/2/2 2/3/3 1/4/4
f 13/5/5 14/6/6 15/7/7 16/8/8
f 3/9/9 4/10/10 20/11/11 17/12/12
f 19/13/13 20/14/14 4/15/15 2/16/16
f 17/17/17 18/18/18 1/19/19 3/20/20
f 10/21/21 11/22/22 6/23/23 5/24/24
f 11/25/25 12/26/26 7/27/27 6/28/28
f 12/29/29 9/30/30 8/31/31 7/32/32
f 9/33/33 10/34/34 5/35/35 8/36/36
f 3/37/37 1/38/38 10/39/39 9/40/40
f 1/41/41 2/42/42 11/43/43 10/44/44
f 2/45/45 4/46/46 12/47/47 11/48/48
f 4/49/49 3/50/50 9/51/51 12/52/52
f 5/53/53 6/54/54 14/55/55 13/56/56
f 6/57/57 7/58/58 15/59/59 14/60/60
f 7/61/61 8/62/62 16/63/63 15/64/64
f 8/65/65 5/66/66 13/67/67 16/68/68
f 18/69/69 17/83/70 22/78/71 21/72/72
f 19/73/73 18/84/74 21/81/75 23/74/76
f 20/75/77 19/82/78 23/79/79 24/76/80
f 17/70/81 20/80/82 24/77/83 22/71/84
f 25/85/85 26/86/86 28/87/87 27/88/88
f 27/89/89 28/90/90 30/91/91 29/92/92
f 29/93/93 30/94/94 32/95/95 31/96/96
f 31/97/97 32/98/98 26/99/99 25/100/100
f 26/101/101 32/102/102 30/103/103 28/104/104
f 31/105/105 25/106/106 27/107/107 29/108/108
f 33/109/109 34/110/110 36/111/111 35/112/112
f 35/113/113 36/114/114 38/115/115 37/116/116
f 37/117/117 38/118/118 40/119/119 39/120/120
f 39/121/121 40/122/122 34/123/123 33/124/124
f 34/125/125 40/126/126 38/127/127 36/128/128
f 39/129/129 33/130/130 35/131/131 37/132/132
f 41/133/133 42/134/134 44/135/135 43/136/136
f 43/137/137 44/138/138 46/139/139 45/140/140
f 45/141/141 46/142/142 48/143/143 47/144/144
f 47/145/145 48/146/146 42/147/147 41/148/148
f 42/149/149 48/150/150 46/151/151 44/152/152
f 47/153/153 41/154/154 43/155/155 45/156/156
f 49/157/157 50/158/158 52/159/159 51/160/160
f 51/161/161 52/162/162 54/163/163 53/164/164
f 53/165/165 54/166/166 56/167/167 55/168/168
f 55/169/169 56/170/170 50/171/171 49/172/172
f 50/173/173 56/174/174 54/175/175 52/176/176
f 55/177/177 49/178/178 51/179/179 53/180/180
