# This file uses meters as units for non-parametric coordinates.

v 10.000002 0.000000 0.000003
v 10.000002 0.000000 9.999980
v 8.641603 0.000000 9.999980
v 8.641603 0.000000 0.000003
v 8.201540 0.000000 9.999980
v 8.201540 0.000000 0.000003
v -9.999998 0.000000 9.999980
v -9.999998 0.000000 0.000003
v -8.641600 0.000000 0.000003
v -8.641600 0.000000 9.999980
v -8.201536 0.000000 0.000003
v -8.201536 0.000000 9.999980
v 11.142744 -1.246187 0.000004
v 11.142744 -1.246187 9.999980
v -11.142736 -1.246187 9.999980
v -11.142736 -1.246187 0.000004
v 10.000004 1.546519 0.000004
v 10.000004 1.546519 9.999980
v 11.142744 1.546519 0.000004
v 11.142744 1.546519 9.999980
v -9.999996 1.546519 9.999980
v -9.999996 1.546519 0.000004
v -11.142736 1.546519 9.999980
v -11.142736 1.546519 0.000004
v 7.446022 0.000000 6.365593
v -7.446022 0.000000 6.365593
v 7.446022 0.000000 3.634388
v -7.446022 0.000000 3.634388
v 10.000001 0.000000 4.999991
v -10.000001 0.000000 4.999991
v 0.000000 0.000000 0.000002
v 0.000000 0.000000 9.999980
vt 0.203365 0.198978
vt 0.234058 0.198859
vt 0.233468 0.198440
vt 0.234058 0.198859
vt 0.234058 0.198859
vt 0.234058 0.198859
vt 0.234058 0.198859
vt 0.234058 0.198859
vt 0.234058 0.198859
vt 0.203365 0.198978
vt 0.234058 0.198859
vt 0.233468 0.198440
vt 0.180345 0.198560
vt 0.203365 0.198978
vt 0.233468 0.198440
vt 0.180345 0.198560
vt 0.203365 0.198978
vt 0.233468 0.198440
vt 0.233468 0.198440
vt 0.233468 0.198440
vt 0.233468 0.198440
vt 0.233468 0.198440
vt 0.234058 0.198859
vt 0.234058 0.198859
vt 0.234058 0.198859
vt 0.234058 0.198859
vt 0.180346 0.198560
vt 0.180346 0.198560
vt 0.266522 0.198978
vt 0.233468 0.198440
vt 0.203365 0.198978
vt 0.233468 0.198440
vt 0.266523 0.198978
vt 0.233468 0.198440
vt 0.203365 0.198978
vt 0.233468 0.198440
vt 0.233468 0.198440
vt 0.203365 0.198978
vt 0.203365 0.198978
vt 0.203365 0.198978
vt 0.233468 0.198440
vt 0.233468 0.198440
vt 0.233468 0.198440
vt 0.203365 0.198978
vt 0.233468 0.198440
vt 0.203365 0.198978
vt 0.203365 0.198978
vt 0.203365 0.198978
vt 0.233468 0.198440
vt 0.233468 0.198440
vt 0.233468 0.198440
vt 0.203365 0.198978
vt 0.203365 0.198978
vt 0.266523 0.198978
vt 0.266523 0.198978
vt 0.266523 0.198978
vt 0.203365 0.198978
vt 0.266522 0.198978
vt 0.266522 0.198978
vt 0.266522 0.198978
vt 0.209079 0.795006
vt 0.497576 0.795006
vt 0.497576 0.867310
vt 0.209079 0.867310
vt 0.169016 0.064148
vt 0.169016 0.064148
vt 0.169016 0.064148
vt 0.169016 0.064148
vt 0.169016 0.064148
vt 0.389062 0.063031
vt 0.389062 0.063031
vt 0.389062 0.063031
vt 0.389062 0.063031
vt 0.169016 0.064148
vt 0.169016 0.064148
vt 0.169016 0.064148
vt 0.169016 0.064148
vt 0.169016 0.064148
vt 0.389062 0.063031
vt 0.389062 0.063031
vt 0.389062 0.063031
vt 0.389062 0.063031
vt 0.169016 0.064148
vt 0.169016 0.064148
vt 0.169016 0.064148
vt 0.169016 0.064148
vt 0.169016 0.064148
vt 0.169016 0.064148
vt 0.169016 0.064148
vt 0.169016 0.064148
vt 0.169016 0.064148
vt 0.169016 0.064148
vn 0.000000 -1.000000 0.000000
vn 0.000000 -1.000000 0.000000
vn 0.000000 -1.000000 0.000000
vn 0.000000 -1.000000 0.000000
vn 0.000000 0.000000 1.000000
vn 0.000000 0.000000 1.000000
vn 0.000000 0.000000 1.000000
vn 0.000000 0.000000 1.000000
vn 0.000000 0.000000 1.000000
vn 0.000000 0.000000 1.000000
vn 0.000000 0.000000 1.000000
vn 0.000000 0.000000 1.000000
vn 0.000000 1.000000 0.000000
vn 0.000000 1.000000 0.000000
vn 0.000000 1.000000 0.000000
vn 0.000000 1.000000 0.000000
vn 0.000000 -0.000001 -1.000000
vn 0.000000 -0.000001 -1.000000
vn 0.000000 -0.000001 -1.000000
vn 0.000000 -0.000001 -1.000000
vn 0.000000 -0.000001 -1.000000
vn 0.000000 -0.000001 -1.000000
vn 0.000000 -0.000001 -1.000000
vn 0.000000 -0.000001 -1.000000
vn -0.000000 1.000000 0.000000
vn -0.000000 1.000000 0.000000
vn -0.000000 1.000000 0.000000
vn -0.000000 1.000000 0.000000
vn -1.000000 0.000001 0.000000
vn -1.000000 0.000001 0.000000
vn -1.000000 0.000001 0.000000
vn -1.000000 0.000001 0.000000
vn 0.000001 0.000000 -1.000000
vn 0.000001 0.000000 -1.000000
vn 0.000001 0.000000 -1.000000
vn 0.000001 0.000000 -1.000000
vn 1.000000 0.000000 0.000000
vn 1.000000 0.000000 0.000000
vn 1.000000 0.000000 0.000000
vn 1.000000 0.000000 0.000000
vn 0.000001 0.000000 1.000000
vn 0.000001 0.000000 1.000000
vn 0.000001 0.000000 1.000000
vn 0.000001 0.000000 1.000000
vn 1.000000 -0.000001 0.000000
vn 1.000000 -0.000001 0.000000
vn 1.000000 -0.000001 0.000000
vn 1.000000 -0.000001 0.000000
vn -0.000000 0.000000 1.000000
vn -0.000000 0.000000 1.000000
vn -0.000000 0.000000 1.000000
vn -0.000000 0.000000 1.000000
vn -1.000000 0.000000 0.000000
vn -1.000000 0.000000 0.000000
vn -1.000000 0.000000 0.000000
vn -1.000000 0.000000 0.000000
vn -0.000001 0.000000 -1.000000
vn -0.000001 0.000000 -1.000000
vn -0.000001 0.000000 -1.000000
vn -0.000001 0.000000 -1.000000
vn 0.000000 1.000000 0.000000
vn 0.000000 1.000000 0.000000
vn 0.000000 1.000000 0.000000
vn 0.000000 1.000000 0.000000
vn 0.000000 1.000000 0.000000
vn 0.000000 1.000000 0.000000
vn 0.000000 1.000000 0.000000
vn 0.000000 1.000000 0.000000
vn 0.000000 1.000000 0.000000
vn 0.000000 1.000000 0.000000
vn 0.000000 1.000000 0.000000
vn 0.000000 1.000000 0.000000
vn 0.000000 1.000000 0.000000
vn 0.000000 1.000000 0.000000
vn -0.000000 1.000000 0.000000
vn -0.000000 1.000000 0.000000
vn 0.000000 1.000000 0.000000
vn 0.000000 1.000000 0.000000
vn -0.000000 1.000000 0.000000
vn -0.000000 1.000000 0.000000
vn -0.000000 1.000000 0.000000
vn -0.000000 1.000000 0.000000
vn 0.000000 1.000000 0.000000
vn 0.000000 1.000000 0.000000
vn 0.000000 1.000000 0.000000
vn 0.000000 1.000000 0.000000
vn 0.000000 1.000000 0.000000
vn -0.000000 1.000000 0.000000
vn -0.000000 1.000000 0.000000
vn -0.000000 1.000000 0.000000
vn -0.000000 1.000000 0.000000
vn 0.000000 1.000000 0.000000
vn 0.000000 1.000000 0.000000
vn 0.000000 1.000000 0.000000
vn 0.000000 1.000000 0.000000
vn 0.000000 1.000000 0.000000
vn 0.000000 1.000000 0.000000
vn 0.000000 1.000000 0.000000
vn 0.000000 1.000000 0.000000
vn 0.000000 1.000000 0.000000
s off
f 14/16/1 15/27/2 16/28/3 13/13/4
f 14/2/5 2/6/6 3/5/7 5/4/8 12/26/9 10/25/10 7/24/11 15/23/12
f 18/29/13 20/58/14 19/59/15 17/60/16
f 13/7/17 16/19/18 8/22/19 9/21/20 11/20/21 6/11/22 4/9/23 1/8/24
f 22/33/25 24/54/26 23/55/27 21/56/28
f 2/1/29 18/57/30 17/48/31 1/52/32
f 1/3/33 17/30/34 19/49/35 13/50/36
f 13/10/37 19/31/38 20/46/39 14/47/40
f 14/12/41 20/32/42 18/45/43 2/51/44
f 8/14/45 22/53/46 21/40/47 7/44/48
f 7/15/49 21/34/50 23/41/51 15/42/52
f 15/17/53 23/35/54 24/38/55 16/39/56
f 16/18/57 24/36/58 22/37/59 8/43/60
f 26/61/61 25/62/62 27/63/63 28/64/64
f 1/65/65 4/66/66 3/67/67 2/68/68 29/69/69
f 3/70/70 4/71/71 6/72/72 5/73/73
f 7/74/74 10/75/75 9/76/76 8/77/77 30/78/78
f 9/79/79 10/80/80 12/81/81 11/82/82
f 12/83/83 32/84/84 5/85/85 25/86/86 26/87/87
f 5/85/88 6/88/89 27/89/90 25/86/91
f 6/88/92 31/90/93 11/91/94 28/92/95 27/89/96
f 11/91/97 12/83/98 26/87/99 28/92/100
