# This file uses meters as units for non-parametric coordinates.

v 5.659443 -0.000000 2.286308
v 5.659443 -0.000000 -2.286304
v 5.659443 2.297120 2.286308
v 5.659443 2.297120 -2.286304
v -5.659443 2.297120 2.286308
v -5.659443 2.297120 -2.286304
v -5.659443 -0.000000 2.286308
v -5.659443 -0.000000 -2.286304
v -2.829721 3.184936 -2.286304
v -2.829721 3.184936 2.286308
v -2.829721 -0.000000 2.286308
v -2.829721 -0.000000 -2.286304
v 2.829721 -0.000000 2.286308
v 2.829721 3.184936 2.286308
v 2.829721 3.184936 -2.286304
v 2.829721 -0.000000 -2.286304
vt 0.200756 0.197868
vt 0.171250 0.197838
vt 0.232013 0.197838
vt 0.200756 0.197868
vt 0.171250 0.197838
vt 0.232013 0.197838
vt 0.136949 0.197838
vt 0.171250 0.197838
vt 0.136949 0.197838
vt 0.136949 0.197838
vt 0.200756 0.197868
vt 0.200756 0.197868
vt 0.200756 0.197868
vt 0.200756 0.197868
vt 0.232013 0.197838
vt 0.171250 0.197838
vt 0.171250 0.197838
vt 0.232013 0.197838
vt 0.200756 0.197868
vt 0.171250 0.197838
vt 0.171250 0.197838
vt 0.200756 0.197868
vt 0.136949 0.197838
vt 0.171250 0.197838
vt 0.267756 0.197838
vt 0.200756 0.197868
vt 0.200756 0.197868
vt 0.232013 0.197838
vt 0.200756 0.197868
vt 0.136949 0.197838
vt 0.136949 0.197838
vt 0.200756 0.197868
vt 0.200756 0.197868
vt 0.136949 0.197838
vt 0.200756 0.197868
vt 0.232013 0.197838
vt 0.232013 0.197838
vt 0.200756 0.197868
vt 0.136949 0.197838
vt 0.200756 0.197868
vt 0.200756 0.197868
vt 0.200756 0.197868
vt 0.200756 0.197868
vt 0.200756 0.197868
vt 0.200756 0.197868
vt 0.200756 0.197868
vt 0.200756 0.197868
vt 0.200756 0.197868
vt 0.267756 0.197838
vt 0.267756 0.197838
vt 0.232013 0.197838
vt 0.267756 0.197838
vn 1.000000 0.000000 0.000000
vn 1.000000 0.000000 0.000000
vn 1.000000 0.000000 0.000000
vn 1.000000 0.000000 0.000000
vn 0.000000 1.000000 0.000000
vn 0.000000 1.000000 0.000000
vn 0.000000 1.000000 0.000000
vn 0.000000 1.000000 0.000000
vn -1.000000 0.000000 0.000000
vn -1.000000 0.000000 0.000000
vn -1.000000 0.000000 0.000000
vn -1.000000 0.000000 0.000000
vn 0.000000 -1.000000 0.000000
vn 0.000000 -1.000000 0.000000
vn 0.000000 -1.000000 0.000000
vn 0.000000 -1.000000 0.000000
vn 0.000000 0.000000 -1.000000
vn 0.000000 0.000000 -1.000000
vn 0.000000 0.000000 -1.000000
vn 0.000000 0.000000 -1.000000
vn 0.000000 0.000000 1.000000
vn 0.000000 0.000000 1.000000
vn 0.000000 0.000000 1.000000
vn 0.000000 0.000000 1.000000
vn -0.299359 0.954141 0.000000
vn -0.299359 0.954141 0.000000
vn -0.299359 0.954141 0.000000
vn -0.299359 0.954141 0.000000
vn 0.000000 0.000000 1.000000
vn 0.000000 0.000000 1.000000
vn 0.000000 0.000000 1.000000
vn 0.000000 0.000000 1.000000
vn 0.000000 -1.000000 0.000000
vn 0.000000 -1.000000 0.000000
vn 0.000000 -1.000000 0.000000
vn 0.000000 -1.000000 0.000000
vn 0.000000 0.000000 -1.000000
vn 0.000000 0.000000 -1.000000
vn 0.000000 0.000000 -1.000000
vn 0.000000 0.000000 -1.000000
vn -0.000000 0.000000 1.000000
vn -0.000000 0.000000 1.000000
vn -0.000000 0.000000 1.000000
vn -0.000000 0.000000 1.000000
vn 0.299359 0.954141 0.000000
vn 0.299359 0.954141 0.000000
vn 0.299359 0.954141 0.000000
vn 0.299359 0.954141 0.000000
vn -0.000000 0.000000 -1.000000
vn -0.000000 0.000000 -1.000000
vn -0.000000 0.000000 -1.000000
vn -0.000000 0.000000 -1.000000
vn 0.000000 -1.000000 0.000000
vn 0.000000 -1.000000 0.000000
vn 0.000000 -1.000000 0.000000
vn 0.000000 -1.000000 0.000000
s off
f 1/20/1 2/2/2 4/21/3 3/17/4
f 15/50/5 9/25/6 10/52/7 14/49/8
f 5/5/9 6/16/10 8/8/11 7/24/12
f 13/34/13 11/30/14 12/31/15 16/39/16
f 16/42/17 12/47/18 9/45/19 15/41/20
f 10/27/21 11/48/22 13/33/23 14/44/24
f 10/28/25 9/51/26 6/6/27 5/18/28
f 7/13/29 11/29/30 10/46/31 5/14/32
f 7/7/33 8/23/34 12/31/35 11/30/36
f 9/26/37 12/32/38 8/11/39 6/12/40
f 14/35/41 13/43/42 1/1/43 3/22/44
f 3/3/45 4/15/46 15/37/47 14/36/48
f 2/19/49 16/40/50 15/38/51 4/4/52
f 13/34/53 16/39/54 2/10/55 1/9/56
v -1.597620 3.184936 1.597622
v 1.597618 3.184936 1.597622
v -1.597620 31.823641 1.597622
v 1.597618 31.823641 1.597622
v -1.597620 31.823641 -1.597617
v 1.597618 31.823641 -1.597617
v -1.597620 3.184936 -1.597617
v 1.597618 3.184936 -1.597617
vt 0.389133 0.065158
vt 0.362671 0.065158
vt 0.423434 0.065158
vt 0.389133 0.065158
vt 0.362672 0.065158
vt 0.423434 0.065158
vt 0.328370 0.065158
vt 0.362671 0.065158
vt 0.328370 0.065158
vt 0.328370 0.065158
vt 0.389133 0.065158
vt 0.389133 0.065158
vt 0.389133 0.065158
vt 0.389133 0.065158
vt 0.423434 0.065158
vt 0.362671 0.065158
vt 0.362672 0.065158
vt 0.423434 0.065158
vt 0.389133 0.065158
vt 0.362672 0.065158
vt 0.362671 0.065158
vt 0.389133 0.065158
vt 0.328370 0.065158
vt 0.362672 0.065158
vn 0.000000 0.000000 1.000000
vn 0.000000 0.000000 1.000000
vn 0.000000 0.000000 1.000000
vn 0.000000 0.000000 1.000000
vn 0.000000 1.000000 0.000000
vn 0.000000 1.000000 0.000000
vn 0.000000 1.000000 0.000000
vn 0.000000 1.000000 0.000000
vn 0.000000 0.000000 -1.000000
vn 0.000000 0.000000 -1.000000
vn 0.000000 0.000000 -1.000000
vn 0.000000 0.000000 -1.000000
vn 0.000000 -1.000000 0.000000
vn 0.000000 -1.000000 0.000000
vn 0.000000 -1.000000 0.000000
vn 0.000000 -1.000000 0.000000
vn 1.000000 0.000000 0.000000
vn 1.000000 0.000000 0.000000
vn 1.000000 0.000000 0.000000
vn 1.000000 0.000000 0.000000
vn -1.000000 0.000000 0.000000
vn -1.000000 0.000000 0.000000
vn -1.000000 0.000000 0.000000
vn -1.000000 0.000000 0.000000
s off
f 17/72/57 18/54/58 20/73/59 19/69/60
f 19/55/61 20/67/62 22/58/63 21/70/64
f 21/57/65 22/68/66 24/60/67 23/76/68
f 23/59/69 24/75/70 18/62/71 17/61/72
f 18/71/73 24/63/74 22/64/75 20/56/76
f 23/65/77 17/53/78 19/74/79 21/66/80
v 13.700603 35.327427 -2.286308
v 13.700603 35.327427 2.286304
v 13.700603 32.153584 -2.286308
v 13.700603 32.153584 2.286304
v -13.700603 32.153584 -2.286308
v -13.700603 32.153584 2.286304
v -13.700603 35.327427 -2.286308
v -13.700603 35.327427 2.286304
v -6.850302 30.926922 2.286304
v -6.850302 30.926922 -2.286308
v -6.850302 35.327427 -2.286308
v -6.850302 35.327427 2.286304
v 6.850302 35.327427 -2.286308
v 6.850302 30.926922 -2.286308
v 6.850302 30.926922 2.286304
v 6.850302 35.327427 2.286304
vt 0.203991 0.197868
vt 0.234275 0.197838
vt 0.171910 0.197838
vt 0.203991 0.197868
vt 0.234275 0.197838
vt 0.171910 0.197838
vt 0.269481 0.197838
vt 0.234275 0.197838
vt 0.269481 0.197838
vt 0.269481 0.197838
vt 0.203991 0.197868
vt 0.203991 0.197868
vt 0.203991 0.197868
vt 0.203991 0.197868
vt 0.171910 0.197838
vt 0.234275 0.197838
vt 0.234275 0.197838
vt 0.171910 0.197838
vt 0.203991 0.197868
vt 0.234275 0.197838
vt 0.234275 0.197838
vt 0.203991 0.197868
vt 0.269481 0.197838
vt 0.234275 0.197838
vt 0.135224 0.197838
vt 0.203991 0.197868
vt 0.203991 0.197868
vt 0.171910 0.197838
vt 0.203991 0.197868
vt 0.269481 0.197838
vt 0.269481 0.197838
vt 0.203991 0.197868
vt 0.203991 0.197868
vt 0.269481 0.197838
vt 0.203991 0.197868
vt 0.171910 0.197838
vt 0.171910 0.197838
vt 0.203991 0.197868
vt 0.269481 0.197838
vt 0.203991 0.197868
vt 0.203991 0.197868
vt 0.203991 0.197868
vt 0.203991 0.197868
vt 0.203991 0.197868
vt 0.203991 0.197868
vt 0.203991 0.197868
vt 0.203991 0.197868
vt 0.203991 0.197868
vt 0.135224 0.197838
vt 0.135224 0.197838
vt 0.171910 0.197838
vt 0.135224 0.197838
vn 1.000000 0.000000 0.000000
vn 1.000000 0.000000 0.000000
vn 1.000000 0.000000 0.000000
vn 1.000000 0.000000 0.000000
vn 0.059583 -0.998223 0.000000
vn -0.059583 -0.998223 0.000000
vn -0.059583 -0.998223 0.000000
vn 0.059583 -0.998223 0.000000
vn -1.000000 0.000000 0.000000
vn -1.000000 0.000000 0.000000
vn -1.000000 0.000000 0.000000
vn -1.000000 0.000000 0.000000
vn 0.000000 1.000000 0.000000
vn 0.000000 1.000000 0.000000
vn 0.000000 1.000000 0.000000
vn 0.000000 1.000000 0.000000
vn -0.000000 0.000000 1.000000
vn 0.000000 0.000000 1.000000
vn 0.000000 0.000000 1.000000
vn -0.000000 0.000000 1.000000
vn 0.000000 0.000000 -1.000000
vn 0.000000 0.000000 -1.000000
vn 0.000000 0.000000 -1.000000
vn 0.000000 0.000000 -1.000000
vn -0.059583 -0.998223 0.000000
vn -0.059583 -0.998223 0.000000
vn -0.176263 -0.984343 0.000000
vn -0.176263 -0.984343 0.000000
vn 0.000000 0.000000 -1.000000
vn 0.000000 0.000000 -1.000000
vn 0.000000 0.000000 -1.000000
vn 0.000000 0.000000 -1.000000
vn 0.000000 1.000000 0.000000
vn 0.000000 1.000000 0.000000
vn 0.000000 1.000000 0.000000
vn 0.000000 1.000000 0.000000
vn 0.000000 0.000000 1.000000
vn 0.000000 0.000000 1.000000
vn 0.000000 0.000000 1.000000
vn 0.000000 0.000000 1.000000
vn 0.000000 0.000000 -1.000000
vn 0.000000 0.000000 -1.000000
vn 0.000000 0.000000 -1.000000
vn 0.000000 0.000000 -1.000000
vn 0.176263 -0.984343 0.000000
vn 0.176263 -0.984343 0.000000
vn 0.059583 -0.998223 0.000000
vn 0.059583 -0.998223 0.000000
vn -0.000000 0.000000 1.000000
vn -0.000000 0.000000 1.000000
vn -0.000000 0.000000 1.000000
vn -0.000000 0.000000 1.000000
vn 0.000000 1.000000 0.000000
vn 0.000000 1.000000 0.000000
vn 0.000000 1.000000 0.000000
vn 0.000000 1.000000 0.000000
s off
f 25/96/81 26/78/82 28/97/83 27/93/84
f 39/126/85 33/101/86 34/128/87 38/125/88
f 29/81/89 30/92/90 32/84/91 31/100/92
f 37/110/93 35/106/94 36/107/95 40/115/96
f 40/118/97 36/123/98 33/121/99 39/117/100
f 34/103/101 35/124/102 37/109/103 38/120/104
f 34/104/105 33/127/106 30/82/107 29/94/108
f 31/89/109 35/105/110 34/122/111 29/90/112
f 31/83/113 32/99/114 36/107/115 35/106/116
f 33/102/117 36/108/118 32/87/119 30/88/120
f 38/111/121 37/119/122 25/77/123 27/98/124
f 27/79/125 28/91/126 39/113/127 38/112/128
f 26/95/129 40/116/130 39/114/131 28/80/132
f 37/110/133 40/115/134 26/86/135 25/85/136
