# This file uses meters as units for non-parametric coordinates.

v 10.000006 0.000000 0.000023
v -10.000001 0.000000 19.999983
v -10.000001 0.000000 18.641586
v 8.641605 0.000000 0.000019
v -10.000001 0.000000 18.201523
v 8.201542 0.000000 0.000019
v -10.000002 -0.000000 -0.000027
v -10.000004 0.000000 0.000002
v -10.000004 0.000000 1.358376
v -8.641603 -0.000000 -0.000023
v -10.000004 0.000000 1.798439
v -8.201540 -0.000000 -0.000023
v -10.000002 0.000000 9.999982
v 0.000002 -0.000000 -0.000004
v -10.000004 0.000000 9.179830
v -0.820154 -0.000000 -0.000006
v -10.000004 0.000000 7.703550
v -2.296431 -0.000000 -0.000013
v -10.000002 0.000000 10.820136
v 0.820154 -0.000000 -0.000002
v -10.000002 0.000000 12.296414
v 2.296431 0.000000 0.000002
v -10.000002 0.000000 13.477435
v 3.477453 0.000000 0.000004
v -10.000004 0.000000 6.522528
v -3.477453 -0.000000 -0.000013
v -10.000004 0.000000 5.105302
v -4.894678 -0.000000 -0.000017
v -10.000000 0.000000 14.894663
v 4.894682 0.000000 0.000008
v -10.000000 0.000000 16.548092
v 6.548111 0.000000 0.000013
v -10.000004 0.000000 3.451870
v -6.548111 -0.000000 -0.000021
v -10.000004 0.000000 0.000002
v -9.047564 0.000000 0.980047
v -8.736391 0.000000 1.291220
v -7.567240 0.000000 2.460371
v -6.398087 0.000000 3.629522
v -5.395960 0.000000 4.631653
v -4.560850 0.000000 5.466763
v -3.516966 0.000000 6.510649
v -2.937027 0.000000 7.090586
v -2.357092 0.000000 7.670521
v -1.313204 0.000000 8.714409
v -0.478094 0.000000 9.549519
v 0.524035 0.000000 10.551647
v 1.693184 0.000000 11.720802
v 2.862337 0.000000 12.889954
v 3.173508 0.000000 13.201126
v 10.000004 0.000000 20.027618
v -10.000004 0.000000 0.000002
v -9.497223 0.000000 1.280502
v -9.328819 0.000000 1.687065
v -8.696075 0.000000 3.214636
v -8.063334 0.000000 4.742208
v -7.520985 0.000000 6.051552
v -7.069025 0.000000 7.142673
v -6.504078 0.000000 8.506577
v -6.190218 0.000000 9.264300
v -5.876358 0.000000 10.022024
v -5.311409 0.000000 11.385926
v -4.859451 0.000000 12.477050
v -4.317101 0.000000 13.786396
v -3.684361 -0.000000 15.313964
v -3.051617 -0.000000 16.841536
v -2.883213 -0.000000 17.248100
v -2.363375 -0.000000 20.027617
v -10.000004 0.000000 0.000002
v -8.747108 -0.000000 0.530388
v -8.340546 -0.000000 0.698792
v -6.812973 -0.000000 1.331533
v -5.285402 -0.000000 1.964277
v -3.976059 -0.000000 2.506628
v -2.884935 -0.000000 2.958586
v -1.521038 -0.000000 3.523535
v -0.763311 0.000000 3.837395
v -0.005590 0.000000 4.151257
v 1.358313 0.000000 4.716204
v 2.449434 0.000000 5.168163
v 3.758780 0.000000 5.710514
v 5.286350 0.000000 6.343258
v 6.813921 0.000000 6.976004
v 7.220486 0.000000 7.144407
v 10.000004 0.000000 7.664246
vt 0.169016 0.064148
vt 0.169016 0.064148
vt 0.169016 0.064148
vt 0.169016 0.064148
vt 0.174755 0.064176
vt 0.174755 0.064176
vt 0.389062 0.063031
vt 0.389062 0.063031
vt 0.389062 0.063031
vt 0.389062 0.063031
vt 0.174755 0.064176
vt 0.174755 0.064176
vt 0.169016 0.064148
vt 0.169016 0.064148
vt 0.169016 0.064148
vt 0.169016 0.064148
vt 0.389062 0.063031
vt 0.389062 0.063031
vt 0.389062 0.063031
vt 0.389062 0.063031
vt 0.156268 0.064176
vt 0.124936 0.064176
vt 0.138515 0.064176
vt 0.156268 0.064176
vt 0.124936 0.064176
vt 0.138515 0.064176
vt 0.124936 0.064176
vt 0.156268 0.064176
vt 0.156268 0.064176
vt 0.124936 0.064176
vt 0.124936 0.064176
vt 0.138515 0.064176
vt 0.156268 0.064176
vt 0.124936 0.064176
vt 0.138515 0.064176
vt 0.156268 0.064176
vt 0.138515 0.064176
vt 0.156268 0.064176
vt 0.156268 0.064176
vt 0.174755 0.064176
vt 0.174755 0.064176
vt 0.138515 0.064176
vt 0.124936 0.064176
vt 0.156268 0.064176
vt 0.124936 0.064176
vt 0.138515 0.064176
vt 0.124936 0.064176
vt 0.124936 0.064176
vt 0.156268 0.064176
vt 0.156268 0.064176
vt 0.124936 0.064176
vt 0.124936 0.064176
vt 0.138515 0.064176
vt 0.156268 0.064176
vt 0.138515 0.064176
vt 0.174755 0.064176
vt 0.138515 0.064176
vt 0.156268 0.064176
vt 0.138515 0.064176
vt 0.156268 0.064176
vt 0.138515 0.064176
vt 0.156268 0.064176
vt 0.174755 0.064176
vt 0.156268 0.064176
vt 0.169016 0.064148
vt 0.169016 0.064148
vt 0.389062 0.063031
vt 0.389062 0.063031
vt 0.174755 0.064176
vt 0.174755 0.064176
vt 0.138515 0.064176
vt 0.138515 0.064176
vt 0.156268 0.064176
vt 0.156268 0.064176
vt 0.124936 0.064176
vt 0.124936 0.064176
vt 0.138515 0.064176
vt 0.138515 0.064176
vt 0.156268 0.064176
vt 0.156268 0.064176
vt 0.124936 0.064176
vt 0.124936 0.064176
vt 0.156268 0.064176
vt 0.156268 0.064176
vt 0.124936 0.064176
vt 0.124936 0.064176
vt 0.138515 0.064176
vt 0.138515 0.064176
vt 0.156268 0.064176
vt 0.156268 0.064176
vt 0.174755 0.064176
vt 0.174755 0.064176
vt 0.389062 0.063031
vt 0.389062 0.063031
vt 0.169016 0.064148
vt 0.169016 0.064148
vt 0.169016 0.064148
vt 0.169016 0.064148
vt 0.389062 0.063031
vt 0.389062 0.063031
vt 0.174755 0.064176
vt 0.174755 0.064176
vt 0.138515 0.064176
vt 0.138515 0.064176
vt 0.156268 0.064176
vt 0.156268 0.064176
vt 0.124936 0.064176
vt 0.124936 0.064176
vt 0.138515 0.064176
vt 0.138515 0.064176
vt 0.156268 0.064176
vt 0.156268 0.064176
vt 0.124936 0.064176
vt 0.124936 0.064176
vt 0.156268 0.064176
vt 0.156268 0.064176
vt 0.124936 0.064176
vt 0.124936 0.064176
vt 0.138515 0.064176
vt 0.138515 0.064176
vt 0.156268 0.064176
vt 0.156268 0.064176
vt 0.174755 0.064176
vt 0.174755 0.064176
vt 0.389062 0.063031
vt 0.389062 0.063031
vt 0.169016 0.064148
vt 0.169016 0.064148
vt 0.169016 0.064148
vt 0.169016 0.064148
vt 0.389062 0.063031
vt 0.389062 0.063031
vt 0.174755 0.064176
vt 0.174755 0.064176
vt 0.138515 0.064176
vt 0.138515 0.064176
vt 0.156268 0.064176
vt 0.156268 0.064176
vt 0.124936 0.064176
vt 0.124936 0.064176
vt 0.138515 0.064176
vt 0.138515 0.064176
vt 0.156268 0.064176
vt 0.156268 0.064176
vt 0.124936 0.064176
vt 0.124936 0.064176
vt 0.156268 0.064176
vt 0.156268 0.064176
vt 0.124936 0.064176
vt 0.124936 0.064176
vt 0.138515 0.064176
vt 0.138515 0.064176
vt 0.156268 0.064176
vt 0.156268 0.064176
vt 0.174755 0.064176
vt 0.174755 0.064176
vt 0.389062 0.063031
vt 0.389062 0.063031
vt 0.169016 0.064148
vt 0.169016 0.064148
vn -0.000000 1.000000 0.000000
vn -0.000000 1.000000 0.000000
vn -0.000000 1.000000 0.000000
vn -0.000000 1.000000 0.000000
vn -0.000000 1.000000 0.000000
vn -0.000000 1.000000 -0.000000
vn 0.000000 1.000000 -0.000000
vn 0.000000 1.000000 -0.000000
vn -0.000000 1.000000 -0.000000
vn 0.000000 1.000000 -0.000000
vn 0.000000 1.000000 -0.000000
vn 0.000000 1.000000 -0.000000
vn 0.000000 1.000000 -0.000000
vn 0.000000 1.000000 -0.000000
vn -0.000000 1.000000 -0.000000
vn -0.000000 1.000000 -0.000000
vn -0.000000 1.000000 -0.000000
vn -0.000000 1.000000 -0.000000
vn -0.000000 1.000000 -0.000000
vn -0.000000 1.000000 -0.000000
vn -0.000000 1.000000 -0.000000
vn -0.000000 1.000000 -0.000000
vn -0.000000 1.000000 -0.000000
vn -0.000000 1.000000 -0.000000
vn -0.000000 1.000000 -0.000000
vn -0.000000 1.000000 -0.000000
vn -0.000000 1.000000 -0.000000
vn -0.000000 1.000000 -0.000000
vn 0.000000 1.000000 -0.000000
vn -0.000000 1.000000 -0.000000
vn 0.000000 1.000000 -0.000000
vn -0.000000 1.000000 -0.000000
vn -0.000000 1.000000 0.000000
vn -0.000000 1.000000 -0.000000
vn 0.000000 1.000000 -0.000000
vn 0.000000 0.000000 -0.000000
vn -0.000000 0.000000 -0.000000
vn -0.000000 1.000000 -0.000000
vn -0.000000 1.000000 -0.000000
vn 0.000000 1.000000 -0.000000
vn -0.000000 1.000000 -0.000000
vn 0.000000 1.000000 -0.000000
vn -0.000000 1.000000 -0.000000
vn 0.000000 1.000000 -0.000000
vn -0.000000 1.000000 0.000000
vn 0.000000 1.000000 -0.000000
vn -0.000000 1.000000 0.000000
vn 0.000000 1.000000 -0.000000
vn -0.000000 1.000000 0.000000
vn 0.000000 1.000000 -0.000000
vn -0.000000 1.000000 0.000000
vn 0.000000 1.000000 -0.000000
vn -0.000000 1.000000 0.000000
vn 0.000000 1.000000 -0.000000
vn -0.000000 1.000000 0.000000
vn 0.000000 1.000000 -0.000000
vn -0.000000 1.000000 0.000000
vn -0.000000 1.000000 0.000000
vn -0.000000 1.000000 0.000000
vn -0.000000 1.000000 0.000000
vn -0.000000 1.000000 0.000000
vn -0.000000 1.000000 0.000000
vn -0.000000 1.000000 0.000000
vn 0.000000 1.000000 0.000000
vn -0.000000 1.000000 0.000000
vn -0.000000 1.000000 0.000000
vn -0.000000 1.000000 0.000000
vn -0.000000 1.000000 0.000000
vn -0.000000 0.000000 0.000000
vn -0.000000 1.000000 0.000000
vn -0.000000 1.000000 0.000000
vn -0.000000 1.000000 0.000000
vn -0.000000 1.000000 0.000000
vn -0.000000 1.000000 0.000000
vn -0.000000 1.000000 0.000000
vn -0.000000 1.000000 0.000000
vn -0.000000 1.000000 0.000000
vn -0.000000 1.000000 0.000000
vn -0.000000 1.000000 0.000000
vn -0.000000 1.000000 0.000000
vn -0.000000 1.000000 0.000000
vn 0.000000 1.000000 0.000000
vn 0.000000 1.000000 0.000000
vn 0.000000 1.000000 0.000000
vn 0.000000 1.000000 0.000000
s 1
f 1/1/1 4/4/2 84/159/3 85/160/4
f 83/157/5 84/158/3 4/8/2 6/9/6
f 71/133/7 72/134/8 34/56/9 12/12/10
f 7/13/11 69/129/12 70/130/13 10/16/14
f 70/131/13 71/132/7 12/19/10 10/20/14
f 77/145/15 78/146/16 20/51/17 14/22/18
f 76/143/19 77/144/15 14/54/18 16/24/20
f 75/141/21 76/142/19 16/61/20 18/26/22
f 78/147/16 79/148/23 22/49/24 20/28/17
f 79/149/23 80/150/25 24/47/26 22/30/24
f 80/151/25 81/152/27 30/59/28 24/32/26
f 74/139/29 75/140/21 18/45/22 26/34/30
f 73/137/31 74/138/29 26/44/30 28/36/32
f 81/153/27 82/154/33 32/64/34 30/38/28
f 6/6/6 32/40/34 82/155/33 83/156/5
f 72/135/8 73/136/31 28/57/32 34/42/9
f 36/66/35 35/65/36 52/97/37 53/98/38
f 53/99/38 54/100/39 37/68/40 36/67/35
f 54/101/39 55/102/41 38/70/42 37/69/40
f 55/103/41 56/104/43 39/72/44 38/71/42
f 56/105/43 57/106/45 40/74/46 39/73/44
f 57/107/45 58/108/47 41/76/48 40/75/46
f 58/109/47 59/110/49 42/78/50 41/77/48
f 59/111/49 60/112/51 43/80/52 42/79/50
f 60/113/51 61/114/53 44/82/54 43/81/52
f 61/115/53 62/116/55 45/84/56 44/83/54
f 62/117/55 63/118/57 46/86/58 45/85/56
f 63/119/57 64/120/59 47/88/60 46/87/58
f 64/121/59 65/122/61 48/90/62 47/89/60
f 49/92/63 48/91/62 65/123/61 66/124/64
f 66/125/64 67/126/65 50/94/66 49/93/63
f 51/96/67 50/95/66 67/127/65 68/128/68
f 53/98/38 52/97/37 8/14/69 9/15/70
f 9/17/70 11/18/71 54/100/39 53/99/38
f 33/41/72 55/102/41 54/101/39 11/11/71
f 27/35/73 56/104/43 55/103/41 33/55/72
f 25/33/74 57/106/45 56/105/43 27/60/73
f 17/25/75 58/108/47 57/107/45 25/43/74
f 15/23/76 59/110/49 58/109/47 17/53/75
f 13/21/77 60/112/51 59/111/49 15/62/76
f 19/27/78 61/114/53 60/113/51 13/52/77
f 21/29/79 62/116/55 61/115/53 19/50/78
f 23/31/80 63/118/57 62/117/55 21/48/79
f 29/37/81 64/120/59 63/119/57 23/46/80
f 31/39/82 65/122/61 64/121/59 29/58/81
f 66/124/64 65/123/61 31/63/82 5/5/83
f 3/7/84 67/126/65 66/125/64 5/10/83
f 68/128/68 67/127/65 3/3/84 2/2/85
f 70/130/13 69/129/12 35/65/36 36/66/35
f 36/67/35 37/68/40 71/132/7 70/131/13
f 37/69/40 38/70/42 72/134/8 71/133/7
f 38/71/42 39/72/44 73/136/31 72/135/8
f 39/73/44 40/74/46 74/138/29 73/137/31
f 40/75/46 41/76/48 75/140/21 74/139/29
f 41/77/48 42/78/50 76/142/19 75/141/21
f 42/79/50 43/80/52 77/144/15 76/143/19
f 43/81/52 44/82/54 78/146/16 77/145/15
f 44/83/54 45/84/56 79/148/23 78/147/16
f 45/85/56 46/86/58 80/150/25 79/149/23
f 46/87/58 47/88/60 81/152/27 80/151/25
f 47/89/60 48/90/62 82/154/33 81/153/27
f 83/156/5 82/155/33 48/91/62 49/92/63
f 49/93/63 50/94/66 84/158/3 83/157/5
f 85/160/4 84/159/3 50/95/66 51/96/67
