# This file uses meters as units for non-parametric coordinates.

v -30.000004 0.000000 9.999981
v 0.000000 0.000000 9.999981
v -30.000004 0.000000 -0.000004
v 0.000000 0.000000 -0.000004
v -8.641602 0.000000 -0.000004
v -8.641602 0.000000 9.999981
v -8.201538 0.000000 -0.000004
v -8.201538 0.000000 9.999981
v -27.909401 0.000000 8.613140
v -21.152870 0.000000 8.613140
v -21.152870 0.000000 5.753735
v -27.909401 0.000000 5.753735
v -27.257757 0.000000 7.916187
v -21.804514 0.000000 7.916187
v -21.804514 0.000000 5.753735
v -27.257757 0.000000 5.753735
vt 0.169016 0.064148
vt 0.169016 0.064148
vt 0.169016 0.064148
vt 0.169016 0.064148
vt 0.169016 0.064148
vt 0.169016 0.064148
vt 0.169016 0.064148
vt 0.169016 0.064148
vt 0.391383 0.061990
vt 0.391383 0.061990
vt 0.391383 0.061990
vt 0.391383 0.061990
vt 0.234152 0.220016
vt 0.234152 0.220016
vt 0.169016 0.064148
vt 0.234152 0.220016
vt 0.169016 0.064148
vt 0.234152 0.220016
vt 0.169016 0.064148
vt 0.234152 0.220016
vt 0.234152 0.220016
vt 0.234152 0.220016
vt 0.169016 0.064148
vt 0.169016 0.064148
vt 0.234152 0.220016
vt 0.234152 0.220016
vt 0.169016 0.064148
vt 0.234152 0.220016
vt 0.169016 0.064148
vt 0.234152 0.220016
vt 0.169016 0.064148
vt 0.234152 0.220016
vn 0.000000 1.000000 0.000000
vn 0.000000 1.000000 0.000000
vn 0.000000 1.000000 0.000000
vn 0.000000 1.000000 0.000000
vn 0.000000 1.000000 0.000000
vn 0.000000 1.000000 0.000000
vn 0.000000 1.000000 0.000000
vn 0.000000 1.000000 0.000000
vn 0.000000 1.000000 0.000000
vn 0.000000 1.000000 0.000000
vn 0.000000 1.000000 0.000000
vn 0.000000 1.000000 0.000000
vn 0.000000 1.000000 0.000000
vn 0.000000 1.000000 0.000000
vn 0.000000 1.000000 0.000000
vn 0.000000 1.000000 0.000000
vn 0.000000 1.000000 0.000000
vn 0.000000 1.000000 0.000000
vn 0.000000 1.000000 0.000000
vn 0.000000 1.000000 0.000000
vn 0.000000 1.000000 0.000000
vn 0.000000 1.000000 0.000000
vn 0.000000 1.000000 0.000000
vn 0.000000 1.000000 0.000000
vn 0.000000 1.000000 0.000000
vn 0.000000 1.000000 0.000000
vn 0.000000 1.000000 0.000000
vn 0.000000 1.000000 0.000000
vn 0.000000 1.000000 0.000000
vn 0.000000 1.000000 0.000000
vn 0.000000 1.000000 0.000000
vn 0.000000 1.000000 0.000000
vn 0.000000 1.000000 0.000000
vn 0.000000 1.000000 0.000000
vn 0.000000 1.000000 0.000000
vn 0.000000 1.000000 0.000000
vn 0.000000 1.000000 0.000000
vn 0.000000 1.000000 0.000000
vn 0.000000 1.000000 0.000000
vn 0.000000 1.000000 0.000000
vn 0.000000 1.000000 0.000000
vn 0.000000 1.000000 0.000000
s off
f 7/7/1 8/8/2 2/3/3 4/2/4
f 13/17/5 14/27/6 15/19/7 16/23/8
f 5/9/9 6/10/10 8/11/11 7/12/12
f 1/1/13 6/6/14 10/29/15 9/31/16
f 6/6/17 5/5/18 11/15/19 10/29/20
f 11/15/21 5/5/22 3/4/23 12/24/24 16/23/25 15/19/26
f 3/4/27 1/1/28 9/31/29 12/24/30
f 9/13/31 10/30/32 14/26/33 13/21/34
f 10/14/35 11/28/36 15/25/37 14/18/38
f 12/16/39 9/32/40 13/22/41 16/20/42
