# This file uses meters as units for non-parametric coordinates.

v -3.018476 -0.000000 3.018465
v 3.018478 -0.000000 3.018454
v -3.018476 0.079345 3.018465
v 3.018478 0.079345 3.018454
v -3.018476 0.079345 -3.018475
v 3.018478 0.079345 -3.018488
v -3.018476 -0.000000 -3.018475
v 3.018478 -0.000000 -3.018488
v -2.508342 0.079345 2.508324
v 2.508343 0.079345 2.508312
v 2.508343 0.079345 -2.508368
v -2.508342 0.079345 -2.508358
v -1.247979 0.079345 2.094975
v 1.247980 0.079345 2.094963
v 1.247980 0.079345 -2.094995
v -1.247979 0.079345 -2.094982
v 1.247980 0.079345 0.769981
v 1.247980 0.079345 -0.770023
v -1.247979 0.079345 0.769991
v -1.247979 0.079345 -0.770014
v 0.000000 0.079345 2.094963
v 0.000000 0.079345 0.769981
v 0.000000 0.079345 -0.770023
v 0.000000 0.079345 -2.094995
vt 0.172297 0.061486
vt 0.172297 0.061486
vt 0.197415 0.087423
vt 0.172297 0.061486
vt 0.172297 0.061486
vt 0.197415 0.087423
vt 0.106603 0.087423
vt 0.172297 0.061486
vt 0.106603 0.087423
vt 0.106603 0.087423
vt 0.172297 0.061486
vt 0.172297 0.061486
vt 0.172297 0.061486
vt 0.295864 0.375945
vt 0.197415 0.087423
vt 0.197415 0.087423
vt 0.295864 0.375945
vt 0.197415 0.087423
vt 0.106603 0.087423
vt 0.197415 0.087423
vt 0.295864 0.375945
vt 0.197415 0.087423
vt 0.295864 0.375945
vt 0.197415 0.087423
vt 0.295864 0.375945
vt 0.295864 0.375945
vt 0.295864 0.375945
vt 0.295864 0.375945
vt 0.295864 0.375945
vt 0.295864 0.375945
vt 0.295864 0.375945
vt 0.295864 0.375945
vt 0.295864 0.375945
vt 0.295864 0.375944
vt 0.295864 0.375945
vt 0.295864 0.375944
vt 0.295864 0.375945
vt 0.295864 0.375945
vt 0.295864 0.375944
vt 0.295864 0.375945
vt 0.486365 0.376808
vt 0.486365 0.376808
vt 0.486365 0.376808
vt 0.486365 0.376808
vt 0.486365 0.376808
vt 0.486365 0.376808
vt 0.486365 0.376808
vt 0.486365 0.376808
vt 0.486365 0.376808
vt 0.486365 0.376808
vt 0.486365 0.376808
vt 0.295864 0.375944
vt 0.295864 0.375945
vt 0.295864 0.375945
vt 0.295864 0.375945
vt 0.295864 0.375945
vt 0.295864 0.375945
vt 0.486365 0.376808
vt 0.295864 0.375944
vt 0.295864 0.375944
vt 0.295864 0.375944
vt 0.295864 0.375944
vt 0.295864 0.375945
vt 0.295864 0.375945
vt 0.295864 0.375945
vt 0.295864 0.375945
vt 0.295864 0.375945
vt 0.295864 0.375945
vt 0.295864 0.375945
vt 0.295864 0.375945
vt 0.295864 0.375945
vt 0.295864 0.375945
vn 0.000002 0.000000 1.000000
vn 0.000002 0.000000 1.000000
vn 0.000002 0.000000 1.000000
vn 0.000002 0.000000 1.000000
vn 0.000000 1.000000 0.000000
vn 0.000000 1.000000 0.000000
vn 0.000000 1.000000 0.000000
vn -0.000002 0.000000 -1.000000
vn -0.000002 0.000000 -1.000000
vn -0.000002 0.000000 -1.000000
vn -0.000002 0.000000 -1.000000
vn 0.000000 -1.000000 0.000000
vn 0.000000 -1.000000 0.000000
vn 0.000000 -1.000000 0.000000
vn 0.000000 -1.000000 0.000000
vn 1.000000 0.000000 0.000000
vn 1.000000 0.000000 0.000000
vn 1.000000 0.000000 0.000000
vn 1.000000 0.000000 0.000000
vn -1.000000 0.000000 0.000000
vn -1.000000 0.000000 0.000000
vn -1.000000 0.000000 0.000000
vn -1.000000 0.000000 0.000000
vn 0.000000 1.000000 0.000000
vn 0.000000 1.000000 0.000000
vn 0.000000 1.000000 0.000000
vn 0.000000 1.000000 0.000000
vn 0.000000 1.000000 0.000000
vn 0.000000 1.000000 0.000000
vn 0.000000 1.000000 0.000000
vn 0.000000 1.000000 0.000000
vn 0.000000 1.000000 -0.000000
vn 0.000000 1.000000 -0.000000
vn 0.000000 1.000000 -0.000000
vn 0.000000 1.000000 -0.000000
vn 0.000000 1.000000 0.000000
vn 0.000000 1.000000 0.000000
vn 0.000000 1.000000 0.000000
vn 0.000000 1.000000 0.000000
vn 0.000000 1.000000 -0.000000
vn 0.000000 1.000000 -0.000000
vn 0.000000 1.000000 -0.000000
vn 0.000000 1.000000 -0.000000
vn 0.000000 1.000000 -0.000000
vn 0.000000 1.000000 0.000000
vn 0.000000 1.000000 0.000000
vn 0.000000 1.000000 0.000000
vn 0.000000 1.000000 0.000000
vn 0.000000 1.000000 0.000000
vn 0.000000 1.000000 0.000000
vn 0.000000 1.000000 0.000000
vn 0.000000 1.000000 0.000000
vn 0.000000 1.000000 0.000000
vn 0.000000 1.000000 0.000000
vn 0.000000 1.000000 0.000000
vn 0.000000 1.000000 0.000000
vn 0.000000 1.000000 0.000000
vn 0.000000 1.000000 0.000000
vn 0.000000 1.000000 0.000000
vn 0.000000 1.000000 0.000000
vn 0.000000 1.000000 0.000000
vn 0.000000 1.000000 0.000000
vn 0.000000 1.000000 0.000000
vn 0.000000 1.000000 0.000000
vn 0.000000 1.000000 0.000000
vn 0.000000 1.000000 0.000000
vn 0.000000 1.000000 0.000000
vn 0.000000 1.000000 0.000000
vn 0.000000 1.000000 0.000000
vn 0.000000 1.000000 0.000000
vn 0.000000 1.000000 0.000000
vn 0.000000 1.000000 0.000000
vn 0.000000 1.000000 0.000000
vn 0.000000 1.000000 0.000000
vn 0.000000 1.000000 0.000000
vn 0.000000 1.000000 0.000000
vn 0.000000 1.000000 0.000000
vn 0.000000 1.000000 0.000000
vn 0.000000 1.000000 0.000000
vn 0.000000 1.000000 0.000000
vn 0.000000 1.000000 0.000000
vn 0.000000 1.000000 0.000000
vn 0.000000 1.000000 0.000000
vn 0.000000 1.000000 0.000000
vn 0.000000 1.000000 0.000000
vn 0.000000 1.000000 0.000000
vn 0.000000 1.000000 0.000000
vn 0.000000 1.000000 0.000000
vn 0.000000 1.000000 0.000000
vn 0.000000 1.000000 0.000000
vn 0.000000 1.000000 0.000000
vn 0.000000 1.000000 0.000000
vn 0.000000 1.000000 0.000000
vn 0.000000 1.000000 0.000000
s off
f 1/1/1 2/2/2 4/4/3 3/5/4
f 13/29/5 21/64/6 19/35/7
f 5/8/8 6/11/9 8/12/10 7/13/11
f 7/7/12 8/19/13 2/10/14 1/9/15
f 2/2/16 8/12/17 6/11/18 4/4/19
f 7/13/20 1/1/21 3/5/22 5/8/23
f 3/3/24 4/15/25 10/20/26 9/16/27
f 4/15/28 6/6/29 11/22/30 10/20/31
f 6/6/32 5/18/33 12/24/34 11/22/35
f 5/18/36 3/3/37 9/16/38 12/24/39
f 9/25/40 10/17/41 14/70/42 21/63/43 13/71/44
f 10/26/45 11/21/46 15/55/47 18/59/48 17/67/49 14/69/50
f 11/27/51 12/23/52 16/54/53 24/40/54 15/31/55
f 12/28/56 9/14/57 13/72/58 19/65/59 20/61/60 16/53/61
f 20/62/62 23/52/63 16/32/64
f 20/41/65 22/58/66 23/51/67
f 17/68/68 21/37/69 14/30/70
f 23/51/71 22/58/72 18/44/73
f 15/56/74 23/39/75 18/34/76
f 22/42/77 21/45/78 17/46/79
f 19/47/80 21/45/81 22/42/82
f 19/66/83 22/57/84 20/36/85
f 18/60/86 22/38/87 17/33/88
f 24/48/89 23/43/90 15/49/91
f 16/50/92 23/43/93 24/48/94
