# This file uses meters as units for non-parametric coordinates.

v -9.999996 -0.000000 -0.005884
v -9.999981 0.000000 9.999945
v 0.000004 0.000000 -0.000002
v -8.641598 -0.000000 -0.005083
v -9.999981 0.000000 1.358335
v -8.201534 -0.000000 -0.004824
v -9.999985 0.000000 1.798407
v 10.000000 0.000000 0.005888
v -9.999981 0.000000 19.999945
v -9.999981 0.000000 18.641546
v 8.641607 0.000000 0.005087
v -9.999989 0.000000 18.201483
v 8.201540 0.000000 0.004827
v 4.100773 0.000000 0.002409
v -9.999981 0.000000 14.100714
v -4.100765 -0.000000 -0.002413
v -9.999981 -0.000000 5.899172
v -2.050381 -0.000000 -0.001207
v -9.999981 0.000000 7.949560
v 2.050388 0.000000 0.001211
v -9.999981 0.000000 12.050329
v 1.025204 0.000000 0.000601
v -9.999989 0.000000 11.025137
v -1.025188 -0.000000 -0.000605
v -9.999981 0.000000 8.974752
v -6.151150 -0.000000 -0.003618
v -9.999981 -0.000000 3.848787
v -3.075573 -0.000000 -0.001802
v -9.999985 0.000000 6.924368
v 3.075581 0.000000 0.001814
v -9.999985 0.000000 13.075525
v 6.151159 0.000000 0.003622
v -9.999981 0.000000 16.151098
v 4.126099 0.000000 14.163206
v 3.166130 0.000000 13.202108
v 2.855139 0.000000 12.890760
v 1.406155 0.000000 11.440062
v -0.042835 0.000000 9.989370
v -0.767334 0.000000 9.264029
v -1.491829 0.000000 8.538679
v -2.216320 0.000000 7.813337
v -2.940819 0.000000 7.087988
v -3.665310 0.000000 6.362638
v -4.389809 0.000000 5.637297
v -5.114300 0.000000 4.911947
v -5.838795 0.000000 4.186602
v -7.287788 0.000000 2.735914
v -8.736774 0.000000 1.285215
v -9.047768 0.000000 0.973867
v 8.471083 0.000000 7.668745
v 7.216391 0.000000 7.148169
v 6.809925 0.000000 6.979525
v 4.916077 0.000000 6.193762
v 3.022230 0.000000 5.408003
v 2.075306 0.000000 5.015120
v 1.128384 0.000000 4.622240
v 0.181458 0.000000 4.229361
v -0.765469 0.000000 3.836477
v -1.712391 0.000000 3.443598
v -2.659313 0.000000 3.050718
v -3.606239 0.000000 2.657835
v -4.553158 0.000000 2.264952
v -6.447006 -0.000000 1.479193
v -8.340855 -0.000000 0.693434
v -8.747318 -0.000000 0.524786
v -2.373463 0.000000 18.500563
v -2.892567 0.000000 17.245260
v -3.060734 0.000000 16.838598
v -3.844265 0.000000 14.943830
v -4.627804 0.000000 13.049063
v -5.019573 0.000000 12.101675
v -5.411343 0.000000 11.154295
v -5.803112 0.000000 10.206907
v -6.194881 0.000000 9.259520
v -6.586651 0.000000 8.312140
v -6.978420 0.000000 7.364752
v -7.370190 0.000000 6.417372
v -7.761955 0.000000 5.469984
v -8.545490 0.000000 3.575216
v -9.329029 0.000000 1.680449
v -9.497196 0.000000 1.273787
vt 0.265537 0.047527
vt 0.233583 0.047527
vt 0.233583 0.047527
vt 0.265537 0.047527
vt 0.265537 0.047527
vt 0.265537 0.047527
vt 0.265537 0.047527
vt 0.265537 0.047527
vt 0.325905 0.046099
vt 0.325905 0.046099
vt 0.325905 0.046099
vt 0.325905 0.046099
vt 0.265537 0.047527
vt 0.265537 0.047527
vt 0.233583 0.047527
vt 0.233583 0.047527
vt 0.265537 0.047527
vt 0.265537 0.047527
vt 0.265537 0.047527
vt 0.265537 0.047527
vt 0.325897 0.046099
vt 0.325897 0.046099
vt 0.325897 0.046099
vt 0.325897 0.046099
vt 0.233583 0.047527
vt 0.201630 0.047527
vt 0.201630 0.047527
vt 0.233583 0.047527
vt 0.265536 0.047527
vt 0.233583 0.047527
vt 0.233583 0.047527
vt 0.265536 0.047527
vt 0.265536 0.047527
vt 0.233583 0.047527
vt 0.233583 0.047527
vt 0.265536 0.047527
vt 0.233583 0.047527
vt 0.265537 0.047527
vt 0.233583 0.047527
vt 0.201630 0.047527
vt 0.201630 0.047527
vt 0.233583 0.047527
vt 0.265537 0.047527
vt 0.233583 0.047527
vt 0.233583 0.047527
vt 0.265537 0.047527
vt 0.233583 0.047527
vt 0.201630 0.047527
vt 0.233583 0.047527
vt 0.201630 0.047527
vt 0.233583 0.047527
vt 0.265536 0.047527
vt 0.201630 0.047527
vt 0.233583 0.047527
vt 0.265536 0.047527
vt 0.233583 0.047527
vt 0.265537 0.047527
vt 0.233583 0.047527
vt 0.201630 0.047527
vt 0.233583 0.047527
vt 0.265536 0.047527
vt 0.233583 0.047527
vt 0.233583 0.047527
vt 0.265536 0.047527
vt 0.265537 0.047527
vt 0.325897 0.046099
vt 0.265537 0.047527
vt 0.265537 0.047527
vt 0.325897 0.046099
vt 0.265537 0.047527
vt 0.233583 0.047527
vt 0.233583 0.047527
vt 0.201630 0.047527
vt 0.201630 0.047527
vt 0.233583 0.047527
vt 0.233583 0.047527
vt 0.265536 0.047527
vt 0.265536 0.047527
vt 0.233583 0.047527
vt 0.233583 0.047527
vt 0.233583 0.047527
vt 0.233583 0.047527
vt 0.265536 0.047527
vt 0.265536 0.047527
vt 0.233583 0.047527
vt 0.233583 0.047527
vt 0.201630 0.047527
vt 0.201630 0.047527
vt 0.233583 0.047527
vt 0.233583 0.047527
vt 0.265537 0.047527
vt 0.265537 0.047527
vt 0.325905 0.046099
vt 0.325905 0.046099
vt 0.265537 0.047527
vt 0.265537 0.047527
vt 0.325897 0.046099
vt 0.265537 0.047527
vt 0.265537 0.047527
vt 0.325897 0.046099
vt 0.265537 0.047527
vt 0.233583 0.047527
vt 0.233583 0.047527
vt 0.201630 0.047527
vt 0.201630 0.047527
vt 0.233583 0.047527
vt 0.233583 0.047527
vt 0.265536 0.047527
vt 0.265536 0.047527
vt 0.233583 0.047527
vt 0.233583 0.047527
vt 0.233583 0.047527
vt 0.233583 0.047527
vt 0.265536 0.047527
vt 0.265536 0.047527
vt 0.233583 0.047527
vt 0.233583 0.047527
vt 0.201630 0.047527
vt 0.201630 0.047527
vt 0.233583 0.047527
vt 0.233583 0.047527
vt 0.265537 0.047527
vt 0.265537 0.047527
vt 0.325905 0.046099
vt 0.325905 0.046099
vt 0.265537 0.047527
vt 0.265537 0.047527
vt 0.325897 0.046099
vt 0.265537 0.047527
vt 0.265537 0.047527
vt 0.325897 0.046099
vt 0.265537 0.047527
vt 0.233583 0.047527
vt 0.233583 0.047527
vt 0.201630 0.047527
vt 0.201630 0.047527
vt 0.233583 0.047527
vt 0.233583 0.047527
vt 0.265536 0.047527
vt 0.265536 0.047527
vt 0.233583 0.047527
vt 0.233583 0.047527
vt 0.233583 0.047527
vt 0.233583 0.047527
vt 0.265536 0.047527
vt 0.265536 0.047527
vt 0.233583 0.047527
vt 0.233583 0.047527
vt 0.201630 0.047527
vt 0.201630 0.047527
vt 0.233583 0.047527
vt 0.233583 0.047527
vt 0.265537 0.047527
vt 0.265537 0.047527
vt 0.325905 0.046099
vt 0.325905 0.046099
vt 0.265537 0.047527
vn -0.000000 1.000000 0.000000
vn -0.000000 1.000000 0.000000
vn -0.000000 1.000000 0.000000
vn -0.000000 1.000000 0.000000
vn -0.000000 1.000000 -0.000000
vn -0.000000 1.000000 -0.000000
vn -0.000000 1.000000 -0.000000
vn -0.000000 1.000000 -0.000000
vn -0.000000 1.000000 -0.000000
vn -0.000000 1.000000 -0.000000
vn -0.000000 1.000000 0.000000
vn -0.000000 1.000000 0.000000
vn -0.000000 1.000000 0.000000
vn -0.000000 1.000000 0.000000
vn -0.000000 1.000000 0.000000
vn -0.000000 1.000000 0.000000
vn -0.000000 1.000000 0.000000
vn -0.000000 1.000000 0.000000
vn -0.000000 1.000000 0.000000
vn -0.000000 1.000000 0.000000
vn -0.000000 1.000000 0.000000
vn -0.000000 1.000000 0.000000
vn -0.000000 1.000000 0.000000
vn -0.000000 1.000000 0.000000
vn -0.000000 1.000000 0.000000
vn -0.000000 1.000000 0.000000
vn -0.000000 1.000000 0.000000
vn -0.000000 1.000000 0.000000
vn -0.000000 1.000000 -0.000000
vn -0.000000 1.000000 0.000000
vn -0.000000 1.000000 0.000000
vn -0.000000 1.000000 0.000000
vn -0.000000 1.000000 0.000000
vn -0.000000 1.000000 0.000000
vn -0.000000 1.000000 0.000000
vn -0.000000 1.000000 0.000000
vn -0.000000 1.000000 0.000000
vn -0.000000 1.000000 0.000000
vn -0.000000 1.000000 0.000000
vn -0.000000 1.000000 0.000000
vn -0.000000 1.000000 0.000000
vn -0.000000 1.000000 0.000000
vn -0.000000 1.000000 0.000000
vn -0.000000 1.000000 0.000000
vn -0.000000 1.000000 0.000000
vn -0.000000 1.000000 0.000000
vn -0.000000 1.000000 0.000000
vn -0.000000 1.000000 -0.000000
vn -0.000000 1.000000 -0.000000
vn -0.000000 1.000000 0.000000
vn -0.000000 1.000000 0.000000
vn -0.000000 1.000000 0.000000
vn -0.000000 1.000000 0.000000
vn -0.000000 1.000000 0.000000
vn -0.000000 1.000000 0.000000
vn -0.000000 1.000000 0.000000
vn -0.000000 1.000000 0.000000
vn -0.000000 1.000000 0.000000
vn -0.000000 1.000000 0.000000
vn -0.000000 1.000000 0.000000
vn -0.000000 1.000000 0.000000
vn -0.000000 1.000000 0.000000
vn -0.000000 1.000000 0.000000
vn -0.000000 1.000000 0.000000
vn -0.000000 1.000000 0.000000
vn -0.000000 1.000000 0.000000
vn -0.000000 1.000000 0.000000
vn -0.000000 1.000000 0.000000
vn -0.000000 1.000000 0.000000
vn -0.000000 1.000000 0.000000
vn -0.000000 1.000000 0.000000
vn -0.000000 1.000000 0.000000
vn -0.000000 1.000000 0.000000
vn -0.000000 1.000000 0.000000
vn -0.000000 1.000000 -0.000000
vn -0.000000 1.000000 0.000000
vn -0.000000 1.000000 0.000000
vn -0.000000 1.000000 -0.000000
vn -0.000000 1.000000 -0.000000
vn -0.000000 1.000000 0.000000
vn -0.000000 1.000000 0.000000
vn -0.000000 1.000000 -0.000000
vn -0.000000 1.000000 -0.000000
vn 0.000000 1.000000 -0.000000
vn -0.000000 1.000000 0.000000
vn -0.000000 1.000000 -0.000000
vn -0.000000 1.000000 -0.000000
vn 0.000000 1.000000 -0.000000
vn 0.000000 1.000000 -0.000000
vn -0.000000 1.000000 -0.000000
vn -0.000000 1.000000 -0.000000
vn 0.000000 1.000000 -0.000000
vn 0.000000 1.000000 -0.000000
vn -0.000000 1.000000 -0.000000
vn -0.000000 1.000000 -0.000000
vn -0.000000 1.000000 -0.000000
vn -0.000000 1.000000 -0.000000
vn 0.000000 1.000000 -0.000000
vn 0.000000 1.000000 -0.000000
vn -0.000000 1.000000 -0.000000
vn -0.000000 1.000000 -0.000000
vn 0.000000 1.000000 -0.000000
vn 0.000000 1.000000 -0.000000
vn -0.000000 1.000000 -0.000000
vn -0.000000 1.000000 -0.000000
vn 0.000000 1.000000 -0.000000
vn 0.000000 1.000000 -0.000000
vn -0.000000 1.000000 -0.000000
vn 0.000000 1.000000 -0.000000
vn 0.000000 1.000000 -0.000000
vn 0.000000 1.000000 -0.000000
vn 0.000000 1.000000 -0.000000
vn 0.000000 1.000000 -0.000000
vn 0.000000 1.000000 -0.000000
vn 0.000000 1.000000 -0.000000
vn 0.000000 1.000000 -0.000000
vn 0.000000 1.000000 -0.000000
vn 0.000000 1.000000 -0.000000
vn 0.000000 1.000000 -0.000000
vn 0.000000 1.000000 -0.000000
vn 0.000000 1.000000 -0.000000
vn 0.000000 1.000000 -0.000000
vn 0.000000 1.000000 -0.000000
vn -0.000000 1.000000 -0.000000
vn 0.000000 1.000000 -0.000000
vn 0.000000 1.000000 -0.000000
vn -0.000000 1.000000 0.000000
vn -0.000000 1.000000 0.000000
vn -0.000000 1.000000 0.000000
vn -0.000000 1.000000 0.000000
vn -0.000000 1.000000 0.000000
vn -0.000000 1.000000 0.000000
vn -0.000000 1.000000 0.000000
vn -0.000000 1.000000 -0.000000
vn -0.000000 1.000000 -0.000000
vn -0.000000 1.000000 0.000000
vn -0.000000 1.000000 -0.000000
vn -0.000000 1.000000 -0.000000
vn -0.000000 1.000000 -0.000000
vn -0.000000 1.000000 -0.000000
vn -0.000000 1.000000 -0.000000
vn -0.000000 1.000000 -0.000000
vn -0.000000 1.000000 -0.000000
vn -0.000000 1.000000 -0.000000
vn -0.000000 1.000000 -0.000000
vn -0.000000 1.000000 -0.000000
vn -0.000000 1.000000 -0.000000
vn -0.000000 1.000000 -0.000000
vn -0.000000 1.000000 -0.000000
vn -0.000000 1.000000 -0.000000
vn -0.000000 1.000000 -0.000000
vn -0.000000 1.000000 -0.000000
vn -0.000000 1.000000 -0.000000
vn -0.000000 1.000000 -0.000000
vn -0.000000 1.000000 -0.000000
vn -0.000000 1.000000 -0.000000
vn -0.000000 1.000000 -0.000000
vn -0.000000 1.000000 -0.000000
vn -0.000000 1.000000 -0.000000
vn -0.000000 1.000000 -0.000000
vn -0.000000 1.000000 -0.000000
vn -0.000000 1.000000 -0.000000
vn -0.000000 1.000000 -0.000000
vn -0.000000 1.000000 -0.000000
vn -0.000000 1.000000 -0.000000
vn -0.000000 1.000000 -0.000000
vn -0.000000 1.000000 -0.000000
vn -0.000000 1.000000 -0.000000
vn -0.000000 1.000000 -0.000000
vn -0.000000 1.000000 -0.000000
vn -0.000000 1.000000 -0.000000
vn 0.000000 1.000000 -0.000000
vn -0.000000 1.000000 -0.000000
vn -0.000000 1.000000 -0.000000
vn -0.000000 1.000000 -0.000000
vn 0.000000 1.000000 -0.000000
vn 0.000000 1.000000 -0.000000
vn -0.000000 1.000000 -0.000000
vn 0.000000 1.000000 -0.000000
vn 0.000000 1.000000 -0.000000
vn 0.000000 1.000000 -0.000000
vn -0.000000 1.000000 -0.000000
vn 0.000000 1.000000 -0.000000
vn 0.000000 1.000000 -0.000000
vn 0.000000 1.000000 -0.000000
vn 0.000000 1.000000 -0.000000
vn -0.000000 1.000000 -0.000000
vn 0.000000 1.000000 -0.000000
vn 0.000000 1.000000 -0.000000
vn -0.000000 1.000000 0.000000
vn -0.000000 1.000000 0.000000
vn -0.000000 1.000000 0.000000
vn -0.000000 1.000000 0.000000
vn -0.000000 1.000000 0.000000
vn -0.000000 1.000000 0.000000
vn -0.000000 1.000000 0.000000
vn -0.000000 1.000000 0.000000
vn -0.000000 1.000000 0.000000
vn -0.000000 1.000000 0.000000
vn -0.000000 1.000000 0.000000
vn -0.000000 1.000000 0.000000
vn -0.000000 1.000000 0.000000
vn -0.000000 1.000000 0.000000
vn -0.000000 1.000000 0.000000
vn -0.000000 1.000000 0.000000
vn -0.000000 1.000000 0.000000
vn -0.000000 1.000000 0.000000
vn -0.000000 1.000000 0.000000
vn -0.000000 1.000000 0.000000
vn -0.000000 1.000000 0.000000
vn -0.000000 1.000000 0.000000
vn -0.000000 1.000000 0.000000
vn 0.000000 1.000000 -0.000000
vn -0.000000 1.000000 0.000000
vn -0.000000 1.000000 0.000000
vn 0.000000 1.000000 -0.000000
vn 0.000000 1.000000 -0.000000
vn -0.000000 1.000000 0.000000
vn -0.000000 1.000000 0.000000
vn 0.000000 1.000000 -0.000000
vn 0.000000 1.000000 -0.000000
vn 0.000000 1.000000 -0.000000
vn 0.000000 1.000000 -0.000000
vn -0.000000 1.000000 0.000000
vn -0.000000 1.000000 0.000000
vn 0.000000 1.000000 -0.000000
vn 0.000000 1.000000 -0.000000
vn -0.000000 1.000000 0.000000
vn -0.000000 1.000000 0.000000
vn 0.000000 1.000000 -0.000000
vn 0.000000 1.000000 -0.000000
vn -0.000000 1.000000 0.000000
vn -0.000000 1.000000 0.000000
vn 0.000000 1.000000 -0.000000
vn 0.000000 1.000000 -0.000000
vn -0.000000 1.000000 0.000000
vn -0.000000 1.000000 0.000000
vn 0.000000 1.000000 -0.000000
vn 0.000000 1.000000 -0.000000
vn -0.000000 1.000000 -0.000000
vn -0.000000 1.000000 0.000000
vn 0.000000 1.000000 -0.000000
vn 0.000000 1.000000 -0.000000
vn -0.000000 1.000000 -0.000000
vn -0.000000 1.000000 -0.000000
vn 0.000000 1.000000 -0.000000
vn 0.000000 1.000000 -0.000000
vn -0.000000 1.000000 -0.000000
vn -0.000000 1.000000 -0.000000
vn -0.000000 1.000000 -0.000000
vn -0.000000 1.000000 -0.000000
vn 0.000000 1.000000 -0.000000
s off
f 74/142/1 75/144/2 25/62/3 2/3/4
f 1/1/5 5/6/6 81/157/7
f 80/155/8 81/156/9 5/10/10 7/11/11
f 12/13/12 68/130/13 69/132/14 33/46/15
f 66/127/16 67/129/17 10/19/18 9/20/19
f 10/21/20 67/128/21 68/131/22 12/24/23
f 15/26/24 70/135/25 71/136/26 31/50/27
f 78/151/28 79/152/29 27/58/30 17/28/31
f 76/147/32 77/148/33 29/54/34 19/30/35
f 21/32/36 72/139/37 73/140/38 23/64/39
f 23/34/40 73/141/41 74/143/42 2/16/43
f 75/145/44 76/146/45 19/55/46 25/36/47
f 79/153/48 80/154/49 7/8/50 27/38/51
f 77/149/52 78/150/53 17/59/54 29/40/55
f 31/42/56 71/137/57 72/138/58 21/51/59
f 33/44/60 69/133/61 70/134/62 15/47/63
f 50/96/64 51/98/65 35/67/66 34/65/67
f 36/69/68 35/66/69 51/97/70 52/100/71
f 37/70/72 36/68/73 52/99/74 53/101/75
f 38/72/76 37/71/77 53/102/78 54/103/79
f 39/74/80 38/73/81 54/104/82 55/105/83
f 40/76/84 39/75/85 55/106/86 56/107/87
f 41/78/88 40/77/89 56/108/90 57/109/91
f 42/81/92 41/79/93 57/110/94 58/112/95
f 58/111/96 59/113/97 43/82/98 42/80/99
f 59/114/100 60/115/101 44/84/102 43/83/103
f 60/116/104 61/117/105 45/86/106 44/85/107
f 61/118/108 62/119/109 46/88/110 45/87/111
f 62/120/112 63/121/113 47/90/114 46/89/115
f 63/122/116 64/123/117 48/92/118 47/91/119
f 64/124/120 65/125/121 49/94/122 48/93/123
f 1/4/124 49/95/125 65/126/126
f 8/17/127 11/18/128 51/98/129 50/96/130
f 52/100/131 51/97/132 11/22/133 13/23/134
f 53/101/135 52/99/136 13/14/137 32/43/138
f 54/103/139 53/102/140 32/45/141 14/25/142
f 55/105/143 54/104/144 14/48/145 30/41/146
f 56/107/147 55/106/148 30/49/149 20/31/150
f 57/109/151 56/108/152 20/52/153 22/33/154
f 58/112/155 57/110/156 22/63/157 3/15/158
f 24/35/159 59/113/160 58/111/161 3/2/162
f 18/29/163 60/115/164 59/114/165 24/61/166
f 28/39/167 61/117/168 60/116/169 18/56/170
f 16/27/171 62/119/172 61/118/173 28/53/174
f 26/37/175 63/121/176 62/120/177 16/60/178
f 6/7/179 64/123/180 63/122/181 26/57/182
f 4/9/183 65/125/184 64/124/185 6/12/186
f 1/4/187 65/126/188 4/5/189
f 34/65/190 35/67/191 67/129/192 66/127/193
f 68/131/194 67/128/195 35/66/196 36/69/197
f 69/132/198 68/130/199 36/68/200 37/70/201
f 70/134/202 69/133/203 37/71/204 38/72/205
f 71/136/206 70/135/207 38/73/208 39/74/209
f 72/138/210 71/137/211 39/75/212 40/76/213
f 73/140/214 72/139/215 40/77/216 41/78/217
f 74/143/218 73/141/219 41/79/220 42/81/221
f 42/80/222 43/82/223 75/144/224 74/142/225
f 43/83/226 44/84/227 76/146/228 75/145/229
f 44/85/230 45/86/231 77/148/232 76/147/233
f 45/87/234 46/88/235 78/150/236 77/149/237
f 46/89/238 47/90/239 79/152/240 78/151/241
f 47/91/242 48/92/243 80/154/244 79/153/245
f 48/93/246 49/94/247 81/156/248 80/155/249
f 1/1/250 81/157/251 49/95/252
