# This file uses meters as units for non-parametric coordinates.

v 10.000000 -0.000002 0.000004
v 0.000000 -0.000002 0.000004
v 10.000000 5.146970 19.208763
v 0.000000 5.146970 19.208763
v 8.641603 5.146970 19.208763
v 8.641602 -0.000002 0.000004
v 8.201539 5.146970 19.208763
v 8.201538 -0.000002 0.000004
v -10.000000 5.146970 19.208763
v -10.000000 -0.000002 0.000004
v -8.641602 -0.000002 0.000004
v -8.641602 5.146970 19.208763
v -8.201538 -0.000002 0.000004
v -8.201538 5.146970 19.208763
v 0.000000 -1.246189 0.000004
v 0.000000 4.067740 19.831856
v 11.142746 -1.246189 0.000004
v 11.142740 4.067740 19.831856
v -11.142740 4.067740 19.831856
v -11.142746 -1.246189 0.000004
v 10.000000 1.546517 0.000004
v 10.000000 6.486294 18.435503
v 11.142746 1.546517 0.000004
v 11.142740 6.486294 18.435503
v -10.000000 6.486294 18.435503
v -10.000000 1.546517 0.000004
v -11.142740 6.486294 18.435503
v -11.142746 1.546517 0.000004
v 11.142746 2.933811 9.507828
v 10.000000 2.933812 9.507828
v 10.000000 1.439989 9.908096
v 8.641602 1.439989 9.908096
v 8.201538 1.439989 9.908096
v 0.000000 1.439989 9.908096
v -8.201538 1.439989 9.908096
v -8.641602 1.439989 9.908096
v -10.000000 1.439989 9.908096
v -10.000000 2.933812 9.507828
v -11.142746 2.933811 9.507828
v -11.142746 0.236264 10.230633
v 0.000000 0.236264 10.230633
v 11.142746 0.236264 10.230633
v 0.000000 -0.804561 5.175621
v -11.142746 -0.804561 5.175621
v -11.142746 1.959110 4.773964
v -10.000000 1.959111 4.773964
v -10.000000 0.428671 4.996391
v -8.641602 0.428671 4.996391
v -8.201538 0.428671 4.996391
v 0.000000 0.428671 4.996391
v 8.201538 0.428671 4.996391
v 8.641602 0.428671 4.996391
v 10.000000 0.428671 4.996391
v 10.000000 1.959111 4.773964
v 11.142746 1.959110 4.773964
v 11.142746 -0.804561 5.175621
v 11.142746 4.456631 14.094837
v 10.000000 4.456631 14.094837
v 10.000000 3.020020 14.667439
v 8.641602 3.020020 14.667439
v 8.201538 3.020020 14.667439
v 0.000000 3.020020 14.667439
v -8.201538 3.020020 14.667439
v -8.641602 3.020020 14.667439
v -10.000000 3.020020 14.667439
v -10.000000 4.456631 14.094837
v -11.142746 4.456631 14.094837
v -11.142746 1.862394 15.128830
v 0.000000 1.862394 15.128830
v 11.142746 1.862394 15.128830
vt 0.203365 0.170650
vt 0.234058 0.170567
vt 0.234057 0.170567
vt 0.233468 0.170279
vt 0.234057 0.170567
vt 0.234058 0.170567
vt 0.234058 0.170567
vt 0.234058 0.170567
vt 0.234058 0.170567
vt 0.234058 0.170567
vt 0.234058 0.170567
vt 0.203365 0.170650
vt 0.234058 0.170567
vt 0.233468 0.170279
vt 0.233468 0.170279
vt 0.233468 0.170279
vt 0.169016 0.064148
vt 0.169016 0.064148
vt 0.169016 0.064148
vt 0.169016 0.064148
vt 0.169016 0.064148
vt 0.169016 0.064148
vt 0.169016 0.064148
vt 0.169016 0.064148
vt 0.389062 0.063031
vt 0.389062 0.063031
vt 0.389062 0.063031
vt 0.389062 0.063031
vt 0.169016 0.064148
vt 0.169016 0.064148
vt 0.169016 0.064148
vt 0.169016 0.064148
vt 0.169016 0.064148
vt 0.169016 0.064148
vt 0.169016 0.064148
vt 0.169016 0.064148
vt 0.389062 0.063031
vt 0.389062 0.063031
vt 0.389062 0.063031
vt 0.389062 0.063031
vt 0.180345 0.170362
vt 0.180345 0.170362
vt 0.203365 0.170650
vt 0.233468 0.170279
vt 0.180345 0.170362
vt 0.180345 0.170362
vt 0.203365 0.170650
vt 0.233468 0.170279
vt 0.233468 0.170279
vt 0.233468 0.170279
vt 0.233468 0.170279
vt 0.233468 0.170279
vt 0.234058 0.170567
vt 0.234058 0.170567
vt 0.234058 0.170567
vt 0.234058 0.170567
vt 0.180346 0.170362
vt 0.180346 0.170362
vt 0.266522 0.170650
vt 0.233468 0.170279
vt 0.203365 0.170650
vt 0.233468 0.170279
vt 0.266523 0.170650
vt 0.233468 0.170279
vt 0.203365 0.170650
vt 0.233468 0.170279
vt 0.233468 0.170279
vt 0.203365 0.170650
vt 0.203365 0.170650
vt 0.203365 0.170650
vt 0.233468 0.170279
vt 0.233468 0.170279
vt 0.233468 0.170279
vt 0.203365 0.170650
vt 0.233468 0.170279
vt 0.203365 0.170650
vt 0.203365 0.170650
vt 0.203365 0.170650
vt 0.233468 0.170279
vt 0.233468 0.170279
vt 0.233468 0.170279
vt 0.203365 0.170650
vt 0.234057 0.170567
vt 0.234057 0.170567
vt 0.203365 0.170650
vt 0.266523 0.170650
vt 0.266523 0.170650
vt 0.266523 0.170650
vt 0.203365 0.170650
vt 0.266522 0.170650
vt 0.266522 0.170650
vt 0.266522 0.170650
vt 0.266522 0.170650
vt 0.203365 0.170650
vt 0.203365 0.170650
vt 0.266522 0.170650
vt 0.169016 0.064148
vt 0.203365 0.170650
vt 0.169016 0.064148
vt 0.389062 0.063031
vt 0.389062 0.063031
vt 0.169016 0.064148
vt 0.169016 0.064148
vt 0.169016 0.064148
vt 0.389062 0.063031
vt 0.169016 0.064148
vt 0.169016 0.064148
vt 0.389062 0.063031
vt 0.169016 0.064148
vt 0.203365 0.170650
vt 0.203365 0.170650
vt 0.266523 0.170650
vt 0.266523 0.170650
vt 0.203365 0.170650
vt 0.203365 0.170650
vt 0.180346 0.170362
vt 0.180345 0.170362
vt 0.203365 0.170650
vt 0.180345 0.170362
vt 0.180345 0.170362
vt 0.203365 0.170650
vt 0.180346 0.170362
vt 0.266523 0.170650
vt 0.203365 0.170650
vt 0.203365 0.170650
vt 0.266523 0.170650
vt 0.169016 0.064148
vt 0.203365 0.170650
vt 0.169016 0.064148
vt 0.389062 0.063031
vt 0.389062 0.063031
vt 0.169016 0.064148
vt 0.169016 0.064148
vt 0.169016 0.064148
vt 0.389062 0.063031
vt 0.169016 0.064148
vt 0.169016 0.064148
vt 0.389062 0.063031
vt 0.169016 0.064148
vt 0.203365 0.170650
vt 0.203365 0.170650
vt 0.266522 0.170650
vt 0.266522 0.170650
vt 0.203365 0.170650
vt 0.203365 0.170650
vt 0.180345 0.170362
vt 0.266522 0.170650
vt 0.203365 0.170650
vt 0.203365 0.170650
vt 0.266522 0.170650
vt 0.169016 0.064148
vt 0.203365 0.170650
vt 0.169016 0.064148
vt 0.389062 0.063031
vt 0.389062 0.063031
vt 0.169016 0.064148
vt 0.169016 0.064148
vt 0.169016 0.064148
vt 0.389062 0.063031
vt 0.169016 0.064148
vt 0.169016 0.064148
vt 0.389062 0.063031
vt 0.169016 0.064148
vt 0.203365 0.170650
vt 0.203365 0.170650
vt 0.266523 0.170650
vt 0.266523 0.170650
vt 0.203365 0.170650
vt 0.203365 0.170650
vt 0.180346 0.170362
vt 0.180345 0.170362
vt 0.203365 0.170650
vt 0.180345 0.170362
vn 0.000000 -0.979454 0.201669
vn 0.000000 -0.979454 0.201669
vn 0.000000 -0.979454 0.201669
vn 0.000000 -0.979454 0.201669
vn 0.000000 -0.979454 0.201669
vn 0.000000 -0.979454 0.201669
vn 0.000000 -0.979454 0.201669
vn 0.000000 -0.979454 0.201669
vn 0.000000 0.979454 -0.201669
vn 0.000000 0.979454 -0.201669
vn 0.000000 0.979454 -0.201669
vn 0.000000 0.979454 -0.201669
vn 0.000000 0.979454 -0.201669
vn 0.000000 0.979454 -0.201669
vn 0.000000 0.979454 -0.201669
vn 0.000000 0.979454 -0.201669
vn 0.000000 0.979454 -0.201669
vn 0.000000 0.979454 -0.201669
vn 0.000000 0.979454 -0.201669
vn 0.000000 0.979454 -0.201669
vn 0.000000 0.979454 -0.201669
vn 0.000000 0.979454 -0.201669
vn 0.000000 0.979454 -0.201669
vn 0.000000 0.979454 -0.201669
vn 0.000000 0.979454 -0.201669
vn 0.000000 0.979454 -0.201669
vn 0.000000 0.979454 -0.201669
vn 0.000000 0.979454 -0.201669
vn 0.000000 0.979454 -0.201669
vn 0.000000 0.979454 -0.201669
vn 0.000000 0.979454 -0.201669
vn 0.000000 0.979454 -0.201669
vn 0.000000 0.499999 0.866026
vn 0.000000 0.499999 0.866026
vn 0.000000 0.499999 0.866026
vn 0.000000 0.499999 0.866026
vn 0.000000 0.499999 0.866026
vn 0.000000 0.499999 0.866026
vn 0.000000 0.000000 -1.000000
vn 0.000000 0.000000 -1.000000
vn 0.000000 0.000000 -1.000000
vn 0.000000 0.000000 -1.000000
vn 0.000000 0.000000 -1.000000
vn 0.000000 0.000000 -1.000000
vn 0.000000 0.979454 -0.201669
vn 0.000000 0.979454 -0.201669
vn 0.000000 0.979454 -0.201669
vn 0.000000 0.979454 -0.201669
vn 0.000000 0.000000 -1.000000
vn 0.000000 0.000000 -1.000000
vn 0.000000 0.000000 -1.000000
vn 0.000000 0.000000 -1.000000
vn 0.000000 0.000000 -1.000000
vn 0.000000 0.000000 -1.000000
vn 0.000000 0.499999 0.866026
vn 0.000000 0.499999 0.866026
vn 0.000000 0.499999 0.866026
vn 0.000000 0.499999 0.866026
vn 0.000000 0.499999 0.866026
vn 0.000000 0.499999 0.866026
vn -0.000000 0.979454 -0.201669
vn -0.000000 0.979454 -0.201669
vn -0.000000 0.979454 -0.201669
vn -0.000000 0.979454 -0.201669
vn -1.000000 0.000000 0.000000
vn -1.000000 0.000000 0.000000
vn -1.000000 0.000000 0.000000
vn -1.000000 0.000000 0.000000
vn 0.000000 0.000000 -1.000000
vn 0.000000 0.000000 -1.000000
vn 0.000000 0.000000 -1.000000
vn 0.000000 0.000000 -1.000000
vn 1.000000 0.000000 0.000000
vn 1.000000 0.000000 0.000000
vn 1.000000 0.000000 0.000000
vn 1.000000 0.000000 0.000000
vn 0.000001 0.500000 0.866025
vn 0.000001 0.500000 0.866025
vn 0.000001 0.500000 0.866025
vn 0.000001 0.500000 0.866025
vn 1.000000 0.000000 0.000000
vn 1.000000 0.000000 0.000000
vn 1.000000 0.000000 0.000000
vn 1.000000 0.000000 0.000000
vn -0.000001 0.500000 0.866025
vn -0.000001 0.500000 0.866025
vn -0.000001 0.500000 0.866025
vn -0.000001 0.500000 0.866025
vn -1.000000 0.000000 0.000000
vn -1.000000 0.000000 0.000000
vn -1.000000 0.000000 0.000000
vn -1.000000 0.000000 0.000000
vn 0.000000 0.000000 -1.000000
vn 0.000000 0.000000 -1.000000
vn 0.000000 0.000000 -1.000000
vn 0.000000 0.000000 -1.000000
vn 0.000001 0.949066 -0.315076
vn 0.000001 0.949066 -0.315076
vn 0.000001 0.949066 -0.315076
vn 0.000001 0.949066 -0.315076
vn -1.000000 0.000000 0.000000
vn -1.000000 0.000000 0.000000
vn -1.000000 0.000000 0.000000
vn -1.000000 0.000000 0.000000
vn 0.000000 0.949066 -0.315076
vn 0.000000 0.949066 -0.315076
vn 0.000000 0.949066 -0.315076
vn 0.000000 0.949066 -0.315076
vn 0.000000 0.949066 -0.315076
vn 0.000000 0.949066 -0.315076
vn 0.000000 0.949066 -0.315076
vn 0.000000 0.949066 -0.315076
vn 0.000000 0.949067 -0.315076
vn 0.000000 0.949067 -0.315076
vn 0.000000 0.949067 -0.315076
vn 0.000000 0.949067 -0.315076
vn 0.000000 0.949067 -0.315076
vn 0.000000 0.949067 -0.315076
vn 0.000000 0.949067 -0.315076
vn 0.000000 0.949067 -0.315076
vn 0.000000 0.949066 -0.315076
vn 0.000000 0.949066 -0.315076
vn 0.000000 0.949066 -0.315076
vn 0.000000 0.949066 -0.315076
vn 0.000000 0.949066 -0.315076
vn 0.000000 0.949066 -0.315076
vn 0.000000 0.949066 -0.315076
vn 0.000000 0.949066 -0.315076
vn 1.000000 0.000000 0.000000
vn 1.000000 0.000000 0.000000
vn 1.000000 0.000000 0.000000
vn 1.000000 0.000000 0.000000
vn -0.000001 0.949066 -0.315076
vn -0.000001 0.949066 -0.315076
vn -0.000001 0.949066 -0.315076
vn -0.000001 0.949066 -0.315076
vn -1.000000 0.000000 0.000000
vn -1.000000 0.000000 0.000000
vn -1.000000 0.000000 0.000000
vn -1.000000 0.000000 0.000000
vn 0.000000 -0.949066 0.315076
vn 0.000000 -0.949066 0.315076
vn 0.000000 -0.949066 0.315076
vn 0.000000 -0.949066 0.315076
vn 0.000000 -0.949066 0.315076
vn 0.000000 -0.949066 0.315076
vn 0.000000 -0.949066 0.315076
vn 0.000000 -0.949066 0.315076
vn 1.000000 0.000000 0.000000
vn 1.000000 0.000000 0.000000
vn 1.000000 0.000000 0.000000
vn 1.000000 0.000000 0.000000
vn 0.000000 -0.996379 0.085020
vn 0.000000 -0.996379 0.085020
vn 0.000000 -0.996379 0.085020
vn 0.000000 -0.996379 0.085020
vn -1.000000 0.000000 0.000000
vn -1.000000 0.000000 0.000000
vn -1.000000 0.000000 0.000000
vn -1.000000 0.000000 0.000000
vn -0.000000 0.996286 -0.086105
vn -0.000000 0.996286 -0.086105
vn -0.000000 0.996286 -0.086105
vn -0.000000 0.996286 -0.086105
vn 1.000000 0.000000 0.000000
vn 1.000000 0.000000 0.000000
vn 1.000000 0.000000 0.000000
vn 1.000000 0.000000 0.000000
vn 0.000000 0.996340 -0.085482
vn 0.000000 0.996340 -0.085482
vn 0.000000 0.996340 -0.085482
vn 0.000000 0.996340 -0.085482
vn 0.000000 0.996340 -0.085483
vn 0.000000 0.996340 -0.085483
vn 0.000000 0.996340 -0.085483
vn 0.000000 0.996340 -0.085483
vn 0.000000 0.996340 -0.085482
vn 0.000000 0.996340 -0.085482
vn 0.000000 0.996340 -0.085482
vn 0.000000 0.996340 -0.085482
vn 0.000000 0.996340 -0.085482
vn 0.000000 0.996340 -0.085482
vn 0.000000 0.996340 -0.085482
vn 0.000000 0.996340 -0.085482
vn 0.000000 0.996340 -0.085483
vn 0.000000 0.996340 -0.085483
vn 0.000000 0.996340 -0.085483
vn 0.000000 0.996340 -0.085483
vn 0.000000 0.996340 -0.085482
vn 0.000000 0.996340 -0.085482
vn 0.000000 0.996340 -0.085482
vn 0.000000 0.996340 -0.085482
vn -1.000000 0.000000 0.000000
vn -1.000000 0.000000 0.000000
vn -1.000000 0.000000 0.000000
vn -1.000000 0.000000 0.000000
vn 0.000000 0.996286 -0.086105
vn 0.000000 0.996286 -0.086105
vn 0.000000 0.996286 -0.086105
vn 0.000000 0.996286 -0.086105
vn 1.000000 0.000000 0.000000
vn 1.000000 0.000000 0.000000
vn 1.000000 0.000000 0.000000
vn 1.000000 0.000000 0.000000
vn 0.000000 -0.996379 0.085020
vn 0.000000 -0.996379 0.085020
vn 0.000000 -0.996379 0.085020
vn 0.000000 -0.996379 0.085020
vn 0.000000 0.905861 -0.423574
vn 0.000000 0.905861 -0.423574
vn 0.000000 0.905861 -0.423574
vn 0.000000 0.905861 -0.423574
vn -1.000000 0.000000 0.000000
vn -1.000000 0.000000 0.000000
vn -1.000000 0.000000 0.000000
vn -1.000000 0.000000 0.000000
vn 0.000000 0.905597 -0.424140
vn 0.000000 0.905597 -0.424140
vn 0.000000 0.905597 -0.424140
vn 0.000000 0.905597 -0.424140
vn 0.000000 0.905596 -0.424140
vn 0.000000 0.905596 -0.424140
vn 0.000000 0.905596 -0.424140
vn 0.000000 0.905596 -0.424140
vn 0.000000 0.905596 -0.424140
vn 0.000000 0.905596 -0.424140
vn 0.000000 0.905596 -0.424140
vn 0.000000 0.905596 -0.424140
vn 0.000000 0.905596 -0.424140
vn 0.000000 0.905596 -0.424140
vn 0.000000 0.905596 -0.424140
vn 0.000000 0.905596 -0.424140
vn 0.000000 0.905596 -0.424140
vn 0.000000 0.905596 -0.424140
vn 0.000000 0.905596 -0.424140
vn 0.000000 0.905596 -0.424140
vn 0.000000 0.905597 -0.424140
vn 0.000000 0.905597 -0.424140
vn 0.000000 0.905597 -0.424140
vn 0.000000 0.905597 -0.424140
vn 1.000000 0.000000 0.000000
vn 1.000000 0.000000 0.000000
vn 1.000000 0.000000 0.000000
vn 1.000000 0.000000 0.000000
vn -0.000000 0.905861 -0.423574
vn -0.000000 0.905861 -0.423574
vn -0.000000 0.905861 -0.423574
vn -0.000000 0.905861 -0.423574
vn -1.000000 0.000001 0.000001
vn -1.000000 0.000001 0.000001
vn -1.000000 0.000001 0.000001
vn -1.000000 0.000001 0.000001
vn 0.000000 -0.905400 0.424561
vn 0.000000 -0.905400 0.424561
vn 0.000000 -0.905400 0.424561
vn 0.000000 -0.905400 0.424561
vn 0.000000 -0.905400 0.424561
vn 0.000000 -0.905400 0.424561
vn 0.000000 -0.905400 0.424561
vn 0.000000 -0.905400 0.424561
vn 1.000000 0.000001 0.000001
vn 1.000000 0.000001 0.000001
vn 1.000000 0.000001 0.000001
vn 1.000000 0.000001 0.000001
s off
f 56/146/1 42/119/2 41/117/3 43/120/4
f 40/116/5 44/122/6 43/120/7 41/117/8
f 33/102/9 51/136/10 50/134/11 34/104/12
f 52/137/13 32/99/14 31/97/15 53/139/16
f 32/100/17 52/138/18 51/135/19 33/101/20
f 49/132/21 35/106/22 34/103/23 50/133/24
f 36/107/25 48/129/26 47/127/27 37/109/28
f 48/130/29 36/108/30 35/105/31 49/131/32
f 18/2/33 3/8/34 5/7/35 7/6/36 4/5/37 16/3/38
f 17/9/39 15/83/40 2/84/41 8/13/42 6/11/43 1/10/44
f 29/93/45 55/143/46 54/142/47 30/96/48
f 20/49/49 10/52/50 11/51/51 13/50/52 2/15/53 15/16/54
f 19/53/55 16/3/56 4/5/57 14/56/58 12/55/59 9/54/60
f 45/123/61 39/113/62 38/112/63 46/126/64
f 30/95/65 54/141/66 53/140/67 31/98/68
f 1/4/69 21/60/70 23/79/71 17/80/72
f 55/144/73 29/94/74 42/118/75 56/145/76
f 18/14/77 24/62/78 22/75/79 3/81/80
f 46/125/81 38/111/82 37/110/83 47/128/84
f 9/44/85 25/64/86 27/71/87 19/72/88
f 39/114/89 45/124/90 44/121/91 40/115/92
f 20/48/93 28/66/94 26/67/95 10/73/96
f 57/147/97 29/93/98 30/96/99 58/150/100
f 58/149/101 30/95/102 31/98/103 59/152/104
f 32/99/105 60/153/106 59/151/107 31/97/108
f 60/154/109 32/100/110 33/101/111 61/155/112
f 61/156/113 33/102/114 34/104/115 62/158/116
f 35/106/117 63/160/118 62/157/119 34/103/120
f 36/108/121 64/162/122 63/159/123 35/105/124
f 64/161/125 36/107/126 37/109/127 65/163/128
f 38/111/129 66/165/130 65/164/131 37/110/132
f 39/113/133 67/167/134 66/166/135 38/112/136
f 67/168/137 39/114/138 40/115/139 68/169/140
f 68/170/141 40/116/142 41/117/143 69/171/144
f 42/119/145 70/173/146 69/171/147 41/117/148
f 29/94/149 57/148/150 70/172/151 42/118/152
f 44/122/153 20/58/154 15/42/155 43/120/156
f 45/124/157 28/68/158 20/69/159 44/121/160
f 26/63/161 28/86/162 45/123/163 46/126/164
f 10/43/165 26/85/166 46/125/167 47/128/168
f 48/129/169 11/35/170 10/36/171 47/127/172
f 11/37/173 48/130/174 49/131/175 13/40/176
f 13/29/177 49/132/178 50/133/179 2/32/180
f 51/136/181 8/18/182 2/19/183 50/134/184
f 52/138/185 6/26/186 8/27/187 51/135/188
f 1/21/189 6/22/190 52/137/191 53/139/192
f 54/141/193 21/78/194 1/82/195 53/140/196
f 55/143/197 23/91/198 21/92/199 54/142/200
f 17/12/201 23/61/202 55/144/203 56/145/204
f 17/41/205 56/146/206 43/120/207 15/42/208
f 22/59/209 24/90/210 57/147/211 58/150/212
f 3/1/213 22/89/214 58/149/215 59/152/216
f 60/153/217 5/23/218 3/24/219 59/151/220
f 5/25/221 60/154/222 61/155/223 7/28/224
f 7/17/225 61/156/226 62/158/227 4/20/228
f 63/160/229 14/30/230 4/31/231 62/157/232
f 64/162/233 12/38/234 14/39/235 63/159/236
f 9/33/237 12/34/238 64/161/239 65/163/240
f 66/165/241 25/70/242 9/74/243 65/164/244
f 67/167/245 27/87/246 25/88/247 66/166/248
f 19/47/249 27/65/250 67/168/251 68/169/252
f 19/57/253 68/170/254 69/171/255 16/45/256
f 70/173/257 18/46/258 16/45/259 69/171/260
f 57/148/261 24/76/262 18/77/263 70/172/264
