# This file uses meters as units for non-parametric coordinates.

v -25.475281 1.728804 -33.558453
v -25.475281 1.728804 -23.558453
v -15.475281 1.728804 -33.558453
v -15.475281 5.817538 -23.558453
v -15.475281 1.728804 -28.558453
v -15.475281 5.817538 -26.058453
v -17.975281 5.817538 -23.558453
v -20.475281 1.728804 -23.558453
v -17.975281 1.728804 -28.558453
v -16.725281 5.817538 -26.058453
v -17.975281 5.817538 -24.808453
v -20.475281 1.728804 -26.058453
v -19.225281 1.728804 -27.308453
vt 0.232328 0.047329
vt 0.232328 0.047329
vt 0.232328 0.047329
vt 0.202054 0.047329
vt 0.232328 0.047329
vt 0.202054 0.047329
vt 0.232328 0.047329
vt 0.232328 0.047329
vt 0.203736 0.047329
vt 0.202335 0.047068
vt 0.232328 0.047329
vt 0.203736 0.047329
vt 0.232328 0.047329
vt 0.204997 0.047329
vt 0.232328 0.047329
vt 0.232328 0.047329
vt 0.202054 0.047329
vt 0.203736 0.047329
vt 0.232328 0.047329
vt 0.203736 0.047329
vt 0.232328 0.047329
vt 0.202335 0.047068
vt 0.202335 0.047068
vt 0.202335 0.047068
vt 0.202335 0.047068
vt 0.232328 0.047329
vn -0.602473 0.741677 -0.294859
vn -0.187843 0.977442 -0.096548
vn -0.172602 0.984992 0.000000
vn -0.602471 0.798141 0.000000
vn 0.000000 0.984992 -0.172602
vn -0.096549 0.977442 -0.187843
vn -0.294859 0.741677 -0.602473
vn 0.000000 0.798141 -0.602471
vn 0.000000 1.000000 0.000000
vn 0.000000 1.000000 0.000000
vn 0.000000 1.000000 0.000000
vn -0.161903 0.973435 -0.161903
vn 0.000000 1.000000 0.000000
s 1
f 11/18/1 12/20/2 8/12/3 7/9/4
f 5/4/5 9/14/6 10/17/7 6/6/8
f 6/5/8 10/16/7 11/19/1 7/13/4 4/1/9
f 1/8/10 2/2/11 8/11/3 12/21/2 13/26/12
f 10/10/7 9/22/6 13/25/12 12/23/2 11/24/1
f 1/8/10 13/26/12 9/15/6 5/7/5 3/3/13
