# This file uses meters as units for non-parametric coordinates.

v 11.025238 0.000000 -0.000031
v 20.000000 0.000000 9.999969
v 11.025208 0.000000 9.999939
v 20.000031 0.000000 -0.000031
v 20.000000 0.000000 1.358368
v 18.852844 0.000000 1.147125
v 20.000031 0.000000 1.798431
v 18.481201 0.000000 1.518799
v 15.018066 0.000000 4.981964
v 20.000031 0.000000 5.899200
v 13.286499 0.000000 6.713531
v 20.000000 0.000000 7.949585
v 12.420685 0.000000 7.579315
v 20.000000 0.000000 8.974792
v 14.152252 0.000000 5.847748
v 20.000000 0.000000 6.924408
v 16.749634 0.000000 3.250366
v 20.000000 0.000000 3.848816
v 18.641602 0.000000 -0.000031
v 18.201569 0.000000 0.000031
v 14.100800 0.000000 0.000031
v 12.050415 0.000000 0.000000
v 13.075592 0.000000 0.000000
v 16.151184 0.000000 0.000031
v 10.000031 0.000000 8.974762
v 10.000000 0.000000 9.999969
v 10.000000 0.000000 -0.000031
v 0.000000 0.000000 8.974762
v 10.000000 0.000000 -0.000031
v 10.000000 0.000000 8.974792
v 0.000000 0.000000 -0.000031
v 1.358398 0.000000 -0.000031
v 1.147186 0.000000 1.147156
v 1.798492 0.000000 -0.000031
v 1.518860 0.000000 1.518829
v 4.981995 0.000000 4.981934
v 5.899231 0.000000 -0.000031
v 6.713562 0.000000 6.713531
v 7.949646 0.000000 0.000031
v 7.579376 0.000000 7.579315
v 8.974854 0.000000 -0.000031
v 5.847778 0.000000 5.847748
v 6.924500 0.000000 -0.000031
v 3.250397 0.000000 3.250366
v 3.848877 0.000000 0.000000
v 0.000031 0.000000 1.358368
v 0.000061 0.000000 1.798431
v 0.000061 0.000000 5.899200
v 0.000061 0.000000 7.949585
v 0.000061 0.000000 6.924408
v 0.000061 0.000000 3.848816
v 8.974823 0.000000 9.999969
v 10.000000 0.000000 9.999969
v 0.000031 0.000000 9.999969
v 0.000031 0.000000 9.999969
v 10.000000 0.000000 9.999969
v 0.000031 0.000000 19.999969
v 0.000031 0.000000 18.641571
v 10.000000 0.000000 18.641571
v 0.000061 0.000000 18.201569
v 10.000031 0.000000 18.201508
v 10.000061 0.000000 14.100769
v 0.000061 0.000000 14.100739
v 10.000031 0.000000 12.050385
v 0.000000 0.000000 12.050385
v 10.000031 0.000000 11.025177
v 0.000061 0.000000 11.025177
v 10.000061 0.000000 13.075592
v 0.000000 0.000000 13.075531
v 10.000031 0.000000 16.151154
v 0.000000 0.000000 16.151154
v 11.025146 0.000000 10.002472
v 20.000000 0.000000 19.999969
v 19.999939 0.000000 10.000000
v 19.999939 0.000000 18.641602
v 19.999939 0.000000 18.201508
v 19.999939 0.000000 14.100769
v 19.999969 0.000000 12.050385
v 19.999939 0.000000 11.025177
v 20.000000 0.000000 13.075592
v 19.999969 0.000000 16.151154
v 8.974823 0.000000 9.999969
v 10.000031 0.000000 19.999969
v 10.000000 0.000000 3.589935
v 9.031769 0.000000 8.416595
v 8.789673 0.000000 8.789642
v 8.416626 0.000000 9.031708
v 4.487427 0.000000 9.999969
v 10.000000 0.000000 3.589935
v 10.968323 0.000000 8.416595
v 11.210327 0.000000 8.789642
v 11.583374 0.000000 9.031647
v 15.512604 0.000000 9.999969
vt 0.201872 0.047527
vt 0.233583 0.047527
vt 0.201872 0.047527
vt 0.265537 0.047527
vt 0.265537 0.047527
vt 0.265537 0.047527
vt 0.265537 0.047527
vt 0.265537 0.047527
vt 0.265537 0.047527
vt 0.265537 0.047527
vt 0.325897 0.046099
vt 0.325897 0.046099
vt 0.325897 0.046099
vt 0.325897 0.046099
vt 0.201630 0.047527
vt 0.201630 0.047527
vt 0.201630 0.047527
vt 0.201630 0.047527
vt 0.265536 0.047527
vt 0.265536 0.047527
vt 0.265536 0.047527
vt 0.265536 0.047527
vt 0.233583 0.047527
vt 0.233583 0.047527
vt 0.201872 0.047527
vt 0.233583 0.047527
vt 0.233583 0.047527
vt 0.233583 0.047527
vt 0.233583 0.047527
vt 0.233583 0.047527
vt 0.233583 0.047527
vt 0.233583 0.047527
vt 0.233583 0.047527
vt 0.233583 0.047527
vt 0.265537 0.047527
vt 0.265537 0.047527
vt 0.265537 0.047527
vt 0.265537 0.047527
vt 0.265537 0.047527
vt 0.265537 0.047527
vt 0.265537 0.047527
vt 0.325897 0.046099
vt 0.325897 0.046099
vt 0.325897 0.046099
vt 0.325897 0.046099
vt 0.201630 0.047527
vt 0.201630 0.047527
vt 0.201630 0.047527
vt 0.201630 0.047527
vt 0.265536 0.047527
vt 0.265536 0.047527
vt 0.265536 0.047527
vt 0.265536 0.047527
vt 0.233583 0.047527
vt 0.233583 0.047527
vt 0.233583 0.047527
vt 0.233583 0.047527
vt 0.233583 0.047527
vt 0.233583 0.047527
vt 0.233583 0.047527
vt 0.233583 0.047527
vt 0.233583 0.047527
vt 0.233583 0.047527
vt 0.201872 0.047527
vt 0.201872 0.047527
vt 0.233583 0.047527
vt 0.201872 0.047527
vt 0.265537 0.047527
vt 0.265537 0.047527
vt 0.265537 0.047527
vt 0.265537 0.047527
vt 0.265537 0.047527
vt 0.265537 0.047527
vt 0.265537 0.047527
vt 0.325897 0.046099
vt 0.325897 0.046099
vt 0.325897 0.046099
vt 0.325897 0.046099
vt 0.201630 0.047527
vt 0.201630 0.047527
vt 0.201630 0.047527
vt 0.201630 0.047527
vt 0.265536 0.047527
vt 0.265536 0.047527
vt 0.265536 0.047527
vt 0.265536 0.047527
vt 0.233583 0.047527
vt 0.233583 0.047527
vt 0.201872 0.047527
vt 0.233583 0.047527
vt 0.233583 0.047527
vt 0.233583 0.047527
vt 0.233583 0.047527
vt 0.233583 0.047527
vt 0.233583 0.047527
vt 0.233583 0.047527
vt 0.233583 0.047527
vt 0.233583 0.047527
vt 0.265537 0.047527
vt 0.265537 0.047527
vt 0.265537 0.047527
vt 0.265537 0.047527
vt 0.265537 0.047527
vt 0.265537 0.047527
vt 0.265537 0.047527
vt 0.325897 0.046099
vt 0.325897 0.046099
vt 0.325897 0.046099
vt 0.325897 0.046099
vt 0.201630 0.047527
vt 0.201630 0.047527
vt 0.201630 0.047527
vt 0.201630 0.047527
vt 0.265536 0.047527
vt 0.265536 0.047527
vt 0.265536 0.047527
vt 0.265536 0.047527
vt 0.233583 0.047527
vt 0.233583 0.047527
vt 0.233583 0.047527
vt 0.233583 0.047527
vt 0.233583 0.047527
vt 0.233583 0.047527
vt 0.233583 0.047527
vt 0.233583 0.047527
vt 0.233583 0.047527
vt 0.233583 0.047527
vt 0.201872 0.047527
vt 0.265537 0.047527
vt 0.265537 0.047527
vt 0.265537 0.047527
vt 0.265537 0.047527
vt 0.265537 0.047527
vt 0.265537 0.047527
vt 0.265537 0.047527
vt 0.265537 0.047527
vt 0.325897 0.046099
vt 0.325897 0.046099
vt 0.325897 0.046099
vt 0.325897 0.046099
vt 0.201630 0.047527
vt 0.201630 0.047527
vt 0.201630 0.047527
vt 0.201630 0.047527
vt 0.265536 0.047527
vt 0.265536 0.047527
vt 0.265536 0.047527
vt 0.265536 0.047527
vt 0.233583 0.047527
vt 0.233583 0.047527
vt 0.233583 0.047527
vt 0.233583 0.047527
vt 0.233583 0.047527
vt 0.233583 0.047527
vt 0.233583 0.047527
vt 0.233583 0.047527
vt 0.233583 0.047527
vt 0.233583 0.047527
vt 0.233583 0.047527
vt 0.265537 0.047527
vt 0.265537 0.047527
vt 0.265537 0.047527
vt 0.265537 0.047527
vt 0.265537 0.047527
vt 0.265537 0.047527
vt 0.265537 0.047527
vt 0.265537 0.047527
vt 0.325897 0.046099
vt 0.325897 0.046099
vt 0.325897 0.046099
vt 0.325897 0.046099
vt 0.201630 0.047527
vt 0.201630 0.047527
vt 0.201630 0.047527
vt 0.201630 0.047527
vt 0.265536 0.047527
vt 0.265536 0.047527
vt 0.265536 0.047527
vt 0.265536 0.047527
vt 0.233583 0.047527
vt 0.233583 0.047527
vt 0.233583 0.047527
vt 0.233583 0.047527
vt 0.233583 0.047527
vt 0.233583 0.047527
vt 0.233583 0.047527
vt 0.233583 0.047527
vt 0.233583 0.047527
vt 0.233583 0.047527
vt 0.233583 0.047527
vt 0.233583 0.047527
vt 0.233583 0.047527
vt 0.233583 0.047527
vt 0.233583 0.047527
vt 0.233583 0.047527
vt 0.233583 0.047527
vt 0.201872 0.047527
vt 0.233583 0.047527
vt 0.233583 0.047527
vt 0.233583 0.047527
vt 0.233583 0.047527
vt 0.233583 0.047527
vt 0.233583 0.047527
vt 0.201872 0.047527
vt 0.201872 0.047527
vt 0.201872 0.047527
vt 0.201872 0.047527
vt 0.201872 0.047527
vt 0.233583 0.047527
vt 0.233583 0.047527
vt 0.233583 0.047527
vt 0.201872 0.047527
vt 0.233583 0.047527
vt 0.201872 0.047527
vt 0.233583 0.047527
vt 0.201872 0.047527
vt 0.201872 0.047527
vt 0.201872 0.047527
vt 0.201872 0.047527
vt 0.201872 0.047527
vt 0.201872 0.047527
vt 0.201872 0.047527
vt 0.201872 0.047527
vt 0.201872 0.047527
vt 0.233583 0.047527
vt 0.201872 0.047527
vt 0.201872 0.047527
vt 0.201872 0.047527
vn 0.000000 1.000000 0.000000
vn 0.000000 1.000000 0.000000
vn 0.000000 1.000000 0.000000
vn 0.000000 1.000000 0.000000
vn 0.000000 1.000000 0.000000
vn 0.000000 1.000000 0.000000
vn 0.000000 1.000000 0.000000
vn 0.000000 1.000000 0.000000
vn 0.000000 1.000000 0.000000
vn 0.000000 1.000000 0.000000
vn 0.000000 1.000000 0.000000
vn 0.000000 1.000000 0.000000
vn 0.000000 1.000000 0.000000
vn 0.000000 1.000000 0.000000
vn 0.000000 1.000000 0.000000
vn 0.000000 1.000000 0.000000
vn 0.000000 1.000000 0.000000
vn 0.000000 1.000000 0.000000
vn 0.000000 1.000000 0.000000
vn 0.000000 1.000000 0.000000
vn 0.000000 1.000000 0.000000
vn 0.000000 1.000000 0.000000
vn 0.000000 1.000000 0.000000
vn 0.000000 1.000000 0.000000
vn 0.000000 1.000000 0.000000
vn 0.000000 1.000000 0.000000
vn 0.000000 1.000000 0.000000
vn 0.000000 1.000000 0.000000
vn 0.000000 1.000000 0.000000
vn 0.000000 1.000000 0.000000
vn 0.000000 1.000000 0.000000
vn 0.000000 1.000000 0.000000
vn 0.000000 1.000000 0.000000
vn 0.000000 1.000000 0.000000
vn 0.000000 1.000000 0.000000
vn 0.000000 1.000000 0.000000
vn 0.000000 1.000000 0.000000
vn 0.000000 1.000000 0.000000
vn 0.000000 1.000000 0.000000
vn 0.000000 1.000000 0.000000
vn 0.000000 1.000000 0.000000
vn 0.000000 1.000000 0.000000
vn 0.000000 1.000000 0.000000
vn 0.000000 1.000000 0.000000
vn 0.000000 1.000000 0.000000
vn 0.000000 1.000000 0.000000
vn 0.000000 1.000000 0.000000
vn 0.000000 1.000000 0.000000
vn 0.000000 1.000000 0.000000
vn 0.000000 1.000000 0.000000
vn 0.000000 1.000000 0.000000
vn 0.000000 1.000000 0.000000
vn 0.000000 1.000000 0.000000
vn 0.000000 1.000000 0.000000
vn 0.000000 1.000000 0.000000
vn 0.000000 1.000000 0.000000
vn 0.000000 1.000000 0.000000
vn 0.000000 1.000000 0.000000
vn 0.000000 1.000000 0.000000
vn 0.000000 1.000000 0.000000
vn 0.000000 1.000000 0.000000
vn 0.000000 1.000000 0.000000
vn 0.000000 1.000000 0.000000
vn 0.000000 1.000000 0.000000
vn 0.000000 1.000000 0.000000
vn 0.000000 1.000000 0.000000
vn 0.000000 1.000000 0.000000
vn 0.000000 1.000000 0.000000
vn 0.000000 1.000000 0.000000
vn 0.000000 1.000000 0.000000
vn 0.000000 1.000000 0.000000
vn 0.000000 1.000000 0.000000
vn 0.000000 1.000000 0.000000
vn 0.000000 1.000000 0.000000
vn 0.000000 1.000000 0.000000
vn 0.000000 1.000000 0.000000
vn 0.000000 1.000000 0.000000
vn 0.000000 1.000000 0.000000
vn 0.000000 1.000000 0.000000
vn 0.000000 1.000000 0.000000
vn 0.000000 1.000000 0.000000
vn 0.000000 1.000000 0.000000
vn 0.000000 1.000000 0.000000
vn 0.000000 1.000000 0.000000
vn 0.000000 1.000000 0.000000
vn 0.000000 1.000000 0.000000
vn 0.000000 1.000000 0.000000
vn 0.000000 1.000000 0.000000
vn 0.000000 1.000000 0.000000
vn 0.000000 1.000000 0.000000
vn 0.000000 1.000000 0.000000
vn 0.000000 1.000000 0.000000
vn 0.000000 1.000000 0.000000
vn 0.000000 1.000000 0.000000
vn 0.000000 1.000000 0.000000
vn 0.000000 1.000000 0.000000
vn 0.000000 1.000000 0.000000
vn 0.000000 1.000000 0.000000
vn 0.000000 1.000000 0.000000
vn 0.000000 1.000000 0.000000
vn 0.000000 1.000000 0.000000
vn 0.000000 1.000000 0.000000
vn 0.000000 1.000000 0.000000
vn 0.000000 1.000000 0.000000
vn 0.000000 1.000000 0.000000
vn 0.000000 1.000000 0.000000
vn 0.000000 1.000000 0.000000
vn 0.000000 1.000000 0.000000
vn 0.000000 1.000000 0.000000
vn 0.000000 1.000000 0.000000
vn 0.000000 1.000000 0.000000
vn 0.000000 1.000000 0.000000
vn 0.000000 1.000000 0.000000
vn 0.000000 1.000000 0.000000
vn 0.000000 1.000000 0.000000
vn 0.000000 1.000000 0.000000
vn 0.000000 1.000000 0.000000
vn 0.000000 1.000000 0.000000
vn 0.000000 1.000000 0.000000
vn 0.000000 1.000000 0.000000
vn 0.000000 1.000000 0.000000
vn 0.000000 1.000000 0.000000
vn 0.000000 1.000000 0.000000
vn 0.000000 1.000000 0.000000
vn 0.000000 1.000000 0.000000
vn 0.000000 1.000000 0.000000
vn 0.000000 1.000000 0.000000
vn 0.000000 1.000000 0.000000
vn 0.000000 1.000000 0.000000
vn 0.000000 1.000000 0.000000
vn 0.000000 1.000000 0.000000
vn 0.000000 1.000000 0.000000
vn 0.000000 1.000000 0.000000
vn 0.000000 1.000000 0.000000
vn 0.000000 1.000000 0.000000
vn 0.000000 1.000000 0.000000
vn 0.000000 1.000000 0.000000
vn 0.000000 1.000000 0.000000
vn 0.000000 1.000000 0.000000
vn 0.000000 1.000000 0.000000
vn 0.000000 1.000000 0.000000
vn 0.000000 1.000000 0.000000
vn 0.000000 1.000000 0.000000
vn 0.000000 1.000000 0.000000
vn 0.000000 1.000000 0.000000
vn 0.000000 1.000000 0.000000
vn 0.000000 1.000000 0.000000
vn 0.000000 1.000000 0.000000
vn 0.000000 1.000000 0.000000
vn 0.000000 1.000000 0.000000
vn 0.000000 1.000000 0.000000
vn 0.000000 1.000000 0.000000
vn 0.000000 1.000000 0.000000
vn 0.000000 1.000000 0.000000
vn 0.000000 1.000000 0.000000
vn 0.000000 1.000000 0.000000
vn 0.000000 1.000000 0.000000
vn 0.000000 1.000000 0.000000
vn 0.000000 1.000000 0.000000
vn 0.000000 1.000000 0.000000
vn 0.000000 1.000000 0.000000
vn 0.000000 1.000000 0.000000
vn 0.000000 1.000000 0.000000
vn 0.000000 1.000000 0.000000
vn 0.000000 1.000000 0.000000
vn 0.000000 1.000000 0.000000
vn 0.000000 1.000000 0.000000
vn 0.000000 1.000000 0.000000
vn 0.000000 1.000000 0.000000
vn 0.000000 1.000000 0.000000
vn 0.000000 1.000000 0.000000
vn 0.000000 1.000000 0.000000
vn 0.000000 1.000000 0.000000
vn 0.000000 1.000000 0.000000
vn 0.000000 1.000000 0.000000
vn 0.000000 1.000000 0.000000
vn 0.000000 1.000000 0.000000
vn 0.000000 1.000000 0.000000
vn 0.000000 1.000000 0.000000
vn 0.000000 1.000000 0.000000
vn 0.000000 1.000000 0.000000
vn 0.000000 1.000000 0.000000
vn 0.000000 1.000000 0.000000
vn 0.000000 1.000000 0.000000
vn 0.000000 1.000000 0.000000
vn 0.000000 1.000000 0.000000
vn 0.000000 1.000000 0.000000
vn 0.000000 1.000000 0.000000
vn 0.000000 1.000000 0.000000
vn 0.000000 1.000000 0.000000
vn 0.000000 1.000000 0.000000
vn 0.000000 1.000000 0.000000
vn 0.000000 1.000000 0.000000
vn 0.000000 1.000000 0.000000
vn 0.000000 1.000000 0.000000
vn 0.000000 1.000000 0.000000
vn 0.000000 1.000000 0.000000
vn 0.000000 1.000000 0.000000
vn 0.000000 1.000000 0.000000
vn 0.000000 1.000000 0.000000
vn 0.000000 1.000000 0.000000
vn 0.000000 1.000000 0.000000
vn 0.000000 1.000000 0.000000
vn 0.000000 1.000000 0.000000
vn 0.000000 1.000000 0.000000
vn 0.000000 1.000000 0.000000
vn 0.000000 1.000000 0.000000
vn 0.000000 1.000000 0.000000
vn 0.000000 1.000000 0.000000
vn 0.000000 1.000000 0.000000
vn 0.000000 1.000000 0.000000
vn 0.000000 1.000000 0.000000
vn 0.000000 1.000000 0.000000
vn 0.000000 1.000000 0.000000
vn 0.000000 1.000000 0.000000
vn 0.000000 1.000000 0.000000
vn 0.000000 1.000000 0.000000
vn 0.000000 1.000000 0.000000
vn 0.000000 1.000000 0.000000
vn 0.000000 1.000000 0.000000
vn 0.000000 1.000000 0.000000
vn 0.000000 1.000000 0.000000
vn 0.000000 1.000000 0.000000
vn 0.000000 1.000000 0.000000
vn 0.000000 1.000000 0.000000
vn 0.000000 1.000000 0.000000
vn 0.000000 1.000000 0.000000
vn 0.000000 1.000000 0.000000
vn 0.000000 1.000000 0.000000
vn 0.000000 1.000000 0.000000
vn 0.000000 1.000000 0.000000
vn 0.000000 1.000000 0.000000
vn 0.000000 1.000000 0.000000
vn 0.000000 1.000000 0.000000
vn 0.000000 1.000000 0.000000
vn 0.000000 1.000000 0.000000
vn 0.000000 1.000000 0.000000
vn 0.000000 1.000000 0.000000
s off
f 90/215/1 91/213/2 13/2/3
f 7/4/4 8/5/5 17/6/6 18/7/7
f 4/8/8 6/9/9 5/10/10
f 5/11/11 6/12/12 8/13/13 7/14/14
f 10/15/15 9/16/16 15/17/17 16/18/18
f 12/19/19 11/20/20 13/21/21 14/22/22
f 14/23/23 13/24/24 92/210/25 93/211/26 2/26/27
f 16/27/28 15/28/29 11/29/30 12/30/31
f 18/31/32 17/32/33 9/33/34 10/34/35
f 20/35/36 24/36/37 17/37/38 8/38/39
f 4/39/40 19/40/41 6/41/42
f 19/42/43 20/43/44 8/44/45 6/45/46
f 21/46/47 23/47/48 15/48/49 9/49/50
f 22/50/51 1/51/52 13/52/53 11/53/54
f 23/54/55 22/55/56 11/56/57 15/57/58
f 24/58/59 21/59/60 9/60/61 17/61/62
f 89/203/63 90/215/64 13/2/65 1/62/66 27/63/67
f 91/213/68 92/209/69 13/2/70
f 53/65/71 86/222/72 87/218/73 52/226/74
f 34/68/75 35/69/76 44/70/77 45/71/78
f 31/72/79 33/73/80 32/74/81
f 32/75/82 33/76/83 35/77/84 34/78/85
f 37/79/86 36/80/87 42/81/88 43/82/89
f 39/83/90 38/84/91 40/85/92 41/86/93
f 84/197/94 85/223/95 30/89/96
f 43/91/97 42/92/98 38/93/99 39/94/100
f 45/95/101 44/96/102 36/97/103 37/98/104
f 47/99/105 51/100/106 44/101/107 35/102/108
f 31/103/109 46/104/110 33/105/111
f 46/106/112 47/107/113 35/108/114 33/109/115
f 48/110/116 50/111/117 42/112/118 36/113/119
f 49/114/120 28/115/121 40/116/122 38/117/123
f 50/118/124 49/119/125 38/120/126 42/121/127
f 51/122/128 48/123/129 36/124/130 44/125/131
f 52/67/132 87/219/133 88/220/134
f 53/227/135 30/128/136 85/224/137 86/221/138
f 60/129/139 61/130/140 70/131/141 71/132/142
f 57/133/143 83/134/144 59/135/145 58/136/146
f 58/137/147 59/138/148 61/139/149 60/140/150
f 63/141/151 62/142/152 68/143/153 69/144/154
f 65/145/155 64/146/156 66/147/157 67/148/158
f 82/149/159 66/150/160 56/151/161
f 69/152/162 68/153/163 64/154/164 65/155/165
f 71/156/166 70/157/167 62/158/168 63/159/169
f 76/160/170 81/161/171 70/162/172 61/163/173
f 73/164/174 75/165/175 59/166/176 83/167/177
f 75/168/178 76/169/179 61/170/180 59/171/181
f 77/172/182 80/173/183 68/174/184 62/175/185
f 78/176/186 79/177/187 66/178/188 64/179/189
f 79/180/190 74/181/191 72/182/192 66/183/193
f 80/184/194 78/185/195 64/186/196 68/187/197
f 81/188/198 77/189/199 62/190/200 70/191/201
f 67/192/202 66/150/203 82/149/204 55/193/205
f 72/194/206 56/195/207 66/196/208
f 41/87/209 40/88/210 85/198/211 84/225/212 29/90/213
f 86/200/214 85/199/215 40/66/216
f 87/201/217 86/200/218 40/66/219
f 88/202/220 87/201/221 40/66/222 28/126/223 54/127/224
f 25/3/225 90/214/226 89/216/227
f 26/1/228 91/212/229 90/204/230 25/217/231
f 26/228/232 3/64/233 92/207/234 91/205/235
f 93/208/236 92/206/237 3/25/238
