# This file uses meters as units for non-parametric coordinates.

v -0.000000 0.000000 -9.999981
v -0.000000 0.000000 0.000002
v -10.000000 0.000000 -9.999981
v -10.000000 0.000000 0.000002
v -7.250850 0.000000 -4.110996
v -7.250850 0.000000 -1.682850
v -2.281013 0.000000 -1.682850
v -2.281013 0.000000 -4.110996
v -6.736618 0.000000 -4.110996
v -6.736618 0.000000 -2.180889
v -2.811611 0.000000 -2.180889
v -2.811611 0.000000 -4.110996
vt 0.169016 0.064148
vt 0.169016 0.064148
vt 0.169016 0.064148
vt 0.169016 0.064148
vt 0.391225 0.062182
vt 0.391225 0.062182
vt 0.391225 0.062182
vt 0.169016 0.064148
vt 0.169016 0.064148
vt 0.391225 0.062182
vt 0.391225 0.062182
vt 0.169016 0.064148
vt 0.391225 0.062182
vt 0.169016 0.064148
vt 0.391225 0.062182
vt 0.391225 0.062182
vt 0.391225 0.062182
vt 0.169016 0.064148
vt 0.169016 0.064148
vt 0.391225 0.062182
vt 0.391225 0.062182
vt 0.169016 0.064148
vt 0.391225 0.062182
vt 0.169016 0.064148
vn 0.000000 1.000000 0.000000
vn 0.000000 1.000000 0.000000
vn 0.000000 1.000000 0.000000
vn 0.000000 1.000000 0.000000
vn 0.000000 1.000000 0.000000
vn 0.000000 1.000000 0.000000
vn 0.000000 1.000000 0.000000
vn 0.000000 1.000000 0.000000
vn 0.000000 1.000000 0.000000
vn 0.000000 1.000000 0.000000
vn 0.000000 1.000000 0.000000
vn 0.000000 1.000000 0.000000
vn 0.000000 1.000000 0.000000
vn 0.000000 1.000000 0.000000
vn 0.000000 1.000000 0.000000
vn 0.000000 1.000000 0.000000
vn 0.000000 1.000000 0.000000
vn 0.000000 1.000000 0.000000
vn 0.000000 1.000000 0.000000
vn 0.000000 1.000000 0.000000
vn 0.000000 1.000000 0.000000
vn 0.000000 1.000000 0.000000
vn 0.000000 1.000000 0.000000
vn 0.000000 1.000000 0.000000
vn 0.000000 1.000000 0.000000
vn 0.000000 1.000000 0.000000
vn 0.000000 1.000000 0.000000
vn 0.000000 1.000000 0.000000
vn 0.000000 1.000000 0.000000
vn 0.000000 1.000000 0.000000
vn 0.000000 1.000000 0.000000
vn 0.000000 1.000000 0.000000
vn 0.000000 1.000000 0.000000
vn 0.000000 1.000000 0.000000
s off
f 9/9/1 10/18/2 11/14/3 12/12/4
f 3/1/5 4/2/6 6/22/7 5/24/8
f 4/2/9 2/3/10 7/19/11 6/22/12
f 8/8/13 1/4/14 3/1/15 5/24/16 9/9/17 12/12/18
f 8/8/19 7/19/20 2/3/21 1/4/22
f 5/5/23 6/23/24 10/17/25 9/21/26
f 6/6/27 7/20/28 11/13/29 10/10/30
f 7/7/31 8/16/32 12/15/33 11/11/34
