# This file uses meters as units for non-parametric coordinates.

v 10.000001 0.000000 -4.999989
v 10.000001 0.000000 4.999990
v 8.641602 0.000000 4.999990
v 8.641602 0.000000 -4.999989
v 8.201538 0.000000 4.999990
v 8.201538 0.000000 -4.999989
v -10.000001 0.000000 4.999990
v -10.000001 0.000000 -4.999989
v -8.641602 0.000000 -4.999989
v -8.641602 0.000000 4.999990
v -8.201538 0.000000 -4.999989
v -8.201538 0.000000 4.999990
v 7.446022 0.000000 1.365603
v -7.446022 0.000000 1.365603
v 7.446022 0.000000 -1.365602
v -7.446022 0.000000 -1.365602
v 10.000001 0.000000 0.000000
v -10.000001 0.000000 0.000000
v 0.000000 0.000000 -4.999989
v 0.000000 0.000000 4.999990
vt 0.169016 0.064148
vt 0.169016 0.064148
vt 0.169016 0.064148
vt 0.169016 0.064148
vt 0.169016 0.064148
vt 0.169016 0.064148
vt 0.389062 0.063031
vt 0.389062 0.063031
vt 0.389062 0.063031
vt 0.389062 0.063031
vt 0.169016 0.064148
vt 0.169016 0.064148
vt 0.169016 0.064148
vt 0.169016 0.064148
vt 0.169016 0.064148
vt 0.169016 0.064148
vt 0.389062 0.063031
vt 0.389062 0.063031
vt 0.389062 0.063031
vt 0.389062 0.063031
vt 0.169016 0.064148
vt 0.169016 0.064148
vt 0.169016 0.064148
vt 0.169016 0.064148
vt 0.209079 0.795006
vt 0.497576 0.795006
vt 0.497576 0.867310
vt 0.209079 0.867310
vt 0.169016 0.064148
vt 0.169016 0.064148
vt 0.169016 0.064148
vt 0.169016 0.064148
vn 0.000000 1.000000 0.000000
vn 0.000000 1.000000 0.000000
vn 0.000000 1.000000 0.000000
vn 0.000000 1.000000 0.000000
vn 0.000000 1.000000 0.000000
vn 0.000000 1.000000 0.000000
vn 0.000000 1.000000 0.000000
vn 0.000000 1.000000 0.000000
vn 0.000000 1.000000 0.000000
vn 0.000000 1.000000 0.000000
vn 0.000000 1.000000 0.000000
vn 0.000000 1.000000 0.000000
vn 0.000000 1.000000 0.000000
vn 0.000000 1.000000 0.000000
vn 0.000000 1.000000 0.000000
vn 0.000000 1.000000 0.000000
vn 0.000000 1.000000 0.000000
vn 0.000000 1.000000 0.000000
vn 0.000000 1.000000 0.000000
vn 0.000000 1.000000 0.000000
vn 0.000000 1.000000 0.000000
vn 0.000000 1.000000 0.000000
vn 0.000000 1.000000 0.000000
vn 0.000000 1.000000 0.000000
vn 0.000000 1.000000 0.000000
vn 0.000000 1.000000 0.000000
vn 0.000000 1.000000 0.000000
vn 0.000000 1.000000 0.000000
vn 0.000000 1.000000 0.000000
vn 0.000000 1.000000 0.000000
vn 0.000000 1.000000 0.000000
vn 0.000000 1.000000 0.000000
vn 0.000000 1.000000 0.000000
vn 0.000000 1.000000 0.000000
vn 0.000000 1.000000 0.000000
vn 0.000000 1.000000 0.000000
vn 0.000000 1.000000 0.000000
vn 0.000000 1.000000 0.000000
vn 0.000000 1.000000 0.000000
vn 0.000000 1.000000 0.000000
s off
f 14/25/1 13/26/2 15/27/3 16/28/4
f 1/1/5 4/4/6 3/3/7 2/2/8 17/29/9
f 3/7/10 4/8/11 6/9/12 5/10/13
f 7/13/14 10/14/15 9/15/16 8/16/17 18/30/18
f 9/17/19 10/18/20 12/19/21 11/20/22
f 12/12/23 20/32/24 5/5/25 13/22/26 14/21/27
f 5/5/28 6/6/29 15/23/30 13/22/31
f 6/6/32 19/31/33 11/11/34 16/24/35 15/23/36
f 11/11/37 12/12/38 14/21/39 16/24/40
