# This file uses meters as units for non-parametric coordinates.

v 9.659258 2.588190 0.000004
v -0.000004 -0.000000 -0.000008
v -9.659262 2.588190 19.318521
v -9.659258 -0.000000 9.659258
v -9.659262 2.236612 18.006411
v 8.347147 2.236612 0.000004
v -9.659261 2.122715 17.581339
v 7.922075 2.122715 0.000000
v -9.659262 -2.588190 0.000000
v -8.347150 -2.236610 0.000000
v -9.659261 -2.236610 1.312111
v -7.922076 -2.122713 0.000004
v -9.659261 -2.122713 1.737190
v 0.322542 -1.203724 -0.000004
v -9.659257 -1.203724 9.981796
v 11.085594 1.680229 0.000004
v -9.659261 1.680229 20.744856
v -9.659262 -3.890968 0.000000
v 9.258989 4.082014 0.000008
v -9.659267 4.082014 18.918251
v 10.362787 4.377777 -0.000004
v -9.659261 4.377777 20.022043
v -8.748780 -2.236610 0.910477
v -8.453823 -2.122713 1.205437
v -2.956662 -0.000000 6.702606
v 2.540512 2.122715 12.199757
v 2.835460 2.236612 12.494726
v 3.745939 2.588190 13.405201
v 3.468191 4.082014 13.127453
v 4.234127 4.377777 13.893394
v 4.735687 1.680229 14.394943
v -2.732852 -1.203724 6.926414
v -9.503851 -4.251383 -1.709995
v -11.398602 -4.251383 -1.709999
v -9.503851 -0.676767 -1.709995
v -11.398602 -0.676767 -1.709999
v -9.503851 -0.676767 0.184765
v -11.398602 -0.676767 0.184761
v -9.503851 -4.251383 0.184765
v -11.398602 -4.251383 0.184761
v -8.497522 -2.236610 0.505676
v -8.121168 -2.122713 0.669498
v -1.107017 -0.000000 3.722618
v 5.907149 2.122715 6.775734
v 6.283501 2.236612 6.939560
v 7.445234 2.588190 7.445236
v 7.090839 4.082014 7.290977
v 8.068139 4.377777 7.716373
v 8.708106 1.680229 7.994938
v -0.821437 -1.203724 3.846920
v -5.812338 -1.203724 8.837822
v -1.664321 1.680229 18.367367
v -1.942886 4.377777 17.727398
v -2.368290 4.082014 16.750101
v -2.214025 2.588190 17.104496
v -2.719706 2.236612 15.942764
v -2.883518 2.122715 15.566402
v -5.936641 -0.000000 8.552248
v -8.989761 -2.122713 1.538094
v -9.153580 -2.236610 1.161732
vt 0.203365 0.170650
vt 0.234058 0.170567
vt 0.234057 0.170567
vt 0.233468 0.170279
vt 0.234057 0.170567
vt 0.234058 0.170567
vt 0.234058 0.170567
vt 0.234058 0.170567
vt 0.234058 0.170567
vt 0.234058 0.170567
vt 0.234058 0.170567
vt 0.203365 0.170650
vt 0.234058 0.170567
vt 0.233468 0.170279
vt 0.233468 0.170279
vt 0.233468 0.170279
vt 0.169016 0.064148
vt 0.169016 0.064148
vt 0.169016 0.064148
vt 0.169016 0.064148
vt 0.169016 0.064148
vt 0.169016 0.064148
vt 0.169016 0.064148
vt 0.169016 0.064148
vt 0.389062 0.063031
vt 0.389062 0.063031
vt 0.389062 0.063031
vt 0.389062 0.063031
vt 0.169016 0.064148
vt 0.169016 0.064148
vt 0.169016 0.064148
vt 0.169016 0.064148
vt 0.169016 0.064148
vt 0.169016 0.064148
vt 0.169016 0.064148
vt 0.389062 0.063031
vt 0.389062 0.063031
vt 0.389062 0.063031
vt 0.389062 0.063031
vt 0.180345 0.170362
vt 0.180345 0.170362
vt 0.180345 0.170362
vt 0.180345 0.170362
vt 0.233468 0.170279
vt 0.233468 0.170279
vt 0.233468 0.170279
vt 0.233468 0.170279
vt 0.234058 0.170567
vt 0.234058 0.170567
vt 0.234058 0.170567
vt 0.234058 0.170567
vt 0.180346 0.170362
vt 0.266522 0.170650
vt 0.233468 0.170279
vt 0.203365 0.170650
vt 0.233468 0.170279
vt 0.233468 0.170279
vt 0.203365 0.170650
vt 0.203365 0.170650
vt 0.203365 0.170650
vt 0.233468 0.170279
vt 0.233468 0.170279
vt 0.233468 0.170279
vt 0.203365 0.170650
vt 0.234057 0.170567
vt 0.234057 0.170567
vt 0.203365 0.170650
vt 0.266522 0.170650
vt 0.266522 0.170650
vt 0.266522 0.170650
vt 0.169016 0.064148
vt 0.389062 0.063031
vt 0.389062 0.063031
vt 0.169016 0.064148
vt 0.169016 0.064148
vt 0.169016 0.064148
vt 0.389062 0.063031
vt 0.169016 0.064148
vt 0.169016 0.064148
vt 0.389062 0.063031
vt 0.169016 0.064148
vt 0.203365 0.170650
vt 0.203365 0.170650
vt 0.266522 0.170650
vt 0.266522 0.170650
vt 0.203365 0.170650
vt 0.203365 0.170650
vt 0.180345 0.170362
vt 0.180345 0.170362
vt 0.198985 0.170435
vt 0.198985 0.170435
vt 0.198985 0.170435
vt 0.198985 0.170435
vt 0.267095 0.170363
vt 0.267095 0.170363
vt 0.267095 0.170363
vt 0.267095 0.170363
vt 0.198985 0.170435
vt 0.198985 0.170435
vt 0.198985 0.170435
vt 0.198985 0.170435
vt 0.175250 0.170363
vt 0.175250 0.170363
vt 0.175250 0.170363
vt 0.175250 0.170363
vt 0.198985 0.170435
vt 0.198985 0.170435
vt 0.198985 0.170435
vt 0.198985 0.170435
vt 0.198985 0.170435
vt 0.198985 0.170435
vt 0.198985 0.170435
vt 0.198985 0.170435
vt 0.169016 0.064148
vt 0.389062 0.063031
vt 0.389062 0.063031
vt 0.169016 0.064148
vt 0.169016 0.064148
vt 0.169016 0.064148
vt 0.389062 0.063031
vt 0.169016 0.064148
vt 0.169016 0.064148
vt 0.389062 0.063031
vt 0.169016 0.064148
vt 0.203365 0.170650
vt 0.203365 0.170650
vt 0.266522 0.170650
vt 0.266522 0.170650
vt 0.203365 0.170650
vt 0.203365 0.170650
vt 0.180345 0.170362
vt 0.180345 0.170362
vt 0.180345 0.170362
vt 0.203365 0.170650
vt 0.180345 0.170362
vt 0.266522 0.170650
vt 0.203365 0.170650
vt 0.203365 0.170650
vt 0.266522 0.170650
vt 0.169016 0.064148
vt 0.203365 0.170650
vt 0.169016 0.064148
vt 0.389062 0.063031
vt 0.389062 0.063031
vt 0.169016 0.064148
vt 0.169016 0.064148
vt 0.169016 0.064148
vt 0.389062 0.063031
vt 0.169016 0.064148
vt 0.169016 0.064148
vt 0.389062 0.063031
vn 0.142393 -0.962857 0.229411
vn 0.142393 -0.962858 0.229411
vn 0.142393 -0.962857 0.229411
vn 0.142393 -0.962858 0.229411
vn 0.108389 -0.963264 0.245712
vn 0.108389 -0.963264 0.245712
vn 0.108389 -0.963264 0.245712
vn 0.108389 -0.963264 0.245712
vn -0.142394 0.962857 -0.229412
vn -0.142394 0.962857 -0.229412
vn -0.142394 0.962857 -0.229412
vn -0.142394 0.962857 -0.229412
vn -0.142393 0.962858 -0.229411
vn -0.142393 0.962858 -0.229411
vn -0.142393 0.962858 -0.229411
vn -0.142393 0.962858 -0.229411
vn -0.142392 0.962858 -0.229410
vn -0.142392 0.962858 -0.229410
vn -0.142392 0.962858 -0.229410
vn -0.142392 0.962858 -0.229410
vn -0.142393 0.962858 -0.229411
vn -0.142393 0.962858 -0.229411
vn -0.142393 0.962858 -0.229411
vn -0.142393 0.962858 -0.229411
vn -0.244640 0.963590 -0.107916
vn -0.244640 0.963590 -0.107916
vn -0.244640 0.963590 -0.107916
vn -0.244640 0.963590 -0.107916
vn -0.142393 0.962858 -0.229409
vn -0.142393 0.962858 -0.229409
vn -0.142393 0.962858 -0.229409
vn -0.142393 0.962858 -0.229409
vn -1.000000 -0.000001 -0.000000
vn -1.000000 -0.000001 -0.000000
vn -1.000000 -0.000001 -0.000000
vn -1.000000 -0.000001 -0.000000
vn -1.000000 -0.000001 -0.000000
vn -1.000000 -0.000001 -0.000000
vn 0.000001 -0.000001 -1.000000
vn 0.000001 -0.000001 -1.000000
vn 0.000001 -0.000001 -1.000000
vn 0.000001 -0.000001 -1.000000
vn 0.000001 -0.000001 -1.000000
vn 0.000001 -0.000001 -1.000000
vn -0.142393 0.962858 -0.229411
vn -0.142393 0.962858 -0.229411
vn -0.142393 0.962858 -0.229411
vn -0.142393 0.962858 -0.229411
vn -0.000001 0.000000 -1.000000
vn -0.000001 0.000000 -1.000000
vn -0.000001 0.000000 -1.000000
vn -0.000001 0.000000 -1.000000
vn -0.000001 0.000000 -1.000000
vn -0.000001 0.000000 -1.000000
vn -1.000000 0.000000 0.000000
vn -1.000000 0.000000 0.000000
vn -1.000000 0.000000 0.000000
vn -1.000000 0.000000 0.000000
vn -1.000000 0.000000 0.000000
vn -1.000000 0.000000 0.000000
vn -0.510885 -0.248028 -0.823091
vn -0.510885 -0.248028 -0.823091
vn -0.510885 -0.248028 -0.823091
vn -0.510885 -0.248028 -0.823091
vn -0.000005 -0.000002 -1.000000
vn -0.000005 -0.000002 -1.000000
vn -0.000005 -0.000002 -1.000000
vn -0.000005 -0.000002 -1.000000
vn 0.510884 0.248027 0.823092
vn 0.510885 0.248027 0.823092
vn 0.510885 0.248027 0.823092
vn 0.510884 0.248027 0.823092
vn -1.000000 -0.000000 0.000003
vn -1.000000 -0.000000 0.000003
vn -1.000000 -0.000000 0.000003
vn -1.000000 -0.000000 0.000003
vn -0.229410 0.962858 -0.142394
vn -0.229410 0.962858 -0.142394
vn -0.229410 0.962858 -0.142394
vn -0.229410 0.962858 -0.142394
vn -0.229411 0.962857 -0.142393
vn -0.229411 0.962858 -0.142393
vn -0.229411 0.962857 -0.142393
vn -0.229411 0.962857 -0.142393
vn -0.229411 0.962858 -0.142393
vn -0.229411 0.962858 -0.142393
vn -0.229411 0.962858 -0.142393
vn -0.229411 0.962857 -0.142393
vn -0.229412 0.962857 -0.142394
vn -0.229412 0.962857 -0.142394
vn -0.229412 0.962857 -0.142394
vn -0.229412 0.962857 -0.142394
vn -0.229411 0.962858 -0.142393
vn -0.229411 0.962858 -0.142393
vn -0.229411 0.962858 -0.142393
vn -0.229411 0.962858 -0.142393
vn -0.823091 -0.248027 -0.510885
vn -0.823091 -0.248027 -0.510885
vn -0.823091 -0.248027 -0.510885
vn -0.823091 -0.248027 -0.510885
vn -0.229411 0.962858 -0.142393
vn -0.229411 0.962858 -0.142393
vn -0.229411 0.962858 -0.142393
vn -0.229411 0.962858 -0.142393
vn 0.823092 0.248027 0.510885
vn 0.823092 0.248027 0.510885
vn 0.823092 0.248027 0.510885
vn 0.823092 0.248027 0.510885
vn 0.229411 -0.962858 0.142393
vn 0.229411 -0.962857 0.142393
vn 0.229411 -0.962858 0.142393
vn 0.229411 -0.962857 0.142393
vn -0.107917 0.963590 -0.244641
vn -0.107917 0.963590 -0.244641
vn -0.107917 0.963590 -0.244641
vn -0.107917 0.963590 -0.244641
vn 0.245712 -0.963264 0.108389
vn 0.245712 -0.963264 0.108389
vn 0.245712 -0.963264 0.108389
vn 0.245712 -0.963264 0.108389
vn -0.000002 0.000000 1.000000
vn -0.000002 0.000000 1.000000
vn -0.000002 0.000000 1.000000
vn -0.000002 0.000000 1.000000
vn 0.000000 -1.000000 0.000000
vn 0.000000 -1.000000 0.000000
vn 0.000000 -1.000000 0.000000
vn 0.000000 -1.000000 0.000000
vn 0.000002 0.000000 -1.000000
vn 0.000002 0.000000 -1.000000
vn 0.000002 0.000000 -1.000000
vn 0.000002 0.000000 -1.000000
vn 0.000000 1.000000 0.000000
vn 0.000000 1.000000 0.000000
vn 0.000000 1.000000 0.000000
vn 0.000000 1.000000 0.000000
vn 1.000000 0.000000 0.000000
vn 1.000000 0.000000 0.000000
vn 1.000000 0.000000 0.000000
vn 1.000000 0.000000 0.000000
vn -1.000000 0.000000 0.000000
vn -1.000000 0.000000 0.000000
vn -1.000000 0.000000 0.000000
vn -1.000000 0.000000 0.000000
vn -0.258054 0.963078 -0.076739
vn -0.258054 0.963078 -0.076739
vn -0.258054 0.963078 -0.076739
vn -0.258054 0.963078 -0.076739
vn -0.258056 0.963078 -0.076739
vn -0.258056 0.963077 -0.076739
vn -0.258056 0.963077 -0.076739
vn -0.258056 0.963077 -0.076739
vn -0.258056 0.963077 -0.076739
vn -0.258056 0.963078 -0.076739
vn -0.258056 0.963078 -0.076739
vn -0.258056 0.963077 -0.076739
vn -0.258056 0.963077 -0.076739
vn -0.258056 0.963077 -0.076739
vn -0.258056 0.963078 -0.076739
vn -0.258056 0.963077 -0.076739
vn -0.258055 0.963078 -0.076739
vn -0.258055 0.963078 -0.076739
vn -0.258055 0.963078 -0.076739
vn -0.258055 0.963078 -0.076739
vn -0.928385 -0.248759 -0.276078
vn -0.928385 -0.248759 -0.276078
vn -0.928385 -0.248759 -0.276078
vn -0.928385 -0.248759 -0.276078
vn -0.258057 0.963077 -0.076739
vn -0.258057 0.963077 -0.076739
vn -0.258057 0.963077 -0.076739
vn -0.258057 0.963077 -0.076739
vn 0.928385 0.248761 0.276078
vn 0.928385 0.248761 0.276078
vn 0.928385 0.248761 0.276078
vn 0.928385 0.248761 0.276078
vn 0.258056 -0.963078 0.076739
vn 0.258056 -0.963078 0.076739
vn 0.258056 -0.963077 0.076739
vn 0.258056 -0.963078 0.076739
vn 0.076739 -0.963077 0.258056
vn 0.076739 -0.963077 0.258056
vn 0.076739 -0.963078 0.258056
vn 0.076739 -0.963077 0.258056
vn 0.276078 0.248761 0.928385
vn 0.276077 0.248761 0.928385
vn 0.276078 0.248761 0.928385
vn 0.276078 0.248761 0.928385
vn -0.076739 0.963077 -0.258057
vn -0.076739 0.963077 -0.258057
vn -0.076739 0.963077 -0.258057
vn -0.076739 0.963077 -0.258057
vn -0.276078 -0.248761 -0.928385
vn -0.276078 -0.248761 -0.928385
vn -0.276078 -0.248761 -0.928385
vn -0.276078 -0.248761 -0.928385
vn -0.076739 0.963078 -0.258055
vn -0.076739 0.963078 -0.258055
vn -0.076739 0.963078 -0.258055
vn -0.076739 0.963078 -0.258055
vn -0.076739 0.963078 -0.258054
vn -0.076739 0.963078 -0.258054
vn -0.076739 0.963078 -0.258054
vn -0.076739 0.963078 -0.258054
vn -0.076739 0.963078 -0.258056
vn -0.076739 0.963078 -0.258056
vn -0.076739 0.963078 -0.258056
vn -0.076739 0.963077 -0.258056
vn -0.076739 0.963078 -0.258056
vn -0.076739 0.963077 -0.258056
vn -0.076739 0.963078 -0.258056
vn -0.076739 0.963078 -0.258056
vn -0.076739 0.963079 -0.258051
vn -0.076739 0.963079 -0.258051
vn -0.076739 0.963079 -0.258051
vn -0.076739 0.963079 -0.258051
s off
f 31/88/1 52/135/2 51/133/3 32/89/4
f 18/52/5 32/89/6 51/133/7 15/42/8
f 57/145/9 26/78/10 25/76/11 58/147/12
f 27/79/13 56/142/14 55/140/15 28/81/16
f 56/143/17 27/80/18 26/77/19 57/144/20
f 24/74/21 59/149/22 58/146/23 25/75/24
f 9/33/25 23/71/26 41/114/27 10/35/28
f 23/72/29 60/151/30 59/148/31 24/73/32
f 17/2/33 3/8/34 5/7/35 7/6/36 4/5/37 15/3/38
f 16/9/39 14/65/40 2/66/41 8/13/42 6/11/43 1/10/44
f 53/136/45 30/85/46 29/84/47 54/139/48
f 18/44/49 9/47/50 10/46/51 12/45/52 2/15/53 14/16/54
f 18/48/55 15/3/56 4/5/57 13/51/58 11/50/59 9/49/60
f 54/138/61 29/83/62 28/82/63 55/141/64
f 1/4/65 19/54/66 21/61/67 16/62/68
f 30/86/69 53/137/70 52/134/71 31/87/72
f 17/14/73 22/56/74 20/57/75 3/63/76
f 41/115/77 23/72/78 24/73/79 42/116/80
f 42/117/81 24/74/82 25/75/83 43/118/84
f 26/78/85 44/121/86 43/119/87 25/76/88
f 27/80/89 45/123/90 44/120/91 26/77/92
f 45/122/93 27/79/94 28/81/95 46/124/96
f 29/83/97 47/126/98 46/125/99 28/82/100
f 30/85/101 48/128/102 47/127/103 29/84/104
f 48/129/105 30/86/106 31/87/107 49/130/108
f 49/131/109 31/88/110 32/89/111 50/132/112
f 9/33/113 11/34/114 60/150/115 23/71/116
f 18/52/117 14/41/118 50/132/119 32/89/120
f 33/90/121 35/93/122 36/92/123 34/91/124
f 35/94/125 37/97/126 38/96/127 36/95/128
f 37/98/129 39/101/130 40/100/131 38/99/132
f 39/102/133 33/105/134 34/104/135 40/103/136
f 34/106/137 36/109/138 38/108/139 40/107/140
f 39/110/141 37/113/142 35/112/143 33/111/144
f 10/36/145 41/115/146 42/116/147 12/39/148
f 12/29/149 42/117/150 43/118/151 2/32/152
f 44/121/153 8/18/154 2/19/155 43/119/156
f 45/123/157 6/26/158 8/27/159 44/120/160
f 1/21/161 6/22/162 45/122/163 46/124/164
f 47/126/165 19/60/166 1/64/167 46/125/168
f 48/128/169 21/69/170 19/70/171 47/127/172
f 16/12/173 21/55/174 48/129/175 49/130/176
f 16/40/177 49/131/178 50/132/179 14/41/180
f 52/135/181 17/43/182 15/42/183 51/133/184
f 53/137/185 22/58/186 17/59/187 52/134/188
f 20/53/189 22/68/190 53/136/191 54/139/192
f 3/1/193 20/67/194 54/138/195 55/141/196
f 56/142/197 5/23/198 3/24/199 55/140/200
f 5/25/201 56/143/202 57/144/203 7/28/204
f 7/17/205 57/145/206 58/147/207 4/20/208
f 59/149/209 13/30/210 4/31/211 58/146/212
f 60/151/213 11/37/214 13/38/215 59/148/216
