# This file uses meters as units for non-parametric coordinates.

v 19.999981 0.000000 -0.000023
v 18.641582 0.000000 -0.000023
v 18.201519 0.000000 -0.000023
v 19.999958 0.000000 -20.000000
v 18.201511 0.000000 -18.201534
v 18.641582 0.000000 -18.641598
v 0.000005 0.000000 -20.000002
v 0.000004 0.000000 -18.641603
v 0.000004 0.000000 -18.201540
v 0.000003 0.000000 0.000002
v 0.000004 0.000000 -1.358397
v 0.000004 0.000000 -1.798460
v 1.798465 0.000000 0.000000
v 1.798467 0.000000 -1.798462
v 1.358401 0.000000 0.000000
v 1.358402 0.000000 -1.358398
v 0.000004 0.000000 -18.421572
v 18.421551 0.000000 -0.000023
v 9.999991 0.000000 -0.000008
v 0.000004 0.000000 -9.999998
vt 0.169016 0.064148
vt 0.169016 0.064148
vt 0.169016 0.064148
vt 0.389062 0.063031
vt 0.389062 0.063031
vt 0.169016 0.064148
vt 0.389062 0.063031
vt 0.389062 0.063031
vt 0.390179 0.063031
vt 0.390179 0.063031
vt 0.169016 0.064148
vt 0.169016 0.061914
vt 0.169016 0.064148
vt 0.169016 0.064148
vt 0.169016 0.064148
vt 0.389062 0.063031
vt 0.389062 0.063031
vt 0.169016 0.064148
vt 0.171250 0.064148
vt 0.171250 0.064148
vt 0.169016 0.064148
vt 0.169016 0.064148
vt 0.169016 0.064148
vt 0.169016 0.064148
vt 0.393530 0.061914
vt 0.393530 0.061914
vt 0.393530 0.061914
vt 0.393530 0.061914
vt 0.389062 0.063031
vt 0.389062 0.063031
vt 0.389062 0.063031
vt 0.389062 0.063031
vt 0.389062 0.063031
vt 0.389062 0.063031
vt 0.170133 0.064148
vt 0.169016 0.064148
vn 0.000000 1.000000 0.000000
vn 0.000000 1.000000 0.000000
vn 0.000000 1.000000 0.000000
vn 0.000000 1.000000 0.000000
vn 0.000000 1.000000 0.000000
vn 0.000000 1.000000 0.000000
vn 0.000000 1.000000 0.000000
vn 0.000000 1.000000 0.000000
vn 0.000000 1.000000 0.000000
vn 0.000000 1.000000 0.000000
vn 0.000000 1.000000 0.000000
vn 0.000000 1.000000 0.000000
vn 0.000000 1.000000 0.000000
vn 0.000000 1.000000 0.000000
vn 0.000000 1.000000 0.000000
vn 0.000000 1.000000 0.000000
vn 0.000000 1.000000 0.000000
vn 0.000000 1.000000 0.000000
vn 0.000000 1.000000 0.000000
vn 0.000000 1.000000 0.000000
s 1
f 14/19/1 13/20/2 19/35/3 3/3/4 5/6/5
f 2/2/6 1/1/7 4/11/8 6/12/9
f 3/5/4 18/34/10 2/4/6 6/10/9 5/9/5
f 14/19/1 5/6/5 9/13/11 20/36/12 12/18/13
f 5/7/5 6/8/9 8/16/14 17/33/15 9/17/11
f 6/12/9 4/11/8 7/14/16 8/15/14
f 10/24/17 16/22/18 11/23/19
f 13/25/2 14/26/1 16/27/18 15/28/20
f 11/29/19 16/30/18 14/31/1 12/32/13
f 15/21/20 16/22/18 10/24/17
