# This file uses meters as units for non-parametric coordinates.

v 10.000000 -0.000000 0.000000
v 0.000000 -0.000000 0.000000
v 10.000000 4.999989 8.660234
v 0.000000 4.999989 8.660234
v 8.641601 4.999989 8.660234
v 8.641603 -0.000000 0.000000
v 8.201537 4.999989 8.660234
v 8.201539 -0.000000 0.000000
v -10.000000 4.999989 8.660234
v -10.000000 -0.000000 0.000000
v -8.641602 -0.000000 0.000000
v -8.641602 4.999989 8.660234
v -8.201538 -0.000000 0.000000
v -8.201538 4.999989 8.660234
v 0.000000 -1.079230 0.623093
v 0.000000 3.920759 9.283329
v 11.142740 -1.079230 0.623093
v 11.142740 3.920759 9.283329
v -11.142740 3.920759 9.283329
v -11.142740 -1.079230 0.623093
v 10.000000 1.339325 -0.773260
v 10.000000 6.339314 7.886976
v 11.142740 1.339325 -0.773260
v 11.142740 6.339313 7.886976
v -10.000000 6.339314 7.886976
v -10.000000 1.339325 -0.773260
v -11.142740 6.339313 7.886976
v -11.142740 1.339325 -0.773260
vt 0.203365 0.170650
vt 0.234058 0.170567
vt 0.234057 0.170567
vt 0.233468 0.170279
vt 0.234057 0.170567
vt 0.234058 0.170567
vt 0.234058 0.170567
vt 0.234058 0.170567
vt 0.234058 0.170567
vt 0.234058 0.170567
vt 0.234058 0.170567
vt 0.203365 0.170650
vt 0.234058 0.170567
vt 0.233468 0.170279
vt 0.233468 0.170279
vt 0.233468 0.170279
vt 0.169016 0.064148
vt 0.169016 0.064148
vt 0.169016 0.064148
vt 0.169016 0.064148
vt 0.169016 0.064148
vt 0.169016 0.064148
vt 0.169016 0.064148
vt 0.169016 0.064148
vt 0.389062 0.063031
vt 0.389062 0.063031
vt 0.389062 0.063031
vt 0.389062 0.063031
vt 0.169016 0.064148
vt 0.169016 0.064148
vt 0.169016 0.064148
vt 0.169016 0.064148
vt 0.169016 0.064148
vt 0.169016 0.064148
vt 0.169016 0.064148
vt 0.169016 0.064148
vt 0.389062 0.063031
vt 0.389062 0.063031
vt 0.389062 0.063031
vt 0.389062 0.063031
vt 0.180345 0.170362
vt 0.180345 0.170362
vt 0.203365 0.170650
vt 0.233468 0.170279
vt 0.180345 0.170362
vt 0.180345 0.170362
vt 0.203365 0.170650
vt 0.233468 0.170279
vt 0.233468 0.170279
vt 0.233468 0.170279
vt 0.233468 0.170279
vt 0.233468 0.170279
vt 0.234058 0.170567
vt 0.234058 0.170567
vt 0.234058 0.170567
vt 0.234058 0.170567
vt 0.180346 0.170362
vt 0.180346 0.170362
vt 0.266522 0.170650
vt 0.233468 0.170279
vt 0.203365 0.170650
vt 0.233468 0.170279
vt 0.266523 0.170650
vt 0.233468 0.170279
vt 0.203365 0.170650
vt 0.233468 0.170279
vt 0.233468 0.170279
vt 0.203365 0.170650
vt 0.203365 0.170650
vt 0.203365 0.170650
vt 0.233468 0.170279
vt 0.233468 0.170279
vt 0.233468 0.170279
vt 0.203365 0.170650
vt 0.233468 0.170279
vt 0.203365 0.170650
vt 0.203365 0.170650
vt 0.203365 0.170650
vt 0.233468 0.170279
vt 0.233468 0.170279
vt 0.233468 0.170279
vt 0.203365 0.170650
vt 0.234057 0.170567
vt 0.234057 0.170567
vt 0.203365 0.170650
vt 0.266523 0.170650
vt 0.266523 0.170650
vt 0.266523 0.170650
vt 0.203365 0.170650
vt 0.266522 0.170650
vt 0.266522 0.170650
vt 0.266522 0.170650
vn 0.000000 -0.866026 0.500000
vn 0.000000 -0.866026 0.500000
vn 0.000000 -0.866026 0.500000
vn 0.000000 -0.866026 0.500000
vn 0.000000 -0.866026 0.500000
vn 0.000000 -0.866026 0.500000
vn 0.000000 -0.866026 0.500000
vn 0.000000 -0.866026 0.500000
vn 0.000000 0.866025 -0.500000
vn 0.000000 0.866025 -0.500000
vn 0.000000 0.866025 -0.500000
vn 0.000000 0.866025 -0.500000
vn 0.000000 0.866025 -0.500000
vn 0.000000 0.866025 -0.500000
vn 0.000000 0.866025 -0.500000
vn 0.000000 0.866025 -0.500000
vn 0.000000 0.866025 -0.500000
vn 0.000000 0.866025 -0.500000
vn 0.000000 0.866025 -0.500000
vn 0.000000 0.866025 -0.500000
vn 0.000000 0.866025 -0.500000
vn 0.000000 0.866025 -0.500000
vn 0.000000 0.866025 -0.500000
vn 0.000000 0.866025 -0.500000
vn 0.000000 0.866025 -0.500000
vn 0.000000 0.866025 -0.500000
vn 0.000000 0.866025 -0.500000
vn 0.000000 0.866025 -0.500000
vn 0.000000 0.866025 -0.500000
vn 0.000000 0.866025 -0.500000
vn 0.000000 0.866025 -0.500000
vn 0.000000 0.866025 -0.500000
vn 0.000000 0.500000 0.866025
vn 0.000000 0.500000 0.866025
vn 0.000000 0.500000 0.866025
vn 0.000000 0.500000 0.866025
vn 0.000000 0.500000 0.866025
vn 0.000000 0.500000 0.866025
vn 0.000000 -0.499999 -0.866026
vn 0.000000 -0.499999 -0.866026
vn 0.000000 -0.499999 -0.866026
vn 0.000000 -0.499999 -0.866026
vn 0.000000 -0.499999 -0.866026
vn 0.000000 -0.499999 -0.866026
vn 0.000000 0.866025 -0.500000
vn 0.000000 0.866025 -0.500000
vn 0.000000 0.866026 -0.500000
vn 0.000000 0.866026 -0.500000
vn 0.000000 -0.499999 -0.866026
vn 0.000000 -0.499999 -0.866026
vn 0.000000 -0.499999 -0.866026
vn 0.000000 -0.499999 -0.866026
vn 0.000000 -0.499999 -0.866026
vn 0.000000 -0.499999 -0.866026
vn 0.000000 0.500000 0.866025
vn 0.000000 0.500000 0.866025
vn 0.000000 0.500000 0.866025
vn 0.000000 0.500000 0.866025
vn 0.000000 0.500000 0.866025
vn 0.000000 0.500000 0.866025
vn -0.000000 0.866026 -0.500000
vn -0.000000 0.866026 -0.500000
vn -0.000000 0.866025 -0.500000
vn -0.000000 0.866025 -0.500000
vn -1.000000 0.000000 0.000000
vn -1.000000 0.000000 0.000000
vn -1.000000 0.000000 0.000000
vn -1.000000 0.000000 0.000000
vn -0.000000 -0.500000 -0.866025
vn -0.000000 -0.500000 -0.866025
vn -0.000000 -0.500000 -0.866025
vn -0.000000 -0.500000 -0.866025
vn 1.000000 0.000000 0.000000
vn 1.000000 0.000000 0.000000
vn 1.000000 0.000000 0.000000
vn 1.000000 0.000000 0.000000
vn -0.000000 0.500000 0.866025
vn -0.000000 0.500000 0.866026
vn -0.000000 0.500000 0.866025
vn -0.000000 0.500000 0.866025
vn 1.000000 0.000000 0.000000
vn 1.000000 0.000000 0.000000
vn 1.000000 0.000000 0.000000
vn 1.000000 0.000000 0.000000
vn 0.000000 0.500000 0.866025
vn 0.000000 0.500000 0.866025
vn 0.000000 0.500000 0.866026
vn 0.000000 0.500000 0.866025
vn -1.000000 0.000000 0.000000
vn -1.000000 0.000000 0.000000
vn -1.000000 0.000000 0.000000
vn -1.000000 0.000000 0.000000
vn 0.000000 -0.500000 -0.866025
vn 0.000000 -0.500000 -0.866025
vn 0.000000 -0.500000 -0.866025
vn 0.000000 -0.500000 -0.866025
s off
f 17/41/1 18/46/2 16/45/3 15/42/4
f 19/57/5 20/58/6 15/42/7 16/45/8
f 7/17/9 8/18/10 2/19/11 4/20/12
f 1/21/13 6/22/14 5/23/15 3/24/16
f 5/25/17 6/26/18 8/27/19 7/28/20
f 13/29/21 14/30/22 4/31/23 2/32/24
f 9/33/25 12/34/26 11/35/27 10/36/28
f 11/37/29 12/38/30 14/39/31 13/40/32
f 18/2/33 3/8/34 5/7/35 7/6/36 4/5/37 16/3/38
f 17/9/39 15/83/40 2/84/41 8/13/42 6/11/43 1/10/44
f 22/59/45 24/90/46 23/91/47 21/92/48
f 20/49/49 10/52/50 11/51/51 13/50/52 2/15/53 15/16/54
f 19/53/55 16/3/56 4/5/57 14/56/58 12/55/59 9/54/60
f 26/63/61 28/86/62 27/87/63 25/88/64
f 3/1/65 22/89/66 21/78/67 1/82/68
f 1/4/69 21/60/70 23/79/71 17/80/72
f 17/12/73 23/61/74 24/76/75 18/77/76
f 18/14/77 24/62/78 22/75/79 3/81/80
f 10/43/81 26/85/82 25/70/83 9/74/84
f 9/44/85 25/64/86 27/71/87 19/72/88
f 19/47/89 27/65/90 28/68/91 20/69/92
f 20/48/93 28/66/94 26/67/95 10/73/96
