# This file uses meters as units for non-parametric coordinates.

v 0.000008 0.000000 -9.999973
v -9.999999 0.000000 -9.999973
v 0.000008 0.000000 0.000004
v -9.999999 0.000000 0.000004
v -1.358390 0.000000 0.000004
v -1.358390 0.000000 -9.999973
v -1.798453 0.000000 0.000004
v -1.798453 0.000000 -9.999973
vt 0.169016 0.064148
vt 0.169016 0.064148
vt 0.169016 0.064148
vt 0.169016 0.064148
vt 0.169016 0.064148
vt 0.169016 0.064148
vt 0.169016 0.064148
vt 0.169016 0.064148
vt 0.389062 0.063031
vt 0.389062 0.063031
vt 0.389062 0.063031
vt 0.389062 0.063031
vn 0.000000 1.000000 0.000000
vn 0.000000 1.000000 0.000000
vn 0.000000 1.000000 0.000000
vn 0.000000 1.000000 0.000000
vn 0.000000 1.000000 0.000000
vn 0.000000 1.000000 0.000000
vn 0.000000 1.000000 0.000000
vn 0.000000 1.000000 0.000000
s 1
f 7/7/1 8/8/2 2/3/3 4/2/4
f 1/1/5 6/6/6 5/5/7 3/4/8
f 5/9/7 6/10/6 8/11/2 7/12/1
