# This file uses meters as units for non-parametric coordinates.

v 8.974792 0.000000 20.000031
v 0.000031 0.000000 10.000000
v 8.974823 0.000000 10.000000
v 0.000000 0.000000 20.000031
v 0.000000 0.000000 18.641632
v 1.147186 0.000000 18.852844
v -0.000031 0.000000 18.201569
v 1.518829 0.000000 18.481201
v 4.981934 0.000000 15.018036
v 0.000000 0.000000 14.100800
v 6.713531 0.000000 13.286499
v 0.000031 0.000000 12.050415
v 7.579315 0.000000 12.420654
v 0.000000 0.000000 11.025208
v 5.847748 0.000000 14.152252
v 0.000000 0.000000 13.075562
v 3.250397 0.000000 16.749634
v 0.000000 0.000000 16.151154
v 1.358398 0.000000 20.000000
v 1.798462 0.000000 19.999969
v 5.899200 0.000000 19.999969
v 7.949615 0.000000 19.999969
v 6.924408 0.000000 19.999969
v 3.848816 0.000000 19.999969
v 10.000000 0.000000 11.025238
v 10.000000 0.000000 10.000000
v 10.000000 0.000000 20.000000
v 20.000000 0.000000 11.025238
v 20.000000 0.000000 20.000000
v 18.641602 0.000000 20.000000
v 18.852844 0.000000 18.852844
v 18.201538 0.000000 20.000031
v 18.481171 0.000000 18.481171
v 15.018005 0.000000 15.018066
v 14.100769 0.000000 20.000000
v 13.286469 0.000000 13.286469
v 12.050385 0.000000 19.999969
v 12.420624 0.000000 12.420685
v 11.025177 0.000000 20.000000
v 14.152222 0.000000 14.152252
v 13.075531 0.000000 20.000000
v 16.749603 0.000000 16.749634
v 16.151154 0.000000 20.000000
v 19.999969 0.000000 18.641632
v 19.999969 0.000000 18.201569
v 19.999939 0.000000 14.100800
v 19.999969 0.000000 12.050415
v 19.999969 0.000000 13.075592
v 19.999969 0.000000 16.151184
v 11.025177 0.000000 10.000000
v 19.999969 0.000000 10.000000
v 10.000000 0.000000 16.410065
v 10.968262 0.000000 11.583405
v 11.210327 0.000000 11.210327
v 11.583374 0.000000 10.968262
v 15.512604 0.000000 10.000000
v 9.031708 0.000000 11.583405
v 8.789673 0.000000 11.210358
v 8.416626 0.000000 10.968323
v 4.487396 0.000000 10.000000
v 11.025208 0.000000 -0.000031
v 20.000000 0.000000 -0.000031
v 20.000000 0.000000 1.358368
v 18.852814 0.000000 1.147156
v 20.000031 0.000000 1.798431
v 18.481171 0.000000 1.518799
v 15.018066 0.000000 4.981964
v 20.000000 0.000000 5.899200
v 13.286469 0.000000 6.713501
v 19.999969 0.000000 7.949585
v 12.420685 0.000000 7.579346
v 20.000000 0.000000 8.974792
v 14.152252 0.000000 5.847748
v 20.000000 0.000000 6.924438
v 16.749603 0.000000 3.250366
v 20.000000 0.000000 3.848846
v 18.641602 0.000000 0.000000
v 18.201538 0.000000 0.000031
v 14.100800 0.000000 0.000031
v 12.050385 0.000000 0.000031
v 13.075592 0.000000 0.000031
v 16.151184 0.000000 0.000031
v 10.000000 0.000000 8.974762
v 10.000000 0.000000 0.000000
v 0.000000 0.000000 8.974762
v 0.000000 0.000000 0.000000
v 1.358398 0.000000 0.000000
v 1.147156 0.000000 1.147156
v 1.798462 0.000000 -0.000031
v 1.518829 0.000000 1.518829
v 4.981995 0.000000 4.981934
v 5.899231 0.000000 0.000000
v 6.713531 0.000000 6.713531
v 7.949615 0.000000 0.000031
v 7.579376 0.000000 7.579315
v 8.974823 0.000000 0.000000
v 5.847778 0.000000 5.847748
v 6.924469 0.000000 0.000000
v 3.250397 0.000000 3.250366
v 3.848846 0.000000 0.000000
v 0.000031 0.000000 1.358368
v 0.000031 0.000000 1.798431
v 0.000061 0.000000 5.899200
v 0.000031 0.000000 7.949585
v 0.000031 0.000000 6.924408
v 0.000031 0.000000 3.848816
v 10.000000 0.000000 3.589935
v 9.031738 0.000000 8.416595
v 8.789673 0.000000 8.789673
v 8.416626 0.000000 9.031738
v 10.968292 0.000000 8.416595
v 11.210327 0.000000 8.789642
v 11.583374 0.000000 9.031677
vt 0.201872 0.047527
vt 0.233583 0.047527
vt 0.201872 0.047527
vt 0.265537 0.047527
vt 0.265537 0.047527
vt 0.265537 0.047527
vt 0.265537 0.047527
vt 0.265537 0.047527
vt 0.265537 0.047527
vt 0.265537 0.047527
vt 0.325897 0.046099
vt 0.325897 0.046099
vt 0.325897 0.046099
vt 0.325897 0.046099
vt 0.201630 0.047527
vt 0.201630 0.047527
vt 0.201630 0.047527
vt 0.201630 0.047527
vt 0.265536 0.047527
vt 0.265536 0.047527
vt 0.265536 0.047527
vt 0.265536 0.047527
vt 0.233583 0.047527
vt 0.233583 0.047527
vt 0.201872 0.047527
vt 0.233583 0.047527
vt 0.233583 0.047527
vt 0.233583 0.047527
vt 0.233583 0.047527
vt 0.233583 0.047527
vt 0.233583 0.047527
vt 0.233583 0.047527
vt 0.233583 0.047527
vt 0.233583 0.047527
vt 0.265537 0.047527
vt 0.265537 0.047527
vt 0.265537 0.047527
vt 0.265537 0.047527
vt 0.265537 0.047527
vt 0.265537 0.047527
vt 0.265537 0.047527
vt 0.325897 0.046099
vt 0.325897 0.046099
vt 0.325897 0.046099
vt 0.325897 0.046099
vt 0.201630 0.047527
vt 0.201630 0.047527
vt 0.201630 0.047527
vt 0.201630 0.047527
vt 0.265536 0.047527
vt 0.265536 0.047527
vt 0.265536 0.047527
vt 0.265536 0.047527
vt 0.233583 0.047527
vt 0.233583 0.047527
vt 0.233583 0.047527
vt 0.233583 0.047527
vt 0.233583 0.047527
vt 0.233583 0.047527
vt 0.233583 0.047527
vt 0.233583 0.047527
vt 0.233583 0.047527
vt 0.233583 0.047527
vt 0.201872 0.047527
vt 0.201872 0.047527
vt 0.233583 0.047527
vt 0.201872 0.047527
vt 0.265537 0.047527
vt 0.265537 0.047527
vt 0.265537 0.047527
vt 0.265537 0.047527
vt 0.265537 0.047527
vt 0.265537 0.047527
vt 0.265537 0.047527
vt 0.325897 0.046099
vt 0.325897 0.046099
vt 0.325897 0.046099
vt 0.325897 0.046099
vt 0.201630 0.047527
vt 0.201630 0.047527
vt 0.201630 0.047527
vt 0.201630 0.047527
vt 0.265536 0.047527
vt 0.265536 0.047527
vt 0.265536 0.047527
vt 0.265536 0.047527
vt 0.233583 0.047527
vt 0.233583 0.047527
vt 0.201872 0.047527
vt 0.233583 0.047527
vt 0.233583 0.047527
vt 0.233583 0.047527
vt 0.233583 0.047527
vt 0.233583 0.047527
vt 0.233583 0.047527
vt 0.233583 0.047527
vt 0.233583 0.047527
vt 0.233583 0.047527
vt 0.265537 0.047527
vt 0.265537 0.047527
vt 0.265537 0.047527
vt 0.265537 0.047527
vt 0.265537 0.047527
vt 0.265537 0.047527
vt 0.265537 0.047527
vt 0.325897 0.046099
vt 0.325897 0.046099
vt 0.325897 0.046099
vt 0.325897 0.046099
vt 0.201630 0.047527
vt 0.201630 0.047527
vt 0.201630 0.047527
vt 0.201630 0.047527
vt 0.265536 0.047527
vt 0.265536 0.047527
vt 0.265536 0.047527
vt 0.265536 0.047527
vt 0.233583 0.047527
vt 0.233583 0.047527
vt 0.233583 0.047527
vt 0.233583 0.047527
vt 0.233583 0.047527
vt 0.233583 0.047527
vt 0.233583 0.047527
vt 0.233583 0.047527
vt 0.233583 0.047527
vt 0.233583 0.047527
vt 0.201872 0.047527
vt 0.201872 0.047527
vt 0.233583 0.047527
vt 0.233583 0.047527
vt 0.233583 0.047527
vt 0.233583 0.047527
vt 0.233583 0.047527
vt 0.233583 0.047527
vt 0.201872 0.047527
vt 0.201872 0.047527
vt 0.201872 0.047527
vt 0.201872 0.047527
vt 0.201872 0.047527
vt 0.233583 0.047527
vt 0.233583 0.047527
vt 0.233583 0.047527
vt 0.201872 0.047527
vt 0.233583 0.047527
vt 0.201872 0.047527
vt 0.233583 0.047527
vt 0.201872 0.047527
vt 0.201872 0.047527
vt 0.201872 0.047527
vt 0.201872 0.047527
vt 0.201872 0.047527
vt 0.201872 0.047527
vt 0.201872 0.047527
vt 0.201872 0.047527
vt 0.201872 0.047527
vt 0.233583 0.047527
vt 0.201872 0.047527
vt 0.201872 0.047527
vt 0.201872 0.047527
vt 0.233583 0.047527
vt 0.233583 0.047527
vt 0.233583 0.047527
vt 0.265537 0.047527
vt 0.265537 0.047527
vt 0.265537 0.047527
vt 0.265537 0.047527
vt 0.265537 0.047527
vt 0.265537 0.047527
vt 0.265537 0.047527
vt 0.325897 0.046099
vt 0.325897 0.046099
vt 0.325897 0.046099
vt 0.325897 0.046099
vt 0.201630 0.047527
vt 0.201630 0.047527
vt 0.201630 0.047527
vt 0.201630 0.047527
vt 0.265536 0.047527
vt 0.265536 0.047527
vt 0.265536 0.047527
vt 0.265536 0.047527
vt 0.233583 0.047527
vt 0.233583 0.047527
vt 0.233583 0.047527
vt 0.233583 0.047527
vt 0.233583 0.047527
vt 0.233583 0.047527
vt 0.233583 0.047527
vt 0.233583 0.047527
vt 0.233583 0.047527
vt 0.233583 0.047527
vt 0.233583 0.047527
vt 0.233583 0.047527
vt 0.233583 0.047527
vt 0.265537 0.047527
vt 0.265537 0.047527
vt 0.265537 0.047527
vt 0.265537 0.047527
vt 0.265537 0.047527
vt 0.265537 0.047527
vt 0.265537 0.047527
vt 0.325897 0.046099
vt 0.325897 0.046099
vt 0.325897 0.046099
vt 0.325897 0.046099
vt 0.201630 0.047527
vt 0.201630 0.047527
vt 0.201630 0.047527
vt 0.201630 0.047527
vt 0.265536 0.047527
vt 0.265536 0.047527
vt 0.265536 0.047527
vt 0.265536 0.047527
vt 0.233583 0.047527
vt 0.233583 0.047527
vt 0.233583 0.047527
vt 0.233583 0.047527
vt 0.233583 0.047527
vt 0.233583 0.047527
vt 0.233583 0.047527
vt 0.233583 0.047527
vt 0.233583 0.047527
vt 0.233583 0.047527
vt 0.233583 0.047527
vt 0.233583 0.047527
vt 0.201872 0.047527
vt 0.201872 0.047527
vt 0.201872 0.047527
vt 0.201872 0.047527
vt 0.265537 0.047527
vt 0.265537 0.047527
vt 0.265537 0.047527
vt 0.265537 0.047527
vt 0.265537 0.047527
vt 0.265537 0.047527
vt 0.265537 0.047527
vt 0.325897 0.046099
vt 0.325897 0.046099
vt 0.325897 0.046099
vt 0.325897 0.046099
vt 0.201630 0.047527
vt 0.201630 0.047527
vt 0.201630 0.047527
vt 0.201630 0.047527
vt 0.265536 0.047527
vt 0.265536 0.047527
vt 0.265536 0.047527
vt 0.265536 0.047527
vt 0.201872 0.047527
vt 0.201872 0.047527
vt 0.201872 0.047527
vt 0.233583 0.047527
vt 0.233583 0.047527
vt 0.233583 0.047527
vt 0.233583 0.047527
vt 0.233583 0.047527
vt 0.233583 0.047527
vt 0.233583 0.047527
vt 0.233583 0.047527
vt 0.265537 0.047527
vt 0.265537 0.047527
vt 0.265537 0.047527
vt 0.265537 0.047527
vt 0.265537 0.047527
vt 0.265537 0.047527
vt 0.265537 0.047527
vt 0.325897 0.046099
vt 0.325897 0.046099
vt 0.325897 0.046099
vt 0.325897 0.046099
vt 0.201630 0.047527
vt 0.201630 0.047527
vt 0.201630 0.047527
vt 0.201630 0.047527
vt 0.265536 0.047527
vt 0.265536 0.047527
vt 0.265536 0.047527
vt 0.265536 0.047527
vt 0.233583 0.047527
vt 0.233583 0.047527
vt 0.233583 0.047527
vt 0.233583 0.047527
vt 0.233583 0.047527
vt 0.233583 0.047527
vt 0.233583 0.047527
vt 0.233583 0.047527
vt 0.201872 0.047527
vt 0.201872 0.047527
vt 0.201872 0.047527
vt 0.201872 0.047527
vt 0.201872 0.047527
vt 0.201872 0.047527
vt 0.201872 0.047527
vt 0.233583 0.047527
vt 0.233583 0.047527
vt 0.233583 0.047527
vt 0.233583 0.047527
vt 0.233583 0.047527
vt 0.233583 0.047527
vt 0.233583 0.047527
vt 0.233583 0.047527
vt 0.233583 0.047527
vt 0.233583 0.047527
vt 0.233583 0.047527
vt 0.233583 0.047527
vt 0.201872 0.047527
vt 0.201872 0.047527
vt 0.201872 0.047527
vt 0.201872 0.047527
vt 0.201872 0.047527
vt 0.201872 0.047527
vt 0.201872 0.047527
vt 0.201872 0.047527
vt 0.201872 0.047527
vt 0.201872 0.047527
vt 0.201872 0.047527
vt 0.201872 0.047527
vt 0.201872 0.047527
vt 0.201872 0.047527
vn 0.000000 1.000000 0.000000
vn 0.000000 1.000000 0.000000
vn 0.000000 1.000000 0.000000
vn 0.000000 1.000000 0.000000
vn 0.000000 1.000000 0.000000
vn 0.000000 1.000000 0.000000
vn 0.000000 1.000000 0.000000
vn 0.000000 1.000000 0.000000
vn 0.000000 1.000000 0.000000
vn 0.000000 1.000000 0.000000
vn 0.000000 1.000000 0.000000
vn 0.000000 1.000000 0.000000
vn 0.000000 1.000000 0.000000
vn 0.000000 1.000000 0.000000
vn 0.000000 1.000000 0.000000
vn 0.000000 1.000000 0.000000
vn 0.000000 1.000000 0.000000
vn 0.000000 1.000000 0.000000
vn 0.000000 1.000000 0.000000
vn 0.000000 1.000000 0.000000
vn 0.000000 1.000000 0.000000
vn 0.000000 1.000000 0.000000
vn 0.000000 1.000000 0.000000
vn 0.000000 1.000000 0.000000
vn 0.000000 1.000000 0.000000
vn 0.000000 1.000000 0.000000
vn 0.000000 1.000000 0.000000
vn 0.000000 1.000000 0.000000
vn 0.000000 1.000000 0.000000
vn 0.000000 1.000000 0.000000
vn 0.000000 1.000000 0.000000
vn 0.000000 1.000000 0.000000
vn 0.000000 1.000000 0.000000
vn 0.000000 1.000000 0.000000
vn 0.000000 1.000000 0.000000
vn 0.000000 1.000000 0.000000
vn 0.000000 1.000000 0.000000
vn 0.000000 1.000000 0.000000
vn 0.000000 1.000000 0.000000
vn 0.000000 1.000000 0.000000
vn 0.000000 1.000000 0.000000
vn 0.000000 1.000000 0.000000
vn 0.000000 1.000000 0.000000
vn 0.000000 1.000000 0.000000
vn 0.000000 1.000000 0.000000
vn 0.000000 1.000000 0.000000
vn 0.000000 1.000000 0.000000
vn 0.000000 1.000000 0.000000
vn 0.000000 1.000000 0.000000
vn 0.000000 1.000000 0.000000
vn 0.000000 1.000000 0.000000
vn 0.000000 1.000000 0.000000
vn 0.000000 1.000000 0.000000
vn 0.000000 1.000000 0.000000
vn 0.000000 1.000000 0.000000
vn 0.000000 1.000000 0.000000
vn 0.000000 1.000000 0.000000
vn 0.000000 1.000000 0.000000
vn 0.000000 1.000000 0.000000
vn 0.000000 1.000000 0.000000
vn 0.000000 1.000000 0.000000
vn 0.000000 1.000000 0.000000
vn 0.000000 1.000000 0.000000
vn 0.000000 1.000000 0.000000
vn 0.000000 1.000000 0.000000
vn 0.000000 1.000000 0.000000
vn 0.000000 1.000000 0.000000
vn 0.000000 1.000000 0.000000
vn 0.000000 1.000000 0.000000
vn 0.000000 1.000000 0.000000
vn 0.000000 1.000000 0.000000
vn 0.000000 1.000000 0.000000
vn 0.000000 1.000000 0.000000
vn 0.000000 1.000000 0.000000
vn 0.000000 1.000000 0.000000
vn 0.000000 1.000000 0.000000
vn 0.000000 1.000000 0.000000
vn 0.000000 1.000000 0.000000
vn 0.000000 1.000000 0.000000
vn 0.000000 1.000000 0.000000
vn 0.000000 1.000000 0.000000
vn 0.000000 1.000000 0.000000
vn 0.000000 1.000000 0.000000
vn 0.000000 1.000000 0.000000
vn 0.000000 1.000000 0.000000
vn 0.000000 1.000000 0.000000
vn 0.000000 1.000000 0.000000
vn 0.000000 1.000000 0.000000
vn 0.000000 1.000000 0.000000
vn 0.000000 1.000000 0.000000
vn 0.000000 1.000000 0.000000
vn 0.000000 1.000000 0.000000
vn 0.000000 1.000000 0.000000
vn 0.000000 1.000000 0.000000
vn 0.000000 1.000000 0.000000
vn 0.000000 1.000000 0.000000
vn 0.000000 1.000000 0.000000
vn 0.000000 1.000000 0.000000
vn 0.000000 1.000000 0.000000
vn 0.000000 1.000000 0.000000
vn 0.000000 1.000000 0.000000
vn 0.000000 1.000000 0.000000
vn 0.000000 1.000000 0.000000
vn 0.000000 1.000000 0.000000
vn 0.000000 1.000000 0.000000
vn 0.000000 1.000000 0.000000
vn 0.000000 1.000000 0.000000
vn 0.000000 1.000000 0.000000
vn 0.000000 1.000000 0.000000
vn 0.000000 1.000000 0.000000
vn 0.000000 1.000000 0.000000
vn 0.000000 1.000000 0.000000
vn 0.000000 1.000000 0.000000
vn 0.000000 1.000000 0.000000
vn 0.000000 1.000000 0.000000
vn 0.000000 1.000000 0.000000
vn 0.000000 1.000000 0.000000
vn 0.000000 1.000000 0.000000
vn 0.000000 1.000000 0.000000
vn 0.000000 1.000000 0.000000
vn 0.000000 1.000000 0.000000
vn 0.000000 1.000000 0.000000
vn 0.000000 1.000000 0.000000
vn 0.000000 1.000000 0.000000
vn 0.000000 1.000000 0.000000
vn 0.000000 1.000000 0.000000
vn 0.000000 1.000000 0.000000
vn 0.000000 1.000000 0.000000
vn 0.000000 1.000000 0.000000
vn 0.000000 1.000000 0.000000
vn 0.000000 1.000000 0.000000
vn 0.000000 1.000000 0.000000
vn 0.000000 1.000000 0.000000
vn 0.000000 1.000000 0.000000
vn 0.000000 1.000000 0.000000
vn 0.000000 1.000000 0.000000
vn 0.000000 1.000000 0.000000
vn 0.000000 1.000000 0.000000
vn 0.000000 1.000000 0.000000
vn 0.000000 1.000000 0.000000
vn 0.000000 1.000000 0.000000
vn 0.000000 1.000000 0.000000
vn 0.000000 1.000000 0.000000
vn 0.000000 1.000000 0.000000
vn 0.000000 1.000000 0.000000
vn 0.000000 1.000000 0.000000
vn 0.000000 1.000000 0.000000
vn 0.000000 1.000000 0.000000
vn 0.000000 1.000000 0.000000
vn 0.000000 1.000000 0.000000
vn 0.000000 1.000000 0.000000
vn 0.000000 1.000000 0.000000
vn 0.000000 1.000000 0.000000
vn 0.000000 1.000000 0.000000
vn 0.000000 1.000000 0.000000
vn 0.000000 1.000000 0.000000
vn 0.000000 1.000000 0.000000
vn 0.000000 1.000000 0.000000
vn 0.000000 1.000000 0.000000
vn 0.000000 1.000000 0.000000
vn 0.000000 1.000000 0.000000
vn 0.000000 1.000000 0.000000
vn 0.000000 1.000000 0.000000
vn 0.000000 1.000000 0.000000
vn 0.000000 1.000000 0.000000
vn 0.000000 1.000000 0.000000
vn 0.000000 1.000000 0.000000
vn 0.000000 1.000000 0.000000
vn 0.000000 1.000000 0.000000
vn 0.000000 1.000000 0.000000
vn 0.000000 1.000000 0.000000
vn 0.000000 1.000000 0.000000
vn 0.000000 1.000000 0.000000
vn 0.000000 1.000000 0.000000
vn 0.000000 1.000000 0.000000
vn 0.000000 1.000000 0.000000
vn 0.000000 1.000000 0.000000
vn 0.000000 1.000000 0.000000
vn 0.000000 1.000000 0.000000
vn 0.000000 1.000000 0.000000
vn 0.000000 1.000000 0.000000
vn 0.000000 1.000000 0.000000
vn 0.000000 1.000000 0.000000
vn 0.000000 1.000000 0.000000
vn 0.000000 1.000000 0.000000
vn 0.000000 1.000000 0.000000
vn 0.000000 1.000000 0.000000
vn 0.000000 1.000000 0.000000
vn 0.000000 1.000000 0.000000
vn 0.000000 1.000000 0.000000
vn 0.000000 1.000000 0.000000
vn 0.000000 1.000000 0.000000
vn 0.000000 1.000000 0.000000
vn 0.000000 1.000000 0.000000
vn 0.000000 1.000000 0.000000
vn 0.000000 1.000000 0.000000
vn 0.000000 1.000000 0.000000
vn 0.000000 1.000000 0.000000
vn 0.000000 1.000000 0.000000
vn 0.000000 1.000000 0.000000
vn 0.000000 1.000000 0.000000
vn 0.000000 1.000000 0.000000
vn 0.000000 1.000000 0.000000
vn 0.000000 1.000000 0.000000
vn 0.000000 1.000000 0.000000
vn 0.000000 1.000000 0.000000
vn 0.000000 1.000000 0.000000
vn 0.000000 1.000000 0.000000
vn 0.000000 1.000000 0.000000
vn 0.000000 1.000000 0.000000
vn 0.000000 1.000000 0.000000
vn 0.000000 1.000000 0.000000
vn 0.000000 1.000000 0.000000
vn 0.000000 1.000000 0.000000
vn 0.000000 1.000000 0.000000
vn 0.000000 1.000000 0.000000
vn 0.000000 1.000000 0.000000
vn 0.000000 1.000000 0.000000
vn 0.000000 1.000000 0.000000
vn 0.000000 1.000000 0.000000
vn 0.000000 1.000000 0.000000
vn 0.000000 1.000000 0.000000
vn 0.000000 1.000000 0.000000
vn 0.000000 1.000000 0.000000
vn 0.000000 1.000000 0.000000
vn 0.000000 1.000000 0.000000
vn 0.000000 1.000000 0.000000
vn 0.000000 1.000000 0.000000
vn 0.000000 1.000000 0.000000
vn 0.000000 1.000000 0.000000
vn 0.000000 1.000000 0.000000
vn 0.000000 1.000000 0.000000
vn 0.000000 1.000000 0.000000
vn 0.000000 1.000000 0.000000
vn 0.000000 1.000000 0.000000
vn 0.000000 1.000000 0.000000
vn 0.000000 1.000000 0.000000
vn 0.000000 1.000000 0.000000
vn 0.000000 1.000000 0.000000
vn 0.000000 1.000000 0.000000
vn 0.000000 1.000000 0.000000
vn 0.000000 1.000000 0.000000
vn 0.000000 1.000000 0.000000
vn 0.000000 1.000000 0.000000
vn 0.000000 1.000000 0.000000
vn 0.000000 1.000000 0.000000
vn 0.000000 1.000000 0.000000
vn 0.000000 1.000000 0.000000
vn 0.000000 1.000000 0.000000
vn 0.000000 1.000000 0.000000
vn 0.000000 1.000000 0.000000
vn 0.000000 1.000000 0.000000
vn 0.000000 1.000000 0.000000
vn 0.000000 1.000000 0.000000
vn 0.000000 1.000000 0.000000
vn 0.000000 1.000000 0.000000
vn 0.000000 1.000000 0.000000
vn 0.000000 1.000000 0.000000
vn 0.000000 1.000000 0.000000
vn 0.000000 1.000000 0.000000
vn 0.000000 1.000000 0.000000
vn 0.000000 1.000000 0.000000
vn 0.000000 1.000000 0.000000
vn 0.000000 1.000000 0.000000
vn 0.000000 1.000000 0.000000
vn 0.000000 1.000000 0.000000
vn 0.000000 1.000000 0.000000
vn 0.000000 1.000000 0.000000
vn 0.000000 1.000000 0.000000
vn 0.000000 1.000000 0.000000
vn 0.000000 1.000000 0.000000
vn 0.000000 1.000000 0.000000
vn 0.000000 1.000000 0.000000
vn 0.000000 1.000000 0.000000
vn 0.000000 1.000000 0.000000
vn 0.000000 1.000000 0.000000
vn 0.000000 1.000000 0.000000
vn 0.000000 1.000000 0.000000
vn 0.000000 1.000000 0.000000
vn 0.000000 1.000000 0.000000
vn 0.000000 1.000000 0.000000
vn 0.000000 1.000000 0.000000
vn 0.000000 1.000000 0.000000
vn 0.000000 1.000000 0.000000
vn 0.000000 1.000000 0.000000
vn 0.000000 1.000000 0.000000
vn 0.000000 1.000000 0.000000
vn 0.000000 1.000000 0.000000
vn 0.000000 1.000000 0.000000
vn 0.000000 1.000000 0.000000
vn 0.000000 1.000000 0.000000
vn 0.000000 1.000000 0.000000
vn 0.000000 1.000000 0.000000
vn 0.000000 1.000000 0.000000
vn 0.000000 1.000000 0.000000
vn 0.000000 1.000000 0.000000
vn 0.000000 1.000000 0.000000
vn 0.000000 1.000000 0.000000
vn 0.000000 1.000000 0.000000
vn 0.000000 1.000000 0.000000
vn 0.000000 1.000000 0.000000
vn 0.000000 1.000000 0.000000
vn 0.000000 1.000000 0.000000
vn 0.000000 1.000000 0.000000
vn 0.000000 1.000000 0.000000
vn 0.000000 1.000000 0.000000
vn 0.000000 1.000000 0.000000
vn 0.000000 1.000000 0.000000
vn 0.000000 1.000000 0.000000
vn 0.000000 1.000000 0.000000
vn 0.000000 1.000000 0.000000
vn 0.000000 1.000000 0.000000
vn 0.000000 1.000000 0.000000
vn 0.000000 1.000000 0.000000
vn 0.000000 1.000000 0.000000
vn 0.000000 1.000000 0.000000
vn 0.000000 1.000000 0.000000
vn 0.000000 1.000000 0.000000
vn 0.000000 1.000000 0.000000
vn 0.000000 1.000000 0.000000
vn 0.000000 1.000000 0.000000
vn 0.000000 1.000000 0.000000
vn 0.000000 1.000000 0.000000
vn 0.000000 1.000000 0.000000
vn 0.000000 1.000000 0.000000
vn 0.000000 1.000000 0.000000
vn 0.000000 1.000000 0.000000
vn 0.000000 1.000000 0.000000
vn 0.000000 1.000000 0.000000
vn 0.000000 1.000000 0.000000
vn 0.000000 1.000000 0.000000
vn 0.000000 1.000000 0.000000
vn 0.000000 1.000000 0.000000
vn 0.000000 1.000000 0.000000
vn 0.000000 1.000000 0.000000
vn 0.000000 1.000000 0.000000
s off
f 57/147/1 58/145/2 13/2/3
f 7/4/4 8/5/5 17/6/6 18/7/7
f 4/8/8 6/9/9 5/10/10
f 5/11/11 6/12/12 8/13/13 7/14/14
f 10/15/15 9/16/16 15/17/17 16/18/18
f 12/19/19 11/20/20 13/21/21 14/22/22
f 14/23/23 13/24/24 59/142/25 60/143/26 2/26/27
f 16/27/28 15/28/29 11/29/30 12/30/31
f 18/31/32 17/32/33 9/33/34 10/34/35
f 20/35/36 24/36/37 17/37/38 8/38/39
f 4/39/40 19/40/41 6/41/42
f 19/42/43 20/43/44 8/44/45 6/45/46
f 21/46/47 23/47/48 15/48/49 9/49/50
f 22/50/51 1/51/52 13/52/53 11/53/54
f 23/54/55 22/55/56 11/56/57 15/57/58
f 24/58/59 21/59/60 9/60/61 17/61/62
f 52/135/63 57/147/64 13/2/65 1/62/66 27/63/67
f 58/145/68 59/141/69 13/2/70
f 26/65/71 54/154/72 55/150/73 50/158/74
f 32/68/75 33/69/76 42/70/77 43/71/78
f 29/72/79 31/73/80 30/74/81
f 30/75/82 31/76/83 33/77/84 32/78/85
f 35/79/86 34/80/87 40/81/88 41/82/89
f 37/83/90 36/84/91 38/85/92 39/86/93
f 52/129/94 53/155/95 25/89/96
f 41/91/97 40/92/98 36/93/99 37/94/100
f 43/95/101 42/96/102 34/97/103 35/98/104
f 45/99/105 49/100/106 42/101/107 33/102/108
f 29/103/109 44/104/110 31/105/111
f 44/106/112 45/107/113 33/108/114 31/109/115
f 46/110/116 48/111/117 40/112/118 34/113/119
f 47/114/120 28/115/121 38/116/122 36/117/123
f 48/118/124 47/119/125 36/120/126 40/121/127
f 49/122/128 46/123/129 34/124/130 42/125/131
f 50/67/132 55/151/133 56/152/134
f 26/159/135 25/128/136 53/156/137 54/153/138
f 39/87/139 38/88/140 53/130/141 52/157/142 27/90/143
f 54/132/144 53/131/145 38/66/146
f 55/133/147 54/132/148 38/66/149
f 56/134/150 55/133/151 38/66/152 28/126/153 51/127/154
f 25/3/155 57/146/156 52/148/157
f 26/1/158 58/144/159 57/136/160 25/149/161
f 26/160/162 3/64/163 59/139/164 58/137/165
f 60/140/166 59/138/167 3/25/168
f 111/161/169 112/162/170 71/163/171
f 65/164/172 66/165/173 75/166/174 76/167/175
f 62/168/176 64/169/177 63/170/178
f 63/171/179 64/172/180 66/173/181 65/174/182
f 68/175/183 67/176/184 73/177/185 74/178/186
f 70/179/187 69/180/188 71/181/189 72/182/190
f 72/183/191 71/184/192 113/185/193 56/186/194 51/187/195
f 74/188/196 73/189/197 69/190/198 70/191/199
f 76/192/200 75/193/201 67/194/202 68/195/203
f 78/196/204 82/197/205 75/198/206 66/199/207
f 62/200/208 77/201/209 64/202/210
f 77/203/211 78/204/212 66/205/213 64/206/214
f 79/207/215 81/208/216 73/209/217 67/210/218
f 80/211/219 61/212/220 71/213/221 69/214/222
f 81/215/223 80/216/224 69/217/225 73/218/226
f 82/219/227 79/220/228 67/221/229 75/222/230
f 107/223/231 111/161/232 71/163/233 61/224/234 84/225/235
f 112/162/236 113/226/237 71/163/238
f 26/227/239 109/228/240 110/229/241 3/230/242
f 89/231/243 90/232/244 99/233/245 100/234/246
f 86/235/247 88/236/248 87/237/249
f 87/238/250 88/239/251 90/240/252 89/241/253
f 92/242/254 91/243/255 97/244/256 98/245/257
f 94/246/258 93/247/259 95/248/260 96/249/261
f 107/250/262 108/251/263 83/252/264
f 98/253/265 97/254/266 93/255/267 94/256/268
f 100/257/269 99/258/270 91/259/271 92/260/272
f 102/261/273 106/262/274 99/263/275 90/264/276
f 86/265/277 101/266/278 88/267/279
f 101/268/280 102/269/281 90/270/282 88/271/283
f 103/272/284 105/273/285 97/274/286 91/275/287
f 104/276/288 85/277/289 95/278/290 93/279/291
f 105/280/292 104/281/293 93/282/294 97/283/295
f 106/284/296 103/285/297 91/286/298 99/287/299
f 3/288/300 110/289/301 60/290/302
f 26/291/303 83/292/304 108/293/305 109/294/306
f 96/295/307 95/296/308 108/297/309 107/298/310 84/299/311
f 109/300/312 108/301/313 95/302/314
f 110/303/315 109/300/316 95/302/317
f 60/304/318 110/303/319 95/302/320 85/305/321 2/306/322
f 83/307/323 111/308/324 107/309/325
f 26/310/326 112/311/327 111/312/328 83/313/329
f 26/314/330 50/315/331 113/316/332 112/317/333
f 56/318/334 113/319/335 50/320/336
