# This file uses meters as units for non-parametric coordinates.

v 10.000000 0.000000 0.000000
v 0.000000 0.000000 0.000004
v 10.000000 5.110780 19.073689
v 0.000000 5.110780 19.073689
v 8.641609 5.110780 19.073689
v 8.641601 0.000000 0.000000
v 8.201546 5.110780 19.073689
v 8.201537 0.000000 0.000000
v -10.000000 5.110780 19.073689
v -10.000000 0.000000 0.000000
v -8.641602 0.000000 0.000000
v -8.641602 5.110780 19.073689
v -8.201538 0.000000 0.000000
v -8.201538 5.110780 19.073689
v 0.000000 -1.079230 0.623093
v 0.000000 3.864593 19.073689
v 11.142740 -1.079230 0.623093
v 11.142746 3.864593 19.073689
v -11.142738 3.864593 19.073689
v -11.142740 -1.079230 0.623093
v 10.000000 1.339324 -0.773259
v 10.000000 6.657299 19.073689
v 11.142740 1.339324 -0.773259
v 11.142746 6.657299 19.073689
v -10.000000 6.657299 19.073689
v -10.000000 1.339324 -0.773259
v -11.142738 6.657299 19.073689
v -11.142740 1.339324 -0.773259
v 8.201538 3.680912 9.235256
v 0.000000 3.680912 9.235256
v -8.201538 3.680912 9.235256
v -8.641602 3.680912 9.235256
v -10.000000 3.680912 9.235256
v -10.000000 5.174734 8.834988
v -11.142738 5.174734 8.834988
v -11.142738 2.477187 9.557796
v 0.000000 2.477187 9.557796
v 11.142746 2.477187 9.557796
v 11.142746 5.174734 8.834988
v 10.000000 5.174734 8.834988
v 10.000000 3.680912 9.235256
v 8.641602 3.680912 9.235256
v 10.000000 2.111998 4.509411
v 10.000000 3.548611 3.936817
v 11.142746 3.548611 3.936817
v 11.142746 0.954372 4.970806
v 0.000000 0.954372 4.970806
v -11.142738 0.954372 4.970806
v -11.142738 3.548611 3.936817
v -10.000000 3.548611 3.936817
v -10.000000 2.111998 4.509411
v -8.641602 2.111998 4.509411
v -8.201538 2.111998 4.509411
v 0.000000 2.111998 4.509411
v 8.201538 2.111998 4.509411
v 8.641602 2.111998 4.509411
v 8.201538 4.685122 14.112438
v 0.000000 4.685122 14.112438
v -8.201538 4.685122 14.112438
v -8.641602 4.685122 14.112438
v -10.000000 4.685122 14.112438
v -10.000000 6.215562 13.890011
v -11.142738 6.215561 13.890011
v -11.142738 3.451891 14.291668
v 0.000000 3.451891 14.291668
v 11.142746 3.451891 14.291668
v 11.142746 6.215561 13.890011
v 10.000000 6.215562 13.890011
v 10.000000 4.685122 14.112438
v 8.641602 4.685122 14.112438
vt 0.203365 0.198022
vt 0.234058 0.197939
vt 0.234057 0.197939
vt 0.233468 0.197651
vt 0.234057 0.197939
vt 0.234058 0.197939
vt 0.234058 0.197939
vt 0.234058 0.197939
vt 0.234058 0.197939
vt 0.234058 0.197939
vt 0.234058 0.197939
vt 0.203365 0.198022
vt 0.234058 0.197939
vt 0.233468 0.197651
vt 0.233468 0.197651
vt 0.233468 0.197651
vt 0.169016 0.064148
vt 0.169016 0.064148
vt 0.169016 0.064148
vt 0.169016 0.064148
vt 0.169016 0.064148
vt 0.169016 0.064148
vt 0.169016 0.064148
vt 0.169016 0.064148
vt 0.389062 0.063031
vt 0.389062 0.063031
vt 0.389062 0.063031
vt 0.389062 0.063031
vt 0.169016 0.064148
vt 0.169016 0.064148
vt 0.169016 0.064148
vt 0.169016 0.064148
vt 0.169016 0.064148
vt 0.169016 0.064148
vt 0.169016 0.064148
vt 0.169016 0.064148
vt 0.389062 0.063031
vt 0.389062 0.063031
vt 0.389062 0.063031
vt 0.389062 0.063031
vt 0.180345 0.197733
vt 0.180345 0.197733
vt 0.203365 0.198022
vt 0.233468 0.197651
vt 0.180345 0.197733
vt 0.180345 0.197733
vt 0.203365 0.198022
vt 0.233468 0.197651
vt 0.233468 0.197651
vt 0.233468 0.197651
vt 0.233468 0.197651
vt 0.233468 0.197651
vt 0.234058 0.197939
vt 0.234058 0.197939
vt 0.234058 0.197939
vt 0.234058 0.197939
vt 0.180346 0.197733
vt 0.180346 0.197733
vt 0.266522 0.198022
vt 0.233468 0.197651
vt 0.203365 0.198022
vt 0.233468 0.197651
vt 0.266523 0.198022
vt 0.233468 0.197651
vt 0.203365 0.198022
vt 0.233468 0.197651
vt 0.233468 0.197651
vt 0.203365 0.198022
vt 0.203365 0.198022
vt 0.203365 0.198022
vt 0.233468 0.197651
vt 0.233468 0.197651
vt 0.233468 0.197651
vt 0.203365 0.198022
vt 0.233468 0.197651
vt 0.203365 0.198022
vt 0.203365 0.198022
vt 0.203365 0.198022
vt 0.233468 0.197651
vt 0.233468 0.197651
vt 0.233468 0.197651
vt 0.203365 0.198022
vt 0.234057 0.197939
vt 0.234057 0.197939
vt 0.203365 0.198022
vt 0.266523 0.198022
vt 0.266523 0.198022
vt 0.266523 0.198022
vt 0.203365 0.198022
vt 0.266522 0.198022
vt 0.266522 0.198022
vt 0.266522 0.198022
vt 0.389062 0.063031
vt 0.169016 0.064148
vt 0.169016 0.064148
vt 0.169016 0.064148
vt 0.389062 0.063031
vt 0.169016 0.064148
vt 0.169016 0.064148
vt 0.389062 0.063031
vt 0.169016 0.064148
vt 0.203365 0.198022
vt 0.203365 0.198022
vt 0.266523 0.198022
vt 0.266523 0.198022
vt 0.203365 0.198022
vt 0.203365 0.198022
vt 0.180346 0.197733
vt 0.180345 0.197733
vt 0.203365 0.198022
vt 0.180345 0.197733
vt 0.266522 0.198022
vt 0.203365 0.198022
vt 0.203365 0.198022
vt 0.266522 0.198022
vt 0.169016 0.064148
vt 0.203365 0.198022
vt 0.169016 0.064148
vt 0.389062 0.063031
vt 0.169016 0.064148
vt 0.203365 0.198022
vt 0.203365 0.198022
vt 0.266522 0.198022
vt 0.266522 0.198022
vt 0.203365 0.198022
vt 0.203365 0.198022
vt 0.180345 0.197733
vt 0.180345 0.197733
vt 0.203365 0.198022
vt 0.180346 0.197733
vt 0.266523 0.198022
vt 0.203365 0.198022
vt 0.203365 0.198022
vt 0.266523 0.198022
vt 0.169016 0.064148
vt 0.203365 0.198022
vt 0.169016 0.064148
vt 0.389062 0.063031
vt 0.389062 0.063031
vt 0.169016 0.064148
vt 0.169016 0.064148
vt 0.169016 0.064148
vt 0.389062 0.063031
vt 0.169016 0.064148
vt 0.169016 0.064148
vt 0.389062 0.063031
vt 0.389062 0.063031
vt 0.169016 0.064148
vt 0.169016 0.064148
vt 0.169016 0.064148
vt 0.389062 0.063031
vt 0.169016 0.064148
vt 0.169016 0.064148
vt 0.389062 0.063031
vt 0.169016 0.064148
vt 0.203365 0.198022
vt 0.203365 0.198022
vt 0.266523 0.198022
vt 0.266523 0.198022
vt 0.203365 0.198022
vt 0.203365 0.198022
vt 0.180346 0.197733
vt 0.180345 0.197733
vt 0.203365 0.198022
vt 0.180345 0.197733
vt 0.266522 0.198022
vt 0.203365 0.198022
vt 0.203365 0.198022
vt 0.266522 0.198022
vt 0.169016 0.064148
vt 0.203365 0.198022
vt 0.169016 0.064148
vt 0.389062 0.063031
vn 0.000000 -0.949066 0.315076
vn 0.000000 -0.949066 0.315076
vn 0.000000 -0.949066 0.315076
vn 0.000000 -0.949066 0.315076
vn 0.000000 -0.949066 0.315077
vn 0.000000 -0.949066 0.315077
vn 0.000000 -0.949066 0.315077
vn 0.000000 -0.949066 0.315077
vn 0.000000 0.949066 -0.315077
vn 0.000000 0.949066 -0.315077
vn 0.000000 0.949066 -0.315077
vn 0.000000 0.949066 -0.315077
vn 0.000000 0.949066 -0.315077
vn 0.000000 0.949066 -0.315077
vn 0.000000 0.949066 -0.315077
vn 0.000000 0.949066 -0.315077
vn 0.000000 0.949066 -0.315077
vn 0.000000 0.949066 -0.315077
vn 0.000000 0.949066 -0.315077
vn 0.000000 0.949066 -0.315077
vn 0.000000 0.949066 -0.315077
vn 0.000000 0.949066 -0.315077
vn 0.000000 0.949066 -0.315077
vn 0.000000 0.949066 -0.315077
vn 0.000000 0.949066 -0.315077
vn 0.000000 0.949066 -0.315077
vn 0.000000 0.949066 -0.315077
vn 0.000000 0.949066 -0.315077
vn 0.000000 0.949066 -0.315077
vn 0.000000 0.949066 -0.315077
vn 0.000000 0.949066 -0.315077
vn 0.000000 0.949066 -0.315077
vn 0.000000 0.000000 1.000000
vn 0.000000 0.000000 1.000000
vn 0.000000 0.000000 1.000000
vn 0.000000 0.000000 1.000000
vn 0.000000 0.000000 1.000000
vn 0.000000 0.000000 1.000000
vn -0.000000 -0.499999 -0.866026
vn -0.000000 -0.499999 -0.866026
vn -0.000000 -0.499999 -0.866026
vn -0.000000 -0.499999 -0.866026
vn -0.000000 -0.499999 -0.866026
vn -0.000000 -0.499999 -0.866026
vn 0.000000 0.949066 -0.315076
vn 0.000000 0.949066 -0.315076
vn 0.000000 0.949066 -0.315076
vn 0.000000 0.949066 -0.315076
vn 0.000000 -0.499999 -0.866026
vn 0.000000 -0.499999 -0.866026
vn 0.000000 -0.499999 -0.866026
vn 0.000000 -0.499999 -0.866026
vn 0.000000 -0.499999 -0.866026
vn 0.000000 -0.499999 -0.866026
vn 0.000000 0.000000 1.000000
vn 0.000000 0.000000 1.000000
vn 0.000000 0.000000 1.000000
vn 0.000000 0.000000 1.000000
vn 0.000000 0.000000 1.000000
vn 0.000000 0.000000 1.000000
vn -0.000000 0.949066 -0.315077
vn -0.000000 0.949066 -0.315077
vn -0.000000 0.949066 -0.315077
vn -0.000000 0.949066 -0.315077
vn -1.000000 0.000000 0.000000
vn -1.000000 0.000000 0.000000
vn -1.000000 0.000000 0.000000
vn -1.000000 0.000000 0.000000
vn -0.000000 -0.500000 -0.866025
vn -0.000000 -0.500000 -0.866025
vn -0.000000 -0.500000 -0.866025
vn -0.000000 -0.500000 -0.866025
vn 1.000000 -0.000000 0.000000
vn 1.000000 -0.000000 0.000000
vn 1.000000 -0.000000 0.000000
vn 1.000000 -0.000000 0.000000
vn 0.000001 0.000000 1.000000
vn 0.000001 0.000000 1.000000
vn 0.000001 0.000000 1.000000
vn 0.000001 0.000000 1.000000
vn 1.000000 0.000000 0.000000
vn 1.000000 0.000000 0.000000
vn 1.000000 0.000000 0.000000
vn 1.000000 0.000000 0.000000
vn 0.000000 0.000000 1.000000
vn 0.000000 0.000000 1.000000
vn 0.000000 0.000000 1.000000
vn 0.000000 0.000000 1.000000
vn -1.000000 0.000000 0.000000
vn -1.000000 0.000000 0.000000
vn -1.000000 0.000000 0.000000
vn -1.000000 0.000000 0.000000
vn 0.000000 -0.500000 -0.866025
vn 0.000000 -0.500000 -0.866025
vn 0.000000 -0.500000 -0.866025
vn 0.000000 -0.500000 -0.866025
vn 0.000000 0.979454 -0.201669
vn 0.000000 0.979454 -0.201669
vn 0.000000 0.979454 -0.201669
vn 0.000000 0.979454 -0.201669
vn 0.000000 0.979454 -0.201669
vn 0.000000 0.979454 -0.201669
vn 0.000000 0.979454 -0.201669
vn 0.000000 0.979454 -0.201669
vn 0.000000 0.979454 -0.201669
vn 0.000000 0.979454 -0.201669
vn 0.000000 0.979454 -0.201669
vn 0.000000 0.979454 -0.201669
vn 0.000000 0.979454 -0.201669
vn 0.000000 0.979454 -0.201669
vn 0.000000 0.979454 -0.201669
vn 0.000000 0.979454 -0.201669
vn 1.000000 0.000000 0.000000
vn 1.000000 0.000000 0.000000
vn 1.000000 0.000000 0.000000
vn 1.000000 0.000000 0.000000
vn -0.000000 0.979454 -0.201669
vn -0.000000 0.979454 -0.201669
vn -0.000000 0.979454 -0.201669
vn -0.000000 0.979454 -0.201669
vn -1.000000 -0.000000 0.000000
vn -1.000000 -0.000000 0.000000
vn -1.000000 -0.000000 0.000000
vn -1.000000 -0.000000 0.000000
vn 0.000000 -0.979454 0.201669
vn 0.000000 -0.979454 0.201669
vn 0.000000 -0.979454 0.201669
vn 0.000000 -0.979454 0.201669
vn 0.000000 -0.979454 0.201669
vn 0.000000 -0.979454 0.201669
vn 0.000000 -0.979454 0.201669
vn 0.000000 -0.979454 0.201669
vn 1.000000 -0.000000 0.000000
vn 1.000000 -0.000000 0.000000
vn 1.000000 -0.000000 0.000000
vn 1.000000 -0.000000 0.000000
vn 0.000000 0.979454 -0.201669
vn 0.000000 0.979454 -0.201669
vn 0.000000 0.979454 -0.201669
vn 0.000000 0.979454 -0.201669
vn -1.000000 0.000000 0.000000
vn -1.000000 0.000000 0.000000
vn -1.000000 0.000000 0.000000
vn -1.000000 0.000000 0.000000
vn 0.000000 0.979454 -0.201669
vn 0.000000 0.979454 -0.201669
vn 0.000000 0.979454 -0.201669
vn 0.000000 0.979454 -0.201669
vn 0.000000 0.979454 -0.201669
vn 0.000000 0.979454 -0.201669
vn 0.000000 0.979454 -0.201669
vn 0.000000 0.979454 -0.201669
vn -1.000000 -0.000000 0.000000
vn -1.000000 -0.000000 0.000000
vn -1.000000 -0.000000 0.000000
vn -1.000000 -0.000000 0.000000
vn 0.000000 0.905353 -0.424661
vn 0.000000 0.905353 -0.424661
vn 0.000000 0.905353 -0.424661
vn 0.000000 0.905353 -0.424661
vn 1.000000 -0.000000 -0.000001
vn 1.000000 -0.000000 -0.000001
vn 1.000000 -0.000000 -0.000001
vn 1.000000 -0.000000 -0.000001
vn 0.000000 -0.905810 0.423684
vn 0.000000 -0.905810 0.423684
vn 0.000000 -0.905810 0.423684
vn 0.000000 -0.905810 0.423684
vn 0.000000 -0.905810 0.423684
vn 0.000000 -0.905810 0.423684
vn 0.000000 -0.905810 0.423684
vn 0.000000 -0.905810 0.423684
vn -1.000000 0.000000 0.000000
vn -1.000000 0.000000 0.000000
vn -1.000000 0.000000 0.000000
vn -1.000000 0.000000 0.000000
vn -0.000000 0.905353 -0.424660
vn -0.000000 0.905353 -0.424660
vn -0.000000 0.905353 -0.424660
vn -0.000000 0.905353 -0.424660
vn 1.000000 -0.000000 0.000000
vn 1.000000 -0.000000 0.000000
vn 1.000000 -0.000000 0.000000
vn 1.000000 -0.000000 0.000000
vn 0.000000 0.905597 -0.424139
vn 0.000000 0.905597 -0.424139
vn 0.000000 0.905597 -0.424139
vn 0.000000 0.905597 -0.424139
vn 0.000000 0.905597 -0.424139
vn 0.000000 0.905597 -0.424139
vn 0.000000 0.905597 -0.424139
vn 0.000000 0.905597 -0.424139
vn 0.000000 0.905597 -0.424140
vn 0.000000 0.905597 -0.424140
vn 0.000000 0.905597 -0.424140
vn 0.000000 0.905597 -0.424140
vn -0.000000 0.905597 -0.424139
vn -0.000000 0.905597 -0.424139
vn -0.000000 0.905597 -0.424139
vn -0.000000 0.905597 -0.424139
vn 0.000000 0.905597 -0.424139
vn 0.000000 0.905597 -0.424139
vn 0.000000 0.905597 -0.424139
vn 0.000000 0.905597 -0.424139
vn 0.000000 0.905597 -0.424139
vn 0.000000 0.905597 -0.424139
vn 0.000000 0.905597 -0.424139
vn 0.000000 0.905597 -0.424139
vn 0.000000 0.996340 -0.085483
vn 0.000000 0.996340 -0.085483
vn 0.000000 0.996340 -0.085483
vn 0.000000 0.996340 -0.085483
vn 0.000000 0.996340 -0.085483
vn 0.000000 0.996340 -0.085483
vn 0.000000 0.996340 -0.085483
vn 0.000000 0.996340 -0.085483
vn 0.000000 0.996340 -0.085483
vn 0.000000 0.996340 -0.085483
vn 0.000000 0.996340 -0.085483
vn 0.000000 0.996340 -0.085483
vn 0.000000 0.996340 -0.085483
vn 0.000000 0.996340 -0.085483
vn 0.000000 0.996340 -0.085483
vn 0.000000 0.996340 -0.085483
vn 1.000000 0.000000 0.000000
vn 1.000000 0.000000 0.000000
vn 1.000000 0.000000 0.000000
vn 1.000000 0.000000 0.000000
vn -0.000000 0.996389 -0.084909
vn -0.000000 0.996389 -0.084909
vn -0.000000 0.996389 -0.084909
vn -0.000000 0.996389 -0.084909
vn -1.000000 0.000000 0.000000
vn -1.000000 0.000000 0.000000
vn -1.000000 0.000000 0.000000
vn -1.000000 0.000000 0.000000
vn 0.000000 -0.996297 0.085983
vn 0.000000 -0.996297 0.085983
vn 0.000000 -0.996297 0.085983
vn 0.000000 -0.996297 0.085983
vn 0.000000 -0.996297 0.085983
vn 0.000000 -0.996297 0.085983
vn 0.000000 -0.996297 0.085983
vn 0.000000 -0.996297 0.085983
vn 1.000000 0.000000 0.000000
vn 1.000000 0.000000 0.000000
vn 1.000000 0.000000 0.000000
vn 1.000000 0.000000 0.000000
vn 0.000000 0.996389 -0.084909
vn 0.000000 0.996389 -0.084909
vn 0.000000 0.996389 -0.084909
vn 0.000000 0.996389 -0.084909
vn -1.000000 0.000000 0.000000
vn -1.000000 0.000000 0.000000
vn -1.000000 0.000000 0.000000
vn -1.000000 0.000000 0.000000
vn 0.000000 0.996340 -0.085483
vn 0.000000 0.996340 -0.085483
vn 0.000000 0.996340 -0.085483
vn 0.000000 0.996340 -0.085483
vn 0.000000 0.996340 -0.085483
vn 0.000000 0.996340 -0.085482
vn 0.000000 0.996340 -0.085483
vn 0.000000 0.996340 -0.085482
s off
f 46/127/1 38/111/2 37/109/3 47/128/4
f 36/108/5 48/130/6 47/128/7 37/109/8
f 29/94/9 55/144/10 54/142/11 30/96/12
f 56/145/13 42/118/14 41/116/15 43/120/16
f 42/119/17 56/146/18 55/143/19 29/93/20
f 53/140/21 31/98/22 30/95/23 54/141/24
f 32/99/25 52/137/26 51/135/27 33/101/28
f 52/138/29 32/100/30 31/97/31 53/139/32
f 18/2/33 3/8/34 5/7/35 7/6/36 4/5/37 16/3/38
f 17/9/39 15/83/40 2/84/41 8/13/42 6/11/43 1/10/44
f 39/112/45 45/124/46 44/123/47 40/115/48
f 20/49/49 10/52/50 11/51/51 13/50/52 2/15/53 15/16/54
f 19/53/55 16/3/56 4/5/57 14/56/58 12/55/59 9/54/60
f 49/131/61 35/105/62 34/104/63 50/134/64
f 40/114/65 44/122/66 43/121/67 41/117/68
f 1/4/69 21/60/70 23/79/71 17/80/72
f 45/125/73 39/113/74 38/110/75 46/126/76
f 18/14/77 24/62/78 22/75/79 3/81/80
f 50/133/81 34/103/82 33/102/83 51/136/84
f 9/44/85 25/64/86 27/71/87 19/72/88
f 35/106/89 49/132/90 48/129/91 36/107/92
f 20/48/93 28/66/94 26/67/95 10/73/96
f 57/148/97 29/94/98 30/96/99 58/150/100
f 31/98/101 59/152/102 58/149/103 30/95/104
f 32/100/105 60/154/106 59/151/107 31/97/108
f 60/153/109 32/99/110 33/101/111 61/155/112
f 34/103/113 62/157/114 61/156/115 33/102/116
f 35/105/117 63/159/118 62/158/119 34/104/120
f 63/160/121 35/106/122 36/107/123 64/161/124
f 64/162/125 36/108/126 37/109/127 65/163/128
f 38/111/129 66/165/130 65/163/131 37/109/132
f 39/113/133 67/167/134 66/164/135 38/110/136
f 67/166/137 39/112/138 40/115/139 68/169/140
f 68/168/141 40/114/142 41/117/143 69/171/144
f 42/118/145 70/172/146 69/170/147 41/116/148
f 70/173/149 42/119/150 29/93/151 57/147/152
f 44/122/153 21/78/154 1/82/155 43/121/156
f 45/124/157 23/91/158 21/92/159 44/123/160
f 17/12/161 23/61/162 45/125/163 46/126/164
f 17/41/165 46/127/166 47/128/167 15/42/168
f 48/130/169 20/58/170 15/42/171 47/128/172
f 49/132/173 28/68/174 20/69/175 48/129/176
f 26/63/177 28/86/178 49/131/179 50/134/180
f 10/43/181 26/85/182 50/133/183 51/136/184
f 52/137/185 11/35/186 10/36/187 51/135/188
f 11/37/189 52/138/190 53/139/191 13/40/192
f 13/29/193 53/140/194 54/141/195 2/32/196
f 55/144/197 8/18/198 2/19/199 54/142/200
f 56/146/201 6/26/202 8/27/203 55/143/204
f 1/21/205 6/22/206 56/145/207 43/120/208
f 7/17/209 57/148/210 58/150/211 4/20/212
f 59/152/213 14/30/214 4/31/215 58/149/216
f 60/154/217 12/38/218 14/39/219 59/151/220
f 9/33/221 12/34/222 60/153/223 61/155/224
f 62/157/225 25/70/226 9/74/227 61/156/228
f 63/159/229 27/87/230 25/88/231 62/158/232
f 19/47/233 27/65/234 63/160/235 64/161/236
f 19/57/237 64/162/238 65/163/239 16/45/240
f 66/165/241 18/46/242 16/45/243 65/163/244
f 67/167/245 24/76/246 18/77/247 66/164/248
f 22/59/249 24/90/250 67/166/251 68/169/252
f 3/1/253 22/89/254 68/168/255 69/171/256
f 70/172/257 5/23/258 3/24/259 69/170/260
f 5/25/261 70/173/262 57/147/263 7/28/264
