# This file uses meters as units for non-parametric coordinates.

v -10.000004 0.000000 0.000002
v -10.000004 0.000000 9.999979
v -8.641605 0.000000 9.999979
v -8.641605 0.000000 0.000002
v -8.201542 0.000000 9.999979
v -8.201542 0.000000 0.000002
v 10.000003 0.000000 -0.000002
v 10.000003 0.000000 9.999979
v 8.641603 0.000000 9.999979
v 8.641605 0.000000 -0.000002
v 8.201540 0.000000 9.999979
v 8.201542 0.000000 -0.000002
v -0.000001 0.000000 9.999979
v 0.000000 0.000000 0.000000
v 0.820154 0.000000 9.999979
v 0.820155 0.000000 0.000000
v 2.296431 0.000000 9.999979
v 2.296432 0.000000 -0.000001
v -0.820155 0.000000 9.999979
v -0.820153 0.000000 0.000001
v -2.296433 0.000000 9.999979
v -2.296432 0.000000 0.000001
v -3.477455 0.000000 9.999979
v -3.477453 0.000000 0.000001
v 3.477453 0.000000 9.999979
v 3.477454 0.000000 -0.000001
v 4.894679 0.000000 9.999979
v 4.894681 0.000000 -0.000002
v -4.894682 0.000000 9.999979
v -4.894680 0.000000 0.000001
v -6.548111 0.000000 9.999979
v -6.548111 0.000000 0.000002
v 6.548110 0.000000 9.999979
v 6.548111 0.000000 -0.000002
vt 0.169016 0.064148
vt 0.169016 0.064148
vt 0.169016 0.064148
vt 0.169016 0.064148
vt 0.174755 0.064176
vt 0.174755 0.064176
vt 0.389062 0.063031
vt 0.389062 0.063031
vt 0.389062 0.063031
vt 0.389062 0.063031
vt 0.174755 0.064176
vt 0.174755 0.064176
vt 0.169016 0.064148
vt 0.169016 0.064148
vt 0.169016 0.064148
vt 0.169016 0.064148
vt 0.389062 0.063031
vt 0.389062 0.063031
vt 0.389062 0.063031
vt 0.389062 0.063031
vt 0.156268 0.064176
vt 0.124936 0.064176
vt 0.138515 0.064176
vt 0.156268 0.064176
vt 0.124936 0.064176
vt 0.138515 0.064176
vt 0.124936 0.064176
vt 0.156268 0.064176
vt 0.156268 0.064176
vt 0.124936 0.064176
vt 0.124936 0.064176
vt 0.138515 0.064176
vt 0.156268 0.064176
vt 0.124936 0.064176
vt 0.138515 0.064176
vt 0.156268 0.064176
vt 0.138515 0.064176
vt 0.156268 0.064176
vt 0.156268 0.064176
vt 0.174755 0.064176
vt 0.174755 0.064176
vt 0.138515 0.064176
vt 0.124936 0.064176
vt 0.156268 0.064176
vt 0.124936 0.064176
vt 0.138515 0.064176
vt 0.124936 0.064176
vt 0.124936 0.064176
vt 0.156268 0.064176
vt 0.156268 0.064176
vt 0.124936 0.064176
vt 0.124936 0.064176
vt 0.138515 0.064176
vt 0.156268 0.064176
vt 0.138515 0.064176
vt 0.174755 0.064176
vt 0.138515 0.064176
vt 0.156268 0.064176
vt 0.138515 0.064176
vt 0.156268 0.064176
vt 0.138515 0.064176
vt 0.156268 0.064176
vt 0.174755 0.064176
vt 0.156268 0.064176
vn 0.000000 1.000000 0.000000
vn 0.000000 1.000000 0.000000
vn 0.000000 1.000000 0.000000
vn 0.000000 1.000000 0.000000
vn 0.000000 1.000000 0.000000
vn 0.000000 1.000000 0.000000
vn 0.000000 1.000000 0.000000
vn 0.000000 1.000000 0.000000
vn 0.000000 1.000000 0.000000
vn 0.000000 1.000000 0.000000
vn 0.000000 1.000000 0.000000
vn 0.000000 1.000000 0.000000
vn 0.000000 1.000000 0.000000
vn 0.000000 1.000000 0.000000
vn 0.000000 1.000000 0.000000
vn 0.000000 1.000000 0.000000
vn 0.000000 1.000000 0.000000
vn 0.000000 1.000000 0.000000
vn 0.000000 1.000000 0.000000
vn 0.000000 1.000000 0.000000
vn 0.000000 1.000000 0.000000
vn 0.000000 1.000000 0.000000
vn 0.000000 1.000000 0.000000
vn 0.000000 1.000000 0.000000
vn 0.000000 1.000000 0.000000
vn 0.000000 1.000000 0.000000
vn 0.000000 1.000000 0.000000
vn 0.000000 1.000000 0.000000
vn 0.000000 1.000000 0.000000
vn 0.000000 1.000000 0.000000
vn 0.000000 1.000000 0.000000
vn 0.000000 1.000000 0.000000
vn 0.000000 1.000000 0.000000
vn 0.000000 1.000000 0.000000
s 1
f 1/1/1 2/2/2 3/3/3 4/4/4
f 3/7/3 5/10/5 6/9/6 4/8/4
f 33/41/7 11/11/8 12/12/9 34/56/10
f 7/13/11 10/16/12 9/15/13 8/14/14
f 9/17/13 10/20/12 12/19/9 11/18/8
f 19/27/15 13/52/16 14/22/17 20/51/18
f 13/21/16 15/62/19 16/24/20 14/54/17
f 15/23/19 17/53/21 18/26/22 16/61/20
f 21/29/23 19/50/15 20/28/18 22/49/24
f 23/31/25 21/48/23 22/30/24 24/47/26
f 29/37/27 23/46/25 24/32/26 30/59/28
f 17/25/21 25/43/29 26/34/30 18/45/22
f 25/33/29 27/60/31 28/36/32 26/44/30
f 31/39/33 29/58/27 30/38/28 32/64/34
f 6/6/6 5/5/5 31/63/33 32/40/34
f 27/35/31 33/55/7 34/42/10 28/57/32
