# This file uses meters as units for non-parametric coordinates.

v 9.318512 5.176379 -0.000004
v -0.340744 2.588189 -0.000004
v -19.999981 5.176376 29.318478
v -19.999989 2.588186 19.659222
v -19.999989 4.824798 28.006344
v 8.006405 4.824799 -0.000019
v -19.999996 4.710900 27.581295
v 7.581326 4.710903 -0.000004
v -19.999989 -0.000004 9.999966
v -10.000000 -0.000000 -0.000004
v -8.687897 0.351577 -0.000004
v -19.999981 0.351575 11.312069
v -8.262829 0.465474 -0.000004
v -19.999981 0.465472 11.737133
v 1.427395 6.224949 21.427364
v 0.534801 5.886709 20.534756
v 0.245636 5.777135 20.245586
v -5.143562 3.734967 14.856396
v -11.931114 1.162909 8.068844
v -12.220280 1.053334 7.779675
v -19.999989 -0.000002 -0.000004
v 9.318512 -0.000002 -0.000004
v 1.427395 -0.000002 21.427364
v -19.999981 -0.000002 29.318478
v -16.110134 -0.000004 3.889828
vt 0.169016 0.064148
vt 0.169016 0.064148
vt 0.169016 0.064148
vt 0.169016 0.064148
vt 0.169016 0.064148
vt 0.169016 0.064148
vt 0.169016 0.064148
vt 0.169016 0.064148
vt 0.389062 0.063031
vt 0.389062 0.063031
vt 0.389062 0.063031
vt 0.389062 0.063031
vt 0.169016 0.064148
vt 0.169016 0.064148
vt 0.169016 0.064148
vt 0.169016 0.064148
vt 0.169016 0.064148
vt 0.169016 0.064148
vt 0.169016 0.064148
vt 0.169016 0.064148
vt 0.389062 0.063031
vt 0.389062 0.063031
vt 0.389062 0.063031
vt 0.389062 0.063031
vt 0.169016 0.064148
vt 0.389062 0.063031
vt 0.169016 0.064148
vt 0.169016 0.064148
vt 0.389062 0.063031
vt 0.169016 0.064148
vt 0.169016 0.064148
vt 0.169016 0.064148
vt 0.389062 0.063031
vt 0.389062 0.063031
vt 0.169016 0.064148
vt 0.169016 0.064148
vt 0.296524 0.062161
vt 0.296524 0.062161
vt 0.296524 0.062161
vt 0.296524 0.062161
vt 0.296516 0.062161
vt 0.296516 0.062161
vt 0.169016 0.064148
vn -0.143667 0.959564 -0.242068
vn -0.193316 0.961903 -0.193316
vn -0.193466 0.961843 -0.193466
vn -0.144135 0.959543 -0.241871
vn -0.191702 0.962549 -0.191703
vn -0.191742 0.962533 -0.191742
vn -0.137954 0.959798 -0.244451
vn -0.137793 0.959805 -0.244517
vn -0.137954 0.959798 -0.244451
vn -0.191742 0.962533 -0.191742
vn -0.193316 0.961903 -0.193316
vn -0.143667 0.959564 -0.242068
vn -0.197087 0.960371 -0.197087
vn -0.197254 0.960303 -0.197255
vn -0.163050 0.959196 -0.230994
vn -0.162573 0.959242 -0.231137
vn -0.146040 0.982449 -0.116043
vn -0.173858 0.972912 -0.152364
vn -0.162933 0.973091 -0.162933
vn -0.076381 0.994149 -0.076381
vn -0.197254 0.960303 -0.197255
vn -0.162933 0.973091 -0.162933
vn -0.173858 0.972912 -0.152364
vn -0.163050 0.959196 -0.230994
vn -0.244520 0.959804 -0.137794
vn -0.244452 0.959798 -0.137954
vn -0.191742 0.962533 -0.191742
vn -0.191702 0.962549 -0.191703
vn -0.193316 0.961903 -0.193316
vn -0.191742 0.962533 -0.191742
vn -0.244452 0.959798 -0.137954
vn -0.242067 0.959564 -0.143667
vn -0.193466 0.961843 -0.193466
vn -0.193316 0.961903 -0.193316
vn -0.242067 0.959564 -0.143667
vn -0.241871 0.959543 -0.144135
vn -0.230994 0.959196 -0.163050
vn -0.197254 0.960303 -0.197255
vn -0.197087 0.960371 -0.197087
vn -0.231137 0.959242 -0.162573
vn -0.152364 0.972912 -0.173858
vn -0.162933 0.973091 -0.162933
vn -0.197254 0.960303 -0.197255
vn -0.230994 0.959196 -0.163050
vn -0.116043 0.982449 -0.146040
vn -0.076381 0.994149 -0.076381
vn -0.162933 0.973091 -0.162933
vn -0.152364 0.972912 -0.173858
vn 0.938388 0.000000 0.345583
vn 0.938388 0.000000 0.345583
vn 0.938388 0.000000 0.345583
vn 0.938388 0.000000 0.345583
vn 0.345583 0.000000 0.938388
vn 0.345583 0.000000 0.938388
vn 0.345583 0.000000 0.938388
vn 0.345583 0.000000 0.938388
vn 0.000000 1.000000 0.000000
vn -0.076381 0.994149 -0.076381
vn -0.116043 0.982449 -0.146040
vn -0.146040 0.982449 -0.116043
vn -0.076381 0.994149 -0.076381
vn 0.000000 1.000000 0.000000
s off
f 7/7/1 17/28/2 18/30/3 4/2/4
f 15/25/5 16/27/6 5/5/7 3/4/8
f 5/9/9 16/26/10 17/29/11 7/12/12
f 18/31/13 19/32/14 14/14/15 4/15/16
f 9/17/17 12/18/18 20/35/19 25/43/20
f 19/33/21 20/34/22 12/22/23 14/23/24
f 1/1/25 6/6/26 16/27/27 15/25/28
f 17/29/29 16/26/30 6/10/31 8/11/32
f 18/30/33 17/28/34 8/8/35 2/3/36
f 13/13/37 19/32/38 18/31/39 2/16/40
f 11/21/41 20/34/42 19/33/43 13/24/44
f 10/20/45 25/43/46 20/35/47 11/19/48
f 1/37/49 15/38/50 23/39/51 22/40/52
f 15/38/53 3/41/54 24/42/55 23/39/56
f 21/36/57 25/43/58 10/20/59
f 9/17/60 25/43/61 21/36/62
