# This file uses meters as units for non-parametric coordinates.

v -40.000809 0.000000 26.673836
v -40.000412 0.000000 0.000099
v -29.999634 0.000000 40.000946
v -38.641235 0.000000 40.000938
v -38.201172 0.000000 40.000946
v -19.999664 0.000000 40.000938
v -21.358063 0.000000 40.000946
v -21.798126 0.000000 40.000908
v -25.898895 0.000000 40.000931
v -34.100433 0.000000 40.000916
v -32.050018 0.000000 40.000916
v -27.949310 0.000000 40.000938
v -28.974457 0.000000 40.000938
v -31.024872 0.000000 40.000908
v -36.150803 0.000000 40.000954
v -33.075211 0.000000 40.000908
v -26.924103 0.000000 40.000946
v -23.848541 0.000000 40.000908
v -39.999603 0.000000 40.000938
v -19.999664 0.000000 36.674423
v -21.358002 0.000000 35.995239
v -21.798126 0.000000 35.775223
v -23.848480 0.000000 34.749985
v -25.898895 0.000000 33.724800
v -26.924042 0.000000 33.212204
v -27.949249 0.000000 32.699585
v -28.974457 0.000000 32.187004
v -29.999603 0.000000 31.674438
v -31.024811 0.000000 31.161865
v -32.050018 0.000000 30.649231
v -33.075180 0.000000 30.136650
v -34.100357 0.000000 29.624054
v -36.150803 0.000000 28.598816
v -38.201141 0.000000 27.573654
v -38.641190 0.000000 27.353622
v 0.000397 0.000000 40.000923
v -15.488403 0.000000 24.512115
v -16.540314 0.000000 23.460197
v -16.881134 0.000000 23.119370
v -18.468994 0.000000 21.531494
v -20.056976 0.000000 19.943542
v -20.850891 0.000000 19.149620
v -21.644836 0.000000 18.355682
v -22.438782 0.000000 17.561722
v -23.232727 0.000000 16.767776
v -24.026703 0.000000 15.973816
v -24.820618 0.000000 15.179893
v -25.614563 0.000000 14.385925
v -26.408508 0.000000 13.591988
v -27.996460 0.000000 12.004044
v -29.584320 0.000000 10.416191
v -29.925110 0.000000 10.075401
v -30.978027 0.000000 9.022476
v -13.326660 0.000000 -0.000290
v 0.000427 0.000000 10.000862
v 0.000427 0.000000 1.359268
v 0.000427 0.000000 1.799347
v 0.000427 0.000000 20.000839
v 0.000427 0.000000 18.642464
v 0.000397 0.000000 18.202370
v 0.000427 0.000000 14.101616
v 0.000397 0.000000 5.900070
v 0.000397 0.000000 7.950485
v 0.000427 0.000000 12.051193
v 0.000427 0.000000 11.026054
v 0.000397 0.000000 8.975632
v 0.000427 0.000000 3.849709
v 0.000397 0.000000 6.925308
v 0.000427 0.000000 13.076416
v 0.000397 0.000000 16.151962
v 0.000427 0.000000 0.000908
v -3.326080 0.000000 20.000839
v -4.005280 0.000000 18.642517
v -4.225281 0.000000 18.202377
v -5.250519 0.000000 16.152023
v -6.275696 0.000000 14.101608
v -6.788300 0.000000 13.076477
v -7.300934 0.000000 12.051270
v -7.813507 0.000000 11.026039
v -8.326080 0.000000 10.000916
v -8.838654 0.000000 8.975708
v -9.351288 0.000000 7.950485
v -9.863861 0.000000 6.925331
v -10.376465 0.000000 5.900146
v -11.401703 0.000000 3.849709
v -12.426849 0.000000 1.799362
v -12.646881 0.000000 1.359329
vt 0.232328 0.047329
vt 0.232328 0.047329
vt 0.265537 0.047527
vt 0.265537 0.047527
vt 0.325897 0.046099
vt 0.325897 0.046099
vt 0.265537 0.047527
vt 0.265537 0.047527
vt 0.233583 0.047527
vt 0.233583 0.047527
vt 0.201630 0.047527
vt 0.201630 0.047527
vt 0.233583 0.047527
vt 0.233583 0.047527
vt 0.265536 0.047527
vt 0.265536 0.047527
vt 0.233583 0.047527
vt 0.233583 0.047527
vt 0.233583 0.047527
vt 0.233583 0.047527
vt 0.265536 0.047527
vt 0.265536 0.047527
vt 0.233583 0.047527
vt 0.233583 0.047527
vt 0.201630 0.047527
vt 0.201630 0.047527
vt 0.233583 0.047527
vt 0.233583 0.047527
vt 0.265537 0.047527
vt 0.265537 0.047527
vt 0.325905 0.046099
vt 0.325905 0.046099
vt 0.265537 0.047527
vt 0.265537 0.047527
vt 0.265537 0.047527
vt 0.265537 0.047527
vt 0.325897 0.046099
vt 0.325897 0.046099
vt 0.265537 0.047527
vt 0.265537 0.047527
vt 0.233583 0.047527
vt 0.233583 0.047527
vt 0.201630 0.047527
vt 0.201630 0.047527
vt 0.233583 0.047527
vt 0.233583 0.047527
vt 0.265536 0.047527
vt 0.265536 0.047527
vt 0.233583 0.047527
vt 0.233583 0.047527
vt 0.233583 0.047527
vt 0.233583 0.047527
vt 0.265536 0.047527
vt 0.265536 0.047527
vt 0.233583 0.047527
vt 0.233583 0.047527
vt 0.201630 0.047527
vt 0.201630 0.047527
vt 0.233583 0.047527
vt 0.233583 0.047527
vt 0.265537 0.047527
vt 0.265537 0.047527
vt 0.325905 0.046099
vt 0.325905 0.046099
vt 0.265537 0.047527
vt 0.265537 0.047527
vt 0.232328 0.047329
vt 0.232328 0.047329
vt 0.232328 0.047329
vt 0.232328 0.047329
vt 0.265537 0.047527
vt 0.325897 0.046099
vt 0.265537 0.047527
vt 0.265537 0.047527
vt 0.325897 0.046099
vt 0.265537 0.047527
vt 0.233583 0.047527
vt 0.233583 0.047527
vt 0.201630 0.047527
vt 0.201630 0.047527
vt 0.233583 0.047527
vt 0.233583 0.047527
vt 0.265536 0.047527
vt 0.265536 0.047527
vt 0.233583 0.047527
vt 0.233583 0.047527
vt 0.233583 0.047527
vt 0.233583 0.047527
vt 0.265536 0.047527
vt 0.265536 0.047527
vt 0.233583 0.047527
vt 0.233583 0.047527
vt 0.201630 0.047527
vt 0.201630 0.047527
vt 0.233583 0.047527
vt 0.233583 0.047527
vt 0.265537 0.047527
vt 0.265537 0.047527
vt 0.325905 0.046099
vt 0.325905 0.046099
vt 0.265537 0.047527
vt 0.265537 0.047527
vt 0.232328 0.047329
vt 0.265537 0.047527
vt 0.265537 0.047527
vt 0.265537 0.047527
vt 0.265537 0.047527
vt 0.325897 0.046099
vt 0.325897 0.046099
vt 0.325897 0.046099
vt 0.325897 0.046099
vt 0.265537 0.047527
vt 0.265537 0.047527
vt 0.265537 0.047527
vt 0.265537 0.047527
vt 0.233583 0.047527
vt 0.233583 0.047527
vt 0.233583 0.047527
vt 0.233583 0.047527
vt 0.201630 0.047527
vt 0.201630 0.047527
vt 0.201630 0.047527
vt 0.201630 0.047527
vt 0.233583 0.047527
vt 0.233583 0.047527
vt 0.233583 0.047527
vt 0.233583 0.047527
vt 0.265536 0.047527
vt 0.265536 0.047527
vt 0.265536 0.047527
vt 0.265536 0.047527
vt 0.233583 0.047527
vt 0.233583 0.047527
vt 0.233583 0.047527
vt 0.233583 0.047527
vt 0.233583 0.047527
vt 0.233583 0.047527
vt 0.233583 0.047527
vt 0.233583 0.047527
vt 0.265536 0.047527
vt 0.265536 0.047527
vt 0.265536 0.047527
vt 0.265536 0.047527
vt 0.233583 0.047527
vt 0.233583 0.047527
vt 0.233583 0.047527
vt 0.233583 0.047527
vt 0.201630 0.047527
vt 0.201630 0.047527
vt 0.201630 0.047527
vt 0.201630 0.047527
vt 0.233583 0.047527
vt 0.233583 0.047527
vt 0.233583 0.047527
vt 0.233583 0.047527
vt 0.265537 0.047527
vt 0.265537 0.047527
vt 0.265537 0.047527
vt 0.265537 0.047527
vt 0.325905 0.046099
vt 0.325905 0.046099
vt 0.325905 0.046099
vt 0.325905 0.046099
vt 0.265537 0.047527
vt 0.265537 0.047527
vt 0.265537 0.047527
vt 0.265537 0.047527
vt 0.232328 0.047329
vt 0.232328 0.047329
vt 0.232328 0.047329
vt 0.232328 0.047329
vt 0.265537 0.047527
vt 0.265537 0.047527
vt 0.325897 0.046099
vt 0.325897 0.046099
vt 0.265537 0.047527
vt 0.265537 0.047527
vt 0.233583 0.047527
vt 0.233583 0.047527
vt 0.201630 0.047527
vt 0.201630 0.047527
vt 0.233583 0.047527
vt 0.233583 0.047527
vt 0.265536 0.047527
vt 0.265536 0.047527
vt 0.233583 0.047527
vt 0.233583 0.047527
vt 0.233583 0.047527
vt 0.233583 0.047527
vt 0.265536 0.047527
vt 0.265536 0.047527
vt 0.233583 0.047527
vt 0.233583 0.047527
vt 0.201630 0.047527
vt 0.201630 0.047527
vt 0.233583 0.047527
vt 0.233583 0.047527
vt 0.265537 0.047527
vt 0.265537 0.047527
vt 0.325905 0.046099
vt 0.325905 0.046099
vt 0.265537 0.047527
vt 0.265537 0.047527
vt 0.232328 0.047329
vt 0.232328 0.047329
vt 0.232328 0.047329
vn 0.000000 1.000000 0.000000
vn 0.000000 1.000000 0.000000
vn 0.000000 1.000000 0.000000
vn 0.000000 1.000000 0.000000
vn 0.000000 1.000000 0.000000
vn 0.000000 1.000000 0.000000
vn 0.000000 1.000000 0.000000
vn 0.000000 1.000000 0.000000
vn 0.000000 1.000000 0.000000
vn 0.000000 1.000000 0.000000
vn 0.000000 1.000000 0.000000
vn 0.000000 1.000000 0.000000
vn 0.000000 1.000000 0.000000
vn 0.000000 1.000000 0.000000
vn 0.000000 1.000000 0.000000
vn 0.000000 1.000000 0.000000
vn 0.000000 1.000000 0.000000
vn 0.000000 1.000000 0.000000
vn 0.000000 1.000000 0.000000
vn 0.000000 1.000000 0.000000
vn 0.000000 1.000000 0.000000
vn 0.000000 1.000000 0.000000
vn 0.000000 1.000000 0.000000
vn 0.000000 1.000000 0.000000
vn 0.000000 1.000000 0.000000
vn 0.000000 1.000000 0.000000
vn 0.000000 1.000000 0.000000
vn 0.000000 1.000000 0.000000
vn 0.000000 1.000000 0.000000
vn 0.000000 1.000000 0.000000
vn 0.000000 1.000000 0.000000
vn 0.000000 1.000000 0.000000
vn 0.000000 1.000000 0.000000
vn 0.000000 1.000000 0.000000
vn 0.000000 1.000000 0.000000
vn 0.000000 1.000000 0.000000
vn 0.000000 1.000000 0.000000
vn 0.000000 1.000000 0.000000
vn 0.000000 1.000000 0.000000
vn 0.000000 1.000000 0.000000
vn 0.000000 1.000000 0.000000
vn 0.000000 1.000000 0.000000
vn 0.000000 1.000000 0.000000
vn 0.000000 1.000000 0.000000
vn 0.000000 1.000000 0.000000
vn 0.000000 1.000000 0.000000
vn 0.000000 1.000000 0.000000
vn 0.000000 1.000000 0.000000
vn 0.000000 1.000000 0.000000
vn 0.000000 1.000000 0.000000
vn 0.000000 1.000000 0.000000
vn 0.000000 1.000000 0.000000
vn 0.000000 1.000000 0.000000
vn 0.000000 1.000000 0.000000
vn 0.000000 1.000000 0.000000
vn 0.000000 1.000000 0.000000
vn 0.000000 1.000000 0.000000
vn 0.000000 1.000000 0.000000
vn 0.000000 1.000000 0.000000
vn 0.000000 1.000000 0.000000
vn 0.000000 1.000000 0.000000
vn 0.000000 1.000000 0.000000
vn 0.000000 1.000000 0.000000
vn 0.000000 1.000000 0.000000
vn 0.000000 1.000000 0.000000
vn 0.000000 1.000000 0.000000
vn 0.000000 1.000000 0.000000
vn 0.000000 1.000000 0.000000
vn 0.000000 1.000000 0.000000
vn 0.000000 1.000000 0.000000
vn 0.000000 1.000000 0.000000
vn 0.000000 1.000000 0.000000
vn 0.000000 1.000000 0.000000
vn 0.000000 1.000000 0.000000
vn 0.000000 1.000000 0.000000
vn 0.000000 1.000000 0.000000
vn 0.000000 1.000000 0.000000
vn 0.000000 1.000000 0.000000
vn 0.000000 1.000000 0.000000
vn 0.000000 1.000000 0.000000
vn 0.000000 1.000000 0.000000
vn 0.000000 1.000000 0.000000
vn 0.000000 1.000000 0.000000
vn 0.000000 1.000000 0.000000
vn 0.000000 1.000000 0.000000
vn 0.000000 1.000000 0.000000
vn 0.000000 1.000000 0.000000
vn 0.000000 1.000000 0.000000
vn 0.000000 1.000000 0.000000
vn 0.000000 1.000000 0.000000
vn 0.000000 1.000000 0.000000
vn 0.000000 1.000000 0.000000
vn 0.000000 1.000000 0.000000
vn 0.000000 1.000000 0.000000
vn 0.000000 1.000000 0.000000
vn 0.000000 1.000000 0.000000
vn 0.000000 1.000000 0.000000
vn 0.000000 1.000000 0.000000
vn 0.000000 1.000000 0.000000
vn 0.000000 1.000000 0.000000
vn 0.000000 1.000000 0.000000
vn 0.000000 1.000000 0.000000
vn 0.000000 1.000000 0.000000
vn 0.000000 1.000000 0.000000
vn 0.000000 1.000000 0.000000
vn 0.000000 1.000000 0.000000
vn 0.000000 1.000000 0.000000
vn 0.000000 1.000000 0.000000
vn 0.000000 1.000000 0.000000
vn 0.000000 1.000000 0.000000
vn 0.000000 1.000000 0.000000
vn 0.000000 1.000000 0.000000
vn 0.000000 1.000000 0.000000
vn 0.000000 1.000000 0.000000
vn 0.000000 1.000000 0.000000
vn 0.000000 1.000000 0.000000
vn 0.000000 1.000000 0.000000
vn 0.000000 1.000000 0.000000
vn 0.000000 1.000000 0.000000
vn 0.000000 1.000000 0.000000
vn 0.000000 1.000000 0.000000
vn 0.000000 1.000000 0.000000
vn 0.000000 1.000000 0.000000
vn 0.000000 1.000000 0.000000
vn 0.000000 1.000000 0.000000
vn 0.000000 1.000000 0.000000
vn 0.000000 1.000000 0.000000
vn 0.000000 1.000000 0.000000
vn 0.000000 1.000000 0.000000
vn 0.000000 1.000000 0.000000
vn 0.000000 1.000000 0.000000
vn 0.000000 1.000000 0.000000
vn 0.000000 1.000000 0.000000
vn 0.000000 1.000000 0.000000
vn 0.000000 1.000000 0.000000
vn 0.000000 1.000000 0.000000
vn 0.000000 1.000000 0.000000
vn 0.000000 1.000000 0.000000
vn 0.000000 1.000000 0.000000
vn 0.000000 1.000000 0.000000
vn 0.000000 1.000000 0.000000
vn 0.000000 1.000000 0.000000
vn 0.000000 1.000000 0.000000
vn 0.000000 1.000000 0.000000
vn 0.000000 1.000000 0.000000
vn 0.000000 1.000000 0.000000
vn 0.000000 1.000000 0.000000
vn 0.000000 1.000000 0.000000
vn 0.000000 1.000000 0.000000
vn 0.000000 1.000000 0.000000
vn 0.000000 1.000000 0.000000
vn 0.000000 1.000000 0.000000
vn 0.000000 1.000000 0.000000
vn 0.000000 1.000000 0.000000
vn 0.000000 1.000000 0.000000
vn 0.000000 1.000000 0.000000
vn 0.000000 1.000000 0.000000
vn 0.000000 1.000000 0.000000
vn 0.000000 1.000000 0.000000
vn 0.000000 1.000000 0.000000
vn 0.000000 1.000000 0.000000
vn 0.000000 1.000000 0.000000
vn 0.000000 1.000000 0.000000
vn 0.000000 1.000000 0.000000
vn 0.000000 1.000000 0.000000
vn 0.000000 1.000000 0.000000
vn 0.000000 1.000000 0.000000
vn 0.000000 1.000000 0.000000
vn 0.000000 1.000000 0.000000
vn 0.000000 1.000000 0.000000
vn 0.000000 1.000000 0.000000
vn 0.000000 1.000000 0.000000
vn 0.000000 1.000000 0.000000
vn 0.000000 1.000000 0.000000
vn 0.000000 1.000000 0.000000
vn 0.000000 1.000000 0.000000
vn 0.000000 1.000000 0.000000
vn 0.000000 1.000000 0.000000
vn 0.000000 1.000000 0.000000
vn 0.000000 1.000000 0.000000
vn 0.000000 1.000000 0.000000
vn 0.000000 1.000000 0.000000
vn 0.000000 1.000000 0.000000
vn 0.000000 1.000000 0.000000
vn 0.000000 1.000000 0.000000
vn 0.000000 1.000000 0.000000
vn 0.000000 1.000000 0.000000
vn 0.000000 1.000000 0.000000
vn 0.000000 1.000000 0.000000
vn 0.000000 1.000000 0.000000
vn 0.000000 1.000000 0.000000
vn 0.000000 1.000000 0.000000
vn 0.000000 1.000000 0.000000
vn 0.000000 1.000000 0.000000
vn 0.000000 1.000000 0.000000
vn 0.000000 1.000000 0.000000
vn 0.000000 1.000000 0.000000
vn 0.000000 1.000000 0.000000
vn 0.000000 1.000000 0.000000
vn 0.000000 1.000000 0.000000
vn 0.000000 1.000000 0.000000
vn 0.000000 1.000000 0.000000
vn 0.000000 1.000000 0.000000
vn 0.000000 1.000000 0.000000
vn 0.000000 1.000000 0.000000
vn 0.000000 1.000000 0.000000
vn 0.000000 1.000000 0.000000
vn 0.000000 1.000000 0.000000
vn 0.000000 1.000000 0.000000
vn 0.000000 1.000000 0.000000
vn 0.000000 1.000000 0.000000
vn 0.000000 1.000000 0.000000
vn 0.000000 1.000000 0.000000
vn 0.000000 1.000000 0.000000
vn 0.000000 1.000000 0.000000
vn 0.000000 1.000000 0.000000
vn 0.000000 1.000000 0.000000
vn 0.000000 1.000000 0.000000
vn 0.000000 1.000000 0.000000
vn 0.000000 1.000000 0.000000
vn 0.000000 1.000000 0.000000
vn 0.000000 1.000000 0.000000
vn 0.000000 1.000000 0.000000
vn 0.000000 1.000000 0.000000
vn 0.000000 1.000000 0.000000
vn 0.000000 1.000000 0.000000
vn 0.000000 1.000000 0.000000
vn 0.000000 1.000000 0.000000
vn 0.000000 1.000000 0.000000
vn 0.000000 1.000000 0.000000
vn 0.000000 1.000000 0.000000
vn 0.000000 1.000000 0.000000
vn 0.000000 1.000000 0.000000
vn 0.000000 1.000000 0.000000
vn 0.000000 1.000000 0.000000
vn 0.000000 1.000000 0.000000
vn 0.000000 1.000000 0.000000
vn 0.000000 1.000000 0.000000
vn 0.000000 1.000000 0.000000
vn 0.000000 1.000000 0.000000
vn 0.000000 1.000000 0.000000
vn 0.000000 1.000000 0.000000
vn 0.000000 1.000000 0.000000
vn 0.000000 1.000000 0.000000
vn 0.000000 1.000000 0.000000
vn 0.000000 1.000000 0.000000
vn 0.000000 1.000000 0.000000
vn 0.000000 1.000000 0.000000
vn 0.000000 1.000000 0.000000
vn 0.000000 1.000000 0.000000
vn 0.000000 1.000000 0.000000
vn 0.000000 1.000000 0.000000
vn 0.000000 1.000000 0.000000
vn 0.000000 1.000000 0.000000
vn 0.000000 1.000000 0.000000
vn 0.000000 1.000000 0.000000
vn 0.000000 1.000000 0.000000
vn 0.000000 1.000000 0.000000
vn 0.000000 1.000000 0.000000
vn 0.000000 1.000000 0.000000
vn 0.000000 1.000000 0.000000
vn 0.000000 1.000000 0.000000
vn 0.000000 1.000000 0.000000
vn 0.000000 1.000000 0.000000
vn 0.000000 1.000000 0.000000
vn 0.000000 1.000000 0.000000
vn 0.000000 1.000000 0.000000
vn 0.000000 1.000000 0.000000
vn 0.000000 1.000000 0.000000
vn 0.000000 1.000000 0.000000
s off
f 6/35/1 20/4/2 21/3/3 7/36/4
f 22/5/5 8/38/6 7/37/7 21/6/8
f 23/8/9 18/40/10 8/39/11 22/7/12
f 24/10/13 9/42/14 18/41/15 23/9/16
f 25/12/17 17/44/18 9/43/19 24/11/20
f 26/14/21 12/46/22 17/45/23 25/13/24
f 27/16/25 13/48/26 12/47/27 26/15/28
f 28/17/29 3/50/30 13/49/31 27/18/32
f 14/51/33 3/52/34 28/19/35 29/20/36
f 11/53/37 14/54/38 29/21/39 30/22/40
f 16/55/41 11/56/42 30/23/43 31/24/44
f 10/57/45 16/58/46 31/25/47 32/26/48
f 15/59/49 10/60/50 32/27/51 33/28/52
f 5/61/53 15/62/54 33/29/55 34/30/56
f 4/63/57 5/64/58 34/31/59 35/32/60
f 1/33/61 19/66/62 4/65/63 35/34/64
f 6/67/65 36/69/66 37/70/67 20/68/68
f 21/3/69 20/4/70 37/71/71 38/73/72
f 22/5/73 21/6/74 38/72/75 39/75/76
f 40/76/77 23/8/78 22/7/79 39/74/80
f 41/78/81 24/10/82 23/9/83 40/77/84
f 42/80/85 25/12/86 24/11/87 41/79/88
f 43/82/89 26/14/90 25/13/91 42/81/92
f 44/84/93 27/16/94 26/15/95 43/83/96
f 28/17/97 27/18/98 44/85/99 45/87/100
f 46/88/101 29/20/102 28/19/103 45/86/104
f 47/90/105 30/22/106 29/21/107 46/89/108
f 48/92/109 31/24/110 30/23/111 47/91/112
f 49/94/113 32/26/114 31/25/115 48/93/116
f 50/96/117 33/28/118 32/27/119 49/95/120
f 51/98/121 34/30/122 33/29/123 50/97/124
f 52/100/125 35/32/126 34/31/127 51/99/128
f 1/33/129 35/34/130 52/101/131 53/102/132
f 1/1/133 53/103/134 2/2/135
f 58/104/136 59/105/137 73/106/138 72/107/139
f 74/108/140 73/109/141 59/110/142 60/111/143
f 75/112/144 74/113/145 60/114/146 70/115/147
f 76/116/148 75/117/149 70/118/150 61/119/151
f 77/120/152 76/121/153 61/122/154 69/123/155
f 78/124/156 77/125/157 69/126/158 64/127/159
f 79/128/160 78/129/161 64/130/162 65/131/163
f 80/132/164 79/133/165 65/134/166 55/135/167
f 66/136/168 81/137/169 80/138/170 55/139/171
f 63/140/172 82/141/173 81/142/174 66/143/175
f 68/144/176 83/145/177 82/146/178 63/147/179
f 62/148/180 84/149/181 83/150/182 68/151/183
f 67/152/184 85/153/185 84/154/186 62/155/187
f 57/156/188 86/157/189 85/158/190 67/159/191
f 56/160/192 87/161/193 86/162/194 57/163/195
f 54/164/196 87/165/197 56/166/198 71/167/199
f 58/168/200 72/169/201 37/170/202 36/171/203
f 73/106/204 38/172/205 37/173/206 72/107/207
f 74/108/208 39/174/209 38/175/210 73/109/211
f 40/176/212 39/177/213 74/113/214 75/112/215
f 41/178/216 40/179/217 75/117/218 76/116/219
f 42/180/220 41/181/221 76/121/222 77/120/223
f 43/182/224 42/183/225 77/125/226 78/124/227
f 44/184/228 43/185/229 78/129/230 79/128/231
f 80/132/232 45/186/233 44/187/234 79/133/235
f 46/188/236 45/189/237 80/138/238 81/137/239
f 47/190/240 46/191/241 81/142/242 82/141/243
f 48/192/244 47/193/245 82/146/246 83/145/247
f 49/194/248 48/195/249 83/150/250 84/149/251
f 50/196/252 49/197/253 84/154/254 85/153/255
f 51/198/256 50/199/257 85/158/258 86/157/259
f 52/200/260 51/201/261 86/162/262 87/161/263
f 54/164/264 53/202/265 52/203/266 87/165/267
f 54/204/268 2/205/269 53/206/270
