# This file uses meters as units for non-parametric coordinates.

v -5.000000 0.000000 0.000000
v -10.000000 4.088734 10.000000
v 0.000000 0.000000 0.000000
v 0.000000 4.088734 10.000000
v 0.000000 0.000000 5.000000
v -5.000000 0.000000 5.000000
v 0.000000 4.088734 7.500000
v -7.500000 4.088734 7.500000
v -10.000000 4.088734 0.000000
v -7.500000 4.088734 0.000000
vt 0.232328 0.047329
vt 0.232328 0.047329
vt 0.232328 0.047329
vt 0.232328 0.047329
vt 0.202054 0.047329
vt 0.232328 0.047329
vt 0.232328 0.047329
vt 0.202054 0.047329
vt 0.202054 0.047329
vt 0.232328 0.047329
vt 0.232328 0.047329
vt 0.202054 0.047329
vt 0.232328 0.047329
vt 0.232328 0.047329
vt 0.232328 0.047329
vt 0.232328 0.047329
vt 0.232328 0.047329
vt 0.232328 0.047329
vt 0.232328 0.047329
vt 0.232328 0.047329
vt 0.202054 0.047329
vt 0.202054 0.047329
vt 0.202054 0.047329
vt 0.202054 0.047329
vn 0.000000 0.826367 -0.563132
vn 0.000000 0.926484 -0.376334
vn 0.000000 1.000000 0.000000
vn 0.000000 1.000000 0.000000
vn 0.000000 1.000000 0.000000
vn 0.000000 1.000000 0.000000
vn 0.000000 1.000000 0.000000
vn 0.000000 1.000000 0.000000
vn 0.000000 0.521652 -0.853158
vn 0.000000 0.521652 -0.853158
vn 0.000000 0.926484 -0.376334
vn 0.000000 0.826367 -0.563132
vn 0.376334 0.926484 0.000000
vn 0.563132 0.826367 0.000000
vn 0.000000 1.000000 0.000000
vn 0.000000 1.000000 0.000000
vn 0.000000 1.000000 0.000000
vn 0.000000 1.000000 0.000000
vn 0.000000 1.000000 0.000000
vn 0.000000 1.000000 0.000000
vn 0.853158 0.521652 0.000000
vn 0.853158 0.521652 0.000000
vn 0.563132 0.826367 0.000000
vn 0.376334 0.926484 0.000000
s off
f 7/7/1 8/10/2 2/3/3 4/2/4
f 1/1/5 6/6/6 5/11/7 3/4/8
f 5/5/9 6/12/10 8/8/11 7/9/12
f 8/13/13 10/14/14 9/15/15 2/16/16
f 3/17/17 1/18/18 6/19/19 5/20/20
f 6/21/21 1/22/22 10/23/23 8/24/24
