# This file uses meters as units for non-parametric coordinates.

v 0.000000 4.088734 9.999985
v 10.000000 4.088734 9.999985
v 0.000000 4.088734 0.000000
v 10.000000 4.088734 0.000000
v 1.358398 4.088734 0.000000
v 1.358398 4.088734 9.999985
v 1.798462 4.088734 0.000000
v 1.798462 4.088734 9.999985
v 20.000004 4.088734 0.000000
v 20.000004 4.088734 9.999985
v 18.641605 4.088734 9.999985
v 18.641605 4.088734 0.000000
v 18.201542 4.088734 9.999985
v 18.201542 4.088734 0.000000
v 14.100773 4.088734 0.000000
v 14.100773 4.088734 9.999985
v 5.899231 4.088734 0.000000
v 5.899231 4.088734 9.999985
v 7.949615 4.088734 0.000000
v 7.949615 4.088734 9.999985
v 12.050388 4.088734 0.000000
v 12.050388 4.088734 9.999985
v 11.025196 4.088734 0.000000
v 11.025196 4.088734 9.999985
v 8.974808 4.088734 0.000000
v 8.974808 4.088734 9.999985
v 3.848846 4.088734 0.000000
v 3.848846 4.088734 9.999985
v 6.924423 4.088734 0.000000
v 6.924423 4.088734 9.999985
v 13.075581 4.088734 0.000000
v 13.075581 4.088734 9.999985
v 16.151157 4.088734 0.000000
v 16.151157 4.088734 9.999985
vt 0.265537 0.047527
vt 0.233583 0.047527
vt 0.233583 0.047527
vt 0.265537 0.047527
vt 0.265537 0.047527
vt 0.265537 0.047527
vt 0.265537 0.047527
vt 0.265537 0.047527
vt 0.325905 0.046099
vt 0.325905 0.046099
vt 0.325905 0.046099
vt 0.325905 0.046099
vt 0.265537 0.047527
vt 0.265537 0.047527
vt 0.233583 0.047527
vt 0.233583 0.047527
vt 0.265537 0.047527
vt 0.265537 0.047527
vt 0.265537 0.047527
vt 0.265537 0.047527
vt 0.325897 0.046099
vt 0.325897 0.046099
vt 0.325897 0.046099
vt 0.325897 0.046099
vt 0.233583 0.047527
vt 0.201630 0.047527
vt 0.201630 0.047527
vt 0.233583 0.047527
vt 0.265536 0.047527
vt 0.233583 0.047527
vt 0.233583 0.047527
vt 0.265536 0.047527
vt 0.265536 0.047527
vt 0.233583 0.047527
vt 0.233583 0.047527
vt 0.265536 0.047527
vt 0.233583 0.047527
vt 0.265537 0.047527
vt 0.233583 0.047527
vt 0.201630 0.047527
vt 0.201630 0.047527
vt 0.233583 0.047527
vt 0.265537 0.047527
vt 0.233583 0.047527
vt 0.233583 0.047527
vt 0.265537 0.047527
vt 0.233583 0.047527
vt 0.201630 0.047527
vt 0.233583 0.047527
vt 0.201630 0.047527
vt 0.233583 0.047527
vt 0.265536 0.047527
vt 0.201630 0.047527
vt 0.233583 0.047527
vt 0.265536 0.047527
vt 0.233583 0.047527
vt 0.265537 0.047527
vt 0.233583 0.047527
vt 0.201630 0.047527
vt 0.233583 0.047527
vt 0.265536 0.047527
vt 0.233583 0.047527
vt 0.233583 0.047527
vt 0.265536 0.047527
vn 0.000000 1.000000 0.000000
vn 0.000000 1.000000 0.000000
vn 0.000000 1.000000 0.000000
vn 0.000000 1.000000 0.000000
vn 0.000000 1.000000 0.000000
vn 0.000000 1.000000 0.000000
vn 0.000000 1.000000 0.000000
vn 0.000000 1.000000 0.000000
vn 0.000000 1.000000 0.000000
vn 0.000000 1.000000 0.000000
vn 0.000000 1.000000 0.000000
vn 0.000000 1.000000 0.000000
vn 0.000000 1.000000 0.000000
vn 0.000000 1.000000 0.000000
vn 0.000000 1.000000 0.000000
vn 0.000000 1.000000 0.000000
vn 0.000000 1.000000 0.000000
vn 0.000000 1.000000 0.000000
vn 0.000000 1.000000 0.000000
vn 0.000000 1.000000 0.000000
vn 0.000000 1.000000 0.000000
vn 0.000000 1.000000 0.000000
vn 0.000000 1.000000 0.000000
vn 0.000000 1.000000 0.000000
vn 0.000000 1.000000 0.000000
vn 0.000000 1.000000 0.000000
vn 0.000000 1.000000 0.000000
vn 0.000000 1.000000 0.000000
vn 0.000000 1.000000 0.000000
vn 0.000000 1.000000 0.000000
vn 0.000000 1.000000 0.000000
vn 0.000000 1.000000 0.000000
vn 0.000000 1.000000 0.000000
vn 0.000000 1.000000 0.000000
vn 0.000000 1.000000 0.000000
vn 0.000000 1.000000 0.000000
vn 0.000000 1.000000 0.000000
vn 0.000000 1.000000 0.000000
vn 0.000000 1.000000 0.000000
vn 0.000000 1.000000 0.000000
vn 0.000000 1.000000 0.000000
vn 0.000000 1.000000 0.000000
vn 0.000000 1.000000 0.000000
vn 0.000000 1.000000 0.000000
vn 0.000000 1.000000 0.000000
vn 0.000000 1.000000 0.000000
vn 0.000000 1.000000 0.000000
vn 0.000000 1.000000 0.000000
vn 0.000000 1.000000 0.000000
vn 0.000000 1.000000 0.000000
vn 0.000000 1.000000 0.000000
vn 0.000000 1.000000 0.000000
vn 0.000000 1.000000 0.000000
vn 0.000000 1.000000 0.000000
vn 0.000000 1.000000 0.000000
vn 0.000000 1.000000 0.000000
vn 0.000000 1.000000 0.000000
vn 0.000000 1.000000 0.000000
vn 0.000000 1.000000 0.000000
vn 0.000000 1.000000 0.000000
vn 0.000000 1.000000 0.000000
vn 0.000000 1.000000 0.000000
vn 0.000000 1.000000 0.000000
vn 0.000000 1.000000 0.000000
s off
f 25/35/1 26/62/2 2/3/3 4/2/4
f 1/1/5 6/6/6 5/5/7 3/4/8
f 5/9/9 6/10/10 8/11/11 7/12/12
f 13/13/13 14/14/14 33/43/15 34/46/16
f 9/17/17 12/18/18 11/19/19 10/20/20
f 11/21/21 12/22/22 14/23/23 13/24/24
f 16/26/25 15/48/26 31/41/27 32/50/28
f 27/37/29 28/58/30 18/28/31 17/60/32
f 29/39/33 30/54/34 20/30/35 19/56/36
f 22/32/37 21/52/38 23/33/39 24/64/40
f 24/34/41 23/63/42 4/15/43 2/16/44
f 19/29/45 20/55/46 26/36/47 25/61/48
f 7/7/49 8/8/50 28/38/51 27/57/52
f 17/27/53 18/59/54 30/40/55 29/53/56
f 32/42/57 31/49/58 21/31/59 22/51/60
f 34/44/61 33/45/62 15/25/63 16/47/64
