# This file uses meters as units for non-parametric coordinates.

v -0.000015 0.000000 0.000031
v 9.999985 0.000000 0.000031
v -0.000015 0.000000 -9.999954
v 9.999985 0.000000 -9.999954
v 1.358383 0.000000 -9.999954
v 1.358383 0.000000 0.000031
v 1.798447 0.000000 -9.999954
v 1.798447 0.000000 0.000031
v 19.999989 0.000000 -9.999954
v 19.999989 0.000000 0.000031
v 18.641590 0.000000 0.000031
v 18.641590 0.000000 -9.999954
v 18.201527 0.000000 0.000031
v 18.201527 0.000000 -9.999954
v 14.100758 0.000000 -9.999954
v 14.100758 0.000000 0.000031
v 5.899216 0.000000 -9.999954
v 5.899216 0.000000 0.000031
v 7.949600 0.000000 -9.999954
v 7.949600 0.000000 0.000031
v 12.050373 0.000000 -9.999954
v 12.050373 0.000000 0.000031
v 11.025181 0.000000 -9.999954
v 11.025181 0.000000 0.000031
v 8.974792 0.000000 -9.999954
v 8.974792 0.000000 0.000031
v 3.848831 0.000000 -9.999954
v 3.848831 0.000000 0.000031
v 6.924408 0.000000 -9.999954
v 6.924408 0.000000 0.000031
v 13.075565 0.000000 -9.999954
v 13.075565 0.000000 0.000031
v 16.151142 0.000000 -9.999954
v 16.151142 0.000000 0.000031
v 19.999989 0.000000 -2.999965
v 14.761659 4.838276 -4.265981
v 14.519176 4.838276 -4.265981
v 13.389379 4.838276 -4.265981
v 12.259583 4.838276 -4.265981
v 11.694683 4.838276 -4.265981
v 11.129785 4.838276 -4.265981
v 10.564886 4.838276 -4.265981
v 9.999986 4.838276 -4.265981
v 9.435087 4.838276 -4.265981
v 8.870189 4.838276 -4.265981
v 8.305290 4.838276 -4.265981
v 7.740391 4.838276 -4.265981
v 6.610595 4.838276 -4.265981
v 5.480797 4.838276 -4.265981
v 5.238315 4.838276 -4.265981
v -0.000015 0.000000 -2.999965
v 19.999989 0.000000 -6.999959
v 14.761659 4.838276 -5.733943
v 14.519176 4.838276 -5.733943
v 13.389379 4.838276 -5.733943
v 12.259583 4.838276 -5.733943
v 11.694683 4.838276 -5.733943
v 11.129785 4.838276 -5.733943
v 10.564886 4.838276 -5.733943
v 9.999986 4.838276 -5.733943
v 9.435087 4.838276 -5.733943
v 8.870189 4.838276 -5.733943
v 8.305290 4.838276 -5.733943
v 7.740391 4.838276 -5.733943
v 6.610595 4.838276 -5.733943
v 5.480797 4.838276 -5.733943
v 5.238315 4.838276 -5.733943
v -0.000015 0.000000 -6.999959
v 17.572762 1.332831 -2.168385
v 17.187126 1.332831 -2.168385
v 15.390342 1.332832 -2.168385
v 13.593557 1.332832 -2.168385
v 12.695166 1.332832 -2.168385
v 11.796772 1.332832 -2.168385
v 10.898380 1.332832 -2.168385
v 9.999985 1.332831 -2.168385
v 9.101593 1.332832 -2.168385
v 8.203201 1.332832 -2.168385
v 7.304809 1.332832 -2.168385
v 6.406416 1.332832 -2.168385
v 4.609632 1.332832 -2.168385
v 2.812848 1.332832 -2.168385
v 2.427213 1.332832 -2.168385
v 1.913534 1.332832 -3.860929
v 1.913534 1.332832 -6.138995
v 2.427213 1.332831 -7.831539
v 2.812847 1.332831 -7.831539
v 4.609632 1.332831 -7.831539
v 6.406416 1.332831 -7.831539
v 7.304809 1.332831 -7.831539
v 8.203201 1.332831 -7.831539
v 9.101593 1.332831 -7.831539
v 9.999985 1.332832 -7.831539
v 10.898380 1.332831 -7.831539
v 11.796772 1.332831 -7.831539
v 12.695165 1.332831 -7.831539
v 13.593557 1.332831 -7.831539
v 15.390341 1.332831 -7.831539
v 17.187126 1.332832 -7.831539
v 17.572762 1.332832 -7.831539
v 18.086439 1.332831 -6.138995
v 18.086439 1.332831 -3.860929
vt 0.265537 0.047527
vt 0.204866 0.047527
vt 0.204866 0.047527
vt 0.265537 0.047527
vt 0.236819 0.047527
vt 0.265537 0.047527
vt 0.236819 0.047527
vt 0.236819 0.047527
vt 0.297187 0.046099
vt 0.297187 0.046099
vt 0.297187 0.046099
vt 0.297187 0.046099
vt 0.236819 0.047527
vt 0.236819 0.047527
vt 0.204866 0.047527
vt 0.204866 0.047527
vt 0.265537 0.047527
vt 0.265537 0.047527
vt 0.236819 0.047527
vt 0.265537 0.047527
vt 0.297179 0.046099
vt 0.297179 0.046099
vt 0.297179 0.046099
vt 0.297179 0.046099
vt 0.204866 0.047527
vt 0.172913 0.047527
vt 0.172913 0.047527
vt 0.204866 0.047527
vt 0.236819 0.047527
vt 0.204866 0.047527
vt 0.204866 0.047527
vt 0.236819 0.047527
vt 0.236819 0.047527
vt 0.204866 0.047527
vt 0.204866 0.047527
vt 0.236819 0.047527
vt 0.204866 0.047527
vt 0.236819 0.047527
vt 0.204866 0.047527
vt 0.172913 0.047527
vt 0.172913 0.047527
vt 0.204866 0.047527
vt 0.236819 0.047527
vt 0.204866 0.047527
vt 0.204866 0.047527
vt 0.236819 0.047527
vt 0.204866 0.047527
vt 0.172913 0.047527
vt 0.204866 0.047527
vt 0.172913 0.047527
vt 0.204866 0.047527
vt 0.236819 0.047527
vt 0.172913 0.047527
vt 0.204866 0.047527
vt 0.236819 0.047527
vt 0.204866 0.047527
vt 0.236819 0.047527
vt 0.204866 0.047527
vt 0.172913 0.047527
vt 0.204866 0.047527
vt 0.236819 0.047527
vt 0.204866 0.047527
vt 0.204866 0.047527
vt 0.236819 0.047527
vt 0.265537 0.047527
vt 0.284282 0.046099
vt 0.235949 0.047527
vt 0.281213 0.047527
vt 0.284282 0.046099
vt 0.281213 0.047527
vt 0.174407 0.047527
vt 0.279588 0.047527
vt 0.142454 0.047527
vt 0.277963 0.047527
vt 0.174407 0.047527
vt 0.279588 0.047527
vt 0.206360 0.047527
vt 0.281213 0.047527
vt 0.174407 0.047527
vt 0.279588 0.047527
vt 0.279588 0.047527
vt 0.279588 0.047527
vt 0.206360 0.047527
vt 0.281213 0.047527
vt 0.174407 0.047527
vt 0.279588 0.047527
vt 0.142454 0.047527
vt 0.277963 0.047527
vt 0.174407 0.047527
vt 0.279588 0.047527
vt 0.206360 0.047527
vt 0.281213 0.047527
vt 0.266729 0.046099
vt 0.284282 0.046099
vt 0.206360 0.047527
vt 0.262926 0.047527
vt 0.262926 0.047527
vt 0.266721 0.046099
vt 0.206360 0.047527
vt 0.206360 0.047527
vt 0.266721 0.046099
vt 0.206360 0.047527
vt 0.174407 0.047527
vt 0.174407 0.047527
vt 0.142454 0.047527
vt 0.142454 0.047527
vt 0.174407 0.047527
vt 0.174407 0.047527
vt 0.206360 0.047527
vt 0.206360 0.047527
vt 0.174407 0.047527
vt 0.174407 0.047527
vt 0.174407 0.047527
vt 0.174407 0.047527
vt 0.206360 0.047527
vt 0.206360 0.047527
vt 0.174407 0.047527
vt 0.174407 0.047527
vt 0.142454 0.047527
vt 0.142454 0.047527
vt 0.174407 0.047527
vt 0.174407 0.047527
vt 0.206360 0.047527
vt 0.206360 0.047527
vt 0.266729 0.046099
vt 0.266729 0.046099
vt 0.206360 0.047527
vt 0.265537 0.047527
vt 0.236819 0.047527
vt 0.265537 0.047527
vt 0.236819 0.047527
vt 0.236819 0.047527
vt 0.265537 0.047527
vt 0.236819 0.047527
vt 0.265537 0.047527
vt 0.236819 0.047527
vt 0.262926 0.047527
vt 0.265537 0.047527
vt 0.236819 0.047527
vt 0.262926 0.047527
vt 0.284282 0.046099
vt 0.235949 0.047527
vt 0.281213 0.047527
vt 0.284282 0.046099
vt 0.279588 0.047527
vt 0.281213 0.047527
vt 0.277963 0.047527
vt 0.279588 0.047527
vt 0.279588 0.047527
vt 0.277963 0.047527
vt 0.281213 0.047527
vt 0.279588 0.047527
vt 0.279588 0.047527
vt 0.281213 0.047527
vt 0.279588 0.047527
vt 0.279588 0.047527
vt 0.281213 0.047527
vt 0.279588 0.047527
vt 0.279588 0.047527
vt 0.281213 0.047527
vt 0.277963 0.047527
vt 0.279588 0.047527
vt 0.279588 0.047527
vt 0.277963 0.047527
vt 0.281213 0.047527
vt 0.279588 0.047527
vt 0.284282 0.046099
vt 0.281213 0.047527
vt 0.235949 0.047527
vt 0.284282 0.046099
vt 0.266729 0.046099
vt 0.235949 0.047527
vt 0.206360 0.047527
vt 0.284282 0.046099
vt 0.174407 0.047527
vt 0.281213 0.047527
vt 0.142454 0.047527
vt 0.279588 0.047527
vt 0.174407 0.047527
vt 0.277963 0.047527
vt 0.206360 0.047527
vt 0.279588 0.047527
vt 0.174407 0.047527
vt 0.281213 0.047527
vt 0.174407 0.047527
vt 0.174407 0.047527
vt 0.206360 0.047527
vt 0.279588 0.047527
vt 0.174407 0.047527
vt 0.281213 0.047527
vt 0.142454 0.047527
vt 0.279588 0.047527
vt 0.174407 0.047527
vt 0.277963 0.047527
vt 0.206360 0.047527
vt 0.279588 0.047527
vt 0.266721 0.046099
vt 0.206360 0.047527
vt 0.206360 0.047527
vt 0.266721 0.046099
vt 0.297179 0.046099
vt 0.236819 0.047527
vt 0.206360 0.047527
vt 0.266721 0.046099
vt 0.206360 0.047527
vt 0.174407 0.047527
vt 0.174407 0.047527
vt 0.142454 0.047527
vt 0.142454 0.047527
vt 0.174407 0.047527
vt 0.174407 0.047527
vt 0.206360 0.047527
vt 0.206360 0.047527
vt 0.174407 0.047527
vt 0.174407 0.047527
vt 0.174407 0.047527
vt 0.174407 0.047527
vt 0.206360 0.047527
vt 0.206360 0.047527
vt 0.174407 0.047527
vt 0.174407 0.047527
vt 0.142454 0.047527
vt 0.142454 0.047527
vt 0.174407 0.047527
vt 0.174407 0.047527
vt 0.206360 0.047527
vt 0.206360 0.047527
vt 0.266729 0.046099
vt 0.266729 0.046099
vt 0.206360 0.047527
vt 0.206360 0.047527
vt 0.235949 0.047527
vt 0.235949 0.047527
vt 0.206360 0.047527
vt 0.266729 0.046099
vt 0.206360 0.047527
vt 0.206360 0.047527
vt 0.266729 0.046099
vt 0.174407 0.047527
vt 0.206360 0.047527
vt 0.142454 0.047527
vt 0.174407 0.047527
vt 0.174407 0.047527
vt 0.142454 0.047527
vt 0.206360 0.047527
vt 0.174407 0.047527
vt 0.174407 0.047527
vt 0.206360 0.047527
vt 0.174407 0.047527
vt 0.174407 0.047527
vt 0.206360 0.047527
vt 0.174407 0.047527
vt 0.174407 0.047527
vt 0.206360 0.047527
vt 0.142454 0.047527
vt 0.174407 0.047527
vt 0.174407 0.047527
vt 0.142454 0.047527
vt 0.206360 0.047527
vt 0.174407 0.047527
vt 0.206360 0.047527
vt 0.266721 0.046099
vt 0.266721 0.046099
vt 0.206360 0.047527
vt 0.235949 0.047527
vt 0.206360 0.047527
vt 0.206360 0.047527
vt 0.235949 0.047527
vt 0.236819 0.047527
vt 0.266721 0.046099
vt 0.206360 0.047527
vt 0.297179 0.046099
vt 0.236819 0.047527
vt 0.236819 0.047527
vt 0.236819 0.047527
vt 0.297179 0.046099
vt 0.204866 0.047527
vt 0.236819 0.047527
vt 0.172913 0.047527
vt 0.204866 0.047527
vt 0.204866 0.047527
vt 0.172913 0.047527
vt 0.236819 0.047527
vt 0.204866 0.047527
vt 0.204866 0.047527
vt 0.236819 0.047527
vt 0.204866 0.047527
vt 0.204866 0.047527
vt 0.236819 0.047527
vt 0.204866 0.047527
vt 0.204866 0.047527
vt 0.236819 0.047527
vt 0.172913 0.047527
vt 0.204866 0.047527
vt 0.204866 0.047527
vt 0.172913 0.047527
vt 0.236819 0.047527
vt 0.204866 0.047527
vt 0.297187 0.046099
vt 0.236819 0.047527
vt 0.236819 0.047527
vt 0.297187 0.046099
vt 0.236819 0.047527
vt 0.297187 0.046099
vt 0.236819 0.047527
vt 0.236819 0.047527
vt 0.236819 0.047527
vt 0.297187 0.046099
vt 0.204866 0.047527
vt 0.236819 0.047527
vt 0.172913 0.047527
vt 0.204866 0.047527
vt 0.204866 0.047527
vt 0.172913 0.047527
vt 0.236819 0.047527
vt 0.204866 0.047527
vt 0.204866 0.047527
vt 0.236819 0.047527
vt 0.204866 0.047527
vt 0.204866 0.047527
vt 0.236819 0.047527
vt 0.204866 0.047527
vt 0.204866 0.047527
vt 0.236819 0.047527
vt 0.172913 0.047527
vt 0.204866 0.047527
vt 0.204866 0.047527
vt 0.172913 0.047527
vt 0.236819 0.047527
vt 0.204866 0.047527
vt 0.297179 0.046099
vt 0.236819 0.047527
vt 0.262926 0.047527
vt 0.262926 0.047527
vt 0.262926 0.047527
vt 0.262926 0.047527
vn 0.000000 0.677737 0.735305
vn 0.000000 0.677737 0.735305
vn 0.000000 0.685353 0.728211
vn 0.000000 0.685353 0.728211
vn -0.529680 0.841836 0.103688
vn -0.342455 0.916071 0.208657
vn -0.512442 0.809390 0.286864
vn -0.635911 0.768149 0.074596
vn 0.000000 0.651830 0.758366
vn -0.658990 0.737023 0.150098
vn -0.512442 0.809390 0.286864
vn 0.000000 0.721505 0.692410
vn 0.000000 0.651829 0.758366
vn 0.000000 0.677737 0.735305
vn 0.000000 0.685353 0.728211
vn 0.000000 0.721505 0.692410
vn 0.529681 0.841836 0.103688
vn 0.635912 0.768148 0.074596
vn 0.512442 0.809390 0.286863
vn 0.342455 0.916071 0.208658
vn 0.658990 0.737023 0.150098
vn 0.000000 0.651829 0.758366
vn 0.000000 0.721505 0.692410
vn 0.512442 0.809390 0.286863
vn 0.000000 0.686806 0.726841
vn 0.000000 0.677737 0.735304
vn 0.000000 0.685353 0.728211
vn 0.000000 0.675875 0.737016
vn 0.000000 0.686806 0.726841
vn 0.000000 0.677737 0.735305
vn 0.000000 0.685353 0.728211
vn 0.000000 0.675875 0.737016
vn 0.000000 0.677737 0.735305
vn 0.000000 0.677737 0.735304
vn 0.000000 0.685353 0.728211
vn 0.000000 0.685353 0.728211
vn 0.000000 0.677737 0.735305
vn 0.000000 0.677737 0.735305
vn -0.000000 0.685353 0.728211
vn 0.000000 0.685353 0.728211
vn 0.000000 0.677737 0.735305
vn 0.000000 0.677737 0.735305
vn -0.000000 0.685353 0.728211
vn -0.000000 0.685353 0.728211
vn 0.000000 0.677737 0.735305
vn 0.000000 0.677737 0.735305
vn 0.000000 0.685353 0.728211
vn 0.000000 0.685353 0.728211
vn 0.000000 0.677737 0.735305
vn 0.000000 0.651830 0.758366
vn 0.000000 0.721505 0.692410
vn 0.000000 0.685353 0.728211
vn 0.000000 0.677737 0.735304
vn 0.000000 0.686806 0.726841
vn 0.000000 0.675875 0.737016
vn 0.000000 0.685353 0.728211
vn 0.000000 0.677737 0.735304
vn 0.000000 0.677737 0.735305
vn 0.000000 0.685353 0.728211
vn 0.000000 0.685353 0.728211
vn 0.000000 0.677737 0.735305
vn 0.000000 0.686806 0.726841
vn 0.000000 0.675875 0.737016
vn 0.000000 0.685353 0.728211
vn 0.635911 0.768148 -0.074596
vn 0.635912 0.768148 0.074596
vn 0.529681 0.841836 0.103688
vn 0.529680 0.841836 -0.103688
vn 0.000000 0.651829 -0.758366
vn 0.000000 0.651829 0.758366
vn 0.658990 0.737023 0.150098
vn 0.658990 0.737023 -0.150098
vn 0.000000 0.677737 0.735305
vn 0.000000 0.651829 0.758366
vn 0.000000 0.651829 -0.758366
vn 0.000000 0.677737 -0.735305
vn 0.000000 0.686806 0.726841
vn 0.000000 0.677737 0.735305
vn 0.000000 0.677737 -0.735305
vn 0.000000 0.686806 -0.726841
vn 0.000000 0.677737 0.735304
vn 0.000000 0.686806 0.726841
vn 0.000000 0.686806 -0.726841
vn 0.000000 0.677737 -0.735305
vn 0.000000 0.677737 0.735305
vn 0.000000 0.677737 0.735304
vn 0.000000 0.677737 -0.735305
vn 0.000000 0.677737 -0.735305
vn 0.000000 0.677737 0.735305
vn 0.000000 0.677737 0.735305
vn 0.000000 0.677737 -0.735305
vn 0.000000 0.677737 -0.735305
vn 0.000000 0.677737 -0.735305
vn 0.000000 0.677737 0.735305
vn 0.000000 0.677737 0.735305
vn 0.000000 0.677737 -0.735305
vn 0.000000 0.677737 0.735305
vn 0.000000 0.677737 0.735305
vn 0.000000 0.677737 -0.735305
vn 0.000000 0.677737 -0.735305
vn 0.000000 0.677737 0.735305
vn 0.000000 0.677737 0.735305
vn 0.000000 0.677737 -0.735305
vn 0.000000 0.677737 -0.735305
vn 0.000000 0.677737 0.735304
vn 0.000000 0.677737 0.735305
vn 0.000000 0.677737 -0.735305
vn 0.000000 0.677737 -0.735304
vn 0.000000 0.686806 0.726841
vn 0.000000 0.677737 0.735304
vn 0.000000 0.677737 -0.735304
vn 0.000000 0.686806 -0.726841
vn 0.000000 0.677737 0.735305
vn 0.000000 0.686806 0.726841
vn 0.000000 0.686806 -0.726841
vn 0.000000 0.677737 -0.735305
vn 0.000000 0.651830 0.758366
vn 0.000000 0.677737 0.735305
vn 0.000000 0.677737 -0.735305
vn 0.000000 0.651829 -0.758366
vn -0.658990 0.737023 0.150098
vn 0.000000 0.651830 0.758366
vn 0.000000 0.651829 -0.758366
vn -0.658990 0.737023 -0.150098
vn -0.529680 0.841836 -0.103688
vn -0.529680 0.841836 0.103688
vn -0.635911 0.768149 0.074596
vn -0.635911 0.768149 -0.074596
vn 0.529680 0.841836 -0.103688
vn 0.342455 0.916071 -0.208657
vn 0.512442 0.809390 -0.286863
vn 0.635911 0.768148 -0.074596
vn 0.000000 0.721505 -0.692410
vn 0.512442 0.809390 -0.286863
vn 0.342455 0.916071 -0.208657
vn 0.000000 0.851935 -0.523648
vn 0.000000 0.685353 -0.728211
vn 0.000000 0.721505 -0.692410
vn 0.000000 0.851935 -0.523648
vn 0.000000 0.851935 -0.523648
vn 0.000000 0.675875 -0.737016
vn 0.000000 0.685353 -0.728211
vn 0.000000 0.851935 -0.523648
vn 0.000000 0.851935 -0.523648
vn 0.000000 0.685353 -0.728211
vn 0.000000 0.675875 -0.737016
vn 0.000000 0.851935 -0.523648
vn 0.000000 0.851935 -0.523648
vn 0.000000 0.685353 -0.728211
vn 0.000000 0.685353 -0.728211
vn 0.000000 0.851935 -0.523648
vn 0.000000 0.851935 -0.523648
vn 0.000000 0.685353 -0.728211
vn 0.000000 0.685353 -0.728211
vn 0.000000 0.851935 -0.523648
vn 0.000000 0.851935 -0.523648
vn 0.000000 0.685353 -0.728211
vn 0.000000 0.685353 -0.728211
vn 0.000000 0.851935 -0.523648
vn 0.000000 0.851935 -0.523648
vn 0.000000 0.851935 -0.523648
vn 0.000000 0.685353 -0.728211
vn 0.000000 0.685353 -0.728211
vn 0.000000 0.851935 -0.523648
vn 0.000000 0.851935 -0.523648
vn 0.000000 0.685353 -0.728211
vn 0.000000 0.685353 -0.728211
vn 0.000000 0.851935 -0.523648
vn 0.000000 0.851935 -0.523648
vn 0.000000 0.685353 -0.728211
vn 0.000000 0.685353 -0.728211
vn 0.000000 0.851935 -0.523648
vn 0.000000 0.851935 -0.523648
vn 0.000000 0.675875 -0.737016
vn 0.000000 0.685353 -0.728211
vn 0.000000 0.851935 -0.523648
vn 0.000000 0.851935 -0.523647
vn 0.000000 0.685353 -0.728211
vn 0.000000 0.675875 -0.737016
vn 0.000000 0.851935 -0.523648
vn 0.000000 0.851935 -0.523648
vn 0.000000 0.721505 -0.692410
vn 0.000000 0.685353 -0.728211
vn 0.000000 0.851935 -0.523647
vn -0.342455 0.916071 -0.208657
vn -0.512442 0.809390 -0.286864
vn 0.000000 0.721505 -0.692410
vn 0.000000 0.851935 -0.523648
vn -0.529680 0.841836 -0.103688
vn -0.635911 0.768149 -0.074596
vn -0.512442 0.809390 -0.286864
vn -0.342455 0.916071 -0.208657
vn 0.529681 0.841836 0.103688
vn 0.342455 0.916071 0.208658
vn 0.000000 1.000000 0.000000
vn -0.529680 0.841836 -0.103688
vn -0.342455 0.916071 -0.208657
vn 0.000000 1.000000 0.000000
vn 0.000000 1.000000 0.000000
vn -0.342455 0.916071 0.208657
vn -0.529680 0.841836 0.103688
vn 0.000000 1.000000 0.000000
vn 0.342455 0.916071 -0.208657
vn 0.529680 0.841836 -0.103688
vn 0.000000 0.721505 0.692410
vn -0.512442 0.809390 0.286864
vn -0.342455 0.916071 0.208657
vn 0.000000 0.851935 0.523648
vn 0.000000 0.685353 0.728211
vn 0.000000 0.721505 0.692410
vn 0.000000 0.851935 0.523648
vn 0.000000 0.851935 0.523648
vn 0.000000 0.675875 0.737016
vn 0.000000 0.685353 0.728211
vn 0.000000 0.851935 0.523648
vn 0.000000 0.851935 0.523648
vn 0.000000 0.685353 0.728211
vn 0.000000 0.675875 0.737016
vn 0.000000 0.851935 0.523648
vn 0.000000 0.851935 0.523648
vn 0.000000 0.685353 0.728211
vn 0.000000 0.685353 0.728211
vn 0.000000 0.851935 0.523648
vn 0.000000 0.851935 0.523648
vn 0.000000 0.685353 0.728211
vn 0.000000 0.685353 0.728211
vn 0.000000 0.851935 0.523648
vn 0.000000 0.851935 0.523648
vn 0.000000 0.685353 0.728211
vn 0.000000 0.685353 0.728211
vn 0.000000 0.851935 0.523648
vn 0.000000 0.851935 0.523647
vn -0.000000 0.851935 0.523648
vn -0.000000 0.685353 0.728211
vn -0.000000 0.685353 0.728211
vn -0.000000 0.851935 0.523648
vn 0.000000 0.851935 0.523648
vn 0.000000 0.685353 0.728211
vn -0.000000 0.685353 0.728211
vn -0.000000 0.851935 0.523648
vn 0.000000 0.851935 0.523648
vn 0.000000 0.685353 0.728211
vn 0.000000 0.685353 0.728211
vn 0.000000 0.851935 0.523648
vn 0.000000 0.851935 0.523648
vn 0.000000 0.675875 0.737016
vn 0.000000 0.685353 0.728211
vn 0.000000 0.851935 0.523648
vn 0.000000 0.851935 0.523648
vn 0.000000 0.685353 0.728211
vn 0.000000 0.675875 0.737016
vn 0.000000 0.851935 0.523648
vn 0.000000 0.851935 0.523648
vn 0.000000 0.721505 0.692410
vn 0.000000 0.685353 0.728211
vn 0.000000 0.851935 0.523648
vn 0.342455 0.916071 0.208658
vn 0.512442 0.809390 0.286863
vn 0.000000 0.721505 0.692410
vn 0.000000 0.851935 0.523648
vn -0.635911 0.768149 0.074596
vn -0.512442 0.809390 0.286864
vn -0.658990 0.737023 0.150098
vn -0.635911 0.768149 -0.074596
vn -0.635911 0.768149 0.074596
vn -0.658990 0.737023 0.150098
vn -0.658990 0.737023 -0.150098
vn -0.512442 0.809390 -0.286864
vn -0.635911 0.768149 -0.074596
vn -0.658990 0.737023 -0.150098
vn 0.000000 0.651829 -0.758366
vn 0.000000 0.721505 -0.692410
vn -0.512442 0.809390 -0.286864
vn -0.658990 0.737023 -0.150098
vn 0.000000 0.677737 -0.735305
vn 0.000000 0.685353 -0.728211
vn 0.000000 0.721505 -0.692410
vn 0.000000 0.651829 -0.758366
vn 0.000000 0.686806 -0.726841
vn 0.000000 0.675875 -0.737016
vn 0.000000 0.685353 -0.728211
vn 0.000000 0.677737 -0.735305
vn 0.000000 0.677737 -0.735304
vn 0.000000 0.685353 -0.728211
vn 0.000000 0.675875 -0.737016
vn 0.000000 0.686806 -0.726841
vn 0.000000 0.677737 -0.735305
vn 0.000000 0.685353 -0.728211
vn 0.000000 0.685353 -0.728211
vn 0.000000 0.677737 -0.735304
vn 0.000000 0.677737 -0.735305
vn 0.000000 0.685353 -0.728211
vn 0.000000 0.685353 -0.728211
vn 0.000000 0.677737 -0.735305
vn 0.000000 0.677737 -0.735305
vn 0.000000 0.685353 -0.728211
vn 0.000000 0.685353 -0.728211
vn 0.000000 0.677737 -0.735305
vn 0.000000 0.677737 -0.735305
vn 0.000000 0.685353 -0.728211
vn 0.000000 0.685353 -0.728211
vn 0.000000 0.677737 -0.735305
vn 0.000000 0.677737 -0.735305
vn 0.000000 0.685353 -0.728211
vn 0.000000 0.685353 -0.728211
vn 0.000000 0.677737 -0.735305
vn 0.000000 0.677737 -0.735305
vn 0.000000 0.685353 -0.728211
vn 0.000000 0.685353 -0.728211
vn 0.000000 0.677737 -0.735305
vn 0.000000 0.686806 -0.726841
vn 0.000000 0.675875 -0.737016
vn 0.000000 0.685353 -0.728211
vn 0.000000 0.677737 -0.735305
vn 0.000000 0.677737 -0.735305
vn 0.000000 0.685353 -0.728211
vn 0.000000 0.675875 -0.737016
vn 0.000000 0.686806 -0.726841
vn 0.000000 0.651829 -0.758366
vn 0.000000 0.721505 -0.692410
vn 0.000000 0.685353 -0.728211
vn 0.000000 0.677737 -0.735305
vn 0.658990 0.737023 -0.150098
vn 0.512442 0.809390 -0.286863
vn 0.000000 0.721505 -0.692410
vn 0.000000 0.651829 -0.758366
vn 0.635911 0.768148 -0.074596
vn 0.512442 0.809390 -0.286863
vn 0.658990 0.737023 -0.150098
vn 0.658990 0.737023 -0.150098
vn 0.658990 0.737023 0.150098
vn 0.635912 0.768148 0.074596
vn 0.635911 0.768148 -0.074596
vn 0.512442 0.809390 0.286863
vn 0.635912 0.768148 0.074596
vn 0.658990 0.737023 0.150098
s off
f 43/186/1 44/183/2 77/217/3 76/215/4
f 51/132/5 6/134/6 83/305/7 84/306/8
f 49/93/9 50/171/10 83/229/11 82/228/12
f 37/198/13 38/195/14 71/205/15 70/203/16
f 35/139/17 102/269/18 69/202/19 11/19/20
f 36/200/21 37/197/22 70/204/23 69/270/24
f 39/73/25 40/191/26 73/209/27 72/208/28
f 47/89/29 48/175/30 81/225/31 80/224/32
f 45/85/33 46/179/34 79/221/35 78/220/36
f 41/77/37 42/187/38 75/213/39 74/212/40
f 42/79/41 43/185/42 76/216/43 75/214/44
f 44/83/45 45/181/46 78/219/47 77/218/48
f 48/91/49 49/173/50 82/227/51 81/226/52
f 46/87/53 47/177/54 80/223/55 79/222/56
f 40/75/57 41/189/58 74/211/59 73/210/60
f 38/71/61 39/193/62 72/207/63 71/206/64
f 101/333/65 102/334/66 35/140/67 52/97/68
f 54/167/69 37/69/70 36/66/71 53/170/72
f 38/70/73 37/68/74 54/168/75 55/165/76
f 39/72/77 38/196/78 55/166/79 56/163/80
f 40/74/81 39/194/82 56/164/83 57/161/84
f 41/76/85 40/192/86 57/162/87 58/159/88
f 42/78/89 41/190/90 58/160/91 59/157/92
f 60/155/93 43/81/94 42/188/95 59/158/96
f 44/82/97 43/80/98 60/156/99 61/153/100
f 45/84/101 44/184/102 61/154/103 62/151/104
f 46/86/105 45/182/106 62/152/107 63/149/108
f 47/88/109 46/180/110 63/150/111 64/147/112
f 48/90/113 47/178/114 64/148/115 65/145/116
f 49/92/117 48/176/118 65/146/119 66/143/120
f 50/94/121 49/174/122 66/144/123 67/141/124
f 68/137/125 51/96/126 84/335/127 85/336/128
f 52/129/129 12/131/130 100/273/131 101/274/132
f 99/276/133 100/272/134 12/22/135 14/23/136
f 98/278/137 99/275/138 14/14/139 33/43/140
f 97/280/141 98/277/142 33/45/143 15/25/144
f 96/282/145 97/279/146 15/48/147 31/41/148
f 95/284/149 96/281/150 31/49/151 21/31/152
f 94/286/153 95/283/154 21/52/155 23/33/156
f 93/288/157 94/285/158 23/63/159 4/15/160
f 25/35/161 92/290/162 93/287/163 4/2/164
f 19/29/165 91/292/166 92/289/167 25/61/168
f 29/39/169 90/294/170 91/291/171 19/56/172
f 17/27/173 89/296/174 90/293/175 29/53/176
f 27/37/177 88/298/178 89/295/179 17/60/180
f 7/7/181 87/300/182 88/297/183 27/57/184
f 5/9/185 86/302/186 87/299/187 7/12/188
f 68/136/189 85/303/190 86/301/191 5/5/192
f 35/65/193 11/138/194 10/20/195
f 68/128/196 5/135/197 3/4/198
f 1/1/199 6/6/200 51/133/201
f 9/17/202 12/18/203 52/130/204
f 82/308/205 83/304/206 6/10/207 8/11/208
f 81/310/209 82/307/210 8/8/211 28/38/212
f 80/312/213 81/309/214 28/58/215 18/28/216
f 79/314/217 80/311/218 18/59/219 30/40/220
f 78/316/221 79/313/222 30/54/223 20/30/224
f 77/318/225 78/315/226 20/55/227 26/36/228
f 76/320/229 77/317/230 26/62/231 2/3/232
f 24/34/233 75/322/234 76/319/235 2/16/236
f 22/32/237 74/324/238 75/321/239 24/64/240
f 32/42/241 73/326/242 74/323/243 22/51/244
f 16/26/245 72/328/246 73/325/247 32/50/248
f 34/44/249 71/330/250 72/327/251 16/47/252
f 13/13/253 70/332/254 71/329/255 34/46/256
f 11/21/257 69/201/258 70/331/259 13/24/260
f 84/231/261 83/230/262 50/95/263
f 85/233/264 84/232/265 50/172/266 67/142/267
f 86/236/268 85/234/269 67/127/270
f 66/125/271 87/238/272 86/235/273 67/126/274
f 65/123/275 88/240/276 87/237/277 66/124/278
f 64/121/279 89/242/280 88/239/281 65/122/282
f 63/119/283 90/244/284 89/241/285 64/120/286
f 62/117/287 91/246/288 90/243/289 63/118/290
f 61/115/291 92/248/292 91/245/293 62/116/294
f 60/112/295 93/249/296 92/247/297 61/114/298
f 59/111/299 94/252/300 93/250/301 60/113/302
f 58/109/303 95/254/304 94/251/305 59/110/306
f 57/107/307 96/256/308 95/253/309 58/108/310
f 56/105/311 97/258/312 96/255/313 57/106/314
f 55/103/315 98/260/316 97/257/317 56/104/318
f 54/100/319 99/261/320 98/259/321 55/102/322
f 53/98/323 100/263/324 99/262/325 54/101/326
f 101/266/327 100/264/328 53/99/329
f 53/169/330 36/67/331 102/268/332 101/265/333
f 69/271/334 102/267/335 36/199/336
