# This file uses meters as units for non-parametric coordinates.

v -0.000008 0.000000 0.000015
v 9.999992 0.000000 0.000015
v -0.000008 0.000000 -9.999969
v 9.999992 0.000000 -9.999969
v 1.358391 0.000000 -9.999969
v 1.358391 0.000000 0.000015
v 1.798454 0.000000 -9.999969
v 1.798454 0.000000 0.000015
v 19.999996 0.000000 -9.999969
v 19.999996 0.000000 0.000015
v 18.641598 0.000000 0.000015
v 18.641598 0.000000 -9.999969
v 18.201534 0.000000 0.000015
v 18.201534 0.000000 -9.999969
v 14.100765 0.000000 -9.999969
v 14.100765 0.000000 0.000015
v 5.899223 0.000000 -9.999969
v 5.899223 0.000000 0.000015
v 7.949608 0.000000 -9.999969
v 7.949608 0.000000 0.000015
v 12.050381 0.000000 -9.999969
v 12.050381 0.000000 0.000015
v 11.025188 0.000000 -9.999969
v 11.025188 0.000000 0.000015
v 8.974800 0.000000 -9.999969
v 8.974800 0.000000 0.000015
v 3.848839 0.000000 -9.999969
v 3.848839 0.000000 0.000015
v 6.924416 0.000000 -9.999969
v 6.924416 0.000000 0.000015
v 13.075573 0.000000 -9.999969
v 13.075573 0.000000 0.000015
v 16.151150 0.000000 -9.999969
v 16.151150 0.000000 0.000015
v 19.999996 0.000000 -2.999980
v 16.312914 2.892236 -4.205017
v 15.991436 2.892236 -4.205017
v 14.493576 2.892236 -4.205017
v 12.995716 2.892236 -4.205017
v 12.246786 2.892236 -4.205017
v 11.497856 2.892236 -4.205017
v 10.748925 2.892236 -4.205017
v 9.999993 2.892236 -4.205017
v 9.251062 2.892236 -4.205017
v 8.502132 2.892236 -4.205017
v 7.753203 2.892236 -4.205017
v 7.004272 2.892236 -4.205017
v 5.506413 2.892236 -4.205017
v 4.008553 2.892236 -4.205017
v 3.687074 2.892236 -4.205017
v -0.000008 0.000000 -2.999980
v 19.999996 0.000000 -6.999974
v 16.312914 2.892236 -5.794937
v 15.991436 2.892236 -5.794937
v 14.493576 2.892236 -5.794937
v 12.995716 2.892236 -5.794937
v 12.246786 2.892236 -5.794937
v 11.497856 2.892236 -5.794937
v 10.748925 2.892236 -5.794937
v 9.999993 2.892236 -5.794937
v 9.251062 2.892236 -5.794937
v 8.502132 2.892236 -5.794937
v 7.753203 2.892236 -5.794937
v 7.004272 2.892236 -5.794937
v 5.506413 2.892236 -5.794937
v 4.008553 2.892236 -5.794937
v 3.687074 2.892236 -5.794937
v -0.000008 0.000000 -6.999974
v 2.522732 0.972599 -7.678806
v 2.903503 0.972599 -7.678806
v 4.677626 0.972599 -7.678806
v 6.451748 0.972599 -7.678806
v 7.338809 0.972599 -7.678806
v 8.225870 0.972599 -7.678806
v 9.112931 0.972599 -7.678806
v 9.999992 0.972599 -7.678806
v 10.887056 0.972599 -7.678806
v 11.774118 0.972599 -7.678806
v 12.661180 0.972599 -7.678806
v 13.548241 0.972599 -7.678806
v 15.322363 0.972599 -7.678806
v 17.096485 0.972599 -7.678806
v 17.477257 0.972599 -7.678806
v 2.522732 0.972599 -2.321149
v 2.903503 0.972599 -2.321149
v 4.677626 0.972599 -2.321149
v 6.451748 0.972599 -2.321149
v 7.338809 0.972599 -2.321149
v 8.225870 0.972599 -2.321149
v 9.112931 0.972599 -2.321149
v 9.999992 0.972599 -2.321149
v 10.887056 0.972599 -2.321149
v 11.774118 0.972599 -2.321149
v 12.661180 0.972599 -2.321149
v 13.548241 0.972599 -2.321149
v 15.322363 0.972599 -2.321149
v 17.096485 0.972599 -2.321149
v 17.477257 0.972599 -2.321149
vt 0.265537 0.047527
vt 0.204866 0.047527
vt 0.204866 0.047527
vt 0.265537 0.047527
vt 0.236819 0.047527
vt 0.265537 0.047527
vt 0.236819 0.047527
vt 0.236819 0.047527
vt 0.297187 0.046099
vt 0.297187 0.046099
vt 0.297187 0.046099
vt 0.297187 0.046099
vt 0.236819 0.047527
vt 0.236819 0.047527
vt 0.204866 0.047527
vt 0.204866 0.047527
vt 0.265537 0.047527
vt 0.265537 0.047527
vt 0.236819 0.047527
vt 0.265537 0.047527
vt 0.297179 0.046099
vt 0.297179 0.046099
vt 0.297179 0.046099
vt 0.297179 0.046099
vt 0.204866 0.047527
vt 0.172913 0.047527
vt 0.172913 0.047527
vt 0.204866 0.047527
vt 0.236819 0.047527
vt 0.204866 0.047527
vt 0.204866 0.047527
vt 0.236819 0.047527
vt 0.236819 0.047527
vt 0.204866 0.047527
vt 0.204866 0.047527
vt 0.236819 0.047527
vt 0.204866 0.047527
vt 0.236819 0.047527
vt 0.204866 0.047527
vt 0.172913 0.047527
vt 0.172913 0.047527
vt 0.204866 0.047527
vt 0.236819 0.047527
vt 0.204866 0.047527
vt 0.204866 0.047527
vt 0.236819 0.047527
vt 0.204866 0.047527
vt 0.172913 0.047527
vt 0.204866 0.047527
vt 0.172913 0.047527
vt 0.204866 0.047527
vt 0.236819 0.047527
vt 0.172913 0.047527
vt 0.204866 0.047527
vt 0.236819 0.047527
vt 0.204866 0.047527
vt 0.236819 0.047527
vt 0.204866 0.047527
vt 0.172913 0.047527
vt 0.204866 0.047527
vt 0.236819 0.047527
vt 0.204866 0.047527
vt 0.204866 0.047527
vt 0.236819 0.047527
vt 0.265537 0.047527
vt 0.282769 0.046099
vt 0.264666 0.047527
vt 0.281867 0.047527
vt 0.282769 0.046099
vt 0.281867 0.047527
vt 0.204866 0.047527
vt 0.280911 0.047527
vt 0.172913 0.047527
vt 0.279955 0.047527
vt 0.204866 0.047527
vt 0.280911 0.047527
vt 0.236819 0.047527
vt 0.281867 0.047527
vt 0.204866 0.047527
vt 0.280911 0.047527
vt 0.280911 0.047527
vt 0.280911 0.047527
vt 0.236819 0.047527
vt 0.281867 0.047527
vt 0.204866 0.047527
vt 0.280911 0.047527
vt 0.172913 0.047527
vt 0.279955 0.047527
vt 0.204866 0.047527
vt 0.280911 0.047527
vt 0.236819 0.047527
vt 0.281867 0.047527
vt 0.297187 0.046099
vt 0.282770 0.046099
vt 0.236819 0.047527
vt 0.264666 0.047527
vt 0.264666 0.047527
vt 0.297179 0.046099
vt 0.236819 0.047527
vt 0.236819 0.047527
vt 0.297179 0.046099
vt 0.236819 0.047527
vt 0.204866 0.047527
vt 0.204866 0.047527
vt 0.172913 0.047527
vt 0.172913 0.047527
vt 0.204866 0.047527
vt 0.204866 0.047527
vt 0.236819 0.047527
vt 0.236819 0.047527
vt 0.204866 0.047527
vt 0.204866 0.047527
vt 0.204866 0.047527
vt 0.204866 0.047527
vt 0.236819 0.047527
vt 0.236819 0.047527
vt 0.204866 0.047527
vt 0.204866 0.047527
vt 0.172913 0.047527
vt 0.172913 0.047527
vt 0.204866 0.047527
vt 0.204866 0.047527
vt 0.236819 0.047527
vt 0.236819 0.047527
vt 0.297187 0.046099
vt 0.297187 0.046099
vt 0.236819 0.047527
vt 0.265537 0.047527
vt 0.236819 0.047527
vt 0.265537 0.047527
vt 0.236819 0.047527
vt 0.236819 0.047527
vt 0.265537 0.047527
vt 0.236819 0.047527
vt 0.265537 0.047527
vt 0.236819 0.047527
vt 0.264666 0.047527
vt 0.265537 0.047527
vt 0.236819 0.047527
vt 0.264666 0.047527
vt 0.282770 0.046099
vt 0.264666 0.047527
vt 0.281867 0.047527
vt 0.282770 0.046099
vt 0.280911 0.047527
vt 0.281867 0.047527
vt 0.279955 0.047527
vt 0.280911 0.047527
vt 0.280911 0.047527
vt 0.279955 0.047527
vt 0.281867 0.047527
vt 0.280911 0.047527
vt 0.280911 0.047527
vt 0.281867 0.047527
vt 0.280911 0.047527
vt 0.280911 0.047527
vt 0.281867 0.047527
vt 0.280911 0.047527
vt 0.280911 0.047527
vt 0.281867 0.047527
vt 0.279955 0.047527
vt 0.280911 0.047527
vt 0.280911 0.047527
vt 0.279955 0.047527
vt 0.281867 0.047527
vt 0.280911 0.047527
vt 0.282769 0.046099
vt 0.281867 0.047527
vt 0.264666 0.047527
vt 0.282769 0.046099
vt 0.297187 0.046099
vt 0.264666 0.047527
vt 0.236819 0.047527
vt 0.282770 0.046099
vt 0.204866 0.047527
vt 0.281867 0.047527
vt 0.172913 0.047527
vt 0.280911 0.047527
vt 0.204866 0.047527
vt 0.279955 0.047527
vt 0.236819 0.047527
vt 0.280911 0.047527
vt 0.204866 0.047527
vt 0.281867 0.047527
vt 0.204866 0.047527
vt 0.204866 0.047527
vt 0.236819 0.047527
vt 0.280911 0.047527
vt 0.204866 0.047527
vt 0.281867 0.047527
vt 0.172913 0.047527
vt 0.280911 0.047527
vt 0.204866 0.047527
vt 0.279955 0.047527
vt 0.236819 0.047527
vt 0.280911 0.047527
vt 0.297179 0.046099
vt 0.236819 0.047527
vt 0.236819 0.047527
vt 0.297179 0.046099
vt 0.297187 0.046099
vt 0.236819 0.047527
vt 0.236819 0.047527
vt 0.297187 0.046099
vt 0.204866 0.047527
vt 0.236819 0.047527
vt 0.172913 0.047527
vt 0.204866 0.047527
vt 0.204866 0.047527
vt 0.172913 0.047527
vt 0.236819 0.047527
vt 0.204866 0.047527
vt 0.204866 0.047527
vt 0.236819 0.047527
vt 0.204866 0.047527
vt 0.204866 0.047527
vt 0.236819 0.047527
vt 0.204866 0.047527
vt 0.204866 0.047527
vt 0.236819 0.047527
vt 0.172913 0.047527
vt 0.204866 0.047527
vt 0.204866 0.047527
vt 0.172913 0.047527
vt 0.236819 0.047527
vt 0.204866 0.047527
vt 0.236819 0.047527
vt 0.297179 0.046099
vt 0.297179 0.046099
vt 0.236819 0.047527
vt 0.297187 0.046099
vt 0.236819 0.047527
vt 0.236819 0.047527
vt 0.297187 0.046099
vt 0.204866 0.047527
vt 0.236819 0.047527
vt 0.172913 0.047527
vt 0.204866 0.047527
vt 0.204866 0.047527
vt 0.172913 0.047527
vt 0.236819 0.047527
vt 0.204866 0.047527
vt 0.204866 0.047527
vt 0.236819 0.047527
vt 0.204866 0.047527
vt 0.204866 0.047527
vt 0.236819 0.047527
vt 0.204866 0.047527
vt 0.204866 0.047527
vt 0.236819 0.047527
vt 0.172913 0.047527
vt 0.204866 0.047527
vt 0.204866 0.047527
vt 0.172913 0.047527
vt 0.236819 0.047527
vt 0.204866 0.047527
vt 0.236819 0.047527
vt 0.297179 0.046099
vt 0.297179 0.046099
vt 0.236819 0.047527
vn 0.000000 0.866974 0.498353
vn 0.000000 0.866974 0.498353
vn 0.000000 0.832734 0.553673
vn 0.000000 0.832734 0.553673
vn -0.557855 0.826734 0.072865
vn -0.338750 0.843634 0.416569
vn -0.568988 0.817868 0.085701
vn 0.000000 0.853062 0.521809
vn -0.568988 0.817868 0.085701
vn -0.338750 0.843634 0.416569
vn 0.000000 0.850475 0.526016
vn 0.000000 0.832734 0.553673
vn 0.000000 0.850475 0.526016
vn 0.000000 0.853062 0.521809
vn 0.000000 0.866974 0.498354
vn 0.557855 0.826734 0.072865
vn 0.568989 0.817868 0.085701
vn 0.338750 0.843634 0.416569
vn 0.000000 0.850475 0.526016
vn 0.338750 0.843634 0.416569
vn 0.568989 0.817868 0.085701
vn 0.000000 0.853062 0.521809
vn 0.000000 0.832734 0.553673
vn 0.000000 0.827733 0.561122
vn 0.000000 0.871099 0.491107
vn 0.000000 0.866974 0.498354
vn 0.000000 0.871099 0.491107
vn 0.000000 0.866974 0.498354
vn 0.000000 0.832734 0.553673
vn 0.000000 0.827733 0.561122
vn 0.000000 0.866974 0.498354
vn 0.000000 0.866974 0.498354
vn 0.000000 0.832734 0.553673
vn 0.000000 0.832734 0.553673
vn 0.000000 0.832734 0.553673
vn 0.000000 0.832734 0.553673
vn 0.000000 0.866974 0.498354
vn 0.000000 0.866974 0.498354
vn 0.000000 0.832735 0.553672
vn 0.000000 0.832734 0.553673
vn 0.000000 0.866974 0.498354
vn 0.000000 0.866974 0.498353
vn 0.000000 0.866974 0.498353
vn 0.000000 0.866974 0.498354
vn 0.000000 0.832734 0.553673
vn 0.000000 0.832734 0.553673
vn 0.000000 0.866974 0.498354
vn 0.000000 0.853062 0.521809
vn 0.000000 0.850475 0.526016
vn 0.000000 0.832734 0.553673
vn 0.000000 0.866974 0.498354
vn 0.000000 0.871099 0.491107
vn 0.000000 0.827733 0.561122
vn 0.000000 0.832734 0.553673
vn 0.000000 0.832734 0.553673
vn 0.000000 0.832734 0.553673
vn 0.000000 0.866974 0.498354
vn 0.000000 0.866974 0.498354
vn 0.000000 0.827733 0.561122
vn 0.000000 0.832734 0.553673
vn 0.000000 0.866974 0.498354
vn 0.000000 0.871099 0.491107
vn 0.568989 0.817868 -0.085701
vn 0.568989 0.817868 0.085701
vn 0.557855 0.826734 0.072865
vn 0.557855 0.826734 -0.072865
vn 0.000000 0.853062 -0.521809
vn 0.000000 0.853062 0.521809
vn 0.568989 0.817868 0.085701
vn 0.568989 0.817868 -0.085701
vn 0.000000 0.866974 0.498354
vn 0.000000 0.853062 0.521809
vn 0.000000 0.853062 -0.521809
vn 0.000000 0.866974 -0.498354
vn 0.000000 0.871099 0.491107
vn 0.000000 0.866974 0.498354
vn 0.000000 0.866974 -0.498354
vn 0.000000 0.871099 -0.491107
vn 0.000000 0.866974 0.498354
vn 0.000000 0.871099 0.491107
vn 0.000000 0.871099 -0.491107
vn 0.000000 0.866974 -0.498353
vn 0.000000 0.866974 0.498354
vn 0.000000 0.866974 0.498354
vn 0.000000 0.866974 -0.498353
vn 0.000000 0.866974 -0.498353
vn 0.000000 0.866974 0.498354
vn 0.000000 0.866974 0.498354
vn 0.000000 0.866974 -0.498353
vn 0.000000 0.866974 -0.498354
vn 0.000000 0.866974 -0.498353
vn 0.000000 0.866974 0.498353
vn 0.000000 0.866974 0.498354
vn 0.000000 0.866974 -0.498354
vn 0.000000 0.866974 0.498353
vn 0.000000 0.866974 0.498353
vn 0.000000 0.866974 -0.498354
vn 0.000000 0.866974 -0.498354
vn 0.000000 0.866974 0.498354
vn 0.000000 0.866974 0.498353
vn 0.000000 0.866974 -0.498354
vn 0.000000 0.866974 -0.498354
vn 0.000000 0.866974 0.498354
vn 0.000000 0.866974 0.498354
vn 0.000000 0.866974 -0.498354
vn 0.000000 0.866974 -0.498353
vn 0.000000 0.871099 0.491107
vn 0.000000 0.866974 0.498354
vn 0.000000 0.866974 -0.498353
vn 0.000000 0.871099 -0.491107
vn 0.000000 0.866974 0.498354
vn 0.000000 0.871099 0.491107
vn 0.000000 0.871099 -0.491107
vn 0.000000 0.866974 -0.498354
vn 0.000000 0.853062 0.521809
vn 0.000000 0.866974 0.498354
vn 0.000000 0.866974 -0.498354
vn 0.000000 0.853062 -0.521809
vn -0.568988 0.817868 0.085701
vn 0.000000 0.853062 0.521809
vn 0.000000 0.853062 -0.521809
vn -0.568988 0.817868 -0.085701
vn -0.557855 0.826734 -0.072865
vn -0.557855 0.826734 0.072865
vn -0.568988 0.817868 0.085701
vn -0.568988 0.817868 -0.085701
vn 0.557855 0.826734 -0.072865
vn 0.338750 0.843634 -0.416569
vn 0.568989 0.817868 -0.085701
vn 0.000000 0.850475 -0.526016
vn 0.338750 0.843634 -0.416569
vn 0.202634 0.966292 -0.158804
vn 0.000000 0.922307 -0.386459
vn 0.000000 0.832734 -0.553673
vn 0.000000 0.850475 -0.526016
vn 0.000000 0.922307 -0.386459
vn 0.000000 0.922307 -0.386459
vn 0.000000 0.827733 -0.561122
vn 0.000000 0.832734 -0.553673
vn 0.000000 0.922307 -0.386459
vn 0.000000 0.922307 -0.386459
vn 0.000000 0.832734 -0.553673
vn 0.000000 0.827733 -0.561122
vn 0.000000 0.922307 -0.386459
vn 0.000000 0.922307 -0.386459
vn 0.000000 0.832734 -0.553673
vn 0.000000 0.832734 -0.553673
vn 0.000000 0.922307 -0.386459
vn 0.000000 0.922307 -0.386459
vn 0.000000 0.832734 -0.553673
vn 0.000000 0.832734 -0.553673
vn 0.000000 0.922307 -0.386459
vn 0.000000 0.922307 -0.386459
vn 0.000000 0.832735 -0.553672
vn 0.000000 0.832734 -0.553673
vn 0.000000 0.922307 -0.386459
vn 0.000000 0.922307 -0.386459
vn 0.000000 0.922307 -0.386459
vn 0.000000 0.832734 -0.553673
vn 0.000000 0.832734 -0.553673
vn 0.000000 0.922307 -0.386459
vn 0.000000 0.922307 -0.386459
vn 0.000000 0.832734 -0.553673
vn 0.000000 0.832734 -0.553673
vn 0.000000 0.922307 -0.386459
vn 0.000000 0.922307 -0.386459
vn 0.000000 0.832734 -0.553673
vn 0.000000 0.832734 -0.553673
vn 0.000000 0.922307 -0.386459
vn 0.000000 0.922307 -0.386459
vn 0.000000 0.827733 -0.561122
vn 0.000000 0.832734 -0.553673
vn 0.000000 0.922307 -0.386459
vn 0.000000 0.922307 -0.386459
vn 0.000000 0.832734 -0.553673
vn 0.000000 0.827733 -0.561122
vn 0.000000 0.922307 -0.386459
vn 0.000000 0.922307 -0.386459
vn 0.000000 0.850475 -0.526016
vn 0.000000 0.832734 -0.553673
vn 0.000000 0.922307 -0.386459
vn -0.202634 0.966292 -0.158804
vn -0.338750 0.843634 -0.416569
vn 0.000000 0.850475 -0.526016
vn 0.000000 0.922307 -0.386459
vn -0.557855 0.826734 -0.072865
vn -0.568988 0.817868 -0.085701
vn -0.338750 0.843634 -0.416569
vn 0.557855 0.826734 0.072865
vn 0.202634 0.966292 0.158804
vn 0.000000 1.000000 0.000000
vn -0.557855 0.826734 -0.072865
vn -0.202634 0.966292 -0.158804
vn 0.000000 1.000000 0.000000
vn 0.000000 1.000000 0.000000
vn -0.202634 0.966292 0.158804
vn -0.557855 0.826734 0.072865
vn 0.000000 1.000000 0.000000
vn 0.202634 0.966292 -0.158804
vn 0.557855 0.826734 -0.072865
vn 0.000000 0.850475 -0.526016
vn -0.338750 0.843634 -0.416569
vn -0.568988 0.817868 -0.085701
vn 0.000000 0.853062 -0.521809
vn 0.000000 0.832734 -0.553673
vn 0.000000 0.850475 -0.526016
vn 0.000000 0.853062 -0.521809
vn 0.000000 0.866974 -0.498354
vn 0.000000 0.827733 -0.561122
vn 0.000000 0.832734 -0.553673
vn 0.000000 0.866974 -0.498354
vn 0.000000 0.871099 -0.491107
vn 0.000000 0.832734 -0.553673
vn 0.000000 0.827733 -0.561122
vn 0.000000 0.871099 -0.491107
vn 0.000000 0.866974 -0.498353
vn 0.000000 0.832734 -0.553673
vn 0.000000 0.832734 -0.553673
vn 0.000000 0.866974 -0.498353
vn 0.000000 0.866974 -0.498354
vn 0.000000 0.832734 -0.553673
vn 0.000000 0.832734 -0.553673
vn 0.000000 0.866974 -0.498354
vn 0.000000 0.866974 -0.498354
vn 0.000000 0.832734 -0.553673
vn 0.000000 0.832734 -0.553673
vn 0.000000 0.866974 -0.498354
vn 0.000000 0.866974 -0.498354
vn 0.000000 0.866974 -0.498353
vn 0.000000 0.866974 -0.498354
vn 0.000000 0.832734 -0.553673
vn 0.000000 0.832735 -0.553672
vn 0.000000 0.866974 -0.498354
vn 0.000000 0.866974 -0.498353
vn 0.000000 0.832734 -0.553673
vn 0.000000 0.832734 -0.553673
vn 0.000000 0.866974 -0.498353
vn 0.000000 0.866974 -0.498353
vn 0.000000 0.832734 -0.553673
vn 0.000000 0.832734 -0.553673
vn 0.000000 0.866974 -0.498353
vn 0.000000 0.871099 -0.491107
vn 0.000000 0.827733 -0.561122
vn 0.000000 0.832734 -0.553673
vn 0.000000 0.871099 -0.491107
vn 0.000000 0.866974 -0.498354
vn 0.000000 0.832734 -0.553673
vn 0.000000 0.827733 -0.561122
vn 0.000000 0.866974 -0.498354
vn 0.000000 0.853062 -0.521809
vn 0.000000 0.850475 -0.526016
vn 0.000000 0.832734 -0.553673
vn 0.000000 0.853062 -0.521809
vn 0.568989 0.817868 -0.085701
vn 0.338750 0.843634 -0.416569
vn 0.000000 0.850475 -0.526016
vn 0.000000 0.850475 0.526016
vn -0.338750 0.843634 0.416569
vn -0.202634 0.966292 0.158804
vn 0.000000 0.922307 0.386459
vn 0.000000 0.832734 0.553673
vn 0.000000 0.850475 0.526016
vn 0.000000 0.922307 0.386459
vn 0.000000 0.922307 0.386459
vn 0.000000 0.827733 0.561122
vn 0.000000 0.832734 0.553673
vn 0.000000 0.922307 0.386459
vn 0.000000 0.922307 0.386459
vn 0.000000 0.832734 0.553673
vn 0.000000 0.827733 0.561122
vn 0.000000 0.922307 0.386459
vn 0.000000 0.922307 0.386459
vn 0.000000 0.832734 0.553673
vn 0.000000 0.832734 0.553673
vn 0.000000 0.922307 0.386459
vn 0.000000 0.922307 0.386459
vn 0.000000 0.832734 0.553673
vn 0.000000 0.832734 0.553673
vn 0.000000 0.922307 0.386459
vn 0.000000 0.922307 0.386459
vn 0.000000 0.832734 0.553673
vn 0.000000 0.832734 0.553673
vn 0.000000 0.922307 0.386459
vn 0.000000 0.922307 0.386459
vn 0.000000 0.922307 0.386459
vn 0.000000 0.832734 0.553673
vn 0.000000 0.832735 0.553672
vn 0.000000 0.922307 0.386459
vn 0.000000 0.922307 0.386459
vn 0.000000 0.832734 0.553673
vn 0.000000 0.832734 0.553673
vn 0.000000 0.922307 0.386459
vn 0.000000 0.922307 0.386459
vn 0.000000 0.832734 0.553673
vn 0.000000 0.832734 0.553673
vn 0.000000 0.922307 0.386459
vn 0.000000 0.922307 0.386459
vn 0.000000 0.827733 0.561122
vn 0.000000 0.832734 0.553673
vn 0.000000 0.922307 0.386459
vn 0.000000 0.922307 0.386459
vn 0.000000 0.832734 0.553673
vn 0.000000 0.827733 0.561122
vn 0.000000 0.922307 0.386459
vn 0.000000 0.922307 0.386459
vn 0.000000 0.850475 0.526016
vn 0.000000 0.832734 0.553673
vn 0.000000 0.922307 0.386459
vn 0.202634 0.966292 0.158804
vn 0.338750 0.843634 0.416569
vn 0.000000 0.850475 0.526016
vn 0.000000 0.922307 0.386459
vn -0.557855 0.826734 -0.072865
vn -0.338750 0.843634 -0.416569
vn -0.202634 0.966292 -0.158804
vn -0.557855 0.826734 0.072865
vn -0.202634 0.966292 0.158804
vn -0.338750 0.843634 0.416569
vn 0.557855 0.826734 0.072865
vn 0.338750 0.843634 0.416569
vn 0.202634 0.966292 0.158804
vn 0.557855 0.826734 -0.072865
vn 0.202634 0.966292 -0.158804
vn 0.338750 0.843634 -0.416569
s off
f 43/186/1 44/183/2 90/243/3 91/245/4
f 51/132/5 84/232/6 50/95/7
f 49/93/8 50/171/9 84/231/10 85/234/11
f 96/255/12 97/257/13 37/198/14 38/195/15
f 35/139/16 36/199/17 98/260/18
f 97/258/19 98/259/20 36/200/21 37/197/22
f 94/251/23 95/254/24 39/73/25 40/191/26
f 47/89/27 48/175/28 86/235/29 87/238/30
f 45/85/31 46/179/32 88/239/33 89/242/34
f 92/247/35 93/250/36 41/77/37 42/187/38
f 91/246/39 92/248/40 42/79/41 43/185/42
f 44/83/43 45/181/44 89/241/45 90/244/46
f 48/91/47 49/173/48 85/233/49 86/236/50
f 46/87/51 47/177/52 87/237/53 88/240/54
f 93/249/55 94/252/56 40/75/57 41/189/58
f 95/253/59 96/256/60 38/71/61 39/193/62
f 53/169/63 36/67/64 35/140/65 52/97/66
f 54/167/67 37/69/68 36/66/69 53/170/70
f 38/70/71 37/68/72 54/168/73 55/165/74
f 39/72/75 38/196/76 55/166/77 56/163/78
f 40/74/79 39/194/80 56/164/81 57/161/82
f 41/76/83 40/192/84 57/162/85 58/159/86
f 42/78/87 41/190/88 58/160/89 59/157/90
f 60/155/91 43/81/92 42/188/93 59/158/94
f 44/82/95 43/80/96 60/156/97 61/153/98
f 45/84/99 44/184/100 61/154/101 62/151/102
f 46/86/103 45/182/104 62/152/105 63/149/106
f 47/88/107 46/180/108 63/150/109 64/147/110
f 48/90/111 47/178/112 64/148/113 65/145/114
f 49/92/115 48/176/116 65/146/117 66/143/118
f 50/94/119 49/174/120 66/144/121 67/141/122
f 68/137/123 51/96/124 50/172/125 67/142/126
f 52/129/127 83/230/128 53/99/129
f 82/228/130 83/229/131 12/22/132 14/23/133
f 81/225/134 82/227/135 14/14/136 33/43/137
f 80/223/138 81/226/139 33/45/140 15/25/141
f 79/221/142 80/224/143 15/48/144 31/41/145
f 78/219/146 79/222/147 31/49/148 21/31/149
f 77/217/150 78/220/151 21/52/152 23/33/153
f 76/216/154 77/218/155 23/63/156 4/15/157
f 25/35/158 75/213/159 76/215/160 4/2/161
f 19/29/162 74/211/163 75/214/164 25/61/165
f 29/39/166 73/209/167 74/212/168 19/56/169
f 17/27/170 72/207/171 73/210/172 29/53/173
f 27/37/174 71/205/175 72/208/176 17/60/177
f 7/7/178 70/203/179 71/206/180 27/57/181
f 5/9/182 69/201/183 70/204/184 7/12/185
f 68/136/186 67/127/187 69/202/188
f 35/65/189 11/138/190 10/20/191
f 68/128/192 5/135/193 3/4/194
f 1/1/195 6/6/196 51/133/197
f 9/17/198 12/18/199 52/130/200
f 70/204/201 69/201/202 67/126/203 66/125/204
f 71/206/205 70/203/206 66/124/207 65/123/208
f 72/208/209 71/205/210 65/122/211 64/121/212
f 73/210/213 72/207/214 64/120/215 63/119/216
f 74/212/217 73/209/218 63/118/219 62/117/220
f 75/214/221 74/211/222 62/116/223 61/115/224
f 76/215/225 75/213/226 61/114/227 60/112/228
f 60/113/229 59/111/230 77/218/231 76/216/232
f 59/110/233 58/109/234 78/220/235 77/217/236
f 58/108/237 57/107/238 79/222/239 78/219/240
f 57/106/241 56/105/242 80/224/243 79/221/244
f 56/104/245 55/103/246 81/226/247 80/223/248
f 55/102/249 54/100/250 82/227/251 81/225/252
f 54/101/253 53/98/254 83/229/255 82/228/256
f 85/234/257 84/231/258 6/10/259 8/11/260
f 86/236/261 85/233/262 8/8/263 28/38/264
f 87/238/265 86/235/266 28/58/267 18/28/268
f 88/240/269 87/237/270 18/59/271 30/40/272
f 89/242/273 88/239/274 30/54/275 20/30/276
f 90/244/277 89/241/278 20/55/279 26/36/280
f 91/245/281 90/243/282 26/62/283 2/3/284
f 24/34/285 92/248/286 91/246/287 2/16/288
f 22/32/289 93/250/290 92/247/291 24/64/292
f 32/42/293 94/252/294 93/249/295 22/51/296
f 16/26/297 95/254/298 94/251/299 32/50/300
f 34/44/301 96/256/302 95/253/303 16/47/304
f 13/13/305 97/257/306 96/255/307 34/46/308
f 11/21/309 98/259/310 97/258/311 13/24/312
f 68/136/313 69/202/314 5/5/315
f 51/132/316 6/134/317 84/232/318
f 35/139/319 98/260/320 11/19/321
f 52/129/322 12/131/323 83/230/324
