# This file uses meters as units for non-parametric coordinates.

v 0.000000 0.000000 -9.999977
v -0.000001 0.000000 -0.000004
v 10.000001 0.000000 -0.000004
v 10.000001 0.000000 -9.999977
v 8.641602 0.000000 -9.999977
v 8.641602 0.000000 -0.000004
v 8.201538 0.000000 -9.999977
v 8.201538 0.000000 -0.000004
v 6.425361 0.000000 -4.110992
v 6.425361 0.000000 -1.682850
v 1.455524 0.000000 -1.682850
v 1.455524 0.000000 -4.110992
v 5.911129 0.000000 -4.110992
v 5.911129 0.000000 -2.180885
v 1.986122 0.000000 -2.180885
v 1.986122 0.000000 -4.110992
vt 0.169016 0.064148
vt 0.169016 0.064148
vt 0.169016 0.064148
vt 0.169016 0.064148
vt 0.169016 0.064148
vt 0.169016 0.064148
vt 0.169016 0.064148
vt 0.169016 0.064148
vt 0.389062 0.063031
vt 0.389062 0.063031
vt 0.389062 0.063031
vt 0.389062 0.063031
vt 0.391225 0.062182
vt 0.391225 0.062182
vt 0.391225 0.062182
vt 0.169016 0.064148
vt 0.169016 0.064148
vt 0.391225 0.062182
vt 0.391225 0.062182
vt 0.169016 0.064148
vt 0.391225 0.062182
vt 0.169016 0.064148
vt 0.391225 0.062182
vt 0.391225 0.062182
vt 0.391225 0.062182
vt 0.169016 0.064148
vt 0.169016 0.064148
vt 0.391225 0.062182
vt 0.391225 0.062182
vt 0.169016 0.064148
vt 0.391225 0.062182
vt 0.169016 0.064148
vn 0.000000 1.000000 0.000000
vn 0.000000 1.000000 0.000000
vn 0.000000 1.000000 0.000000
vn 0.000000 1.000000 0.000000
vn 0.000000 1.000000 0.000000
vn 0.000000 1.000000 0.000000
vn 0.000000 1.000000 0.000000
vn 0.000000 1.000000 0.000000
vn 0.000000 1.000000 0.000000
vn 0.000000 1.000000 0.000000
vn 0.000000 1.000000 0.000000
vn 0.000000 1.000000 0.000000
vn 0.000000 1.000000 0.000000
vn 0.000000 1.000000 0.000000
vn 0.000000 1.000000 0.000000
vn 0.000000 1.000000 0.000000
vn 0.000000 1.000000 0.000000
vn 0.000000 1.000000 0.000000
vn 0.000000 1.000000 0.000000
vn 0.000000 1.000000 0.000000
vn 0.000000 1.000000 0.000000
vn 0.000000 1.000000 0.000000
vn 0.000000 1.000000 0.000000
vn 0.000000 1.000000 0.000000
vn 0.000000 1.000000 0.000000
vn 0.000000 1.000000 0.000000
vn 0.000000 1.000000 0.000000
vn 0.000000 1.000000 0.000000
vn 0.000000 1.000000 0.000000
vn 0.000000 1.000000 0.000000
vn 0.000000 1.000000 0.000000
vn 0.000000 1.000000 0.000000
vn 0.000000 1.000000 0.000000
vn 0.000000 1.000000 0.000000
vn 0.000000 1.000000 0.000000
vn 0.000000 1.000000 0.000000
vn 0.000000 1.000000 0.000000
vn 0.000000 1.000000 0.000000
vn 0.000000 1.000000 0.000000
vn 0.000000 1.000000 0.000000
vn 0.000000 1.000000 0.000000
vn 0.000000 1.000000 0.000000
s off
f 13/17/1 16/20/2 15/22/3 14/26/4
f 3/5/5 4/8/6 5/7/7 6/6/8
f 5/9/9 7/12/10 8/11/11 6/10/12
f 7/1/13 9/32/14 10/30/15 8/2/16
f 8/2/17 10/30/18 11/27/19 2/3/20
f 12/16/21 16/20/22 13/17/23 9/32/24 7/1/25 1/4/26
f 12/16/27 1/4/28 2/3/29 11/27/30
f 9/13/31 13/29/32 14/25/33 10/31/34
f 10/14/35 14/18/36 15/21/37 11/28/38
f 11/15/39 15/19/40 16/23/41 12/24/42
