# This file uses meters as units for non-parametric coordinates.

v -29.999958 -0.000001 19.999954
v -29.999969 0.000000 0.000000
v -10.000000 0.000000 -0.000168
v -10.000000 0.000000 13.845398
v -16.154556 0.000000 19.999954
v -20.000000 0.000000 39.999954
v 20.000000 0.000000 39.999985
v 20.000000 0.000000 0.000000
v 10.000000 0.000000 0.000000
v 10.000000 0.000000 9.999969
v 4.142136 0.000000 24.142136
v -5.857849 0.000000 34.142105
v -8.421570 -0.000003 3.279495
v -8.421570 0.385017 3.279495
v -10.000000 0.385017 3.279495
v -10.000000 -0.000003 3.279495
v -10.000000 -0.000003 13.074112
v -10.000000 0.385017 13.074112
v -8.421570 0.385017 13.074112
v -8.421570 -0.000003 13.074112
v -8.883877 -0.000003 14.190231
v -8.883877 0.385017 14.190231
v -16.925835 -0.000003 19.999985
v -16.925835 0.385017 19.999985
v -15.809715 0.385017 21.116074
v -15.809715 -0.000003 21.116074
v -26.720448 -0.000003 19.999954
v -26.720448 0.385017 19.999954
v -26.720448 0.385017 21.578384
v -26.720448 -0.000003 21.578384
v -16.925835 -0.000003 21.578384
v -16.925835 0.385017 21.578384
v -8.421570 -0.000003 0.000015
v -8.421570 0.385017 0.000015
v -10.000000 0.385017 0.000015
v -10.000000 0.000000 0.000015
v -29.999958 -0.000001 19.999954
v -29.999943 0.385017 19.999954
v -29.999943 0.385017 21.578384
v -29.999943 -0.000003 21.578384
v -20.000000 0.000000 39.999954
v -20.000000 0.000000 29.999954
v -29.999973 0.000000 39.999954
v -29.999973 0.000000 29.999954
v -29.999962 -0.000001 38.421524
v -20.000000 0.000000 38.641556
v -29.999973 0.000000 38.201492
v -20.000000 0.000000 38.201492
v -19.999996 0.000000 19.999954
v -20.000000 0.000000 21.358353
v -29.999973 0.000000 21.358353
v -19.999996 0.000000 21.798416
v -29.999973 0.000000 21.798416
v -10.000000 0.000000 9.999985
v 0.000000 0.000000 9.999985
v -8.641602 0.000000 9.999985
v -8.201538 0.000000 9.999985
v 10.000000 0.000000 9.999985
v 8.641602 0.000000 9.999985
v 8.201538 0.000000 9.999985
v -10.000000 0.000000 13.845413
v -9.533768 0.000000 14.156601
v -5.000000 0.000000 14.999985
v 2.870434 0.000000 22.870438
v 3.181606 0.000000 23.181595
v 4.142136 0.000000 24.142136
v -16.154556 0.000000 19.999954
v -15.843384 0.000000 20.466202
v -14.999992 0.000000 24.999954
v -7.129555 0.000000 32.870377
v -6.818382 0.000000 33.181595
v -5.857849 0.000000 34.142105
v 0.000000 0.000000 0.000015
v -8.641602 0.000000 0.000015
v -8.201538 0.000000 0.000015
v 10.000000 0.000000 0.000015
v 8.641602 0.000000 0.000015
v 8.201538 0.000000 0.000015
v 8.421570 -0.000003 9.681412
v 8.421570 0.385017 9.681412
v 10.000000 0.385017 9.681412
v 10.000000 -0.000003 9.681412
v 10.000000 -0.000003 0.000015
v 10.000000 0.385017 0.000015
v 8.421570 0.385017 0.000015
v 8.421570 -0.000003 0.000015
v 10.000000 0.385017 10.277847
v 10.000000 -0.000003 10.277847
v 3.185394 -0.000003 22.968735
v 3.185394 0.385017 22.968735
v 4.646812 0.385017 23.565170
v 4.646812 -0.000003 23.565170
v 4.301514 0.385017 24.084854
v 4.301514 -0.000003 24.084854
v -6.962502 -0.000003 33.116653
v -6.962502 0.385017 33.116653
v -5.846382 0.385017 34.232742
v -5.846382 -0.000003 34.232742
v -6.355667 0.385017 34.573746
v -6.355667 -0.000003 34.573746
v -20.210819 -0.000003 38.421524
v -20.210819 0.385017 38.421524
v -19.603989 0.385017 39.999954
v -19.603989 -0.000003 39.999954
v -20.210819 0.385017 39.999954
v -20.210819 -0.000003 39.999954
v -29.999973 -0.000003 39.999954
v -29.999973 0.385017 39.999954
v -29.999973 0.385017 38.421524
vt 0.174661 0.060984
vt 0.174661 0.060984
vt 0.174661 0.060984
vt 0.174661 0.060984
vt 0.174661 0.060984
vt 0.174661 0.060984
vt 0.174661 0.060984
vt 0.174661 0.060984
vt 0.174661 0.060984
vt 0.174661 0.060984
vt 0.174661 0.060984
vt 0.174661 0.060984
vt 0.297229 0.990065
vt 0.297229 0.990599
vt 0.424637 0.990599
vt 0.424637 0.990065
vt 0.297229 0.997090
vt 0.297229 0.996556
vt 0.424637 0.996556
vt 0.424637 0.997090
vt 0.297229 0.990599
vt 0.297229 0.990065
vt 0.424637 0.990065
vt 0.424637 0.990599
vt 0.297229 0.990065
vt 0.297229 0.990599
vt 0.424637 0.990599
vt 0.424637 0.990065
vt 0.297229 0.997090
vt 0.297229 0.996556
vt 0.424637 0.996556
vt 0.424637 0.997090
vt 0.297229 0.990599
vt 0.297229 0.990065
vt 0.424637 0.990065
vt 0.424637 0.990599
vt 0.297229 0.990065
vt 0.297229 0.990599
vt 0.424637 0.990599
vt 0.424637 0.990065
vt 0.297229 0.997090
vt 0.297229 0.996556
vt 0.424637 0.996556
vt 0.424637 0.997090
vt 0.297229 0.990599
vt 0.297229 0.990065
vt 0.424637 0.990065
vt 0.424637 0.990599
vt 0.266510 0.170057
vt 0.266510 0.170057
vt 0.266510 0.170057
vt 0.203781 0.169359
vt 0.203781 0.169359
vt 0.203781 0.169359
vt 0.203781 0.169359
vt 0.266509 0.170057
vt 0.266509 0.170057
vt 0.266509 0.170057
vt 0.203780 0.169359
vt 0.203780 0.169359
vt 0.203780 0.169359
vt 0.203780 0.169359
vt 0.277953 0.990599
vt 0.277953 0.990065
vt 0.320979 0.990065
vt 0.320979 0.990599
vt 0.277953 0.997090
vt 0.277953 0.996556
vt 0.320979 0.996556
vt 0.320979 0.997090
vt 0.277953 0.990065
vt 0.277953 0.990599
vt 0.320979 0.990599
vt 0.320979 0.990065
vt 0.326187 0.474222
vt 0.326187 0.474222
vt 0.326187 0.474222
vt 0.326187 0.474222
vt 0.277953 0.990599
vt 0.277953 0.990065
vt 0.320979 0.990065
vt 0.320979 0.990599
vt 0.277953 0.997090
vt 0.277953 0.996556
vt 0.320979 0.996556
vt 0.320979 0.997090
vt 0.277953 0.990065
vt 0.277953 0.990599
vt 0.320979 0.990599
vt 0.320979 0.990065
vt 0.326187 0.474222
vt 0.326187 0.474222
vt 0.326187 0.474222
vt 0.326187 0.474222
vt 0.169016 0.064148
vt 0.169016 0.064148
vt 0.169016 0.064148
vt 0.169016 0.064148
vt 0.169016 0.064148
vt 0.169016 0.064148
vt 0.169016 0.064148
vt 0.169016 0.064148
vt 0.389062 0.063031
vt 0.389062 0.063031
vt 0.389062 0.063031
vt 0.389062 0.063031
vt 0.169016 0.064148
vt 0.169016 0.064148
vt 0.169016 0.064148
vt 0.169016 0.064148
vt 0.169016 0.064148
vt 0.169016 0.064148
vt 0.169016 0.064148
vt 0.169016 0.064148
vt 0.389062 0.063031
vt 0.389062 0.063031
vt 0.389062 0.063031
vt 0.389062 0.063031
vt 0.169016 0.064148
vt 0.169016 0.064148
vt 0.169016 0.064148
vt 0.169016 0.064148
vt 0.169016 0.064148
vt 0.169016 0.064148
vt 0.169016 0.064148
vt 0.389062 0.063031
vt 0.389062 0.063031
vt 0.389062 0.063031
vt 0.389062 0.063031
vt 0.169016 0.064148
vt 0.169016 0.064148
vt 0.169016 0.064148
vt 0.169016 0.064148
vt 0.169016 0.064148
vt 0.169016 0.064148
vt 0.169016 0.064148
vt 0.169016 0.064148
vt 0.389062 0.063031
vt 0.389062 0.063031
vt 0.389062 0.063031
vt 0.389062 0.063031
vt 0.389062 0.063031
vt 0.389062 0.063031
vt 0.169016 0.064148
vt 0.169016 0.064148
vt 0.169016 0.064148
vt 0.169016 0.064148
vt 0.389062 0.063031
vt 0.389062 0.063031
vt 0.169016 0.064148
vt 0.169016 0.064148
vt 0.169016 0.064148
vt 0.169016 0.064148
vt 0.169016 0.064148
vt 0.389062 0.063031
vt 0.389062 0.063031
vt 0.169016 0.064148
vt 0.169016 0.064148
vt 0.169016 0.064148
vt 0.169016 0.064148
vt 0.389062 0.063031
vt 0.389062 0.063031
vt 0.169016 0.064148
vt 0.169016 0.064148
vt 0.169016 0.064148
vt 0.169016 0.064148
vt 0.169016 0.064148
vt 0.169016 0.064148
vt 0.169016 0.064148
vt 0.169016 0.064148
vt 0.169016 0.064148
vt 0.169016 0.064148
vt 0.389062 0.063031
vt 0.389062 0.063031
vt 0.389062 0.063031
vt 0.389062 0.063031
vt 0.169016 0.064148
vt 0.169016 0.064148
vt 0.169016 0.064148
vt 0.169016 0.064148
vt 0.169016 0.064148
vt 0.169016 0.064148
vt 0.169016 0.064148
vt 0.169016 0.064148
vt 0.389062 0.063031
vt 0.389062 0.063031
vt 0.389062 0.063031
vt 0.389062 0.063031
vt 0.259365 0.990065
vt 0.259365 0.990599
vt 0.395985 0.990599
vt 0.395985 0.990065
vt 0.259365 0.997090
vt 0.259365 0.996556
vt 0.395985 0.996556
vt 0.395985 0.997090
vt 0.259365 0.990599
vt 0.259365 0.990065
vt 0.395985 0.990065
vt 0.395985 0.990599
vt 0.326514 0.475751
vt 0.326514 0.475751
vt 0.326514 0.475751
vt 0.326514 0.475751
vt 0.259365 0.990065
vt 0.259365 0.990599
vt 0.462464 0.990599
vt 0.462464 0.990065
vt 0.259365 0.997090
vt 0.259365 0.996556
vt 0.462464 0.996556
vt 0.462464 0.997090
vt 0.259365 0.990599
vt 0.259365 0.990065
vt 0.462464 0.990065
vt 0.462464 0.990599
vt 0.259365 0.990065
vt 0.259365 0.990599
vt 0.462464 0.990599
vt 0.462464 0.990065
vt 0.259365 0.997090
vt 0.259365 0.996556
vt 0.462464 0.996556
vt 0.462464 0.997090
vt 0.259365 0.990599
vt 0.259365 0.990065
vt 0.462464 0.990065
vt 0.462464 0.990599
vt 0.259365 0.990065
vt 0.259365 0.990599
vt 0.462464 0.990599
vt 0.462464 0.990065
vt 0.259365 0.997090
vt 0.259365 0.996556
vt 0.462464 0.996556
vt 0.462464 0.997090
vt 0.259365 0.990599
vt 0.259365 0.990065
vt 0.462464 0.990065
vt 0.462464 0.990599
vt 0.324511 0.990599
vt 0.324511 0.990065
vt 0.462464 0.990065
vt 0.462464 0.990599
vt 0.324511 0.997090
vt 0.324511 0.996556
vt 0.462464 0.996556
vt 0.462464 0.997090
vt 0.324511 0.990065
vt 0.324511 0.990599
vt 0.462464 0.990599
vt 0.462464 0.990065
vt 0.328154 0.474112
vt 0.328154 0.474112
vt 0.328154 0.474112
vt 0.328154 0.474112
vt 0.265071 0.168536
vt 0.265071 0.168536
vt 0.265071 0.168536
vt 0.265071 0.168536
vt 0.265071 0.168536
vt 0.265071 0.168536
vt 0.265071 0.168536
vt 0.265071 0.168536
vt 0.265071 0.168536
vt 0.265072 0.168536
vt 0.265072 0.168536
vt 0.265072 0.168536
vt 0.198713 0.170174
vt 0.198713 0.170174
vt 0.198713 0.170174
vt 0.198713 0.170174
vt 0.198713 0.170174
vt 0.198713 0.170174
vt 0.198713 0.170174
vt 0.198713 0.170174
vt 0.198713 0.170174
vt 0.198713 0.170174
vt 0.198713 0.170174
vt 0.198713 0.170174
vt 0.198713 0.170174
vt 0.198713 0.170174
vt 0.198713 0.170174
vt 0.198713 0.170174
vn -0.000000 1.000000 0.000000
vn -0.000000 1.000000 0.000000
vn -0.000000 1.000000 0.000000
vn -0.000000 1.000000 0.000000
vn -0.000000 1.000000 0.000000
vn 0.000000 1.000000 0.000000
vn 0.000000 1.000000 0.000000
vn 0.000000 1.000000 0.000000
vn 0.000000 1.000000 0.000000
vn 0.000000 1.000000 0.000000
vn 0.000000 1.000000 0.000000
vn 0.000000 1.000000 0.000000
vn 0.000000 1.000000 0.000000
vn 0.000000 1.000000 0.000000
vn -1.000000 0.000000 0.000000
vn -1.000000 0.000000 0.000000
vn -1.000000 0.000000 0.000000
vn -1.000000 0.000000 0.000000
vn 0.000000 1.000000 0.000000
vn 0.000000 1.000000 0.000000
vn 0.000000 1.000000 0.000000
vn 0.000000 1.000000 0.000000
vn 1.000000 0.000000 0.000000
vn 1.000000 0.000000 0.000000
vn 1.000000 0.000000 0.000000
vn 1.000000 0.000000 0.000000
vn -0.707109 0.000000 -0.707105
vn -0.707109 0.000000 -0.707105
vn -0.707109 0.000000 -0.707105
vn -0.707109 0.000000 -0.707105
vn 0.000000 1.000000 0.000000
vn 0.000000 1.000000 0.000000
vn 0.000000 1.000000 0.000000
vn 0.000000 1.000000 0.000000
vn 0.707107 0.000000 0.707107
vn 0.707107 0.000000 0.707107
vn 0.707107 0.000000 0.707107
vn 0.707107 0.000000 0.707107
vn 0.000000 0.000000 1.000000
vn 0.000000 0.000000 1.000000
vn 0.000000 0.000000 1.000000
vn 0.000000 0.000000 1.000000
vn 0.000000 1.000000 0.000000
vn 0.000000 1.000000 0.000000
vn 0.000000 1.000000 0.000000
vn 0.000000 1.000000 0.000000
vn 0.000003 0.000000 -1.000000
vn 0.000003 0.000000 -1.000000
vn 0.000003 0.000000 -1.000000
vn 0.000003 0.000000 -1.000000
vn 0.000000 1.000000 0.000000
vn 0.000000 1.000000 0.000000
vn 0.000000 1.000000 0.000000
vn 0.382682 0.000000 0.923880
vn 0.382682 0.000000 0.923880
vn 0.382682 0.000000 0.923880
vn 0.382682 0.000000 0.923880
vn 0.000000 1.000000 -0.000000
vn 0.000000 1.000000 -0.000000
vn 0.000000 1.000000 -0.000000
vn 0.923881 0.000000 0.382680
vn 0.923881 0.000000 0.382680
vn 0.923881 0.000000 0.382680
vn 0.923881 0.000000 0.382680
vn 1.000000 0.000000 0.000000
vn 1.000000 0.000000 0.000000
vn 0.901065 0.000000 -0.433685
vn 0.235451 0.965257 -0.113323
vn 0.000000 1.000000 0.000000
vn 0.000000 1.000000 0.000000
vn 0.235451 0.965257 -0.113323
vn -0.235450 0.965257 -0.113323
vn -1.000000 0.000000 0.000000
vn -1.000000 0.000000 0.000000
vn -0.235450 0.965257 -0.113323
vn -0.901064 0.000000 -0.433687
vn 0.235451 0.965257 -0.113323
vn 0.901065 0.000000 -0.433685
vn -0.901064 0.000000 -0.433687
vn -0.235450 0.965257 -0.113323
vn -0.000000 0.000000 -1.000000
vn -0.000000 0.000000 -1.000000
vn -0.433694 0.000008 -0.901060
vn -0.113323 0.965256 -0.235456
vn -0.000000 1.000000 0.000000
vn -0.000000 1.000000 0.000000
vn -0.113323 0.965256 -0.235456
vn -0.113323 0.965257 0.235451
vn 0.000001 0.000000 1.000000
vn 0.000001 0.000000 1.000000
vn -0.113323 0.965257 0.235451
vn -0.433683 0.000008 0.901066
vn -0.113323 0.965256 -0.235456
vn -0.433694 0.000008 -0.901060
vn -0.433683 0.000008 0.901066
vn -0.113323 0.965257 0.235451
vn -0.000000 1.000000 0.000000
vn -0.000000 1.000000 0.000000
vn 0.000000 1.000000 0.000000
vn 0.000000 1.000000 0.000000
vn -0.000000 1.000000 -0.000001
vn -0.000000 1.000000 -0.000000
vn -0.000000 1.000000 0.000000
vn -0.000000 1.000000 -0.000001
vn -0.000000 1.000000 0.000000
vn -0.000000 1.000000 -0.000000
vn -0.000000 1.000000 0.000000
vn -0.000000 1.000000 0.000000
vn 0.000000 1.000000 0.000000
vn 0.000000 1.000000 0.000000
vn 0.000000 1.000000 0.000000
vn 0.000000 1.000000 0.000000
vn -0.000000 1.000000 -0.000001
vn -0.000000 1.000000 -0.000000
vn -0.000000 1.000000 -0.000000
vn -0.000000 1.000000 -0.000001
vn -0.000000 1.000000 -0.000000
vn -0.000000 1.000000 -0.000000
vn 0.000000 1.000000 0.000000
vn 0.000000 1.000000 0.000000
vn 0.000000 1.000000 0.000000
vn 0.000000 1.000000 0.000000
vn 0.000000 1.000000 0.000000
vn 0.000000 1.000000 0.000000
vn 0.000000 1.000000 0.000000
vn 0.000000 1.000000 0.000000
vn 0.000000 1.000000 0.000000
vn 0.000000 1.000000 0.000000
vn 0.000000 1.000000 0.000000
vn 0.000000 1.000000 0.000000
vn 0.000000 1.000000 0.000000
vn 0.000000 1.000000 0.000000
vn 0.000000 1.000000 0.000000
vn 0.000000 1.000000 0.000000
vn 0.000000 1.000000 0.000000
vn 0.000000 1.000000 0.000000
vn 0.000000 1.000000 0.000000
vn 0.000000 1.000000 0.000000
vn 0.000000 1.000000 0.000000
vn 0.000000 1.000000 0.000000
vn 0.000000 1.000000 0.000000
vn 0.000000 1.000000 0.000000
vn 0.000000 1.000000 0.000000
vn 0.000000 1.000000 0.000000
vn 0.000000 1.000000 0.000000
vn 0.000000 1.000000 0.000000
vn 0.000000 1.000000 0.000000
vn 0.000000 1.000000 0.000000
vn 0.000000 1.000000 0.000000
vn 0.000000 1.000000 0.000000
vn 0.000000 1.000000 0.000000
vn 0.000000 1.000000 0.000000
vn 0.000000 1.000000 0.000000
vn 0.000000 1.000000 0.000000
vn 0.000000 1.000000 0.000000
vn 0.000000 1.000000 0.000000
vn 0.000000 1.000000 0.000000
vn 0.000000 1.000000 0.000000
vn 0.000000 1.000000 0.000000
vn 0.000000 1.000000 0.000000
vn 0.000000 1.000000 0.000000
vn 0.000000 1.000000 0.000000
vn 0.000000 1.000000 0.000000
vn 0.000000 1.000000 0.000000
vn 0.000000 1.000000 0.000000
vn 0.000000 1.000000 0.000000
vn 0.000000 1.000000 0.000000
vn 0.000000 1.000000 0.000000
vn 0.000000 1.000000 0.000000
vn 0.000000 1.000000 0.000000
vn 0.000000 1.000000 0.000000
vn 0.000000 1.000000 0.000000
vn 0.000000 1.000000 0.000000
vn 0.000000 1.000000 0.000000
vn 0.000000 1.000000 0.000000
vn 0.000000 1.000000 0.000000
vn 0.000000 1.000000 0.000000
vn 0.000000 1.000000 0.000000
vn 0.000000 1.000000 0.000000
vn 0.000000 1.000000 0.000000
vn 0.000000 1.000000 0.000000
vn 0.000000 1.000000 0.000000
vn 0.000000 1.000000 0.000000
vn 0.000000 1.000000 0.000000
vn 0.000000 1.000000 0.000000
vn 0.000000 1.000000 0.000000
vn 0.000000 1.000000 0.000000
vn 0.000000 1.000000 0.000000
vn 0.000000 1.000000 0.000000
vn 0.000000 1.000000 0.000000
vn 0.000000 1.000000 0.000000
vn 0.000000 1.000000 0.000000
vn 0.000000 1.000000 0.000000
vn 0.000000 1.000000 0.000000
vn 0.000000 1.000000 0.000000
vn 0.000000 1.000000 0.000000
vn 0.000000 1.000000 0.000000
vn 0.000000 1.000000 0.000000
vn 0.000000 1.000000 0.000000
vn 0.000000 1.000000 0.000000
vn 0.000000 1.000000 0.000000
vn 0.000000 1.000000 0.000000
vn 0.000000 1.000000 0.000000
vn 0.000000 1.000000 0.000000
vn 0.000000 1.000000 0.000000
vn 0.000000 1.000000 0.000000
vn 0.000000 1.000000 0.000000
vn 0.000000 1.000000 0.000000
vn 0.000000 1.000000 0.000000
vn 0.000000 1.000000 0.000000
vn -1.000000 0.000000 0.000000
vn -1.000000 0.000000 0.000000
vn -0.236801 0.970791 -0.038607
vn -0.986969 0.000000 -0.160913
vn 0.000000 1.000000 0.000000
vn 0.000000 1.000000 0.000000
vn 0.236801 0.970791 -0.038607
vn -0.236801 0.970791 -0.038607
vn 1.000000 0.000000 0.000000
vn 1.000000 0.000000 0.000000
vn 0.986969 0.000000 -0.160913
vn 0.236801 0.970791 -0.038607
vn 0.236801 0.970791 -0.038607
vn 0.986969 0.000000 -0.160913
vn -0.986969 0.000000 -0.160913
vn -0.236801 0.970791 -0.038607
vn -0.930366 0.000000 -0.366632
vn -0.930366 0.000000 -0.366632
vn -0.930366 0.000000 -0.366632
vn -0.930366 0.000000 -0.366632
vn 0.000000 1.000000 0.000000
vn 0.000000 1.000000 0.000000
vn 0.000000 1.000000 0.000000
vn 0.000000 1.000000 0.000000
vn 0.927553 0.000000 0.373692
vn 0.927553 0.000000 0.373692
vn 0.927553 0.000000 0.373692
vn 0.927553 0.000000 0.373692
vn -0.707108 0.000000 -0.707106
vn -0.707108 0.000000 -0.707106
vn -0.707108 0.000000 -0.707106
vn -0.707108 0.000000 -0.707106
vn 0.000000 1.000000 0.000000
vn 0.000000 1.000000 0.000000
vn 0.000000 1.000000 0.000000
vn 0.000000 1.000000 0.000000
vn 0.707107 0.000000 0.707107
vn 0.707107 0.000000 0.707107
vn 0.707107 0.000000 0.707107
vn 0.707107 0.000000 0.707107
vn -0.371726 0.000000 -0.928343
vn -0.371726 0.000000 -0.928343
vn -0.371726 0.000000 -0.928343
vn -0.371726 0.000000 -0.928343
vn 0.000000 1.000000 0.000000
vn 0.000000 1.000000 0.000000
vn 0.000000 1.000000 0.000000
vn 0.000000 1.000000 0.000000
vn 0.379018 0.000000 0.925389
vn 0.379018 0.000000 0.925389
vn 0.379018 0.000000 0.925389
vn 0.379018 0.000000 0.925389
vn -0.038183 0.970807 0.236805
vn -0.159187 -0.000002 0.987249
vn 0.000000 0.000000 1.000000
vn 0.000000 0.000000 1.000000
vn -0.038183 0.970808 -0.236800
vn -0.038183 0.970807 0.236805
vn -0.000000 1.000000 0.000000
vn -0.000000 1.000000 0.000000
vn -0.159184 -0.000002 -0.987249
vn -0.038183 0.970808 -0.236800
vn 0.000000 0.000000 -1.000000
vn 0.000000 0.000000 -1.000000
vn -0.038183 0.970808 -0.236800
vn -0.159184 -0.000002 -0.987249
vn -0.159187 -0.000002 0.987249
vn -0.038183 0.970807 0.236805
vn 0.000000 1.000000 0.000000
vn 0.000000 1.000000 0.000000
vn 0.000000 1.000000 0.000000
vn 0.000000 1.000000 -0.000000
vn 0.000000 1.000000 -0.000000
vn 0.000000 1.000000 -0.000000
vn 0.000000 1.000000 0.000000
vn 0.000000 1.000000 0.000000
vn 0.000000 1.000000 0.000000
vn 0.000000 1.000000 0.000000
vn 0.000000 1.000000 0.000000
vn 0.000000 1.000000 0.000000
vn -0.000001 0.000000 1.000000
vn -0.000001 0.000000 1.000000
vn -0.000001 0.000000 1.000000
vn -0.000001 0.000000 1.000000
vn 0.556371 0.000000 0.830934
vn 0.556371 0.000000 0.830934
vn 0.556371 0.000000 0.830934
vn 0.556371 0.000000 0.830934
vn 0.832905 0.000000 0.553416
vn 0.832905 0.000000 0.553416
vn 0.832905 0.000000 0.553416
vn 0.832905 0.000000 0.553416
vn 1.000000 0.000000 0.000000
vn 1.000000 0.000000 0.000000
vn 1.000000 0.000000 0.000000
vn 1.000000 0.000000 0.000000
s off
f 1/1/1 5/5/2 4/4/3 3/2/4 2/3/5
f 9/6/6 10/7/7 11/8/8 7/9/9 8/10/10
f 6/11/11 7/9/12 11/8/13 12/12/14
f 17/13/15 18/14/16 15/15/17 16/16/18
f 18/17/19 19/18/20 14/19/21 15/20/22
f 19/21/23 20/22/24 13/23/25 14/24/26
f 23/25/27 24/26/28 18/27/29 17/28/30
f 24/29/31 25/30/32 22/31/33 18/32/34
f 25/33/35 26/34/36 21/35/37 22/36/38
f 31/37/39 32/38/40 29/39/41 30/40/42
f 32/41/43 24/42/44 28/43/45 29/44/46
f 24/45/47 23/46/48 27/47/49 28/48/50
f 25/49/51 24/50/52 32/51/53
f 26/52/54 25/53/55 32/54/56 31/55/57
f 19/56/58 18/57/59 22/58/60
f 20/59/61 19/60/62 22/61/63 21/62/64
f 14/63/65 13/64/66 33/65/67 34/66/68
f 15/67/69 14/68/70 34/69/71 35/70/72
f 16/71/73 15/72/74 35/73/75 36/74/76
f 34/75/77 33/76/78 36/77/79 35/78/80
f 28/79/81 27/80/82 37/81/83 38/82/84
f 29/83/85 28/84/86 38/85/87 39/86/88
f 30/87/89 29/88/90 39/89/91 40/90/92
f 38/91/93 37/92/94 40/93/95 39/94/96
f 47/95/97 48/96/98 42/97/99 44/98/100
f 41/99/101 46/100/102 45/101/103 43/102/104
f 45/103/105 46/104/106 48/105/107 47/106/108
f 52/107/109 53/108/110 44/109/111 42/110/112
f 37/111/113 51/112/114 50/113/115 49/114/116
f 50/115/117 51/116/118 53/117/119 52/118/120
f 57/119/121 62/120/122 63/121/123 55/122/124
f 54/123/125 61/124/126 56/125/127
f 56/126/128 61/127/129 62/128/130 57/129/131
f 63/130/132 64/131/133 60/132/134 55/133/135
f 58/134/136 59/135/137 65/136/138 66/137/139
f 64/138/140 65/139/141 59/140/142 60/141/143
f 62/128/144 61/127/145 67/142/146 68/143/147
f 63/121/148 62/120/149 68/144/150 69/145/151
f 69/146/152 70/147/153 64/131/154 63/130/155
f 70/148/156 71/149/157 65/139/158 64/138/159
f 66/137/160 65/136/161 71/150/162 72/151/163
f 49/152/164 50/153/165 67/154/166
f 68/143/167 67/142/168 50/155/169 52/156/170
f 69/145/171 68/144/172 52/157/173 42/158/174
f 48/159/175 70/147/176 69/146/177 42/160/178
f 46/161/179 71/149/180 70/148/181 48/162/182
f 72/151/183 71/150/184 46/163/185 41/164/186
f 75/165/187 57/166/188 55/167/189 73/168/190
f 54/169/191 56/170/192 74/171/193 36/172/194
f 74/173/195 56/174/196 57/175/197 75/176/198
f 60/177/199 78/178/200 73/179/201 55/180/202
f 76/181/203 77/182/204 59/183/205 58/184/206
f 59/185/207 77/186/208 78/187/209 60/188/210
f 79/189/211 80/190/212 85/191/213 86/192/214
f 80/193/215 81/194/216 84/195/217 85/196/218
f 81/197/219 82/198/220 83/199/221 84/200/222
f 84/201/223 83/202/224 86/203/225 85/204/226
f 89/205/227 90/206/228 80/207/229 79/208/230
f 90/209/231 91/210/232 87/211/233 80/212/234
f 91/213/235 92/214/236 88/215/237 87/216/238
f 95/217/239 96/218/240 90/219/241 89/220/242
f 96/221/243 97/222/244 93/223/245 90/224/246
f 97/225/247 98/226/248 94/227/249 93/228/250
f 101/229/251 102/230/252 96/231/253 95/232/254
f 102/233/255 103/234/256 99/235/257 96/236/258
f 103/237/259 104/238/260 100/239/261 99/240/262
f 108/241/263 107/242/264 106/243/265 105/244/266
f 109/245/267 108/246/268 105/247/269 102/248/270
f 45/249/271 109/250/272 102/251/273 101/252/274
f 109/253/275 45/254/276 107/255/277 108/256/278
f 81/257/279 80/258/280 87/259/281
f 91/260/282 90/261/283 93/262/284
f 97/263/285 96/264/286 99/265/287
f 103/266/288 102/267/289 105/268/290
f 105/269/291 106/270/292 104/271/293 103/272/294
f 99/273/295 100/274/296 98/275/297 97/276/298
f 93/277/299 94/278/300 92/279/301 91/280/302
f 87/281/303 88/282/304 82/283/305 81/284/306
