# This file uses meters as units for non-parametric coordinates.

v -0.068624 -0.003116 0.008617
v 0.153337 -0.003116 -0.003202
v 0.266626 0.639562 -0.313253
v 0.325744 0.638177 -0.316402
v 0.263021 0.638437 -0.372438
v 0.322138 0.637052 -0.375587
v -0.082162 -0.003116 -0.213602
v 0.139801 -0.003116 -0.225422
v -0.215945 -0.003116 0.026020
v -0.031025 -0.003116 0.028454
v -0.263295 0.543702 -0.121377
v -0.214044 0.543869 -0.120729
v -0.262606 0.542970 -0.170539
v -0.213355 0.543138 -0.169891
v -0.213356 -0.003116 -0.158563
v -0.028435 -0.003116 -0.156129
v -0.125784 -0.003116 0.246098
v 0.099588 -0.003116 0.194447
v -0.170547 0.660686 0.375587
v -0.110521 0.661488 0.361832
v -0.184514 0.661708 0.315670
v -0.124488 0.662510 0.301912
v -0.178227 -0.003116 0.021124
v 0.047146 -0.003116 -0.030529
vt 0.328768 0.288501
vt 0.357177 0.288501
vt 0.388743 0.288502
vt 0.328768 0.288502
vt 0.357177 0.288502
vt 0.388743 0.288502
vt 0.357177 0.288501
vt 0.328768 0.288501
vt 0.328768 0.288502
vt 0.328768 0.288501
vt 0.328768 0.288502
vt 0.388743 0.288502
vt 0.357177 0.288502
vt 0.357177 0.288502
vt 0.388743 0.288502
vt 0.328768 0.288501
vt 0.357177 0.288501
vt 0.357177 0.288502
vt 0.328768 0.288502
vt 0.357177 0.288501
vt 0.357177 0.288501
vt 0.357177 0.288501
vt 0.357177 0.288502
vt 0.357177 0.288502
vt 0.388743 0.288502
vt 0.388743 0.288502
vt 0.388743 0.288502
vt 0.388743 0.288502
vt 0.357177 0.288502
vt 0.357177 0.288502
vt 0.357177 0.288501
vt 0.357177 0.288501
vt 0.328768 0.288501
vt 0.328768 0.288501
vt 0.328768 0.288502
vt 0.328768 0.288502
vt 0.328768 0.288501
vt 0.328768 0.288501
vt 0.328768 0.288502
vt 0.328768 0.288502
vt 0.357177 0.288501
vt 0.357177 0.288501
vt 0.357177 0.288502
vt 0.357177 0.288502
vt 0.388743 0.288502
vt 0.388743 0.288502
vt 0.388743 0.288502
vt 0.388743 0.288502
vt 0.357177 0.288502
vt 0.357177 0.288502
vt 0.357177 0.288501
vt 0.357177 0.288501
vt 0.328768 0.288501
vt 0.328768 0.288501
vt 0.328768 0.288502
vt 0.328768 0.288502
vt 0.328768 0.288501
vt 0.328768 0.288501
vt 0.328768 0.288502
vt 0.328768 0.288502
vn 0.050190 0.426775 0.902964
vn 0.050190 0.426775 0.902964
vn 0.050190 0.426775 0.902964
vn 0.050190 0.426775 0.902964
vn 0.022327 0.999543 -0.020362
vn 0.022327 0.999543 -0.020362
vn 0.022327 0.999543 -0.020362
vn 0.022327 0.999543 -0.020362
vn -0.053003 -0.213370 -0.975533
vn -0.053003 -0.213370 -0.975533
vn -0.053003 -0.213370 -0.975533
vn -0.053003 -0.213370 -0.975533
vn 0.956676 -0.285494 -0.057136
vn 0.956676 -0.285494 -0.057136
vn 0.956676 -0.285494 -0.057136
vn 0.956676 -0.285494 -0.057136
vn -0.874390 0.482501 0.051336
vn -0.874390 0.482501 0.051336
vn -0.874390 0.482501 0.051336
vn -0.874390 0.482501 0.051336
vn -0.012534 0.360474 0.932685
vn -0.012534 0.360474 0.932685
vn -0.012534 0.360474 0.932685
vn -0.012534 0.360474 0.932685
vn -0.003200 0.999884 -0.014927
vn -0.003200 0.999883 -0.014927
vn -0.003200 0.999883 -0.014927
vn -0.003200 0.999884 -0.014927
vn 0.013134 -0.137688 -0.990389
vn 0.013134 -0.137688 -0.990389
vn 0.013134 -0.137688 -0.990389
vn 0.013134 -0.137688 -0.990389
vn 0.983373 0.181114 0.013227
vn 0.983373 0.181114 0.013227
vn 0.983373 0.181114 0.013227
vn 0.983373 0.181114 0.013227
vn -0.997865 0.063746 -0.014192
vn -0.997865 0.063746 -0.014192
vn -0.997865 0.063746 -0.014192
vn -0.997865 0.063746 -0.014192
vn 0.220507 -0.172248 0.960056
vn 0.220508 -0.172248 0.960056
vn 0.220508 -0.172248 0.960056
vn 0.220508 -0.172248 0.960056
vn -0.008968 0.999777 0.019147
vn -0.008968 0.999777 0.019147
vn -0.008968 0.999777 0.019147
vn -0.008968 0.999776 0.019147
vn -0.206341 0.394405 -0.895471
vn -0.206341 0.394405 -0.895471
vn -0.206341 0.394405 -0.895471
vn -0.206341 0.394405 -0.895471
vn 0.915303 0.342376 -0.212129
vn 0.915303 0.342376 -0.212129
vn 0.915303 0.342376 -0.212129
vn 0.915303 0.342376 -0.212129
vn -0.968162 -0.109104 0.225297
vn -0.968162 -0.109104 0.225297
vn -0.968162 -0.109104 0.225297
vn -0.968162 -0.109104 0.225297
s off
f 1/17/1 2/2/2 4/18/3 3/14/4
f 3/3/5 4/12/6 6/6/7 5/15/8
f 5/5/9 6/13/10 8/7/11 7/20/12
f 2/16/13 8/8/14 6/9/15 4/4/16
f 7/10/17 1/1/18 3/19/19 5/11/20
f 9/21/21 10/22/22 12/23/23 11/24/24
f 11/25/25 12/26/26 14/27/27 13/28/28
f 13/29/29 14/30/30 16/31/31 15/32/32
f 10/33/33 16/34/34 14/35/35 12/36/36
f 15/37/37 9/38/38 11/39/39 13/40/40
f 17/41/41 18/42/42 20/43/43 19/44/44
f 19/45/45 20/46/46 22/47/47 21/48/48
f 21/49/49 22/50/50 24/51/51 23/52/52
f 18/53/53 24/54/54 22/55/55 20/56/56
f 23/57/57 17/58/58 19/59/59 21/60/60
