# This file uses meters as units for non-parametric coordinates.

v 12.940271 10.052133 0.060753
v 12.136951 11.489590 0.060753
v 13.743586 11.658765 0.060753
v 12.136951 11.489590 -0.046024
v 13.743586 11.658765 -0.046024
v 12.940271 10.052133 -0.046024
v 10.503921 9.664660 0.060753
v 9.700601 11.102118 0.060753
v 11.307233 11.271293 0.060753
v 9.700601 11.102118 -0.046024
v 11.307233 11.271293 -0.046024
v 10.503921 9.664660 -0.046024
v 8.314569 9.329575 0.060753
v 7.511250 10.767033 0.060753
v 9.117883 10.936208 0.060753
v 7.511250 10.767033 -0.046024
v 9.117883 10.936208 -0.046024
v 8.314569 9.329575 -0.046024
v 5.993123 9.077339 0.060753
v 5.189803 10.683972 0.060753
v 6.796436 10.683972 0.060753
v 5.189803 10.683972 -0.046024
v 6.796436 10.683972 -0.046024
v 5.993123 9.077339 -0.046024
v 3.949764 8.987037 0.060753
v 3.146445 10.593669 0.060753
v 4.753078 10.593669 0.060753
v 3.146445 10.593669 -0.046024
v 4.753078 10.593669 -0.046024
v 3.949764 8.987037 -0.046024
v 1.944040 8.910241 0.060753
v 1.140721 10.516875 0.060753
v 2.747354 10.516875 0.060753
v 1.140721 10.516875 -0.046024
v 2.747354 10.516875 -0.046024
v 1.944040 8.910241 -0.046024
v 0.000005 8.796495 0.060753
v -0.803313 10.403129 0.060753
v 0.803319 10.403129 0.060753
v -0.803313 10.403129 -0.046028
v 0.803319 10.403129 -0.046028
v 0.000005 8.796495 -0.046028
v -1.944036 8.910241 0.060753
v -1.140716 10.516875 0.060753
v -2.747349 10.516875 0.060753
v -1.140716 10.516875 -0.046024
v -2.747349 10.516875 -0.046024
v -1.944036 8.910241 -0.046024
v -3.949759 8.987037 0.060753
v -3.146440 10.593669 0.060753
v -4.753074 10.593669 0.060753
v -3.146440 10.593669 -0.046024
v -4.753074 10.593669 -0.046024
v -3.949759 8.987037 -0.046024
v -5.993118 9.077339 0.060753
v -5.189798 10.683972 0.060753
v -6.796432 10.683972 0.060753
v -5.189798 10.683972 -0.046024
v -6.796432 10.683972 -0.046024
v -5.993118 9.077339 -0.046024
v -8.314565 9.329575 0.060753
v -7.511245 10.767033 0.060753
v -9.117879 10.936208 0.060753
v -7.511245 10.767033 -0.046024
v -9.117879 10.936208 -0.046024
v -8.314565 9.329575 -0.046024
v -10.503916 9.664660 0.060753
v -9.700596 11.102118 0.060753
v -11.307228 11.271293 0.060753
v -9.700596 11.102118 -0.046024
v -11.307228 11.271293 -0.046024
v -10.503916 9.664660 -0.046024
v -12.940267 10.052133 0.060753
v -12.136947 11.489590 0.060753
v -13.743581 11.658765 0.060753
v -12.136947 11.489590 -0.046024
v -13.743581 11.658765 -0.046024
v -12.940267 10.052133 -0.046024
v -14.841310 11.782549 0.093544
v 14.841308 11.782549 0.093544
v -14.841310 11.969634 0.093544
v 14.841308 11.969634 0.093544
v -14.841310 11.969634 -0.093544
v 14.841308 11.969634 -0.093544
v -14.841310 11.782549 -0.093544
v 14.841308 11.782549 -0.093544
v -0.000001 10.496220 -0.093544
v -0.000001 10.496220 0.093544
v -0.000001 10.309134 0.093544
v -0.000001 10.309134 -0.093544
v -7.420655 10.849760 -0.093544
v -7.420655 10.849760 0.093544
v -7.420655 10.662675 0.093544
v -7.420655 10.662675 -0.093544
v 7.420653 10.662675 0.093544
v 7.420653 10.849760 0.093544
v 7.420653 10.849760 -0.093544
v 7.420653 10.662675 -0.093544
vt 0.297274 0.198496
vt 0.297274 0.198496
vt 0.297274 0.198496
vt 0.331082 0.198496
vt 0.331082 0.198496
vt 0.331082 0.198496
vt 0.331082 0.198496
vt 0.297274 0.198496
vt 0.297274 0.198496
vt 0.297274 0.198496
vt 0.263466 0.198496
vt 0.263466 0.198496
vt 0.263466 0.198496
vt 0.263466 0.198496
vt 0.263466 0.198496
vt 0.263466 0.198496
vt 0.263466 0.198496
vt 0.263466 0.198496
vt 0.297274 0.171007
vt 0.297274 0.171007
vt 0.297274 0.171007
vt 0.331082 0.171007
vt 0.331082 0.171007
vt 0.331082 0.171007
vt 0.331082 0.171007
vt 0.297274 0.171007
vt 0.297274 0.171007
vt 0.297274 0.171007
vt 0.263466 0.171007
vt 0.263466 0.171007
vt 0.263466 0.171007
vt 0.263466 0.171007
vt 0.263466 0.171007
vt 0.263466 0.171007
vt 0.263466 0.171007
vt 0.263466 0.171007
vt 0.297274 0.359138
vt 0.297274 0.359138
vt 0.297274 0.359138
vt 0.331082 0.359138
vt 0.331082 0.359138
vt 0.331082 0.359138
vt 0.331082 0.359138
vt 0.297274 0.359138
vt 0.297274 0.359138
vt 0.297274 0.359138
vt 0.263466 0.359138
vt 0.263466 0.359138
vt 0.263466 0.359138
vt 0.263466 0.359138
vt 0.263466 0.359138
vt 0.263466 0.359138
vt 0.263466 0.359138
vt 0.263466 0.359138
vt 0.297274 0.218254
vt 0.297274 0.218254
vt 0.297274 0.218254
vt 0.331082 0.218254
vt 0.331082 0.218254
vt 0.331082 0.218254
vt 0.331082 0.218254
vt 0.297274 0.218254
vt 0.297274 0.218254
vt 0.297274 0.218254
vt 0.263466 0.218254
vt 0.263466 0.218254
vt 0.263466 0.218254
vt 0.263466 0.218254
vt 0.263466 0.218254
vt 0.263466 0.218254
vt 0.263466 0.218254
vt 0.263466 0.218254
vt 0.297274 0.196778
vt 0.297274 0.196778
vt 0.297274 0.196778
vt 0.331082 0.196778
vt 0.331082 0.196778
vt 0.331082 0.196778
vt 0.331082 0.196778
vt 0.297274 0.196778
vt 0.297274 0.196778
vt 0.297274 0.196778
vt 0.263466 0.196778
vt 0.263466 0.196778
vt 0.263466 0.196778
vt 0.263466 0.196778
vt 0.263466 0.196778
vt 0.263466 0.196778
vt 0.263466 0.196778
vt 0.263466 0.196778
vt 0.297274 0.170148
vt 0.297274 0.170148
vt 0.297274 0.170148
vt 0.331082 0.170148
vt 0.331082 0.170148
vt 0.331082 0.170148
vt 0.331082 0.170148
vt 0.297274 0.170148
vt 0.297274 0.170148
vt 0.297274 0.170148
vt 0.263466 0.170148
vt 0.263466 0.170148
vt 0.263466 0.170148
vt 0.263466 0.170148
vt 0.263466 0.170148
vt 0.263466 0.170148
vt 0.263466 0.170148
vt 0.263466 0.170148
vt 0.297274 0.353125
vt 0.297274 0.353125
vt 0.297274 0.353125
vt 0.331082 0.353125
vt 0.331082 0.353125
vt 0.331082 0.353125
vt 0.331082 0.353125
vt 0.297274 0.353125
vt 0.297274 0.353125
vt 0.297274 0.353125
vt 0.263466 0.353125
vt 0.263466 0.353125
vt 0.263466 0.353125
vt 0.263466 0.353125
vt 0.263466 0.353125
vt 0.263466 0.353125
vt 0.263466 0.353125
vt 0.263466 0.353125
vt 0.297274 0.220050
vt 0.297274 0.220050
vt 0.297274 0.220050
vt 0.331082 0.220050
vt 0.331082 0.220050
vt 0.331082 0.220050
vt 0.331082 0.220050
vt 0.297274 0.220050
vt 0.297274 0.220050
vt 0.297274 0.220050
vt 0.263466 0.220050
vt 0.263466 0.220050
vt 0.263466 0.220050
vt 0.263466 0.220050
vt 0.263466 0.220050
vt 0.263466 0.220050
vt 0.263466 0.220050
vt 0.263466 0.220050
vt 0.297274 0.196778
vt 0.297274 0.196778
vt 0.297274 0.196778
vt 0.331082 0.196778
vt 0.331082 0.196778
vt 0.331082 0.196778
vt 0.331082 0.196778
vt 0.297274 0.196778
vt 0.297274 0.196778
vt 0.297274 0.196778
vt 0.263466 0.196778
vt 0.263466 0.196778
vt 0.263466 0.196778
vt 0.263466 0.196778
vt 0.263466 0.196778
vt 0.263466 0.196778
vt 0.263466 0.196778
vt 0.263466 0.196778
vt 0.297274 0.172119
vt 0.297274 0.172119
vt 0.297274 0.172119
vt 0.331082 0.172119
vt 0.331082 0.172119
vt 0.331082 0.172119
vt 0.331082 0.172119
vt 0.297274 0.172119
vt 0.297274 0.172119
vt 0.297274 0.172119
vt 0.263466 0.172119
vt 0.263466 0.172119
vt 0.263466 0.172119
vt 0.263466 0.172119
vt 0.263466 0.172119
vt 0.263466 0.172119
vt 0.263466 0.172119
vt 0.263466 0.172119
vt 0.297274 0.359138
vt 0.297274 0.359138
vt 0.297274 0.359138
vt 0.331082 0.359138
vt 0.331082 0.359138
vt 0.331082 0.359138
vt 0.331082 0.359138
vt 0.297274 0.359138
vt 0.297274 0.359138
vt 0.297274 0.359138
vt 0.263466 0.359138
vt 0.263466 0.359138
vt 0.263466 0.359138
vt 0.263466 0.359138
vt 0.263466 0.359138
vt 0.263466 0.359138
vt 0.263466 0.359138
vt 0.263466 0.359138
vt 0.297274 0.217142
vt 0.297274 0.217142
vt 0.297274 0.217142
vt 0.331082 0.217142
vt 0.331082 0.217142
vt 0.331082 0.217142
vt 0.331082 0.217142
vt 0.297274 0.217142
vt 0.297274 0.217142
vt 0.297274 0.217142
vt 0.263466 0.217142
vt 0.263466 0.217142
vt 0.263466 0.217142
vt 0.263466 0.217142
vt 0.263466 0.217142
vt 0.263466 0.217142
vt 0.263466 0.217142
vt 0.263466 0.217142
vt 0.297274 0.198496
vt 0.297274 0.198496
vt 0.297274 0.198496
vt 0.331082 0.198496
vt 0.331082 0.198496
vt 0.331082 0.198496
vt 0.331082 0.198496
vt 0.297274 0.198496
vt 0.297274 0.198496
vt 0.297274 0.198496
vt 0.263466 0.198496
vt 0.263466 0.198496
vt 0.263466 0.198496
vt 0.263466 0.198496
vt 0.263466 0.198496
vt 0.263466 0.198496
vt 0.263466 0.198496
vt 0.263466 0.198496
vt 0.392496 0.063709
vt 0.392496 0.063709
vt 0.392496 0.063709
vt 0.392496 0.063709
vt 0.483860 0.063709
vt 0.483860 0.063709
vt 0.483860 0.063709
vt 0.483860 0.063709
vt 0.392496 0.063709
vt 0.392496 0.063709
vt 0.392496 0.063709
vt 0.392496 0.063709
vt 0.330709 0.063709
vt 0.330709 0.063709
vt 0.330709 0.063709
vt 0.330709 0.063709
vt 0.358688 0.063709
vt 0.358688 0.063709
vt 0.358688 0.063709
vt 0.358688 0.063709
vt 0.358688 0.063709
vt 0.358688 0.063709
vt 0.358688 0.063709
vt 0.358688 0.063709
vt 0.483860 0.063709
vt 0.483860 0.063709
vt 0.483860 0.063709
vt 0.483860 0.063709
vt 0.392496 0.063709
vt 0.392496 0.063709
vt 0.392496 0.063709
vt 0.392496 0.063709
vt 0.330709 0.063709
vt 0.330709 0.063709
vt 0.330709 0.063709
vt 0.330709 0.063709
vt 0.392496 0.063709
vt 0.392496 0.063709
vt 0.392496 0.063709
vt 0.392496 0.063709
vt 0.483860 0.063709
vt 0.483860 0.063709
vt 0.483860 0.063709
vt 0.483860 0.063709
vt 0.392496 0.063709
vt 0.392496 0.063709
vt 0.392496 0.063709
vt 0.392496 0.063709
vt 0.330709 0.063709
vt 0.330709 0.063709
vt 0.330709 0.063709
vt 0.330709 0.063709
vt 0.392496 0.063709
vt 0.392496 0.063709
vt 0.392496 0.063709
vt 0.392496 0.063709
vt 0.392496 0.063709
vt 0.392496 0.063709
vt 0.392496 0.063709
vt 0.392496 0.063709
vt 0.483860 0.063709
vt 0.483860 0.063709
vt 0.483860 0.063709
vt 0.483860 0.063709
vt 0.392496 0.063709
vt 0.392496 0.063709
vt 0.392496 0.063709
vt 0.392496 0.063709
vt 0.330709 0.063709
vt 0.330709 0.063709
vt 0.330709 0.063709
vt 0.330709 0.063709
vn 0.000000 0.000000 1.000000
vn 0.000000 0.000000 1.000000
vn 0.000000 0.000000 1.000000
vn -0.104719 0.994502 0.000000
vn -0.104719 0.994502 0.000000
vn -0.104719 0.994502 0.000000
vn -0.104719 0.994502 0.000000
vn 0.000000 0.000000 -1.000000
vn 0.000000 0.000000 -1.000000
vn 0.000000 0.000000 -1.000000
vn 0.894427 -0.447213 0.000000
vn 0.894427 -0.447213 0.000000
vn 0.894427 -0.447213 0.000000
vn 0.894427 -0.447213 0.000000
vn -0.872934 -0.487837 0.000000
vn -0.872934 -0.487837 0.000000
vn -0.872934 -0.487837 0.000000
vn -0.872934 -0.487837 0.000000
vn 0.000000 0.000000 1.000000
vn 0.000000 0.000000 1.000000
vn 0.000000 0.000000 1.000000
vn -0.104719 0.994502 0.000000
vn -0.104719 0.994502 0.000000
vn -0.104719 0.994502 0.000000
vn -0.104719 0.994502 0.000000
vn 0.000000 0.000000 -1.000000
vn 0.000000 0.000000 -1.000000
vn 0.000000 0.000000 -1.000000
vn 0.894428 -0.447211 0.000000
vn 0.894428 -0.447211 0.000000
vn 0.894428 -0.447211 0.000000
vn 0.894428 -0.447211 0.000000
vn -0.872934 -0.487838 0.000000
vn -0.872934 -0.487838 0.000000
vn -0.872934 -0.487838 0.000000
vn -0.872934 -0.487838 0.000000
vn 0.000000 0.000000 1.000000
vn 0.000000 0.000000 1.000000
vn 0.000000 0.000000 1.000000
vn -0.104719 0.994502 0.000000
vn -0.104719 0.994502 0.000000
vn -0.104719 0.994502 0.000000
vn -0.104719 0.994502 0.000000
vn 0.000000 0.000000 -1.000000
vn 0.000000 0.000000 -1.000000
vn 0.000000 0.000000 -1.000000
vn 0.894428 -0.447212 0.000000
vn 0.894428 -0.447212 0.000000
vn 0.894428 -0.447212 0.000000
vn 0.894428 -0.447212 0.000000
vn -0.872935 -0.487837 0.000000
vn -0.872935 -0.487837 0.000000
vn -0.872935 -0.487837 0.000000
vn -0.872935 -0.487837 0.000000
vn 0.000000 0.000000 1.000000
vn 0.000000 0.000000 1.000000
vn 0.000000 0.000000 1.000000
vn 0.000000 1.000000 0.000000
vn 0.000000 1.000000 0.000000
vn 0.000000 1.000000 0.000000
vn 0.000000 1.000000 0.000000
vn 0.000000 0.000000 -1.000000
vn 0.000000 0.000000 -1.000000
vn 0.000000 0.000000 -1.000000
vn 0.894428 -0.447212 0.000000
vn 0.894428 -0.447212 0.000000
vn 0.894428 -0.447212 0.000000
vn 0.894428 -0.447212 0.000000
vn -0.894427 -0.447215 0.000000
vn -0.894427 -0.447215 0.000000
vn -0.894427 -0.447215 0.000000
vn -0.894427 -0.447215 0.000000
vn 0.000000 0.000000 1.000000
vn 0.000000 0.000000 1.000000
vn 0.000000 0.000000 1.000000
vn 0.000000 1.000000 0.000000
vn 0.000000 1.000000 0.000000
vn 0.000000 1.000000 0.000000
vn 0.000000 1.000000 0.000000
vn 0.000000 0.000000 -1.000000
vn 0.000000 0.000000 -1.000000
vn 0.000000 0.000000 -1.000000
vn 0.894428 -0.447213 0.000000
vn 0.894428 -0.447213 0.000000
vn 0.894428 -0.447213 0.000000
vn 0.894428 -0.447213 0.000000
vn -0.894426 -0.447215 0.000000
vn -0.894426 -0.447215 0.000000
vn -0.894426 -0.447215 0.000000
vn -0.894426 -0.447215 0.000000
vn 0.000000 0.000000 1.000000
vn 0.000000 0.000000 1.000000
vn 0.000000 0.000000 1.000000
vn 0.000000 1.000000 0.000000
vn 0.000000 1.000000 0.000000
vn 0.000000 1.000000 0.000000
vn 0.000000 1.000000 0.000000
vn 0.000000 0.000000 -1.000000
vn 0.000000 0.000000 -1.000000
vn 0.000000 0.000000 -1.000000
vn 0.894428 -0.447212 0.000000
vn 0.894428 -0.447212 0.000000
vn 0.894428 -0.447212 0.000000
vn 0.894428 -0.447212 0.000000
vn -0.894427 -0.447215 0.000000
vn -0.894427 -0.447215 0.000000
vn -0.894427 -0.447215 0.000000
vn -0.894427 -0.447215 0.000000
vn 0.000000 0.000000 1.000000
vn 0.000000 0.000000 1.000000
vn 0.000000 0.000000 1.000000
vn 0.000000 1.000000 0.000000
vn 0.000000 1.000000 0.000000
vn 0.000000 1.000000 0.000000
vn 0.000000 1.000000 0.000000
vn 0.000000 0.000000 -1.000000
vn 0.000000 0.000000 -1.000000
vn 0.000000 0.000000 -1.000000
vn 0.894428 -0.447213 0.000000
vn 0.894428 -0.447213 0.000000
vn 0.894428 -0.447213 0.000000
vn 0.894428 -0.447213 0.000000
vn -0.894427 -0.447214 0.000000
vn -0.894427 -0.447214 0.000000
vn -0.894427 -0.447214 0.000000
vn -0.894427 -0.447214 0.000000
vn 0.000000 0.000000 1.000000
vn 0.000000 0.000000 1.000000
vn 0.000000 0.000000 1.000000
vn 0.000000 1.000000 0.000000
vn 0.000000 1.000000 0.000000
vn 0.000000 1.000000 0.000000
vn 0.000000 1.000000 0.000000
vn 0.000000 0.000000 -1.000000
vn 0.000000 0.000000 -1.000000
vn 0.000000 0.000000 -1.000000
vn -0.894428 -0.447212 0.000000
vn -0.894428 -0.447212 0.000000
vn -0.894428 -0.447212 0.000000
vn -0.894428 -0.447212 0.000000
vn 0.894427 -0.447215 0.000000
vn 0.894427 -0.447215 0.000000
vn 0.894427 -0.447215 0.000000
vn 0.894427 -0.447215 0.000000
vn 0.000000 0.000000 1.000000
vn 0.000000 0.000000 1.000000
vn 0.000000 0.000000 1.000000
vn 0.000000 1.000000 0.000000
vn 0.000000 1.000000 0.000000
vn 0.000000 1.000000 0.000000
vn 0.000000 1.000000 0.000000
vn 0.000000 0.000000 -1.000000
vn 0.000000 0.000000 -1.000000
vn 0.000000 0.000000 -1.000000
vn -0.894428 -0.447213 0.000000
vn -0.894428 -0.447213 0.000000
vn -0.894428 -0.447213 0.000000
vn -0.894428 -0.447213 0.000000
vn 0.894427 -0.447215 0.000000
vn 0.894427 -0.447215 0.000000
vn 0.894427 -0.447215 0.000000
vn 0.894427 -0.447215 0.000000
vn 0.000000 0.000000 1.000000
vn 0.000000 0.000000 1.000000
vn 0.000000 0.000000 1.000000
vn 0.000000 1.000000 0.000000
vn 0.000000 1.000000 0.000000
vn 0.000000 1.000000 0.000000
vn 0.000000 1.000000 0.000000
vn 0.000000 0.000000 -1.000000
vn 0.000000 0.000000 -1.000000
vn 0.000000 0.000000 -1.000000
vn -0.894428 -0.447212 0.000000
vn -0.894428 -0.447212 0.000000
vn -0.894428 -0.447212 0.000000
vn -0.894428 -0.447212 0.000000
vn 0.894426 -0.447215 0.000000
vn 0.894426 -0.447215 0.000000
vn 0.894426 -0.447215 0.000000
vn 0.894426 -0.447215 0.000000
vn 0.000000 0.000000 1.000000
vn 0.000000 0.000000 1.000000
vn 0.000000 0.000000 1.000000
vn 0.104719 0.994502 0.000000
vn 0.104719 0.994502 0.000000
vn 0.104719 0.994502 0.000000
vn 0.104719 0.994502 0.000000
vn -0.000000 0.000000 -1.000000
vn -0.000000 0.000000 -1.000000
vn -0.000000 0.000000 -1.000000
vn -0.894428 -0.447212 0.000000
vn -0.894428 -0.447212 0.000000
vn -0.894428 -0.447212 0.000000
vn -0.894428 -0.447212 0.000000
vn 0.872935 -0.487837 0.000000
vn 0.872935 -0.487837 0.000000
vn 0.872935 -0.487837 0.000000
vn 0.872935 -0.487837 0.000000
vn 0.000000 0.000000 1.000000
vn 0.000000 0.000000 1.000000
vn 0.000000 0.000000 1.000000
vn 0.104719 0.994502 0.000000
vn 0.104719 0.994502 0.000000
vn 0.104719 0.994502 0.000000
vn 0.104719 0.994502 0.000000
vn -0.000000 0.000000 -1.000000
vn -0.000000 0.000000 -1.000000
vn -0.000000 0.000000 -1.000000
vn -0.894428 -0.447212 0.000000
vn -0.894428 -0.447212 0.000000
vn -0.894428 -0.447212 0.000000
vn -0.894428 -0.447212 0.000000
vn 0.872935 -0.487837 0.000000
vn 0.872935 -0.487837 0.000000
vn 0.872935 -0.487837 0.000000
vn 0.872935 -0.487837 0.000000
vn 0.000000 0.000000 1.000000
vn 0.000000 0.000000 1.000000
vn 0.000000 0.000000 1.000000
vn 0.104719 0.994502 0.000000
vn 0.104719 0.994502 0.000000
vn 0.104719 0.994502 0.000000
vn 0.104719 0.994502 0.000000
vn -0.000000 0.000000 -1.000000
vn -0.000000 0.000000 -1.000000
vn -0.000000 0.000000 -1.000000
vn -0.894428 -0.447213 0.000000
vn -0.894428 -0.447213 0.000000
vn -0.894428 -0.447213 0.000000
vn -0.894428 -0.447213 0.000000
vn 0.872934 -0.487837 0.000000
vn 0.872934 -0.487837 0.000000
vn 0.872934 -0.487837 0.000000
vn 0.872934 -0.487837 0.000000
vn 0.000000 0.000000 1.000000
vn 0.000000 0.000000 1.000000
vn 0.000000 0.000000 1.000000
vn 0.000000 0.000000 1.000000
vn 0.000000 1.000000 0.000000
vn 0.000000 1.000000 0.000000
vn -0.098792 0.995108 0.000000
vn -0.098792 0.995108 0.000000
vn 0.000000 0.000000 -1.000000
vn 0.000000 0.000000 -1.000000
vn 0.000000 0.000000 -1.000000
vn 0.000000 0.000000 -1.000000
vn 0.000000 -1.000000 0.000000
vn 0.000000 -1.000000 0.000000
vn 0.098792 -0.995108 0.000000
vn 0.098792 -0.995108 0.000000
vn 1.000000 0.000000 0.000000
vn 1.000000 0.000000 0.000000
vn 1.000000 0.000000 0.000000
vn 1.000000 0.000000 0.000000
vn -1.000000 0.000000 0.000000
vn -1.000000 0.000000 0.000000
vn -1.000000 0.000000 0.000000
vn -1.000000 0.000000 0.000000
vn 0.098792 0.995108 0.000000
vn 0.098792 0.995108 0.000000
vn 0.000000 1.000000 0.000000
vn 0.000000 1.000000 0.000000
vn -0.000000 0.000000 1.000000
vn -0.000000 0.000000 1.000000
vn 0.000000 0.000000 1.000000
vn 0.000000 0.000000 1.000000
vn -0.098792 -0.995108 0.000000
vn -0.098792 -0.995108 0.000000
vn 0.000000 -1.000000 0.000000
vn 0.000000 -1.000000 0.000000
vn -0.000000 0.000000 -1.000000
vn -0.000000 0.000000 -1.000000
vn 0.000000 0.000000 -1.000000
vn 0.000000 0.000000 -1.000000
vn 0.149223 0.988804 0.000000
vn 0.098792 0.995108 0.000000
vn 0.098792 0.995108 0.000000
vn 0.149223 0.988804 0.000000
vn -0.000000 0.000000 1.000000
vn -0.000000 0.000000 1.000000
vn -0.000000 0.000000 1.000000
vn -0.000000 0.000000 1.000000
vn -0.149223 -0.988804 0.000000
vn -0.098792 -0.995108 0.000000
vn -0.098792 -0.995108 0.000000
vn -0.149223 -0.988804 0.000000
vn -0.000000 0.000000 -1.000000
vn -0.000000 0.000000 -1.000000
vn -0.000000 0.000000 -1.000000
vn -0.000000 0.000000 -1.000000
vn 0.000000 0.000000 1.000000
vn 0.000000 0.000000 1.000000
vn 0.000000 0.000000 1.000000
vn 0.000000 0.000000 1.000000
vn -0.098792 0.995108 0.000000
vn -0.098792 0.995108 0.000000
vn -0.149223 0.988804 0.000000
vn -0.149223 0.988804 0.000000
vn 0.000000 0.000000 -1.000000
vn 0.000000 0.000000 -1.000000
vn 0.000000 0.000000 -1.000000
vn 0.000000 0.000000 -1.000000
vn 0.098792 -0.995108 0.000000
vn 0.098792 -0.995108 0.000000
vn 0.149223 -0.988804 0.000000
vn 0.149223 -0.988804 0.000000
s off
f 1/1/1 3/2/2 2/3/3
f 2/4/4 3/5/5 5/6/6 4/7/7
f 4/8/8 5/9/9 6/10/10
f 1/11/11 6/12/12 5/13/13 3/14/14
f 6/15/15 1/16/16 2/17/17 4/18/18
f 7/19/19 9/20/20 8/21/21
f 8/22/22 9/23/23 11/24/24 10/25/25
f 10/26/26 11/27/27 12/28/28
f 7/29/29 12/30/30 11/31/31 9/32/32
f 12/33/33 7/34/34 8/35/35 10/36/36
f 13/37/37 15/38/38 14/39/39
f 14/40/40 15/41/41 17/42/42 16/43/43
f 16/44/44 17/45/45 18/46/46
f 13/47/47 18/48/48 17/49/49 15/50/50
f 18/51/51 13/52/52 14/53/53 16/54/54
f 19/55/55 21/56/56 20/57/57
f 20/58/58 21/59/59 23/60/60 22/61/61
f 22/62/62 23/63/63 24/64/64
f 19/65/65 24/66/66 23/67/67 21/68/68
f 24/69/69 19/70/70 20/71/71 22/72/72
f 25/73/73 27/74/74 26/75/75
f 26/76/76 27/77/77 29/78/78 28/79/79
f 28/80/80 29/81/81 30/82/82
f 25/83/83 30/84/84 29/85/85 27/86/86
f 30/87/87 25/88/88 26/89/89 28/90/90
f 31/91/91 33/92/92 32/93/93
f 32/94/94 33/95/95 35/96/96 34/97/97
f 34/98/98 35/99/99 36/100/100
f 31/101/101 36/102/102 35/103/103 33/104/104
f 36/105/105 31/106/106 32/107/107 34/108/108
f 37/109/109 39/110/110 38/111/111
f 38/112/112 39/113/113 41/114/114 40/115/115
f 40/116/116 41/117/117 42/118/118
f 37/119/119 42/120/120 41/121/121 39/122/122
f 42/123/123 37/124/124 38/125/125 40/126/126
f 43/127/127 44/129/128 45/128/129
f 44/130/130 46/133/131 47/132/132 45/131/133
f 46/134/134 48/136/135 47/135/136
f 43/137/137 45/140/138 47/139/139 48/138/140
f 48/141/141 46/144/142 44/143/143 43/142/144
f 49/145/145 50/147/146 51/146/147
f 50/148/148 52/151/149 53/150/150 51/149/151
f 52/152/152 54/154/153 53/153/154
f 49/155/155 51/158/156 53/157/157 54/156/158
f 54/159/159 52/162/160 50/161/161 49/160/162
f 55/163/163 56/165/164 57/164/165
f 56/166/166 58/169/167 59/168/168 57/167/169
f 58/170/170 60/172/171 59/171/172
f 55/173/173 57/176/174 59/175/175 60/174/176
f 60/177/177 58/180/178 56/179/179 55/178/180
f 61/181/181 62/183/182 63/182/183
f 62/184/184 64/187/185 65/186/186 63/185/187
f 64/188/188 66/190/189 65/189/190
f 61/191/191 63/194/192 65/193/193 66/192/194
f 66/195/195 64/198/196 62/197/197 61/196/198
f 67/199/199 68/201/200 69/200/201
f 68/202/202 70/205/203 71/204/204 69/203/205
f 70/206/206 72/208/207 71/207/208
f 67/209/209 69/212/210 71/211/211 72/210/212
f 72/213/213 70/216/214 68/215/215 67/214/216
f 73/217/217 74/219/218 75/218/219
f 74/220/220 76/223/221 77/222/222 75/221/223
f 76/224/224 78/226/225 77/225/226
f 73/227/227 75/230/228 77/229/229 78/228/230
f 78/231/231 76/234/232 74/233/233 73/232/234
f 88/235/235 89/236/236 95/237/237 96/238/238
f 87/239/239 88/240/240 96/241/241 97/242/242
f 90/243/243 87/244/244 97/245/245 98/246/246
f 89/247/247 90/248/248 98/249/249 95/250/250
f 80/251/251 86/252/252 84/253/253 82/254/254
f 85/255/255 79/256/256 81/257/257 83/258/258
f 91/259/259 92/260/260 88/261/261 87/262/262
f 92/263/263 93/264/264 89/265/265 88/266/266
f 93/267/267 94/268/268 90/269/269 89/270/270
f 94/271/271 91/272/272 87/273/273 90/274/274
f 81/275/275 92/276/276 91/277/277 83/278/278
f 79/279/279 93/280/280 92/281/281 81/282/282
f 85/283/283 94/284/284 93/285/285 79/286/286
f 83/287/287 91/288/288 94/289/289 85/290/290
f 96/291/291 95/292/292 80/293/293 82/294/294
f 97/295/295 96/296/296 82/297/297 84/298/298
f 98/299/299 97/300/300 84/301/301 86/302/302
f 95/303/303 98/304/304 86/305/305 80/306/306
