# This file uses meters as units for non-parametric coordinates.

v 0.000000 0.000000 19.999969
v 10.000000 0.000000 19.999969
v 0.000000 0.000000 12.123260
v 10.000000 3.442742 11.488495
v 1.358398 0.000000 12.123260
v 1.358398 0.000000 19.999969
v 1.798462 0.000000 12.123260
v 1.798462 0.000000 19.999969
v 20.000000 0.000000 12.123260
v 20.000000 0.000000 19.999969
v 18.641602 0.000000 19.999969
v 18.641602 0.000000 12.123260
v 18.201538 0.000000 19.999969
v 18.201538 0.000000 12.123260
v 14.100769 3.442742 11.488495
v 14.100769 0.000000 19.999969
v 5.899231 3.442742 11.488495
v 5.899231 0.000000 19.999969
v 7.949615 3.442742 11.488495
v 7.949615 0.000000 19.999969
v 12.050385 3.442742 11.488495
v 12.050385 0.000000 19.999969
v 11.025192 3.442742 11.488495
v 11.025192 0.000000 19.999969
v 8.974808 3.442742 11.488495
v 8.974808 0.000000 19.999969
v 3.848846 3.442742 11.488495
v 3.848846 0.000000 19.999969
v 6.924423 3.442742 11.488495
v 6.924423 0.000000 19.999969
v 13.075577 3.442742 11.488495
v 13.075577 0.000000 19.999969
v 16.151154 3.442742 11.488495
v 16.151154 0.000000 19.999969
v 0.000000 0.000000 0.000000
v 10.000000 0.000000 0.000000
v 1.358398 0.000000 0.000000
v 1.798462 0.000000 0.000000
v 20.000000 0.000000 0.000000
v 18.641602 0.000000 0.000000
v 18.201538 0.000000 0.000000
v 14.100769 0.000000 0.000000
v 5.899231 0.000000 0.000000
v 7.949615 0.000000 0.000000
v 12.050385 0.000000 0.000000
v 11.025192 0.000000 0.000000
v 8.974808 0.000000 0.000000
v 3.848846 0.000000 0.000000
v 6.924423 0.000000 0.000000
v 13.075577 0.000000 0.000000
v 16.151154 0.000000 0.000000
v 20.000000 0.000000 2.103142
v 18.641602 0.000000 2.103142
v 18.201538 0.000000 2.103142
v 16.151154 0.000000 2.103142
v 14.100769 0.000000 2.103142
v 13.075577 0.000000 2.103142
v 12.050385 0.000000 2.103142
v 11.025192 0.000000 2.103142
v 10.000000 0.000000 2.103142
v 8.974808 0.000000 2.103142
v 7.949615 0.000000 2.103142
v 6.924423 0.000000 2.103142
v 5.899231 0.000000 2.103142
v 3.848846 0.000000 2.103142
v 1.798462 0.000000 2.103142
v 1.358398 0.000000 2.103142
v 0.000000 0.000000 2.103142
v 0.000000 0.000000 17.746552
v 1.358398 0.000000 17.746552
v 1.798462 0.000000 17.746552
v 3.848846 0.000000 17.746552
v 5.899231 0.000000 17.746552
v 6.924423 0.000000 17.746552
v 7.949615 0.000000 17.746552
v 8.974808 0.000000 17.746552
v 10.000000 0.000000 17.746552
v 11.025192 0.000000 17.746552
v 12.050385 0.000000 17.746552
v 13.075577 0.000000 17.746552
v 14.100769 0.000000 17.746552
v 16.151154 0.000000 17.746552
v 18.201538 0.000000 17.746552
v 18.641602 0.000000 17.746552
v 20.000000 0.000000 17.746552
v 0.000000 0.000000 7.959305
v 1.358414 0.000000 7.959305
v 1.798477 0.000000 7.959305
v 3.848846 3.442741 8.594070
v 5.899231 3.442741 8.594070
v 6.924423 3.442741 8.594070
v 7.949615 3.442741 8.594070
v 8.974808 3.442741 8.594070
v 10.000000 3.442741 8.594070
v 11.025192 3.442741 8.594070
v 12.050400 3.442741 8.594070
v 13.075577 3.442741 8.594070
v 14.100769 3.442741 8.594070
v 16.151154 3.442741 8.594070
v 18.201538 0.000000 7.959305
v 18.641602 0.000000 7.959305
v 20.000000 0.000000 7.959305
vt 0.265537 0.047527
vt 0.204943 0.047527
vt 0.233583 0.047527
vt 0.265537 0.047527
vt 0.265537 0.047527
vt 0.265537 0.047527
vt 0.265537 0.047527
vt 0.265537 0.047527
vt 0.325905 0.046099
vt 0.325905 0.046099
vt 0.325905 0.046099
vt 0.325905 0.046099
vt 0.265537 0.047527
vt 0.175340 0.047527
vt 0.204943 0.047527
vt 0.233583 0.047527
vt 0.265537 0.047527
vt 0.265537 0.047527
vt 0.265537 0.047527
vt 0.265537 0.047527
vt 0.325897 0.046099
vt 0.325897 0.046099
vt 0.325897 0.046099
vt 0.325897 0.046099
vt 0.204943 0.047527
vt 0.201630 0.047527
vt 0.172990 0.047527
vt 0.233583 0.047527
vt 0.236896 0.047527
vt 0.233583 0.047527
vt 0.204943 0.047527
vt 0.265536 0.047527
vt 0.236896 0.047527
vt 0.233583 0.047527
vt 0.204943 0.047527
vt 0.265536 0.047527
vt 0.204943 0.047527
vt 0.265537 0.047527
vt 0.204943 0.047527
vt 0.201630 0.047527
vt 0.172990 0.047527
vt 0.233583 0.047527
vt 0.175340 0.047527
vt 0.233583 0.047527
vt 0.204943 0.047527
vt 0.265537 0.047527
vt 0.233583 0.047527
vt 0.172990 0.047527
vt 0.204943 0.047527
vt 0.201630 0.047527
vt 0.233583 0.047527
vt 0.236896 0.047527
vt 0.172990 0.047527
vt 0.233583 0.047527
vt 0.265536 0.047527
vt 0.204943 0.047527
vt 0.175340 0.047527
vt 0.233583 0.047527
vt 0.201630 0.047527
vt 0.204943 0.047527
vt 0.236896 0.047527
vt 0.233583 0.047527
vt 0.204943 0.047527
vt 0.265536 0.047527
vt 0.233583 0.047527
vt 0.233583 0.047527
vt 0.233583 0.047527
vt 0.233583 0.047527
vt 0.265537 0.047527
vt 0.265537 0.047527
vt 0.265537 0.047527
vt 0.265537 0.047527
vt 0.325905 0.046099
vt 0.325905 0.046099
vt 0.325905 0.046099
vt 0.325905 0.046099
vt 0.203320 0.047527
vt 0.265537 0.047527
vt 0.265537 0.047527
vt 0.203320 0.047527
vt 0.265537 0.047527
vt 0.265537 0.047527
vt 0.265537 0.047527
vt 0.265537 0.047527
vt 0.325897 0.046099
vt 0.325897 0.046099
vt 0.325897 0.046099
vt 0.325897 0.046099
vt 0.201630 0.047527
vt 0.201630 0.047527
vt 0.201630 0.047527
vt 0.201630 0.047527
vt 0.233583 0.047527
vt 0.233583 0.047527
vt 0.233583 0.047527
vt 0.233583 0.047527
vt 0.233583 0.047527
vt 0.233583 0.047527
vt 0.233583 0.047527
vt 0.233583 0.047527
vt 0.265536 0.047527
vt 0.265536 0.047527
vt 0.265536 0.047527
vt 0.265536 0.047527
vt 0.233583 0.047527
vt 0.233583 0.047527
vt 0.233583 0.047527
vt 0.233583 0.047527
vt 0.265536 0.047527
vt 0.265536 0.047527
vt 0.265536 0.047527
vt 0.265536 0.047527
vt 0.265537 0.047527
vt 0.203320 0.047527
vt 0.203320 0.047527
vt 0.265537 0.047527
vt 0.201630 0.047527
vt 0.201630 0.047527
vt 0.201630 0.047527
vt 0.201630 0.047527
vt 0.233583 0.047527
vt 0.233583 0.047527
vt 0.233583 0.047527
vt 0.233583 0.047527
vt 0.233583 0.047527
vt 0.233583 0.047527
vt 0.233583 0.047527
vt 0.233583 0.047527
vt 0.265537 0.047527
vt 0.325897 0.046099
vt 0.265537 0.047527
vt 0.265537 0.047527
vt 0.325897 0.046099
vt 0.175340 0.047527
vt 0.204943 0.047527
vt 0.233583 0.047527
vt 0.201630 0.047527
vt 0.201630 0.047527
vt 0.233583 0.047527
vt 0.233583 0.047527
vt 0.265536 0.047527
vt 0.265536 0.047527
vt 0.233583 0.047527
vt 0.204943 0.047527
vt 0.233583 0.047527
vt 0.233583 0.047527
vt 0.265536 0.047527
vt 0.265536 0.047527
vt 0.233583 0.047527
vt 0.233583 0.047527
vt 0.201630 0.047527
vt 0.201630 0.047527
vt 0.233583 0.047527
vt 0.233583 0.047527
vt 0.265537 0.047527
vt 0.265537 0.047527
vt 0.325905 0.046099
vt 0.325905 0.046099
vt 0.265537 0.047527
vt 0.265537 0.047527
vt 0.265537 0.047527
vt 0.325905 0.046099
vt 0.265537 0.047527
vt 0.265537 0.047527
vt 0.325905 0.046099
vt 0.204943 0.047527
vt 0.175340 0.047527
vt 0.201630 0.047527
vt 0.233583 0.047527
vt 0.233583 0.047527
vt 0.201630 0.047527
vt 0.265536 0.047527
vt 0.233583 0.047527
vt 0.233583 0.047527
vt 0.265536 0.047527
vt 0.233583 0.047527
vt 0.233583 0.047527
vt 0.265536 0.047527
vt 0.233583 0.047527
vt 0.233583 0.047527
vt 0.265536 0.047527
vt 0.201630 0.047527
vt 0.233583 0.047527
vt 0.233583 0.047527
vt 0.201630 0.047527
vt 0.265537 0.047527
vt 0.233583 0.047527
vt 0.265537 0.047527
vt 0.325897 0.046099
vt 0.325897 0.046099
vt 0.265537 0.047527
vt 0.265537 0.047527
vt 0.265537 0.047527
vt 0.325905 0.046099
vt 0.265537 0.047527
vt 0.175340 0.047527
vt 0.325905 0.046099
vt 0.233583 0.047527
vt 0.203320 0.047527
vt 0.201630 0.047527
vt 0.233583 0.047527
vt 0.233583 0.047527
vt 0.201630 0.047527
vt 0.265536 0.047527
vt 0.233583 0.047527
vt 0.233583 0.047527
vt 0.265536 0.047527
vt 0.233583 0.047527
vt 0.233583 0.047527
vt 0.265536 0.047527
vt 0.233583 0.047527
vt 0.233583 0.047527
vt 0.265536 0.047527
vt 0.201630 0.047527
vt 0.233583 0.047527
vt 0.233583 0.047527
vt 0.201630 0.047527
vt 0.203320 0.047527
vt 0.233583 0.047527
vt 0.265537 0.047527
vt 0.325897 0.046099
vt 0.325897 0.046099
vt 0.265537 0.047527
vt 0.265537 0.047527
vt 0.203320 0.047527
vt 0.265537 0.047527
vt 0.204943 0.047527
vt 0.175340 0.047527
vt 0.233583 0.047527
vt 0.265537 0.047527
vt 0.175340 0.047527
vt 0.265537 0.047527
vt 0.204943 0.047527
vt 0.175340 0.047527
vt 0.233583 0.047527
vt 0.265537 0.047527
vt 0.203320 0.047527
vt 0.175340 0.047527
vt 0.204943 0.047527
vt 0.175340 0.047527
vt 0.172990 0.047527
vt 0.204943 0.047527
vt 0.204943 0.047527
vt 0.172990 0.047527
vt 0.236896 0.047527
vt 0.204943 0.047527
vt 0.204943 0.047527
vt 0.236896 0.047527
vt 0.204943 0.047527
vt 0.204943 0.047527
vt 0.236896 0.047527
vt 0.204943 0.047527
vt 0.204943 0.047527
vt 0.236896 0.047527
vt 0.172990 0.047527
vt 0.204943 0.047527
vt 0.204943 0.047527
vt 0.172990 0.047527
vt 0.175340 0.047527
vt 0.204943 0.047527
vt 0.233583 0.047527
vt 0.204943 0.047527
vt 0.172990 0.047527
vt 0.204943 0.047527
vt 0.204943 0.047527
vt 0.172990 0.047527
vt 0.236896 0.047527
vt 0.204943 0.047527
vt 0.204943 0.047527
vt 0.236896 0.047527
vt 0.204943 0.047527
vt 0.204943 0.047527
vt 0.236896 0.047527
vt 0.204943 0.047527
vt 0.204943 0.047527
vt 0.236896 0.047527
vt 0.172990 0.047527
vt 0.204943 0.047527
vt 0.204943 0.047527
vt 0.172990 0.047527
vt 0.172990 0.047527
vt 0.204943 0.047527
vt 0.204943 0.047527
vt 0.172990 0.047527
vt 0.236896 0.047527
vt 0.204943 0.047527
vt 0.204943 0.047527
vt 0.236896 0.047527
vt 0.236896 0.047527
vt 0.204943 0.047527
vt 0.204943 0.047527
vt 0.236896 0.047527
vt 0.172990 0.047527
vt 0.204943 0.047527
vt 0.204943 0.047527
vt 0.172990 0.047527
vn 0.000000 0.876168 0.482006
vn 0.000000 0.927037 0.374970
vn 0.000000 0.927037 0.374970
vn 0.000000 0.876168 0.482006
vn 0.000000 1.000000 0.000000
vn 0.000000 1.000000 0.000000
vn 0.000000 1.000000 0.000000
vn 0.000000 1.000000 0.000000
vn 0.000000 1.000000 0.000000
vn 0.000000 1.000000 0.000000
vn 0.000000 1.000000 0.000000
vn -0.666456 0.704830 0.243006
vn 0.122228 0.953229 0.276432
vn 0.000000 1.000000 0.000000
vn 0.666456 0.704829 0.243006
vn 0.000000 1.000000 0.000000
vn 0.000000 1.000000 0.000000
vn 0.000000 1.000000 0.000000
vn 0.000000 1.000000 0.000000
vn 0.000000 1.000000 0.000000
vn 0.000000 1.000000 0.000000
vn 0.000000 1.000000 0.000000
vn 0.666456 0.704829 0.243006
vn 0.000000 0.927037 0.374970
vn 0.000000 0.927037 0.374970
vn 0.000000 0.876168 0.482006
vn 0.000000 0.876168 0.482006
vn -0.302619 0.835086 0.459406
vn -0.122228 0.953229 0.276433
vn 0.000000 0.927037 0.374970
vn 0.000000 0.876168 0.482006
vn 0.000000 0.876168 0.482006
vn 0.000000 0.927037 0.374970
vn 0.000000 0.927037 0.374970
vn 0.000000 0.876168 0.482006
vn 0.000000 0.927037 0.374970
vn 0.000000 0.927037 0.374970
vn 0.000000 0.876168 0.482006
vn 0.000000 0.876168 0.482006
vn 0.000000 0.927037 0.374970
vn 0.000000 0.927037 0.374970
vn 0.000000 0.876168 0.482006
vn 0.000000 0.876168 0.482006
vn 0.000000 0.876168 0.482006
vn 0.000000 0.927037 0.374970
vn 0.000000 0.927037 0.374970
vn 0.000000 0.876168 0.482006
vn -0.666456 0.704830 0.243006
vn 0.000000 1.000000 0.000000
vn -0.122228 0.953229 0.276433
vn 0.000000 0.876168 0.482006
vn 0.000000 0.927037 0.374970
vn 0.000000 0.927037 0.374970
vn 0.000000 0.876168 0.482006
vn 0.000000 0.927037 0.374970
vn 0.000000 0.927037 0.374970
vn 0.000000 0.876168 0.482006
vn 0.000000 0.876168 0.482006
vn 0.000000 0.927037 0.374970
vn 0.122228 0.953229 0.276432
vn 0.302619 0.835086 0.459405
vn 0.000000 0.876168 0.482006
vn 0.000000 0.928286 -0.371867
vn 0.000000 0.928286 -0.371867
vn 0.000000 0.938830 -0.344382
vn 0.000000 0.938830 -0.344382
vn 0.000000 1.000000 0.000000
vn 0.000000 1.000000 0.000000
vn 0.000000 1.000000 0.000000
vn 0.000000 1.000000 0.000000
vn 0.000000 1.000000 0.000000
vn 0.000000 1.000000 0.000000
vn 0.000000 1.000000 0.000000
vn -0.737999 0.663470 -0.123145
vn 0.122901 0.953793 -0.274179
vn 0.737998 0.663472 -0.123145
vn 0.000000 1.000000 0.000000
vn 0.000000 1.000000 0.000000
vn 0.000000 1.000000 0.000000
vn 0.000000 1.000000 0.000000
vn 0.000000 1.000000 0.000000
vn 0.737998 0.663472 -0.123145
vn 0.000000 1.000000 0.000000
vn 0.000000 1.000000 0.000000
vn 0.000000 1.000000 0.000000
vn 0.000000 0.938830 -0.344382
vn 0.000000 0.938830 -0.344382
vn 0.000000 0.928286 -0.371867
vn 0.000000 0.928286 -0.371867
vn 0.000000 0.928286 -0.371867
vn -0.122901 0.953793 -0.274179
vn -0.516968 0.820767 -0.243076
vn 0.000000 0.938830 -0.344382
vn 0.000000 0.928286 -0.371867
vn 0.000000 0.928286 -0.371867
vn 0.000000 0.938830 -0.344382
vn 0.000000 0.938830 -0.344382
vn 0.000000 0.938830 -0.344382
vn 0.000000 0.938830 -0.344382
vn 0.000000 0.928286 -0.371867
vn 0.000000 0.928286 -0.371867
vn 0.000000 0.938830 -0.344382
vn 0.000000 0.938830 -0.344382
vn 0.000000 0.928286 -0.371867
vn 0.000000 0.928286 -0.371867
vn 0.000000 0.928286 -0.371867
vn 0.000000 0.928286 -0.371867
vn 0.000000 0.938830 -0.344382
vn 0.000000 0.938830 -0.344382
vn -0.122901 0.953793 -0.274179
vn 0.000000 1.000000 0.000000
vn -0.737999 0.663470 -0.123145
vn 0.000000 0.928286 -0.371867
vn 0.000000 0.928286 -0.371867
vn 0.000000 0.938830 -0.344382
vn 0.000000 0.938830 -0.344382
vn 0.000000 0.938830 -0.344382
vn 0.000000 0.938830 -0.344382
vn 0.000000 0.928286 -0.371867
vn 0.000000 0.928286 -0.371867
vn 0.000000 0.938830 -0.344382
vn 0.516967 0.820767 -0.243076
vn 0.122901 0.953793 -0.274179
vn 0.000000 0.928286 -0.371867
vn 0.000000 1.000000 0.000000
vn 0.000000 1.000000 0.000000
vn 0.000000 1.000000 0.000000
vn 0.000000 1.000000 0.000000
vn 0.000000 1.000000 0.000000
vn 0.000000 1.000000 0.000000
vn 0.000000 1.000000 0.000000
vn 0.000000 1.000000 0.000000
vn 0.122901 0.953793 -0.274179
vn 0.000000 1.000000 0.000000
vn 0.000000 1.000000 0.000000
vn 0.000000 1.000000 0.000000
vn 0.000000 0.928286 -0.371867
vn 0.122901 0.953793 -0.274179
vn 0.000000 1.000000 0.000000
vn 0.000000 1.000000 0.000000
vn 0.000000 0.928286 -0.371867
vn 0.000000 0.928286 -0.371867
vn 0.000000 1.000000 0.000000
vn 0.000000 1.000000 0.000000
vn 0.000000 0.928286 -0.371867
vn 0.000000 0.928286 -0.371867
vn 0.000000 1.000000 0.000000
vn 0.000000 1.000000 0.000000
vn 0.000000 0.928286 -0.371867
vn 0.000000 0.928286 -0.371867
vn 0.000000 1.000000 0.000000
vn 0.000000 1.000000 0.000000
vn 0.000000 0.928286 -0.371867
vn 0.000000 0.928286 -0.371867
vn 0.000000 1.000000 0.000000
vn 0.000000 1.000000 0.000000
vn 0.000000 1.000000 0.000000
vn 0.000000 0.928286 -0.371867
vn 0.000000 0.928286 -0.371867
vn 0.000000 1.000000 0.000000
vn 0.000000 1.000000 0.000000
vn 0.000000 0.928286 -0.371867
vn 0.000000 0.928286 -0.371867
vn 0.000000 1.000000 0.000000
vn 0.000000 1.000000 0.000000
vn 0.000000 0.928286 -0.371867
vn 0.000000 0.928286 -0.371867
vn 0.000000 1.000000 0.000000
vn 0.000000 1.000000 0.000000
vn 0.000000 0.928286 -0.371867
vn 0.000000 0.928286 -0.371867
vn 0.000000 1.000000 0.000000
vn 0.000000 1.000000 0.000000
vn -0.122901 0.953793 -0.274179
vn 0.000000 0.928286 -0.371867
vn 0.000000 1.000000 0.000000
vn 0.000000 1.000000 0.000000
vn 0.000000 1.000000 0.000000
vn -0.122901 0.953793 -0.274179
vn 0.000000 1.000000 0.000000
vn 0.000000 1.000000 0.000000
vn 0.000000 1.000000 0.000000
vn 0.000000 1.000000 0.000000
vn 0.000000 1.000000 0.000000
vn 0.000000 1.000000 0.000000
vn 0.000000 1.000000 0.000000
vn 0.000000 1.000000 0.000000
vn 0.000000 1.000000 0.000000
vn 0.000000 1.000000 0.000000
vn 0.000000 1.000000 0.000000
vn 0.000000 1.000000 0.000000
vn 0.000000 1.000000 0.000000
vn 0.000000 1.000000 0.000000
vn 0.000000 1.000000 0.000000
vn 0.000000 1.000000 0.000000
vn 0.000000 1.000000 0.000000
vn -0.122228 0.953229 0.276433
vn 0.000000 1.000000 0.000000
vn 0.000000 1.000000 0.000000
vn 0.000000 1.000000 0.000000
vn 0.000000 0.927037 0.374970
vn -0.122228 0.953229 0.276433
vn 0.000000 1.000000 0.000000
vn 0.000000 1.000000 0.000000
vn 0.000000 0.927037 0.374970
vn 0.000000 0.927037 0.374970
vn 0.000000 1.000000 0.000000
vn 0.000000 1.000000 0.000000
vn 0.000000 0.927037 0.374970
vn 0.000000 0.927037 0.374970
vn 0.000000 1.000000 0.000000
vn 0.000000 1.000000 0.000000
vn 0.000000 0.927037 0.374970
vn 0.000000 0.927037 0.374970
vn 0.000000 1.000000 0.000000
vn 0.000000 1.000000 0.000000
vn 0.000000 0.927037 0.374970
vn 0.000000 0.927037 0.374970
vn 0.000000 1.000000 0.000000
vn 0.000000 1.000000 0.000000
vn 0.000000 1.000000 0.000000
vn 0.000000 0.927037 0.374970
vn 0.000000 0.927037 0.374970
vn 0.000000 1.000000 0.000000
vn 0.000000 1.000000 0.000000
vn 0.000000 0.927037 0.374970
vn 0.000000 0.927037 0.374970
vn 0.000000 1.000000 0.000000
vn 0.000000 1.000000 0.000000
vn 0.000000 0.927037 0.374970
vn 0.000000 0.927037 0.374970
vn 0.000000 1.000000 0.000000
vn 0.000000 1.000000 0.000000
vn 0.000000 0.927037 0.374970
vn 0.000000 0.927037 0.374970
vn 0.000000 1.000000 0.000000
vn 0.000000 1.000000 0.000000
vn 0.122228 0.953229 0.276432
vn 0.000000 0.927037 0.374970
vn 0.000000 1.000000 0.000000
vn 0.000000 1.000000 0.000000
vn 0.000000 1.000000 0.000000
vn 0.122228 0.953229 0.276432
vn 0.000000 1.000000 0.000000
vn 0.000000 1.000000 0.000000
vn 0.000000 1.000000 0.000000
vn 0.000000 1.000000 0.000000
vn 0.000000 1.000000 0.000000
vn 0.000000 1.000000 0.000000
vn 0.000000 1.000000 0.000000
vn 0.000000 1.000000 0.000000
vn 0.000000 1.000000 0.000000
vn 0.000000 1.000000 0.000000
vn 0.000000 1.000000 0.000000
vn 0.000000 1.000000 0.000000
vn 0.000000 1.000000 0.000000
vn -0.737999 0.663470 -0.123145
vn 0.000000 1.000000 0.000000
vn 0.000000 1.000000 0.000000
vn -0.794958 0.606664 -0.000002
vn -0.516968 0.820767 -0.243076
vn -0.737999 0.663470 -0.123145
vn -0.794958 0.606664 -0.000002
vn -0.693247 0.720700 -0.000002
vn 0.000000 0.938830 -0.344382
vn -0.516968 0.820767 -0.243076
vn -0.693247 0.720700 -0.000002
vn 0.000000 1.000000 -0.000000
vn 0.000000 0.938830 -0.344382
vn 0.000000 0.938830 -0.344382
vn 0.000000 1.000000 -0.000000
vn 0.000000 1.000000 -0.000000
vn 0.000000 0.938830 -0.344382
vn 0.000000 0.938830 -0.344382
vn 0.000000 1.000000 -0.000000
vn 0.000000 1.000000 -0.000000
vn 0.000000 0.938830 -0.344382
vn 0.000000 0.938830 -0.344382
vn 0.000000 1.000000 -0.000000
vn 0.000000 1.000000 -0.000000
vn 0.000000 0.938830 -0.344382
vn 0.000000 0.938830 -0.344382
vn 0.000000 1.000000 -0.000000
vn 0.000000 1.000000 -0.000000
vn 0.000000 1.000000 -0.000000
vn 0.000000 0.938830 -0.344382
vn 0.000000 0.938830 -0.344382
vn 0.000000 1.000000 -0.000000
vn 0.000000 1.000000 -0.000000
vn 0.000000 0.938830 -0.344382
vn 0.000000 0.938830 -0.344382
vn 0.000000 1.000000 -0.000000
vn 0.000000 1.000000 -0.000000
vn 0.000000 0.938830 -0.344382
vn 0.000000 0.938830 -0.344382
vn 0.000000 1.000000 -0.000000
vn 0.000000 1.000000 -0.000000
vn 0.000000 0.938830 -0.344382
vn 0.000000 0.938830 -0.344382
vn 0.000000 1.000000 -0.000000
vn 0.693246 0.720701 -0.000000
vn 0.516967 0.820767 -0.243076
vn 0.000000 0.938830 -0.344382
vn 0.000000 1.000000 -0.000000
vn 0.794958 0.606665 -0.000000
vn 0.737998 0.663472 -0.123145
vn 0.516967 0.820767 -0.243076
vn 0.693246 0.720701 -0.000000
vn 0.000000 1.000000 0.000000
vn 0.000000 1.000000 0.000000
vn 0.737998 0.663472 -0.123145
vn 0.794958 0.606665 -0.000000
vn 0.000000 1.000000 0.000000
vn 0.000000 1.000000 0.000000
vn 0.000000 1.000000 0.000000
vn 0.000000 1.000000 0.000000
vn 0.516967 0.820767 -0.243076
vn 0.737998 0.663472 -0.123145
vn 0.122901 0.953793 -0.274179
vn 0.122228 0.953229 0.276432
vn 0.666456 0.704829 0.243006
vn 0.302619 0.835086 0.459405
vn -0.666456 0.704830 0.243006
vn -0.122228 0.953229 0.276433
vn -0.302619 0.835086 0.459406
vn -0.122901 0.953793 -0.274179
vn -0.737999 0.663470 -0.123145
vn -0.516968 0.820767 -0.243076
s off
f 25/35/1 76/274/2 77/271/3 4/2/4
f 69/161/5 70/163/6 5/5/7 3/4/8
f 5/9/9 70/162/10 71/165/11 7/12/12
f 82/186/13 83/188/14 14/232/15
f 9/17/16 12/18/17 84/191/18 85/192/19
f 83/189/20 84/190/21 12/22/22 14/23/23
f 80/266/24 81/263/25 15/48/26 31/41/27
f 27/37/28 72/166/29 73/279/30 17/60/31
f 29/39/32 74/278/33 75/275/34 19/56/35
f 78/270/36 79/267/37 21/52/38 23/33/39
f 77/272/40 78/269/41 23/63/42 4/15/43
f 19/29/44 75/276/45 76/273/46 25/61/47
f 7/7/48 71/164/49 72/230/50
f 17/27/51 73/280/52 74/277/53 29/53/54
f 79/268/55 80/265/56 31/49/57 21/31/58
f 81/264/59 82/233/60 33/45/61 15/25/62
f 60/144/63 61/287/64 93/252/65 94/249/66
f 86/193/67 87/195/68 67/159/69 68/160/70
f 66/157/71 67/158/72 87/194/73 88/197/74
f 55/236/75 100/220/76 54/132/77
f 52/129/78 53/131/79 101/223/80 102/224/81
f 100/221/82 101/222/83 53/130/84 54/133/85
f 97/244/86 98/241/87 56/296/88 57/293/89
f 64/282/90 65/227/91 89/260/92 90/257/93
f 62/286/94 63/283/95 91/256/96 92/253/97
f 95/248/98 96/245/99 58/292/100 59/289/101
f 94/250/102 95/247/103 59/290/104 60/262/105
f 61/288/106 62/285/107 92/254/108 93/251/109
f 65/155/110 66/156/111 88/226/112
f 63/284/113 64/281/114 90/258/115 91/255/116
f 96/246/117 97/243/118 57/294/119 58/291/120
f 98/242/121 99/239/122 55/135/123 56/295/124
f 39/81/125 40/82/126 53/131/127 52/129/128
f 54/133/129 53/130/130 40/86/131 41/87/132
f 55/236/133 54/132/134 41/78/135 51/79/136
f 56/136/137 55/235/138 51/126/139 42/127/140
f 57/138/141 56/137/142 42/90/143 50/91/144
f 58/140/145 57/139/146 50/122/147 45/123/148
f 59/142/149 58/141/150 45/102/151 46/103/152
f 60/145/153 59/143/154 46/106/155 36/107/156
f 47/65/157 61/146/158 60/261/159 36/68/160
f 44/109/161 62/148/162 61/147/163 47/112/164
f 49/97/165 63/150/166 62/149/167 44/100/168
f 43/117/169 64/152/170 63/151/171 49/120/172
f 48/93/173 65/154/174 64/153/175 43/96/176
f 38/113/177 66/156/178 65/155/179 48/116/180
f 37/73/181 67/158/182 66/157/183 38/76/184
f 68/160/185 67/159/186 37/71/187 35/72/188
f 1/1/189 6/6/190 70/163/191 69/161/192
f 71/165/193 70/162/194 6/10/195 8/11/196
f 72/230/197 71/164/198 8/8/199 28/38/200
f 73/169/201 72/229/202 28/58/203 18/28/204
f 74/171/205 73/168/206 18/59/207 30/40/208
f 75/173/209 74/170/210 30/54/211 20/30/212
f 76/175/213 75/172/214 20/55/215 26/36/216
f 77/176/217 76/174/218 26/62/219 2/3/220
f 24/34/221 78/179/222 77/177/223 2/16/224
f 22/32/225 79/181/226 78/178/227 24/64/228
f 32/42/229 80/183/230 79/180/231 22/51/232
f 16/26/233 81/185/234 80/182/235 32/50/236
f 34/44/237 82/187/238 81/184/239 16/47/240
f 13/13/241 83/188/242 82/186/243 34/46/244
f 11/21/245 84/190/246 83/189/247 13/24/248
f 85/192/249 84/191/250 11/19/251 10/20/252
f 3/69/253 5/70/254 87/195/255 86/193/256
f 88/197/257 87/194/258 5/74/259 7/75/260
f 89/199/261 88/225/262 7/114/263 27/115/264
f 90/201/265 89/198/266 27/94/267 17/95/268
f 91/203/269 90/200/270 17/118/271 29/119/272
f 92/205/273 91/202/274 29/98/275 19/99/276
f 93/207/277 92/204/278 19/110/279 25/111/280
f 94/208/281 93/206/282 25/66/283 4/67/284
f 23/105/285 95/211/286 94/209/287 4/108/288
f 21/101/289 96/213/290 95/210/291 23/104/292
f 31/121/293 97/215/294 96/212/295 21/124/296
f 15/89/297 98/217/298 97/214/299 31/92/300
f 33/125/301 99/219/302 98/216/303 15/128/304
f 14/77/305 100/237/306 99/218/307 33/80/308
f 12/85/309 101/222/310 100/221/311 14/88/312
f 102/224/313 101/223/314 12/83/315 9/84/316
f 99/240/317 100/238/318 55/134/319
f 82/234/320 14/14/321 33/43/322
f 7/231/323 72/167/324 27/57/325
f 65/228/326 88/196/327 89/259/328
