# This file uses meters as units for non-parametric coordinates.

v 5.030998 0.000000 5.020458
v 5.030998 0.385020 5.020458
v 5.030998 0.000000 3.662487
v 3.452591 0.000000 3.442020
v 3.452591 0.385020 3.442020
v 5.030998 0.385020 5.020458
v 5.030998 0.000000 5.020458
v 5.030998 0.385020 3.442020
v 5.030998 0.000000 3.442020
v 3.452591 0.385020 5.020458
v 3.452591 0.000000 5.020458
v 3.452629 0.000000 -5.020452
v 3.452629 0.385020 -5.020452
v 5.031036 0.385020 -5.020452
v 5.031036 0.000000 -5.020452
v -5.031036 0.000000 5.020458
v -5.031036 0.385020 5.020458
v -5.031036 0.385020 3.442020
v -5.031036 0.000000 3.442020
vt 0.145363 0.171132
vt 0.208915 0.169802
vt 0.208915 0.169802
vt 0.272297 0.171132
vt 0.480684 0.996556
vt 0.480684 0.990599
vt 0.208915 0.169802
vt 0.145363 0.171132
vt 0.480684 0.990065
vt 0.241058 0.990065
vt 0.272297 0.171132
vt 0.268843 0.171578
vt 0.208915 0.169802
vt 0.208915 0.169802
vt 0.241058 0.997090
vt 0.241058 0.990599
vt 0.241058 0.996556
vt 0.268843 0.171578
vt 0.241058 0.990599
vt 0.272297 0.171132
vt 0.241058 0.990065
vt 0.145363 0.171132
vt 0.145363 0.171132
vt 0.271933 0.171179
vt 0.208915 0.169802
vt 0.208915 0.169802
vt 0.268843 0.171578
vt 0.208915 0.169802
vt 0.208915 0.169802
vt 0.480684 0.997090
vt 0.480684 0.990599
vt 0.480684 0.990065
vt 0.351137 0.990065
vt 0.351137 0.990599
vt 0.351137 0.997090
vt 0.351137 0.996557
vt 0.351137 0.990599
vt 0.351137 0.990065
vt 0.370329 0.990065
vt 0.370329 0.996556
vt 0.370329 0.990599
vt 0.370329 0.990599
vt 0.370329 0.997090
vt 0.370329 0.990065
vt 0.171295 0.169852
vt 0.171295 0.169852
vt 0.171295 0.169852
vt 0.171295 0.169852
vt 0.171295 0.169852
vt 0.171295 0.169852
vt 0.171295 0.169852
vt 0.171295 0.169852
vn 0.000000 0.000000 1.000000
vn 0.000000 0.000000 1.000000
vn 0.000000 0.000000 0.000000
vn 0.000000 0.000000 0.000000
vn 0.000000 1.000000 0.000000
vn 0.000000 1.000000 0.000000
vn 0.000000 1.000000 0.000000
vn 0.000000 0.000000 1.000000
vn 0.000000 0.000000 1.000000
vn 0.000000 0.000000 1.000000
vn 0.000000 0.000000 1.000000
vn 0.000000 0.000000 0.000000
vn 0.000000 1.000000 0.000000
vn 0.000000 1.000000 0.000000
vn 0.000000 1.000000 0.000000
vn 1.000000 0.000000 0.000000
vn 1.000000 0.000000 0.000004
vn 1.000000 0.000000 0.000004
vn 1.000000 0.000000 0.000000
vn 1.000000 0.000000 0.000000
vn -1.000000 0.000000 -0.000005
vn -1.000000 0.000000 -0.000005
vn -0.236749 0.970567 -0.044159
vn -0.983046 0.000000 -0.183361
vn 0.000000 1.000000 0.000000
vn 0.000000 1.000000 0.000000
vn 0.236750 0.970567 -0.044157
vn -0.236749 0.970567 -0.044159
vn 1.000000 0.000000 0.000004
vn 1.000000 0.000000 0.000004
vn 0.983047 0.000000 -0.183352
vn 0.236750 0.970567 -0.044157
vn -0.044048 0.970572 0.236747
vn -0.182918 0.000000 0.983128
vn 0.000000 0.000000 1.000000
vn 0.000000 0.000000 1.000000
vn -0.044048 0.970572 -0.236747
vn -0.044048 0.970572 0.236747
vn 0.000000 1.000000 0.000000
vn 0.000000 1.000000 0.000000
vn -0.182918 0.000000 -0.983128
vn -0.044048 0.970572 -0.236747
vn 0.000000 0.000000 -1.000000
vn 0.000000 0.000000 -1.000000
vn 0.236750 0.970567 -0.044157
vn 0.983047 0.000000 -0.183352
vn -0.983046 0.000000 -0.183361
vn -0.236749 0.970567 -0.044159
vn -0.044048 0.970572 -0.236747
vn -0.182918 0.000000 -0.983128
vn -0.182918 0.000000 0.983128
vn -0.044048 0.970572 0.236747
s off
f 6/22/1 7/23/2 1/1/3 2/8/4
f 5/18/5 10/27/6 6/12/7
f 10/28/8 11/29/9 7/14/10 6/13/11
f 2/4/12 8/24/13 5/11/14 6/20/15
f 3/3/16 9/26/17 8/25/18 2/2/19 1/7/20
f 4/10/21 5/19/22 13/34/23 12/33/24
f 5/15/25 8/17/26 14/36/27 13/35/28
f 8/16/29 9/21/30 15/38/31 14/37/32
f 17/41/33 16/39/34 11/9/35 10/31/36
f 18/43/37 17/40/38 10/5/39 5/30/40
f 19/44/41 18/42/42 5/6/43 4/32/44
f 14/45/45 15/46/46 12/47/47 13/48/48
f 18/49/49 19/50/50 16/51/51 17/52/52
