# This file uses meters as units for non-parametric coordinates.

v 5.105030 0.444807 0.500000
v 5.105030 5.511133 0.500000
v -5.105030 5.955939 0.500000
v -5.105030 5.955939 -0.500000
v -5.105030 0.000000 0.500000
v -5.105030 0.000000 -0.500000
v 0.000000 0.444806 0.500000
v 0.000000 5.511133 0.500000
v -5.105030 2.977969 0.500000
v 0.000000 2.977969 0.500000
v 5.105030 2.977969 0.500000
v -2.552515 5.511133 0.500000
v -2.552515 2.977969 0.500000
v -2.552515 0.444806 0.500000
v 2.552515 0.444806 0.500000
v 2.552515 2.977969 0.500000
v 2.552515 5.511133 0.500000
v 0.000000 5.955939 0.500000
v 5.105030 5.955939 0.500000
v 5.105030 5.955939 -0.500000
v 0.000000 0.000000 0.500000
v 5.105030 0.000000 -0.500000
v 5.105030 0.000000 0.500000
vt 0.161530 0.060884
vt 0.135069 0.062682
vt 0.167871 0.062682
vt 0.135069 0.062682
vt 0.167871 0.062682
vt 0.164701 0.061783
vt 0.161530 0.060884
vt 0.161530 0.060884
vt 0.167871 0.062682
vt 0.135069 0.062682
vt 0.135069 0.062682
vt 0.167871 0.062682
vt 0.328398 0.219195
vt 0.167871 0.062682
vt 0.135069 0.062682
vt 0.161530 0.060884
vt 0.328398 0.219195
vt 0.167871 0.062682
vt 0.161530 0.060884
vt 0.135069 0.062682
vt 0.161530 0.060884
vt 0.161530 0.060884
vt 0.135069 0.062682
vt 0.161530 0.060884
vt 0.328398 0.219195
vt 0.328398 0.219195
vt 0.328398 0.219195
vt 0.167871 0.062682
vt 0.328398 0.219195
vt 0.161530 0.060884
vt 0.167871 0.062682
vt 0.167871 0.062682
vt 0.328398 0.219195
vt 0.328398 0.219195
vt 0.328398 0.219195
vt 0.161530 0.060884
vt 0.328398 0.219195
vt 0.161530 0.060884
vt 0.328398 0.219195
vt 0.328398 0.219195
vt 0.328398 0.219195
vt 0.161530 0.060884
vt 0.328398 0.219195
vt 0.328398 0.219195
vt 0.328398 0.219195
vt 0.328398 0.219195
vt 0.328398 0.219195
vt 0.161530 0.060884
vt 0.328398 0.219195
vt 0.161530 0.060884
vt 0.161530 0.060884
vt 0.328398 0.219195
vt 0.328398 0.219195
vt 0.328398 0.219195
vt 0.161530 0.060884
vt 0.328398 0.219195
vt 0.328398 0.219195
vt 0.195831 0.060884
vt 0.195831 0.060884
vt 0.195831 0.060884
vt 0.100768 0.060884
vt 0.100768 0.060884
vt 0.100768 0.060884
vt 0.100768 0.060884
vt 0.100768 0.060884
vt 0.195831 0.060884
vt 0.195831 0.060884
vt 0.167871 0.062682
vt 0.167871 0.062682
vt 0.167871 0.062682
vt 0.167871 0.062682
vt 0.167871 0.062682
vt 0.167871 0.062682
vt 0.167871 0.062682
vt 0.167871 0.062682
vt 0.135069 0.062682
vt 0.135069 0.062682
vt 0.135069 0.062682
vt 0.135069 0.062682
vt 0.135069 0.062682
vn 0.000000 1.000000 0.000000
vn 0.000000 1.000000 0.000000
vn 0.000000 1.000000 0.000000
vn 0.000000 1.000000 0.000000
vn 0.000000 1.000000 0.000000
vn -1.000000 0.000000 0.000000
vn -1.000000 0.000000 0.000000
vn -1.000000 0.000000 0.000000
vn -1.000000 0.000000 0.000000
vn -1.000000 0.000000 0.000000
vn 0.000000 -1.000000 0.000000
vn 0.000000 -1.000000 0.000000
vn 0.000000 -1.000000 0.000000
vn 0.503875 -0.863776 0.000000
vn 0.503875 -0.863776 0.000000
vn 0.000000 0.000000 1.000000
vn 0.000000 0.000000 1.000000
vn 0.000000 0.000000 1.000000
vn 0.000000 0.000000 1.000000
vn 0.000000 0.000000 1.000000
vn 0.000000 0.000000 1.000000
vn 0.000000 0.000000 1.000000
vn 0.000000 0.000000 1.000000
vn 0.000000 0.000000 1.000000
vn 0.000000 0.000000 1.000000
vn 0.000000 0.000000 1.000000
vn 0.000000 0.000000 1.000000
vn 0.000000 0.000000 1.000000
vn 0.000000 0.000000 1.000000
vn 0.000000 0.000000 1.000000
vn 0.000000 0.000000 1.000000
vn 0.000000 0.000000 1.000000
vn 0.000000 0.000000 1.000000
vn 0.000000 0.000000 1.000000
vn 0.000000 0.000000 1.000000
vn 0.000000 0.000000 1.000000
vn 0.000000 0.000000 1.000000
vn 0.000000 0.000000 1.000000
vn 0.000000 0.000000 1.000000
vn 0.000000 0.000000 1.000000
vn 0.000000 0.000000 1.000000
vn 0.000000 0.000000 1.000000
vn 0.000000 0.000000 1.000000
vn 0.000000 0.000000 1.000000
vn 0.000000 0.000000 1.000000
vn 0.000000 0.000000 1.000000
vn 0.000000 0.000000 1.000000
vn 0.000000 0.000000 1.000000
vn 0.000000 0.000000 1.000000
vn 0.000000 0.000000 1.000000
vn 0.000000 0.000000 1.000000
vn 0.000000 0.000000 1.000000
vn 0.000000 0.000000 1.000000
vn 0.000000 0.000000 1.000000
vn 0.000000 0.000000 1.000000
vn 0.000000 0.000000 1.000000
vn 0.000000 0.000000 1.000000
vn 0.000000 0.000000 1.000000
vn 0.000000 0.000000 1.000000
vn 0.000000 0.000000 1.000000
vn 0.000000 0.000000 1.000000
vn 0.000000 0.000000 1.000000
vn 0.000000 0.000000 1.000000
vn 0.000000 0.000000 1.000000
vn 0.000000 0.000000 1.000000
vn 0.000000 0.000000 1.000000
vn 0.000000 0.000000 1.000000
vn 0.000000 0.000000 1.000000
vn 0.000000 0.000000 1.000000
vn 0.000000 0.000000 1.000000
vn 0.000000 0.000000 1.000000
vn 0.000000 0.000000 -1.000000
vn 0.000000 0.000000 -1.000000
vn 0.000000 0.000000 -1.000000
vn 0.000000 0.000000 -1.000000
vn 0.503875 -0.863776 0.000000
vn 1.000000 0.000000 0.000000
vn 1.000000 0.000000 0.000000
vn 1.000000 0.000000 0.000000
vn 1.000000 0.000000 0.000000
vn 1.000000 0.000000 0.000000
vn 0.503875 -0.863776 0.000000
vn 0.000000 0.000000 1.000000
vn 0.000000 0.000000 1.000000
vn 0.000000 0.000000 1.000000
vn 0.000000 0.000000 1.000000
vn 0.000000 0.000000 1.000000
vn 0.000000 0.000000 1.000000
vn 0.000000 0.000000 1.000000
vn 0.000000 0.000000 1.000000
vn 0.000000 0.000000 1.000000
vn 0.000000 0.000000 1.000000
vn 0.000000 0.000000 1.000000
vn 0.000000 0.000000 1.000000
vn 0.000000 0.000000 1.000000
vn 0.000000 0.000000 1.000000
s off
f 4/58/1 3/59/2 18/60/3 19/66/4 20/67/5
f 9/2/6 3/4/7 4/10/8 6/11/9 5/15/10
f 21/61/11 5/64/12 6/65/13 22/62/14 23/63/15
f 8/50/16 13/48/17 10/21/18
f 17/44/19 10/39/20 16/34/21
f 13/48/22 7/16/23 10/21/24
f 15/27/25 16/33/26 10/40/27
f 9/52/28 13/46/29 12/57/30
f 9/53/31 14/26/32 13/45/33
f 11/22/34 16/36/35 1/1/36
f 2/38/37 16/36/38 11/22/39
f 9/51/40 12/24/41 3/8/42
f 5/7/43 14/55/44 9/19/45
f 12/56/46 13/47/47 8/17/48
f 13/25/49 14/54/50 7/49/51
f 8/50/52 10/21/53 17/30/54
f 15/42/55 10/21/56 7/16/57
f 17/43/58 16/35/59 2/13/60
f 1/37/61 16/29/62 15/41/63
f 12/5/64 8/9/65 18/12/66 3/14/67
f 18/12/68 8/9/69 17/18/70 19/32/71
f 4/3/72 20/31/73 22/71/74 6/6/75
f 22/20/76 20/23/77 19/76/78 2/77/79 11/78/80 1/79/81 23/80/82
f 21/70/83 7/68/84 14/69/85 5/74/86
f 23/73/87 1/75/88 15/72/89
f 19/32/90 17/18/91 2/28/92
f 23/73/93 15/72/94 7/68/95 21/70/96
