# This file uses meters as units for non-parametric coordinates.

v 4.198793 0.000000 -1.303947
v -4.198793 0.000000 -1.303947
v 4.198793 1.862951 -1.303947
v -4.198793 1.862951 -1.303947
v 4.198793 1.862951 1.303951
v -4.198793 1.862951 1.303951
v 4.198793 0.000000 1.303951
v -4.198793 0.000000 1.303951
v 3.469517 0.514393 -1.303947
v -3.469518 0.352332 -1.303947
v -3.469518 1.510619 -1.303947
v 3.469517 1.348559 -1.303947
v 3.469517 1.348559 1.303951
v -3.469518 1.510619 1.303951
v -3.469518 0.352332 1.303951
v 3.469517 0.514393 1.303951
v -1.387804 1.510619 -1.303947
v -1.387804 0.352332 -1.303947
v -1.387804 1.510619 1.303951
v -1.387804 0.352332 1.303951
v -0.902069 1.348559 1.303951
v -0.902069 0.514393 1.303951
v -0.902069 1.348559 -1.303947
v -0.902069 0.514393 -1.303947
v 3.469517 1.014892 -1.303947
v -0.902069 1.014892 -1.303947
v 3.469517 0.864742 -1.303947
v -0.902069 0.864742 -1.303947
v -0.902069 1.014892 1.303951
v 3.469517 1.014892 1.303951
v -0.902069 0.864742 1.303951
v 3.469517 0.864742 1.303951
vt 0.169087 0.153730
vt 0.202895 0.153730
vt 0.236703 0.153730
vt 0.169087 0.153730
vt 0.201427 0.155461
vt 0.236703 0.153730
vt 0.141108 0.153730
vt 0.202895 0.153730
vt 0.141108 0.153730
vt 0.141108 0.153730
vt 0.169087 0.153730
vt 0.169087 0.153730
vt 0.169087 0.153730
vt 0.169087 0.153730
vt 0.236703 0.153730
vt 0.202895 0.153730
vt 0.202895 0.153730
vt 0.236703 0.153730
vt 0.141108 0.153730
vt 0.202895 0.153730
vt 0.169087 0.153730
vt 0.202895 0.153730
vt 0.202895 0.153730
vt 0.169087 0.153730
vt 0.142937 0.473155
vt 0.202895 0.153730
vt 0.202895 0.153730
vt 0.202895 0.153730
vt 0.142937 0.473155
vt 0.202895 0.153730
vt 0.202895 0.153730
vt 0.202895 0.153730
vt 0.201427 0.155461
vt 0.202895 0.153730
vt 0.202895 0.153730
vt 0.142937 0.473155
vt 0.202895 0.153730
vt 0.142937 0.473155
vt 0.202895 0.153730
vt 0.201427 0.155461
vt 0.142937 0.473155
vt 0.202895 0.153730
vt 0.201427 0.155461
vt 0.202895 0.153730
vt 0.202895 0.153730
vt 0.202895 0.153730
vt 0.202895 0.153730
vt 0.142937 0.473155
vt 0.202895 0.153730
vt 0.142937 0.473155
vt 0.202895 0.153730
vt 0.202895 0.153730
vt 0.142937 0.473155
vt 0.202895 0.153730
vt 0.202895 0.153730
vt 0.202895 0.153730
vt 0.202895 0.153730
vt 0.142937 0.473155
vt 0.201427 0.155461
vt 0.202895 0.153730
vt 0.201427 0.155461
vt 0.201427 0.155461
vt 0.202895 0.153730
vt 0.142937 0.473155
vt 0.201427 0.155461
vt 0.201427 0.155461
vt 0.202895 0.153730
vt 0.142937 0.473155
vt 0.202895 0.153730
vt 0.142937 0.473155
vt 0.201427 0.155461
vt 0.202895 0.153730
vt 0.201427 0.155461
vt 0.142937 0.473155
vt 0.142937 0.473155
vt 0.201427 0.155461
vt 0.142937 0.473155
vt 0.201427 0.155461
vt 0.201427 0.155461
vt 0.142937 0.473155
vt 0.202895 0.153730
vt 0.142937 0.473155
vt 0.201427 0.155461
vt 0.142937 0.473155
vt 0.202895 0.153730
vt 0.142937 0.473155
vt 0.201427 0.155461
vt 0.201427 0.155461
vt 0.201427 0.155461
vt 0.201427 0.155461
vt 0.202895 0.153730
vt 0.142937 0.473155
vt 0.142937 0.473155
vt 0.201427 0.155461
vt 0.202895 0.153730
vt 0.201427 0.155461
vt 0.201427 0.155461
vt 0.142937 0.473155
vt 0.142937 0.473155
vt 0.201427 0.155461
vt 0.201427 0.155461
vt 0.142937 0.473155
vt 0.201427 0.155461
vt 0.201427 0.155461
vn -0.000000 0.000000 -1.000000
vn -0.000000 0.000000 -1.000000
vn 0.000000 0.000000 -1.000000
vn 0.000000 0.000000 -1.000000
vn 0.000000 1.000000 0.000000
vn 0.000000 1.000000 0.000000
vn 0.000000 1.000000 0.000000
vn 0.000000 1.000000 0.000000
vn 0.000000 0.000000 1.000000
vn -0.000000 0.000000 1.000000
vn -0.000000 0.000000 1.000000
vn 0.000000 0.000000 1.000000
vn 0.000000 -1.000000 0.000000
vn 0.000000 -1.000000 0.000000
vn 0.000000 -1.000000 0.000000
vn 0.000000 -1.000000 0.000000
vn -1.000000 0.000000 0.000000
vn -1.000000 0.000000 0.000000
vn -1.000000 0.000000 0.000000
vn -1.000000 0.000000 0.000000
vn 1.000000 0.000000 0.000000
vn 1.000000 0.000000 0.000000
vn 1.000000 0.000000 0.000000
vn 1.000000 0.000000 0.000000
vn 0.000000 0.000000 -1.000000
vn 0.000000 0.000000 -1.000000
vn 0.000000 0.000000 -1.000000
vn 0.000000 0.000000 -1.000000
vn 0.000000 0.000000 -1.000000
vn 0.000000 0.000000 -1.000000
vn 0.000000 0.000000 -1.000000
vn 0.000000 0.000000 -1.000000
vn 0.000000 0.000000 -1.000000
vn 0.000000 0.000000 -1.000000
vn 0.000000 0.000000 -1.000000
vn 0.000000 0.000000 -1.000000
vn 0.000000 0.000000 -1.000000
vn 0.000000 0.000000 -1.000000
vn 0.000000 0.000000 -1.000000
vn 0.000000 0.000000 -1.000000
vn 0.000000 0.000000 -1.000000
vn 0.000000 0.000000 -1.000000
vn 0.000000 0.000000 -1.000000
vn 0.000000 0.000000 -1.000000
vn 0.000000 0.000000 -1.000000
vn 0.000000 0.000000 -1.000000
vn 0.000000 0.000000 1.000000
vn 0.000000 0.000000 1.000000
vn 0.000000 0.000000 1.000000
vn 0.000000 0.000000 1.000000
vn 0.000000 0.000000 1.000000
vn 0.000000 0.000000 1.000000
vn 0.000000 0.000000 1.000000
vn 0.000000 0.000000 1.000000
vn 0.000000 0.000000 1.000000
vn 0.000000 0.000000 1.000000
vn 0.000000 0.000000 1.000000
vn 0.000000 0.000000 1.000000
vn 0.000000 0.000000 1.000000
vn 0.000000 0.000000 1.000000
vn 0.000000 0.000000 1.000000
vn 0.000000 0.000000 1.000000
vn 0.000000 0.000000 1.000000
vn 0.000000 0.000000 1.000000
vn 0.000000 0.000000 1.000000
vn 0.000000 0.000000 1.000000
vn 0.000000 0.000000 1.000000
vn 0.000000 0.000000 1.000000
vn -0.000000 0.000000 -1.000000
vn -0.000000 0.000000 -1.000000
vn -0.000000 0.000000 -1.000000
vn -0.000000 0.000000 -1.000000
vn -0.000000 0.000000 -1.000000
vn -0.000000 0.000000 -1.000000
vn -0.000000 0.000000 1.000000
vn -0.000000 0.000000 1.000000
vn 0.000000 0.000000 1.000000
vn 0.000000 0.000000 1.000000
vn -0.000000 0.000000 1.000000
vn -0.000000 0.000000 1.000000
vn -0.000000 0.000000 1.000000
vn -0.000000 0.000000 1.000000
vn -0.000000 0.000000 1.000000
vn -0.000000 0.000000 1.000000
vn 0.000000 0.000000 -1.000000
vn -0.000000 0.000000 -1.000000
vn -0.000000 0.000000 -1.000000
vn 0.000000 0.000000 -1.000000
vn 0.000000 0.000000 -1.000000
vn -0.000000 0.000000 -1.000000
vn -0.000000 0.000000 -1.000000
vn 0.000000 0.000000 -1.000000
vn 0.000000 0.000000 -1.000000
vn -0.000000 0.000000 -1.000000
vn -0.000000 0.000000 -1.000000
vn 0.000000 0.000000 -1.000000
vn 0.000000 0.000000 1.000000
vn -0.000000 0.000000 1.000000
vn -0.000000 0.000000 1.000000
vn 0.000000 0.000000 1.000000
vn 0.000000 0.000000 1.000000
vn -0.000000 0.000000 1.000000
vn -0.000000 0.000000 1.000000
vn 0.000000 0.000000 1.000000
s off
f 17/58/1 18/75/2 10/53/3 11/50/4
f 3/3/5 4/15/6 6/6/7 5/18/8
f 13/29/9 21/77/10 29/99/11 30/92/12
f 7/7/13 8/19/14 2/10/15 1/9/16
f 2/21/17 8/11/18 6/12/19 4/4/20
f 7/13/21 1/1/22 3/24/23 5/14/24
f 1/23/25 2/55/26 10/52/27 18/60/28 24/72/29 9/45/30
f 2/2/31 4/54/32 11/49/33 10/26/34
f 4/22/35 3/51/36 12/47/37 23/69/38 17/57/39 11/27/40
f 3/17/41 1/56/42 9/46/43 27/85/44 25/81/45 12/28/46
f 5/5/47 6/43/48 14/40/49 19/62/50 21/66/51 13/33/52
f 6/16/53 8/42/54 15/37/55 14/30/56
f 8/8/57 7/39/58 16/35/59 22/67/60 20/63/61 15/31/62
f 7/20/63 5/44/64 13/34/65 30/91/66 32/95/67 16/32/68
f 23/73/69 26/83/70 28/87/71 24/71/72 18/59/73 17/76/74
f 20/64/75 19/80/76 14/41/77 15/38/78
f 22/78/79 31/94/80 29/90/81 21/65/82 19/61/83 20/79/84
f 25/82/85 26/84/86 23/70/87 12/48/88
f 27/101/89 28/88/90 26/104/91 25/103/92
f 9/25/93 24/74/94 28/102/95 27/86/96
f 30/100/97 29/89/98 31/97/99 32/96/100
f 32/98/101 31/93/102 22/68/103 16/36/104
