# This file uses meters as units for non-parametric coordinates.

v 4.198793 0.000000 -1.303947
v -4.198793 0.000000 -1.303947
v 4.198793 1.862951 -1.303947
v -4.198793 1.862951 -1.303947
v 4.198793 1.862951 1.303951
v -4.198793 1.862951 1.303951
v 4.198793 0.000000 1.303951
v -4.198793 0.000000 1.303951
v 1.540352 0.352332 -1.303947
v -1.540352 0.352332 -1.303947
v -1.540352 1.510619 -1.303947
v 1.540352 1.510619 -1.303947
v 1.540352 1.510619 1.303951
v -1.540352 1.510619 1.303951
v -1.540352 0.352332 1.303951
v 1.540352 0.352332 1.303951
vt 0.137323 0.063461
vt 0.171131 0.063461
vt 0.204939 0.063461
vt 0.137323 0.063461
vt 0.171131 0.063461
vt 0.204939 0.063461
vt 0.109344 0.063461
vt 0.171131 0.063461
vt 0.109344 0.063461
vt 0.109344 0.063461
vt 0.137323 0.063461
vt 0.137323 0.063461
vt 0.137323 0.063461
vt 0.137323 0.063461
vt 0.204939 0.063461
vt 0.171131 0.063461
vt 0.171131 0.063461
vt 0.204939 0.063461
vt 0.109344 0.063461
vt 0.171131 0.063461
vt 0.137323 0.063461
vt 0.171131 0.063461
vt 0.171131 0.063461
vt 0.137323 0.063461
vt 0.358728 0.473155
vt 0.171131 0.063461
vt 0.171131 0.063461
vt 0.171131 0.063461
vt 0.358728 0.473155
vt 0.171131 0.063461
vt 0.171131 0.063461
vt 0.171131 0.063461
vt 0.171131 0.063461
vt 0.171131 0.063461
vt 0.171131 0.063461
vt 0.358728 0.473155
vt 0.171131 0.063461
vt 0.358728 0.473155
vt 0.171131 0.063461
vt 0.171131 0.063461
vt 0.358728 0.473155
vt 0.171131 0.063461
vt 0.171131 0.063461
vt 0.171131 0.063461
vt 0.171131 0.063461
vt 0.171131 0.063461
vt 0.171131 0.063461
vt 0.358728 0.473155
vt 0.171131 0.063461
vt 0.358728 0.473155
vt 0.171131 0.063461
vt 0.171131 0.063461
vt 0.358728 0.473155
vt 0.171131 0.063461
vt 0.171131 0.063461
vt 0.171131 0.063461
vn 0.000000 0.000000 -1.000000
vn 0.000000 0.000000 -1.000000
vn 0.000000 0.000000 -1.000000
vn 0.000000 0.000000 -1.000000
vn 0.000000 1.000000 0.000000
vn 0.000000 1.000000 0.000000
vn 0.000000 1.000000 0.000000
vn 0.000000 1.000000 0.000000
vn 0.000000 0.000000 1.000000
vn 0.000000 0.000000 1.000000
vn 0.000000 0.000000 1.000000
vn 0.000000 0.000000 1.000000
vn 0.000000 -1.000000 0.000000
vn 0.000000 -1.000000 0.000000
vn 0.000000 -1.000000 0.000000
vn 0.000000 -1.000000 0.000000
vn -1.000000 0.000000 0.000000
vn -1.000000 0.000000 0.000000
vn -1.000000 0.000000 0.000000
vn -1.000000 0.000000 0.000000
vn 1.000000 0.000000 0.000000
vn 1.000000 0.000000 0.000000
vn 1.000000 0.000000 0.000000
vn 1.000000 0.000000 0.000000
vn 0.000000 0.000000 -1.000000
vn 0.000000 0.000000 -1.000000
vn 0.000000 0.000000 -1.000000
vn 0.000000 0.000000 -1.000000
vn 0.000000 0.000000 -1.000000
vn 0.000000 0.000000 -1.000000
vn 0.000000 0.000000 -1.000000
vn 0.000000 0.000000 -1.000000
vn 0.000000 0.000000 -1.000000
vn 0.000000 0.000000 -1.000000
vn 0.000000 0.000000 -1.000000
vn 0.000000 0.000000 -1.000000
vn -0.000000 0.000000 -1.000000
vn -0.000000 0.000000 -1.000000
vn -0.000000 0.000000 -1.000000
vn -0.000000 0.000000 -1.000000
vn 0.000000 0.000000 1.000000
vn 0.000000 0.000000 1.000000
vn 0.000000 0.000000 1.000000
vn 0.000000 0.000000 1.000000
vn 0.000000 0.000000 1.000000
vn 0.000000 0.000000 1.000000
vn 0.000000 0.000000 1.000000
vn 0.000000 0.000000 1.000000
vn 0.000000 0.000000 1.000000
vn 0.000000 0.000000 1.000000
vn 0.000000 0.000000 1.000000
vn 0.000000 0.000000 1.000000
vn -0.000000 0.000000 1.000000
vn -0.000000 0.000000 1.000000
vn -0.000000 0.000000 1.000000
vn -0.000000 0.000000 1.000000
s off
f 9/25/1 10/53/2 11/50/3 12/48/4
f 3/3/5 4/15/6 6/6/7 5/18/8
f 13/29/9 14/41/10 15/38/11 16/36/12
f 7/7/13 8/19/14 2/10/15 1/9/16
f 2/21/17 8/11/18 6/12/19 4/4/20
f 7/13/21 1/1/22 3/24/23 5/14/24
f 1/23/25 2/55/26 10/52/27 9/45/28
f 2/2/29 4/54/30 11/49/31 10/26/32
f 4/22/33 3/51/34 12/47/35 11/27/36
f 3/17/37 1/56/38 9/46/39 12/28/40
f 5/5/41 6/43/42 14/40/43 13/33/44
f 6/16/45 8/42/46 15/37/47 14/30/48
f 8/8/49 7/39/50 16/35/51 15/31/52
f 7/20/53 5/44/54 13/34/55 16/32/56
