# This file uses meters as units for non-parametric coordinates.

v -3.232405 0.000000 3.232409
v 3.232405 0.000000 3.232409
v -3.232405 1.213745 3.232409
v 3.232405 1.213745 3.232409
v -3.232405 1.213745 -3.232409
v 3.232405 1.213745 -3.232409
v -3.232405 0.000000 -3.232409
v 3.232405 0.000000 -3.232409
v 2.383516 1.131652 2.956917
v 2.956918 1.131652 2.956917
v 2.383516 1.965963 2.956917
v 2.956918 1.965963 2.956917
v 2.383516 1.965963 2.383514
v 2.956918 1.965963 2.383514
v 2.383516 1.131652 2.383514
v 2.956918 1.131652 2.383514
v 2.383516 1.131652 -2.383514
v 2.956918 1.131652 -2.383514
v 2.383516 1.965963 -2.383514
v 2.956918 1.965963 -2.383514
v 2.383516 1.965963 -2.956917
v 2.956918 1.965963 -2.956917
v 2.383516 1.131652 -2.956917
v 2.956918 1.131652 -2.956917
v -2.956914 1.131652 -2.383514
v -2.383512 1.131652 -2.383514
v -2.956914 1.965963 -2.383514
v -2.383512 1.965963 -2.383514
v -2.956914 1.965963 -2.956917
v -2.383512 1.965963 -2.956917
v -2.956914 1.131652 -2.956917
v -2.383512 1.131652 -2.956917
v -2.956914 1.131652 2.956917
v -2.383512 1.131652 2.956917
v -2.956914 1.965963 2.956917
v -2.383512 1.965963 2.956917
v -2.956914 1.965963 2.383514
v -2.383512 1.965963 2.383514
v -2.956914 1.131652 2.383514
v -2.383512 1.131652 2.383514
v -3.561774 1.864410 3.519405
v 3.561737 1.864410 3.519405
v -3.561774 2.549755 3.519405
v 3.561737 2.549755 3.519405
v -3.561774 2.549755 -3.519590
v 3.561737 2.549755 -3.519590
v -3.561774 1.864410 -3.519590
v 3.561737 1.864410 -3.519590
v -2.967048 2.549755 2.881300
v 2.967052 2.549755 2.881300
v 2.967052 2.549755 -2.881486
v -2.967048 2.549755 -2.881486
v -2.967048 2.046505 2.881300
v 2.967052 2.046505 2.881300
v 2.967052 2.046505 -2.881486
v -2.967048 2.046505 -2.881486
v 1.858498 2.202323 -2.881486
v 1.858498 2.202323 -3.519590
v -1.858549 2.202323 -2.881486
v -1.858549 2.202323 -3.519590
v -1.858549 2.549755 -2.881486
v -1.858549 2.549755 -3.519590
v 1.858498 2.549755 -2.881486
v 1.858498 2.549755 -3.519590
vt 0.208064 0.064311
vt 0.241872 0.064311
vt 0.275680 0.064311
vt 0.208064 0.064311
vt 0.241872 0.064311
vt 0.275680 0.064311
vt 0.180085 0.064311
vt 0.241872 0.064311
vt 0.180085 0.064311
vt 0.180085 0.064311
vt 0.208064 0.064311
vt 0.208064 0.064311
vt 0.208064 0.064311
vt 0.208064 0.064311
vt 0.275680 0.064311
vt 0.241872 0.064311
vt 0.241872 0.064311
vt 0.275680 0.064311
vt 0.180085 0.064311
vt 0.241872 0.064311
vt 0.208064 0.064311
vt 0.241872 0.064311
vt 0.241872 0.064311
vt 0.208064 0.064311
vt 0.268431 0.084731
vt 0.268431 0.084731
vt 0.268431 0.084731
vt 0.268431 0.084731
vt 0.302239 0.084731
vt 0.302239 0.084731
vt 0.302239 0.084731
vt 0.302239 0.084731
vt 0.268431 0.084731
vt 0.268431 0.084731
vt 0.268431 0.084731
vt 0.268431 0.084731
vt 0.206644 0.084731
vt 0.206644 0.084731
vt 0.206644 0.084731
vt 0.206644 0.084731
vt 0.234623 0.084731
vt 0.234623 0.084731
vt 0.234623 0.084731
vt 0.234623 0.084731
vt 0.234623 0.084731
vt 0.234623 0.084731
vt 0.234623 0.084731
vt 0.234623 0.084731
vt 0.268431 0.084731
vt 0.268431 0.084731
vt 0.268431 0.084731
vt 0.268431 0.084731
vt 0.302239 0.084731
vt 0.302239 0.084731
vt 0.302239 0.084731
vt 0.302239 0.084731
vt 0.268431 0.084731
vt 0.268431 0.084731
vt 0.268431 0.084731
vt 0.268431 0.084731
vt 0.206644 0.084731
vt 0.206644 0.084731
vt 0.206644 0.084731
vt 0.206644 0.084731
vt 0.234623 0.084731
vt 0.234623 0.084731
vt 0.234623 0.084731
vt 0.234623 0.084731
vt 0.234623 0.084731
vt 0.234623 0.084731
vt 0.234623 0.084731
vt 0.234623 0.084731
vt 0.268431 0.084731
vt 0.268431 0.084731
vt 0.268431 0.084731
vt 0.268431 0.084731
vt 0.302239 0.084731
vt 0.302239 0.084731
vt 0.302239 0.084731
vt 0.302239 0.084731
vt 0.268431 0.084731
vt 0.268431 0.084731
vt 0.268431 0.084731
vt 0.268431 0.084731
vt 0.206644 0.084731
vt 0.206644 0.084731
vt 0.206644 0.084731
vt 0.206644 0.084731
vt 0.234623 0.084731
vt 0.234623 0.084731
vt 0.234623 0.084731
vt 0.234623 0.084731
vt 0.234623 0.084731
vt 0.234623 0.084731
vt 0.234623 0.084731
vt 0.234623 0.084731
vt 0.268431 0.084731
vt 0.268431 0.084731
vt 0.268431 0.084731
vt 0.268431 0.084731
vt 0.302239 0.084731
vt 0.302239 0.084731
vt 0.302239 0.084731
vt 0.302239 0.084731
vt 0.268431 0.084731
vt 0.268431 0.084731
vt 0.268431 0.084731
vt 0.268431 0.084731
vt 0.206644 0.084731
vt 0.206644 0.084731
vt 0.206644 0.084731
vt 0.206644 0.084731
vt 0.234623 0.084731
vt 0.234623 0.084731
vt 0.234623 0.084731
vt 0.234623 0.084731
vt 0.234623 0.084731
vt 0.234623 0.084731
vt 0.234623 0.084731
vt 0.234623 0.084731
vt 0.363463 0.062047
vt 0.363463 0.062047
vt 0.363463 0.062047
vt 0.363463 0.062047
vt 0.364380 0.062267
vt 0.364380 0.062267
vt 0.364380 0.062267
vt 0.364380 0.062267
vt 0.294398 0.062267
vt 0.294398 0.062267
vt 0.294398 0.062267
vt 0.294398 0.062267
vt 0.398188 0.062267
vt 0.398188 0.062267
vt 0.398188 0.062267
vt 0.398188 0.062267
vt 0.398188 0.062267
vt 0.398188 0.062267
vt 0.398188 0.062267
vt 0.398188 0.062267
vt 0.398188 0.062267
vt 0.398188 0.062267
vt 0.398188 0.062267
vt 0.398188 0.062267
vt 0.398188 0.062267
vt 0.398188 0.062267
vt 0.398188 0.062267
vt 0.398188 0.062267
vt 0.326219 0.062047
vt 0.326219 0.062047
vt 0.326219 0.062047
vt 0.326219 0.062047
vt 0.297440 0.061852
vt 0.297440 0.061852
vt 0.297440 0.061852
vt 0.297440 0.061852
vt 0.326219 0.062047
vt 0.326219 0.062047
vt 0.326219 0.062047
vt 0.326219 0.062047
vt 0.297440 0.061852
vt 0.297440 0.061852
vt 0.297440 0.061852
vt 0.297440 0.061852
vt 0.296161 0.062267
vt 0.296161 0.062267
vt 0.296161 0.062267
vt 0.296161 0.062267
vt 0.398188 0.062267
vt 0.398188 0.062267
vt 0.398188 0.062267
vt 0.398188 0.062267
vt 0.296161 0.062267
vt 0.296161 0.062267
vt 0.296161 0.062267
vt 0.296161 0.062267
vt 0.398188 0.062267
vt 0.398188 0.062267
vt 0.398188 0.062267
vt 0.398188 0.062267
vt 0.364380 0.062267
vt 0.364380 0.062267
vt 0.364380 0.062267
vt 0.364380 0.062267
vt 0.326219 0.062047
vt 0.326219 0.062047
vt 0.326219 0.062047
vt 0.326219 0.062047
vt 0.326219 0.062047
vt 0.326219 0.062047
vt 0.326219 0.062047
vt 0.326219 0.062047
vt 0.364380 0.062267
vt 0.364380 0.062267
vt 0.364380 0.062267
vt 0.364380 0.062267
vt 0.321277 0.061632
vt 0.321277 0.061632
vt 0.321277 0.061632
vt 0.321277 0.061632
vt 0.321277 0.061632
vt 0.321277 0.061632
vt 0.321277 0.061632
vt 0.321277 0.061632
vn 0.000000 0.000000 1.000000
vn 0.000000 0.000000 1.000000
vn 0.000000 0.000000 1.000000
vn 0.000000 0.000000 1.000000
vn 0.000000 1.000000 0.000000
vn 0.000000 1.000000 0.000000
vn 0.000000 1.000000 0.000000
vn 0.000000 1.000000 0.000000
vn 0.000000 0.000000 -1.000000
vn 0.000000 0.000000 -1.000000
vn 0.000000 0.000000 -1.000000
vn 0.000000 0.000000 -1.000000
vn 0.000000 -1.000000 0.000000
vn 0.000000 -1.000000 0.000000
vn 0.000000 -1.000000 0.000000
vn 0.000000 -1.000000 0.000000
vn 1.000000 0.000000 0.000000
vn 1.000000 0.000000 0.000000
vn 1.000000 0.000000 0.000000
vn 1.000000 0.000000 0.000000
vn -1.000000 0.000000 0.000000
vn -1.000000 0.000000 0.000000
vn -1.000000 0.000000 0.000000
vn -1.000000 0.000000 0.000000
vn 0.000000 0.000000 1.000000
vn 0.000000 0.000000 1.000000
vn 0.000000 0.000000 1.000000
vn 0.000000 0.000000 1.000000
vn 0.000000 1.000000 0.000000
vn 0.000000 1.000000 0.000000
vn 0.000000 1.000000 0.000000
vn 0.000000 1.000000 0.000000
vn 0.000000 0.000000 -1.000000
vn 0.000000 0.000000 -1.000000
vn 0.000000 0.000000 -1.000000
vn 0.000000 0.000000 -1.000000
vn 0.000000 -1.000000 0.000000
vn 0.000000 -1.000000 0.000000
vn 0.000000 -1.000000 0.000000
vn 0.000000 -1.000000 0.000000
vn 1.000000 0.000000 0.000000
vn 1.000000 0.000000 0.000000
vn 1.000000 0.000000 0.000000
vn 1.000000 0.000000 0.000000
vn -1.000000 0.000000 0.000000
vn -1.000000 0.000000 0.000000
vn -1.000000 0.000000 0.000000
vn -1.000000 0.000000 0.000000
vn 0.000000 0.000000 1.000000
vn 0.000000 0.000000 1.000000
vn 0.000000 0.000000 1.000000
vn 0.000000 0.000000 1.000000
vn 0.000000 1.000000 0.000000
vn 0.000000 1.000000 0.000000
vn 0.000000 1.000000 0.000000
vn 0.000000 1.000000 0.000000
vn 0.000000 0.000000 -1.000000
vn 0.000000 0.000000 -1.000000
vn 0.000000 0.000000 -1.000000
vn 0.000000 0.000000 -1.000000
vn 0.000000 -1.000000 0.000000
vn 0.000000 -1.000000 0.000000
vn 0.000000 -1.000000 0.000000
vn 0.000000 -1.000000 0.000000
vn 1.000000 0.000000 0.000000
vn 1.000000 0.000000 0.000000
vn 1.000000 0.000000 0.000000
vn 1.000000 0.000000 0.000000
vn -1.000000 0.000000 0.000000
vn -1.000000 0.000000 0.000000
vn -1.000000 0.000000 0.000000
vn -1.000000 0.000000 0.000000
vn 0.000000 0.000000 1.000000
vn 0.000000 0.000000 1.000000
vn 0.000000 0.000000 1.000000
vn 0.000000 0.000000 1.000000
vn 0.000000 1.000000 0.000000
vn 0.000000 1.000000 0.000000
vn 0.000000 1.000000 0.000000
vn 0.000000 1.000000 0.000000
vn 0.000000 0.000000 -1.000000
vn 0.000000 0.000000 -1.000000
vn 0.000000 0.000000 -1.000000
vn 0.000000 0.000000 -1.000000
vn 0.000000 -1.000000 0.000000
vn 0.000000 -1.000000 0.000000
vn 0.000000 -1.000000 0.000000
vn 0.000000 -1.000000 0.000000
vn 1.000000 0.000000 0.000000
vn 1.000000 0.000000 0.000000
vn 1.000000 0.000000 0.000000
vn 1.000000 0.000000 0.000000
vn -1.000000 0.000000 0.000000
vn -1.000000 0.000000 0.000000
vn -1.000000 0.000000 0.000000
vn -1.000000 0.000000 0.000000
vn 0.000000 0.000000 1.000000
vn 0.000000 0.000000 1.000000
vn 0.000000 0.000000 1.000000
vn 0.000000 0.000000 1.000000
vn 0.000000 1.000000 0.000000
vn 0.000000 1.000000 0.000000
vn 0.000000 1.000000 0.000000
vn 0.000000 1.000000 0.000000
vn 0.000000 0.000000 -1.000000
vn 0.000000 0.000000 -1.000000
vn 0.000000 0.000000 -1.000000
vn 0.000000 0.000000 -1.000000
vn 0.000000 -1.000000 0.000000
vn 0.000000 -1.000000 0.000000
vn 0.000000 -1.000000 0.000000
vn 0.000000 -1.000000 0.000000
vn 1.000000 0.000000 0.000000
vn 1.000000 0.000000 0.000000
vn 1.000000 0.000000 0.000000
vn 1.000000 0.000000 0.000000
vn -1.000000 0.000000 0.000000
vn -1.000000 0.000000 0.000000
vn -1.000000 0.000000 0.000000
vn -1.000000 0.000000 0.000000
vn 0.000000 1.000000 0.000000
vn 0.000000 1.000000 0.000000
vn 0.000000 1.000000 0.000000
vn 0.000000 1.000000 0.000000
vn 0.000000 0.000000 -1.000000
vn 0.000000 0.000000 -1.000000
vn 0.000000 0.000000 -1.000000
vn 0.000000 0.000000 -1.000000
vn 0.000000 -1.000000 0.000000
vn 0.000000 -1.000000 0.000000
vn 0.000000 -1.000000 0.000000
vn 0.000000 -1.000000 0.000000
vn -1.000000 0.000000 0.000000
vn -1.000000 0.000000 0.000000
vn -1.000000 0.000000 0.000000
vn -1.000000 0.000000 0.000000
vn 0.000000 1.000000 0.000000
vn 0.000000 1.000000 0.000000
vn 0.000000 1.000000 0.000000
vn 0.000000 1.000000 0.000000
vn 0.000000 1.000000 0.000000
vn 0.000000 1.000000 0.000000
vn 0.000000 1.000000 0.000000
vn 0.000000 1.000000 0.000000
vn 0.239913 0.970794 0.000000
vn 0.239913 0.970794 0.000000
vn 0.000000 1.000000 0.000000
vn 0.000000 1.000000 0.000000
vn 0.000000 1.000000 0.000000
vn 0.000000 1.000000 0.000000
vn 0.000000 1.000000 0.000000
vn 0.000000 1.000000 0.000000
vn 0.000000 0.000000 -1.000000
vn 0.000000 0.000000 -1.000000
vn 0.000000 0.000000 -1.000000
vn 0.000000 0.000000 -1.000000
vn -1.000000 0.000000 0.000000
vn -1.000000 0.000000 0.000000
vn -1.000000 0.000000 0.000000
vn -1.000000 0.000000 0.000000
vn 0.000000 0.000000 1.000000
vn 0.000000 0.000000 1.000000
vn 0.000000 0.000000 1.000000
vn 0.000000 0.000000 1.000000
vn 1.000000 0.000000 0.000000
vn 1.000000 0.000000 0.000000
vn 1.000000 0.000000 0.000000
vn 1.000000 0.000000 0.000000
vn -0.239908 0.970796 0.000000
vn -0.239908 0.970796 0.000000
vn -0.093064 0.995660 0.000000
vn -0.093064 0.995660 0.000000
vn -0.093064 0.995660 0.000000
vn 0.093064 0.995660 0.000000
vn 0.093064 0.995660 0.000000
vn -0.093064 0.995660 0.000000
vn 0.093064 0.995660 0.000000
vn 0.093064 0.995660 0.000000
vn 0.239913 0.970794 0.000000
vn 0.239913 0.970794 0.000000
vn 0.000000 1.000000 0.000000
vn -0.239908 0.970796 0.000000
vn -0.239908 0.970796 0.000000
vn 0.000000 1.000000 0.000000
vn 0.000000 0.000000 -1.000000
vn 0.000000 0.000000 -1.000000
vn 0.000000 0.000000 -1.000000
vn 0.000000 0.000000 -1.000000
vn 0.000000 0.000000 -1.000000
vn 0.000000 0.000000 -1.000000
vn 0.000000 0.000000 -1.000000
vn 0.000000 0.000000 -1.000000
vn 0.000000 0.000000 1.000000
vn 0.000000 0.000000 1.000000
vn 0.000000 0.000000 1.000000
vn 0.000000 0.000000 1.000000
vn 0.000000 0.000000 1.000000
vn 0.000000 0.000000 1.000000
vn 0.000000 0.000000 1.000000
vn 0.000000 0.000000 1.000000
vn 0.000000 0.000000 1.000000
vn 0.000000 0.000000 1.000000
vn 0.000000 0.000000 1.000000
vn 0.000000 0.000000 1.000000
vn 1.000000 0.000000 0.000000
vn 1.000000 0.000000 0.000000
vn 1.000000 0.000000 0.000000
vn 1.000000 0.000000 0.000000
s off
f 1/23/1 2/2/2 4/22/3 3/17/4
f 3/3/5 4/15/6 6/6/7 5/18/8
f 5/5/9 6/16/10 8/8/11 7/20/12
f 7/7/13 8/19/14 2/10/15 1/9/16
f 2/21/17 8/11/18 6/12/19 4/4/20
f 7/13/21 1/1/22 3/24/23 5/14/24
f 9/25/25 10/26/26 12/27/27 11/28/28
f 11/29/29 12/30/30 14/31/31 13/32/32
f 13/33/33 14/34/34 16/35/35 15/36/36
f 15/37/37 16/38/38 10/39/39 9/40/40
f 10/41/41 16/42/42 14/43/43 12/44/44
f 15/45/45 9/46/46 11/47/47 13/48/48
f 17/49/49 18/50/50 20/51/51 19/52/52
f 19/53/53 20/54/54 22/55/55 21/56/56
f 21/57/57 22/58/58 24/59/59 23/60/60
f 23/61/61 24/62/62 18/63/63 17/64/64
f 18/65/65 24/66/66 22/67/67 20/68/68
f 23/69/69 17/70/70 19/71/71 21/72/72
f 25/73/73 26/74/74 28/75/75 27/76/76
f 27/77/77 28/78/78 30/79/79 29/80/80
f 29/81/81 30/82/82 32/83/83 31/84/84
f 31/85/85 32/86/86 26/87/87 25/88/88
f 26/89/89 32/90/90 30/91/91 28/92/92
f 31/93/93 25/94/94 27/95/95 29/96/96
f 33/97/97 34/98/98 36/99/99 35/100/100
f 35/101/101 36/102/102 38/103/103 37/104/104
f 37/105/105 38/106/106 40/107/107 39/108/108
f 39/109/109 40/110/110 34/111/111 33/112/112
f 34/113/113 40/114/114 38/115/115 36/116/116
f 39/117/117 33/118/118 35/119/119 37/120/120
f 53/121/121 54/122/122 55/123/123 56/124/124
f 45/125/125 62/126/126 60/127/127 47/128/128
f 47/129/129 48/130/130 42/131/131 41/132/132
f 47/201/133 41/202/134 43/203/135 45/204/136
f 43/133/137 44/134/138 50/135/139 49/136/140
f 44/137/141 46/138/142 51/139/143 50/140/144
f 61/141/145 62/142/146 45/143/147 52/144/148
f 45/145/149 43/146/150 49/147/151 52/148/152
f 49/149/153 50/150/154 54/151/155 53/152/156
f 50/153/157 51/154/158 55/155/159 54/156/160
f 51/157/161 63/158/162 57/159/163 55/160/164
f 52/161/165 49/162/166 53/163/167 56/164/168
f 63/165/169 64/166/170 58/167/171 57/168/172
f 58/169/173 60/170/174 59/171/175 57/172/176
f 59/173/177 60/174/178 62/175/179 61/176/180
f 46/177/181 64/178/182 63/179/183 51/180/184
f 48/181/185 58/182/186 64/183/187 46/184/188
f 47/128/189 60/127/190 58/182/191 48/181/192
f 55/185/193 57/186/194 59/187/195 56/188/196
f 56/189/197 59/190/198 61/191/199 52/192/200
f 44/195/201 43/196/202 41/193/203 42/194/204
f 46/199/205 44/200/206 42/197/207 48/198/208
