# This file uses meters as units for non-parametric coordinates.

v -10.000031 0.000000 9.999996
v 9.999935 0.000000 9.999996
v -10.000031 0.385020 9.999996
v 9.999935 0.385020 9.999996
v -10.000031 0.385020 8.421562
v -10.000031 0.000000 8.421562
v 9.999935 0.000000 8.642025
v 8.421535 0.000000 8.421562
v 8.421535 0.385020 8.421562
v 9.999935 0.385020 9.999996
v 9.999935 0.000000 9.999996
v 8.421608 0.000000 -9.999992
v 8.421608 0.385020 -9.999992
v 10.000031 0.385020 -9.999992
v 10.000031 0.000000 -9.999992
v 9.999935 0.385020 8.421562
v 9.999935 0.000000 8.421562
v 8.421535 0.385020 9.999996
v 8.421535 0.000000 9.999996
vt 0.145363 0.171132
vt 0.145363 0.171132
vt 0.145363 0.171132
vt 0.145363 0.171132
vt 0.327430 0.476701
vt 0.327430 0.476701
vt 0.327430 0.476701
vt 0.327430 0.476701
vt 0.327430 0.476701
vt 0.327430 0.476701
vt 0.327430 0.476701
vt 0.327430 0.476701
vt 0.241058 0.990599
vt 0.480684 0.990599
vt 0.480684 0.990065
vt 0.241058 0.990065
vt 0.268843 0.171578
vt 0.268843 0.171578
vt 0.268843 0.171578
vt 0.208915 0.169802
vt 0.208915 0.169802
vt 0.208915 0.169802
vt 0.208915 0.169802
vt 0.241058 0.990065
vt 0.241058 0.990599
vt 0.480684 0.990599
vt 0.480684 0.990065
vt 0.241058 0.997090
vt 0.241058 0.996556
vt 0.480684 0.996556
vt 0.480684 0.997090
vt 0.241058 0.990599
vt 0.241058 0.990065
vt 0.480684 0.990065
vt 0.480684 0.990599
vt 0.272297 0.171132
vt 0.271933 0.171179
vt 0.272297 0.171132
vt 0.272297 0.171132
vt 0.208915 0.169802
vt 0.208915 0.169802
vt 0.208915 0.169802
vt 0.208915 0.169802
vt 0.208915 0.169802
vt 0.241058 0.996556
vt 0.480684 0.996556
vt 0.480684 0.997090
vt 0.241058 0.997090
vt 0.241058 0.990065
vt 0.480684 0.990065
vt 0.480684 0.990599
vt 0.241058 0.990599
vn 0.000000 0.000000 1.000000
vn 0.000000 0.000000 1.000000
vn 0.000000 0.000000 0.000000
vn 0.000000 0.000000 0.000000
vn 0.000000 0.000000 -1.000000
vn 0.000000 0.000000 -1.000000
vn 0.000000 0.000000 -1.000000
vn 0.000000 0.000000 -1.000000
vn -1.000000 0.000000 0.000000
vn -1.000000 0.000000 0.000000
vn -1.000000 0.000000 0.000000
vn -1.000000 0.000000 0.000000
vn 0.000000 0.000000 -1.000000
vn 0.000000 0.000000 -1.000000
vn 0.000000 0.000000 -1.000000
vn 0.000000 0.000000 -1.000000
vn 0.000000 1.000000 0.000000
vn 0.000000 1.000000 0.000000
vn 0.000000 1.000000 0.000000
vn 0.000000 0.000000 1.000000
vn 0.000000 0.000000 1.000000
vn 0.000000 0.000000 1.000000
vn 0.000000 0.000000 1.000000
vn -1.000000 0.000000 -0.000004
vn -1.000000 0.000000 -0.000004
vn -1.000000 0.000000 -0.000004
vn -1.000000 0.000000 -0.000004
vn 0.000000 1.000000 0.000000
vn 0.000000 1.000000 0.000000
vn 0.000000 1.000000 0.000000
vn 0.000000 1.000000 0.000000
vn 1.000000 0.000000 0.000005
vn 1.000000 0.000000 0.000005
vn 1.000000 0.000000 0.000005
vn 1.000000 0.000000 0.000005
vn 0.000000 0.000000 0.000000
vn 0.000000 1.000000 0.000000
vn 0.000000 1.000000 0.000000
vn 0.000000 1.000000 0.000000
vn 1.000000 0.000000 0.000000
vn 1.000000 0.000000 0.000005
vn 1.000000 0.000000 0.000005
vn 1.000000 0.000000 0.000000
vn 1.000000 0.000000 0.000000
vn 0.000000 1.000000 0.000000
vn 0.000000 1.000000 0.000000
vn 0.000000 1.000000 0.000000
vn 0.000000 1.000000 0.000000
vn 0.000000 0.000000 1.000000
vn 0.000000 0.000000 1.000000
vn 0.000000 0.000000 1.000000
vn 0.000000 0.000000 1.000000
s off
f 10/1/1 11/2/2 2/3/3 4/4/4
f 12/5/5 13/6/6 14/7/7 15/8/8
f 6/9/9 1/10/10 3/11/11 5/12/12
f 5/13/13 9/14/14 8/15/15 6/16/16
f 9/17/17 18/18/18 10/19/19
f 18/20/20 19/21/21 11/22/22 10/23/23
f 8/24/24 9/25/25 13/26/26 12/27/27
f 9/28/28 16/29/29 14/30/30 13/31/31
f 16/32/32 17/33/33 15/34/34 14/35/35
f 4/36/36 16/37/37 9/38/38 10/39/39
f 7/40/40 17/41/41 16/42/42 4/43/43 2/44/44
f 3/45/45 18/46/46 9/47/47 5/48/48
f 1/49/49 19/50/50 18/51/51 3/52/52
