# This file uses meters as units for non-parametric coordinates.

v -3.667727 17.777927 0.316612
v 3.667727 17.777927 0.316612
v -3.667727 17.777927 -0.316613
v 3.667727 17.777927 -0.316613
v -3.667727 10.442474 -0.316613
v 3.667727 10.442474 -0.316613
v -3.667727 10.442474 0.316612
v 3.667727 10.442474 0.316612
v -3.170636 17.280838 -0.316613
v 3.170636 17.280838 -0.316613
v 3.170636 10.939564 -0.316613
v -3.170636 10.939564 -0.316613
v -3.170636 10.939564 0.316612
v 3.170636 10.939564 0.316612
v 3.170636 17.280838 0.316612
v -3.170636 17.280838 0.316612
v -0.429795 0.000000 -0.429786
v -0.429795 0.000000 0.429785
v -0.270622 10.442474 -0.270612
v -0.270622 10.442474 0.270610
v 0.270601 10.442474 -0.270612
v 0.270601 10.442474 0.270610
v 0.429775 0.000000 -0.429786
v 0.429775 0.000000 0.429785
v -0.429795 3.187853 -0.429786
v -0.429795 3.187853 0.429785
v 0.429775 3.187853 0.429785
v 0.429775 3.187853 -0.429786
v 0.190129 3.187853 0.190139
v -0.190149 3.187853 0.190139
v -0.190149 3.187853 -0.190139
v 0.190129 3.187853 -0.190139
v 0.270601 9.921814 -0.270612
v 0.270601 9.921814 0.270610
v -0.270622 9.921817 0.270610
v -0.270622 9.921817 -0.270612
v -0.190149 9.921813 0.190139
v 0.190129 9.921815 0.190139
v 0.190129 9.921815 -0.190139
v -0.190149 9.921813 -0.190139
vt 0.297422 0.086333
vt 0.360316 0.086667
vt 0.325169 0.086276
vt 0.297422 0.086333
vt 0.272454 0.086333
vt 0.325169 0.086276
vt 0.325169 0.086276
vt 0.272454 0.086333
vt 0.325169 0.086276
vt 0.325169 0.086276
vt 0.297422 0.086333
vt 0.297422 0.086333
vt 0.297422 0.086333
vt 0.297422 0.086333
vt 0.325169 0.086276
vt 0.272454 0.086333
vt 0.360316 0.086667
vt 0.325169 0.086276
vt 0.297422 0.086333
vt 0.360316 0.086667
vt 0.360316 0.086667
vt 0.297422 0.086333
vt 0.325169 0.086276
vt 0.272454 0.086333
vt 0.266890 0.086289
vt 0.296154 0.086289
vt 0.360316 0.086667
vt 0.296154 0.086289
vt 0.360316 0.086667
vt 0.296154 0.086289
vt 0.266890 0.086289
vt 0.296154 0.086289
vt 0.325169 0.086276
vt 0.266890 0.086289
vt 0.325169 0.086276
vt 0.296154 0.086289
vt 0.325169 0.086276
vt 0.360316 0.086667
vt 0.325169 0.086276
vt 0.296154 0.086289
vt 0.325169 0.086276
vt 0.360316 0.086667
vt 0.325169 0.086276
vt 0.296154 0.086289
vt 0.325169 0.086276
vt 0.266890 0.086289
vt 0.325169 0.086276
vt 0.296154 0.086289
vt 0.325169 0.086276
vt 0.325169 0.086276
vt 0.325169 0.086276
vt 0.325169 0.086276
vt 0.325169 0.086276
vt 0.325169 0.086276
vt 0.325169 0.086276
vt 0.325169 0.086276
vt 0.325169 0.086276
vt 0.325169 0.086276
vt 0.325169 0.086276
vt 0.325169 0.086276
vt 0.325169 0.086276
vt 0.325169 0.086276
vt 0.325169 0.086276
vt 0.325169 0.086276
vt 0.260568 0.083124
vt 0.260568 0.083124
vt 0.260568 0.083124
vt 0.260568 0.083124
vt 0.265427 0.083196
vt 0.265427 0.083196
vt 0.265427 0.083196
vt 0.265427 0.083196
vt 0.260568 0.083124
vt 0.260568 0.083124
vt 0.260568 0.083124
vt 0.260568 0.083124
vt 0.170363 0.083196
vt 0.170363 0.083196
vt 0.170363 0.083196
vt 0.170363 0.083196
vt 0.260568 0.083124
vt 0.260568 0.083124
vt 0.260568 0.083124
vt 0.260568 0.083124
vt 0.260568 0.083124
vt 0.260568 0.083124
vt 0.260568 0.083124
vt 0.260568 0.083124
vt 0.204665 0.083196
vt 0.204665 0.083196
vt 0.204665 0.083196
vt 0.204665 0.083196
vt 0.231126 0.083196
vt 0.231126 0.083196
vt 0.231126 0.083196
vt 0.231126 0.083196
vt 0.204665 0.083196
vt 0.204665 0.083196
vt 0.204665 0.083196
vt 0.204665 0.083196
vt 0.231126 0.083196
vt 0.231126 0.083196
vt 0.231126 0.083196
vt 0.231126 0.083196
vt 0.168886 0.083914
vt 0.168886 0.083914
vt 0.168886 0.083914
vt 0.168886 0.083914
vt 0.168886 0.083914
vt 0.168886 0.083914
vt 0.168886 0.083914
vt 0.168886 0.083914
vt 0.168886 0.083914
vt 0.168886 0.083914
vt 0.168886 0.083914
vt 0.168886 0.083914
vt 0.168886 0.083914
vt 0.168886 0.083914
vt 0.168886 0.083914
vt 0.168886 0.083914
vt 0.204665 0.083196
vt 0.204665 0.083196
vt 0.204665 0.083196
vt 0.204665 0.083196
vt 0.231126 0.083196
vt 0.231126 0.083196
vt 0.231126 0.083196
vt 0.231126 0.083196
vt 0.204665 0.083196
vt 0.204665 0.083196
vt 0.204665 0.083196
vt 0.204665 0.083196
vt 0.231126 0.083196
vt 0.231126 0.083196
vt 0.231126 0.083196
vt 0.231126 0.083196
vt 0.329516 0.083196
vt 0.329516 0.083196
vt 0.329516 0.083196
vt 0.329516 0.083196
vt 0.303055 0.083196
vt 0.303055 0.083196
vt 0.303055 0.083196
vt 0.303055 0.083196
vt 0.329516 0.083196
vt 0.329516 0.083196
vt 0.329516 0.083196
vt 0.329516 0.083196
vt 0.303055 0.083196
vt 0.303055 0.083196
vt 0.303055 0.083196
vt 0.303055 0.083196
vn 0.000000 1.000000 0.000000
vn 0.000000 1.000000 0.000000
vn 0.000000 1.000000 0.000000
vn 0.000000 1.000000 0.000000
vn 0.000000 -1.000000 0.000000
vn 0.000000 -1.000000 0.000000
vn 0.000000 -1.000000 0.000000
vn 0.000000 -1.000000 0.000000
vn 1.000000 0.000000 0.000000
vn 1.000000 0.000000 0.000000
vn 1.000000 0.000000 0.000000
vn 1.000000 0.000000 0.000000
vn -1.000000 0.000000 0.000000
vn -1.000000 0.000000 0.000000
vn -1.000000 0.000000 0.000000
vn -1.000000 0.000000 0.000000
vn 0.000000 0.000000 -1.000000
vn 0.000000 0.000000 -1.000000
vn 0.000000 0.000000 -1.000000
vn 0.000000 0.000000 -1.000000
vn -0.000000 0.000000 -1.000000
vn -0.000000 0.000000 -1.000000
vn -0.000000 0.000000 -1.000000
vn -0.000000 0.000000 -1.000000
vn 0.000000 0.000000 -1.000000
vn 0.000000 0.000000 -1.000000
vn 0.000000 0.000000 -1.000000
vn 0.000000 0.000000 -1.000000
vn 0.000000 0.000000 -1.000000
vn 0.000000 0.000000 -1.000000
vn 0.000000 0.000000 -1.000000
vn 0.000000 0.000000 -1.000000
vn 0.000000 0.000000 1.000000
vn 0.000000 0.000000 1.000000
vn 0.000000 0.000000 1.000000
vn 0.000000 0.000000 1.000000
vn 0.000000 0.000000 1.000000
vn 0.000000 0.000000 1.000000
vn 0.000000 0.000000 1.000000
vn 0.000000 0.000000 1.000000
vn 0.000000 0.000000 1.000000
vn 0.000000 0.000000 1.000000
vn 0.000000 0.000000 1.000000
vn 0.000000 0.000000 1.000000
vn -0.000000 0.000000 1.000000
vn -0.000000 0.000000 1.000000
vn -0.000000 0.000000 1.000000
vn -0.000000 0.000000 1.000000
vn 0.000000 1.000000 0.000000
vn 0.000000 1.000000 0.000000
vn 0.000000 1.000000 0.000000
vn 0.000000 1.000000 0.000000
vn 1.000000 0.000000 0.000000
vn 1.000000 0.000000 0.000000
vn 1.000000 0.000000 0.000000
vn 1.000000 0.000000 0.000000
vn -1.000000 0.000000 0.000000
vn -1.000000 0.000000 0.000000
vn -1.000000 0.000000 0.000000
vn -1.000000 0.000000 0.000000
vn 0.000000 -1.000000 0.000000
vn 0.000000 -1.000000 0.000000
vn 0.000000 -1.000000 0.000000
vn 0.000000 -1.000000 0.000000
vn -0.999633 0.027098 0.000000
vn -0.999633 0.027098 0.000000
vn -0.996235 0.086694 0.000000
vn -0.996235 0.086694 0.000000
vn 0.000000 1.000000 0.000000
vn 0.000000 1.000000 0.000000
vn 0.000000 1.000000 0.000000
vn 0.000000 1.000000 0.000000
vn 0.996235 0.086694 0.000000
vn 0.996235 0.086694 0.000000
vn 0.999633 0.027098 0.000000
vn 0.999633 0.027098 0.000000
vn 0.000000 -1.000000 0.000000
vn 0.000000 -1.000000 0.000000
vn 0.000000 -1.000000 0.000000
vn 0.000000 -1.000000 0.000000
vn 0.000000 0.027098 0.999633
vn 0.000000 0.027098 0.999633
vn 0.000000 0.086694 0.996235
vn 0.000000 0.086694 0.996235
vn 0.000000 0.027098 -0.999633
vn 0.000000 0.027098 -0.999633
vn 0.000000 0.086694 -0.996235
vn 0.000000 0.086694 -0.996235
vn -1.000000 0.000000 0.000000
vn -1.000000 0.000000 0.000000
vn -0.999633 0.027098 0.000000
vn -0.999633 0.027098 0.000000
vn 0.000000 0.000000 1.000000
vn 0.000000 0.000000 1.000000
vn 0.000000 0.027098 0.999633
vn 0.000000 0.027098 0.999633
vn 0.999633 0.027098 0.000000
vn 0.999633 0.027098 0.000000
vn 1.000000 0.000000 0.000000
vn 1.000000 0.000000 0.000000
vn 0.000000 0.000000 -1.000000
vn 0.000000 0.000000 -1.000000
vn 0.000000 0.027098 -0.999633
vn 0.000000 0.027098 -0.999633
vn -0.000000 -0.021713 0.999764
vn -0.000000 -0.021713 0.999764
vn -0.000000 -0.065646 0.997843
vn -0.000000 -0.065645 0.997843
vn -0.999764 -0.021714 0.000000
vn -0.999764 -0.021714 0.000000
vn -0.997843 -0.065648 0.000000
vn -0.997843 -0.065648 0.000000
vn -0.000000 -0.021714 -0.999764
vn -0.000000 -0.021714 -0.999764
vn -0.000000 -0.065647 -0.997843
vn -0.000000 -0.065648 -0.997843
vn 0.997843 -0.065646 0.000000
vn 0.997843 -0.065647 0.000000
vn 0.999764 -0.021713 0.000000
vn 0.999764 -0.021713 0.000000
vn 1.000000 0.000000 0.000000
vn 1.000000 0.000000 0.000000
vn 0.997843 -0.065647 0.000000
vn 0.997843 -0.065646 0.000000
vn -0.000000 -0.065645 0.997843
vn -0.000000 -0.065646 0.997843
vn 0.000000 0.000000 1.000000
vn 0.000000 0.000000 1.000000
vn -0.997843 -0.065648 0.000000
vn -0.997843 -0.065648 0.000000
vn -1.000000 0.000000 0.000000
vn -1.000000 0.000000 0.000000
vn -0.000000 -0.065648 -0.997843
vn -0.000000 -0.065647 -0.997843
vn 0.000000 0.000000 -1.000000
vn 0.000000 0.000000 -1.000000
vn 0.000000 0.086694 0.996235
vn 0.000000 0.086694 0.996235
vn -0.000000 -0.021713 0.999764
vn -0.000000 -0.021713 0.999764
vn 0.999764 -0.021713 0.000000
vn 0.999764 -0.021713 0.000000
vn 0.996235 0.086694 0.000000
vn 0.996235 0.086694 0.000000
vn 0.000000 0.086694 -0.996235
vn 0.000000 0.086694 -0.996235
vn -0.000000 -0.021714 -0.999764
vn -0.000000 -0.021714 -0.999764
vn -0.996235 0.086694 0.000000
vn -0.996235 0.086694 0.000000
vn -0.999764 -0.021714 0.000000
vn -0.999764 -0.021714 0.000000
s off
f 1/20/1 2/2/2 4/21/3 3/17/4
f 5/5/5 6/16/6 8/8/7 7/24/8
f 2/19/9 8/11/10 6/12/11 4/4/12
f 7/13/13 1/1/14 3/22/15 5/14/16
f 3/3/17 4/63/18 10/55/19 9/47/20
f 4/15/21 6/62/22 11/54/23 10/45/24
f 6/6/25 5/61/26 12/53/27 11/43/28
f 5/18/29 3/64/30 9/56/31 12/41/32
f 7/7/33 8/59/34 14/51/35 13/39/36
f 8/23/37 2/58/38 15/50/39 14/37/40
f 2/10/41 1/57/42 16/49/43 15/35/44
f 1/9/45 7/60/46 13/52/47 16/33/48
f 11/27/49 12/42/50 13/29/51 14/38/52
f 12/28/53 9/48/54 16/32/55 13/40/56
f 11/44/57 14/30/58 15/36/59 10/26/60
f 10/46/61 15/31/62 16/34/63 9/25/64
f 25/65/65 26/66/66 30/67/67 31/68/68
f 19/69/69 20/70/70 22/71/71 21/72/72
f 32/73/73 29/74/74 27/75/75 28/76/76
f 23/77/77 24/78/78 18/79/79 17/80/80
f 26/81/81 27/82/82 29/83/83 30/84/84
f 28/85/85 25/86/86 31/87/87 32/88/88
f 17/89/89 18/90/90 26/91/91 25/92/92
f 18/93/93 24/94/94 27/95/95 26/96/96
f 28/97/97 27/98/98 24/99/99 23/100/100
f 23/101/101 17/102/102 25/103/103 28/104/104
f 37/105/105 38/106/106 34/107/107 35/108/108
f 40/109/109 37/110/110 35/111/111 36/112/112
f 39/113/113 40/114/114 36/115/115 33/116/116
f 33/117/117 34/118/118 38/119/119 39/120/120
f 21/121/121 22/122/122 34/123/123 33/124/124
f 35/125/125 34/126/126 22/127/127 20/128/128
f 36/129/129 35/130/130 20/131/131 19/132/132
f 33/133/133 36/134/134 19/135/135 21/136/136
f 30/137/137 29/138/138 38/139/139 37/140/140
f 39/141/141 38/142/142 29/143/143 32/144/144
f 32/145/145 31/146/146 40/147/147 39/148/148
f 31/149/149 30/150/150 37/151/151 40/152/152
