# This file uses meters as units for non-parametric coordinates.

v -2.961283 6.929676 -0.650172
v -2.961283 6.929676 0.650172
v -2.961283 10.374434 -0.650172
v -2.961283 10.374434 0.650172
v 2.961260 10.374434 -0.650172
v 2.961260 10.374434 0.650172
v 2.961260 6.929676 -0.650172
v 2.961260 6.929676 0.650172
v 2.329962 7.476188 0.650172
v -2.329985 7.476188 0.650172
v 2.329962 9.827921 0.650172
v -2.329985 9.827921 0.650172
v 2.329962 7.476188 -0.650172
v -2.329985 7.476188 -0.650172
v -2.329985 9.827921 -0.650172
v 2.329962 9.827921 -0.650172
v -2.329985 7.946535 0.650172
v 2.329962 7.946535 0.650172
v 2.329962 7.946535 -0.650172
v -2.329985 7.946535 -0.650172
v 2.329962 8.322812 -0.650172
v -2.329985 8.322812 -0.650172
v 2.329962 8.322812 0.650172
v -2.329985 8.322812 0.650172
v -0.352653 7.476188 0.650172
v -0.352654 7.946535 0.650172
v -0.352654 8.322812 0.650172
v -0.352653 9.827921 0.650172
v 0.352630 7.476188 0.650172
v 0.352630 7.946535 0.650172
v 0.352630 8.322812 0.650172
v 0.352630 9.827921 0.650172
v 0.352630 7.476188 -0.650172
v 0.352630 7.946535 -0.650172
v 0.352630 8.322812 -0.650172
v 0.352630 9.827921 -0.650172
v -0.352653 9.827921 -0.650172
v -0.352654 8.322812 -0.650172
v -0.352654 7.946535 -0.650172
v -0.352653 7.476188 -0.650172
v -1.584393 9.827921 -0.650172
v -1.584393 8.322812 -0.650172
v -1.584393 7.946535 -0.650172
v -1.584393 7.476188 -0.650172
v 1.584370 9.827921 -0.650172
v 1.584370 8.322812 -0.650172
v 1.584370 7.946535 -0.650172
v 1.584370 7.476188 -0.650172
v -1.584393 9.827921 0.650172
v -1.584393 8.322812 0.650172
v -1.584393 7.946535 0.650172
v -1.584393 7.476188 0.650172
v 1.584370 9.827921 0.650172
v 1.584370 8.322812 0.650172
v 1.584370 7.946535 0.650172
v 1.584370 7.476188 0.650172
v 2.961260 6.929676 -0.390101
v 2.961260 10.374434 -0.390101
v -2.961283 10.374434 -0.390101
v -2.961283 6.929676 -0.390101
v -2.961283 10.374434 0.414618
v 2.961260 10.374434 0.414618
v 2.961260 6.929676 0.414618
v -2.961283 6.929676 0.414618
v -2.386827 9.791961 -0.390101
v -2.386827 7.512148 -0.390101
v -2.386827 7.512148 0.414618
v -2.386827 9.791961 0.414618
v 2.386804 9.791961 0.414618
v 2.386804 9.791961 -0.390101
v 2.386804 7.512148 -0.390101
v 2.386804 7.512148 0.414618
v -4.930649 9.132019 0.372354
v 4.930649 9.132019 0.372354
v -4.930649 9.132019 -0.313184
v 4.930649 9.132019 -0.313184
v -10.998947 0.000000 -0.313184
v 10.998947 0.000000 -0.313184
v -10.998947 0.000000 0.372354
v 10.998947 0.000000 0.372354
v -4.674423 8.292578 -0.313184
v 4.674423 8.292578 -0.313184
v 9.748123 0.000000 -0.313184
v -9.748123 0.000000 -0.313184
v -9.748123 0.000000 0.372354
v 9.748123 0.000000 0.372354
v 4.674423 8.292578 0.372354
v -4.674423 8.292578 0.372354
vt 0.200915 0.069562
vt 0.174454 0.069562
vt 0.235216 0.069562
vt 0.200915 0.069562
vt 0.174454 0.069562
vt 0.235216 0.069562
vt 0.140152 0.069562
vt 0.174454 0.069562
vt 0.140152 0.069562
vt 0.140152 0.069562
vt 0.200915 0.069562
vt 0.200915 0.069562
vt 0.200915 0.069562
vt 0.200915 0.069562
vt 0.235216 0.069562
vt 0.174454 0.069562
vt 0.174454 0.069562
vt 0.235216 0.069562
vt 0.200915 0.069562
vt 0.174454 0.069562
vt 0.174454 0.069562
vt 0.200915 0.069562
vt 0.140152 0.069562
vt 0.174454 0.069562
vt 0.200915 0.069562
vt 0.200915 0.069562
vt 0.200915 0.069562
vt 0.200915 0.069562
vt 0.271491 0.220516
vt 0.271491 0.220516
vt 0.271491 0.220516
vt 0.271491 0.220516
vt 0.271491 0.220516
vt 0.200915 0.069562
vt 0.200915 0.069562
vt 0.200915 0.069562
vt 0.200915 0.069562
vt 0.271491 0.220516
vt 0.271491 0.220516
vt 0.200915 0.069562
vt 0.200915 0.069562
vt 0.200915 0.069562
vt 0.200915 0.069562
vt 0.200915 0.069562
vt 0.200915 0.069562
vt 0.200915 0.069562
vt 0.200915 0.069562
vt 0.271491 0.220516
vt 0.200915 0.069562
vt 0.200915 0.069562
vt 0.200915 0.069562
vt 0.271491 0.220516
vt 0.200915 0.069562
vt 0.200915 0.069562
vt 0.271491 0.220516
vt 0.200915 0.069562
vt 0.200915 0.069562
vt 0.200915 0.069562
vt 0.200915 0.069562
vt 0.271491 0.220516
vt 0.271491 0.220516
vt 0.200915 0.069562
vt 0.271491 0.220516
vt 0.200915 0.069562
vt 0.271491 0.220516
vt 0.200915 0.069562
vt 0.271491 0.220516
vt 0.200915 0.069562
vt 0.200915 0.069562
vt 0.200915 0.069562
vt 0.200915 0.069562
vt 0.271491 0.220516
vt 0.200915 0.069562
vt 0.200915 0.069562
vt 0.271491 0.220516
vt 0.200915 0.069562
vt 0.200915 0.069562
vt 0.200915 0.069562
vt 0.271491 0.220516
vt 0.200915 0.069562
vt 0.200915 0.069562
vt 0.271491 0.220516
vt 0.271491 0.220516
vt 0.200915 0.069562
vt 0.200915 0.069562
vt 0.271491 0.220516
vt 0.200915 0.069562
vt 0.271491 0.220516
vt 0.200915 0.069562
vt 0.200915 0.069562
vt 0.271491 0.220516
vt 0.200915 0.069562
vt 0.200915 0.069562
vt 0.200915 0.069562
vt 0.200915 0.069562
vt 0.271491 0.220516
vt 0.271491 0.220516
vt 0.200915 0.069562
vt 0.200915 0.069562
vt 0.200915 0.069562
vt 0.200915 0.069562
vt 0.200915 0.069562
vt 0.271491 0.220516
vt 0.200915 0.069562
vt 0.271491 0.220516
vt 0.200915 0.069562
vt 0.200915 0.069562
vt 0.271491 0.220516
vt 0.271491 0.220516
vt 0.200915 0.069562
vt 0.200915 0.069562
vt 0.200915 0.069562
vt 0.200915 0.069562
vt 0.200915 0.069562
vt 0.271491 0.220516
vt 0.271491 0.220516
vt 0.200915 0.069562
vt 0.200915 0.069562
vt 0.200915 0.069562
vt 0.200915 0.069562
vt 0.271491 0.220516
vt 0.200915 0.069562
vt 0.200915 0.069562
vt 0.271491 0.220516
vt 0.200915 0.069562
vt 0.271491 0.220516
vt 0.200915 0.069562
vt 0.200915 0.069562
vt 0.200915 0.069562
vt 0.200915 0.069562
vt 0.200915 0.069562
vt 0.200915 0.069562
vt 0.271491 0.220516
vt 0.200915 0.069562
vt 0.200915 0.069562
vt 0.200915 0.069562
vt 0.271491 0.220516
vt 0.200915 0.069562
vt 0.200915 0.069562
vt 0.271491 0.220516
vt 0.200915 0.069562
vt 0.200915 0.069562
vt 0.200915 0.069562
vt 0.271491 0.220516
vt 0.200915 0.069562
vt 0.200915 0.069562
vt 0.271491 0.220516
vt 0.200915 0.069562
vt 0.200915 0.069562
vt 0.200915 0.069562
vt 0.200915 0.069562
vt 0.200915 0.069562
vt 0.271491 0.220516
vt 0.271491 0.220516
vt 0.200915 0.069562
vt 0.200915 0.069562
vt 0.200915 0.069562
vt 0.200915 0.069562
vt 0.200915 0.069562
vt 0.200915 0.069562
vt 0.200915 0.069562
vt 0.271491 0.220516
vt 0.200915 0.069562
vt 0.200915 0.069562
vt 0.200915 0.069562
vt 0.271491 0.220516
vt 0.200915 0.069562
vt 0.271491 0.220516
vt 0.200915 0.069562
vt 0.200915 0.069562
vt 0.200915 0.069562
vt 0.200915 0.069562
vt 0.200915 0.069562
vt 0.200915 0.069562
vt 0.200915 0.069562
vt 0.200915 0.069562
vt 0.200915 0.069562
vt 0.200915 0.069562
vt 0.200915 0.069562
vt 0.271491 0.220516
vt 0.200915 0.069562
vt 0.271491 0.220516
vt 0.200915 0.069562
vt 0.200915 0.069562
vt 0.271491 0.220516
vt 0.200915 0.069562
vt 0.200915 0.069562
vt 0.200915 0.069562
vt 0.200915 0.069562
vt 0.200915 0.069562
vt 0.200915 0.069562
vt 0.271491 0.220516
vt 0.140152 0.069562
vt 0.174454 0.069562
vt 0.174454 0.069562
vt 0.235216 0.069562
vt 0.235216 0.069562
vt 0.174454 0.069562
vt 0.174454 0.069562
vt 0.140152 0.069562
vt 0.235216 0.069562
vt 0.174454 0.069562
vt 0.174454 0.069562
vt 0.235216 0.069562
vt 0.140152 0.069562
vt 0.174454 0.069562
vt 0.174454 0.069562
vt 0.140152 0.069562
vt 0.174454 0.069562
vt 0.174454 0.069562
vt 0.174454 0.069562
vt 0.174454 0.069562
vt 0.235216 0.069562
vt 0.235216 0.069562
vt 0.235216 0.069562
vt 0.235216 0.069562
vt 0.174454 0.069562
vt 0.174454 0.069562
vt 0.174454 0.069562
vt 0.174454 0.069562
vt 0.140152 0.069562
vt 0.140152 0.069562
vt 0.140152 0.069562
vt 0.140152 0.069562
vt 0.135299 0.069161
vt 0.135299 0.069161
vt 0.135299 0.069161
vt 0.135299 0.069161
vt 0.135299 0.069161
vt 0.135299 0.069161
vt 0.135299 0.069161
vt 0.135299 0.069161
vt 0.135299 0.069161
vt 0.135299 0.069161
vt 0.135299 0.069161
vt 0.135299 0.069161
vt 0.135299 0.069161
vt 0.135299 0.069161
vt 0.135299 0.069161
vt 0.135299 0.069161
vt 0.267040 0.086111
vt 0.267040 0.086111
vt 0.267040 0.086111
vt 0.267040 0.086111
vt 0.229019 0.084075
vt 0.229019 0.084075
vt 0.229019 0.084075
vt 0.229019 0.084075
vt 0.229019 0.084075
vt 0.229019 0.084075
vt 0.229019 0.084075
vt 0.229019 0.084075
vt 0.208574 0.079065
vt 0.208574 0.079065
vt 0.208574 0.079065
vt 0.208574 0.079065
vt 0.208574 0.079065
vt 0.208574 0.079065
vt 0.208574 0.079065
vt 0.208574 0.079065
vt 0.208574 0.079065
vt 0.208574 0.079065
vt 0.208574 0.079065
vt 0.208574 0.079065
vt 0.208574 0.079065
vt 0.208574 0.079065
vt 0.208574 0.079065
vt 0.208574 0.079065
vt 0.208574 0.079065
vt 0.208574 0.079065
vt 0.208574 0.079065
vt 0.208574 0.079065
vt 0.208574 0.079065
vt 0.208574 0.079065
vt 0.208574 0.079065
vt 0.208574 0.079065
vt 0.202878 0.083808
vt 0.202878 0.083808
vt 0.202878 0.083808
vt 0.202878 0.083808
vt 0.202878 0.083808
vt 0.202878 0.083808
vt 0.202878 0.083808
vt 0.202878 0.083808
vt 0.173614 0.083808
vt 0.173614 0.083808
vt 0.173614 0.083808
vt 0.173614 0.083808
vn -1.000000 0.000000 0.000000
vn -1.000000 0.000000 0.000000
vn -1.000000 0.000000 0.000000
vn -1.000000 0.000000 0.000000
vn 0.000000 1.000000 0.000000
vn 0.000000 1.000000 0.000000
vn 0.000000 1.000000 0.000000
vn 0.000000 1.000000 0.000000
vn 1.000000 0.000000 0.000000
vn 1.000000 0.000000 0.000000
vn 1.000000 0.000000 0.000000
vn 1.000000 0.000000 0.000000
vn 0.000000 -1.000000 0.000000
vn 0.000000 -1.000000 0.000000
vn 0.000000 -1.000000 0.000000
vn 0.000000 -1.000000 0.000000
vn 0.000000 0.000000 1.000000
vn 0.000000 0.000000 1.000000
vn 0.000000 0.000000 1.000000
vn 0.000000 0.000000 1.000000
vn 0.000000 0.000000 -1.000000
vn 0.000000 0.000000 -1.000000
vn 0.000000 0.000000 -1.000000
vn 0.000000 0.000000 -1.000000
vn 0.000000 0.000000 1.000000
vn 0.000000 0.000000 1.000000
vn 0.000000 0.000000 1.000000
vn 0.000000 0.000000 1.000000
vn 0.000000 0.000000 1.000000
vn 0.000000 0.000000 1.000000
vn 0.000000 0.000000 1.000000
vn 0.000000 0.000000 1.000000
vn -0.000000 0.000000 1.000000
vn -0.000000 0.000000 1.000000
vn -0.000000 0.000000 1.000000
vn -0.000000 0.000000 1.000000
vn -0.000000 0.000000 1.000000
vn -0.000000 0.000000 1.000000
vn 0.000000 0.000000 1.000000
vn 0.000000 0.000000 1.000000
vn 0.000000 0.000000 1.000000
vn 0.000000 0.000000 1.000000
vn 0.000000 0.000000 1.000000
vn 0.000000 0.000000 1.000000
vn 0.000000 0.000000 1.000000
vn 0.000000 0.000000 1.000000
vn 0.000000 0.000000 1.000000
vn 0.000000 0.000000 1.000000
vn 0.000000 0.000000 1.000000
vn 0.000000 0.000000 1.000000
vn 0.000000 0.000000 1.000000
vn 0.000000 0.000000 1.000000
vn 0.000000 0.000000 -1.000000
vn 0.000000 0.000000 -1.000000
vn 0.000000 0.000000 -1.000000
vn 0.000000 0.000000 -1.000000
vn 0.000000 0.000000 -1.000000
vn 0.000000 0.000000 -1.000000
vn 0.000000 0.000000 -1.000000
vn 0.000000 0.000000 -1.000000
vn 0.000000 0.000000 -1.000000
vn 0.000000 0.000000 -1.000000
vn 0.000000 0.000000 -1.000000
vn 0.000000 0.000000 -1.000000
vn 0.000000 0.000000 -1.000000
vn 0.000000 0.000000 -1.000000
vn 0.000000 0.000000 -1.000000
vn 0.000000 0.000000 -1.000000
vn 0.000000 0.000000 -1.000000
vn 0.000000 0.000000 -1.000000
vn 0.000000 0.000000 -1.000000
vn 0.000000 0.000000 -1.000000
vn 0.000000 0.000000 -1.000000
vn 0.000000 0.000000 -1.000000
vn -0.000000 0.000000 -1.000000
vn -0.000000 0.000000 -1.000000
vn -0.000000 0.000000 -1.000000
vn -0.000000 0.000000 -1.000000
vn -0.000000 0.000000 -1.000000
vn -0.000000 0.000000 -1.000000
vn 0.000000 0.000000 1.000000
vn 0.000000 0.000000 1.000000
vn 0.000000 0.000000 1.000000
vn 0.000000 0.000000 1.000000
vn 0.000000 0.000000 -1.000000
vn 0.000000 0.000000 -1.000000
vn 0.000000 0.000000 -1.000000
vn 0.000000 0.000000 -1.000000
vn 0.000000 0.000000 -1.000000
vn 0.000000 0.000000 -1.000000
vn 0.000000 0.000000 -1.000000
vn 0.000000 0.000000 -1.000000
vn 0.000000 0.000000 1.000000
vn 0.000000 0.000000 1.000000
vn 0.000000 0.000000 1.000000
vn 0.000000 0.000000 1.000000
vn 0.000000 0.000000 -1.000000
vn 0.000000 0.000000 -1.000000
vn 0.000000 0.000000 -1.000000
vn 0.000000 0.000000 -1.000000
vn 0.000000 0.000000 1.000000
vn 0.000000 0.000000 1.000000
vn 0.000000 0.000000 1.000000
vn 0.000000 0.000000 1.000000
vn 0.000000 0.000000 1.000000
vn 0.000000 0.000000 1.000000
vn 0.000000 0.000000 1.000000
vn 0.000000 0.000000 1.000000
vn 0.000000 0.000000 1.000000
vn 0.000000 0.000000 1.000000
vn 0.000000 0.000000 1.000000
vn 0.000000 0.000000 1.000000
vn 0.000000 0.000000 -1.000000
vn 0.000000 0.000000 -1.000000
vn 0.000000 0.000000 -1.000000
vn 0.000000 0.000000 -1.000000
vn 0.000000 0.000000 -1.000000
vn 0.000000 0.000000 -1.000000
vn 0.000000 0.000000 -1.000000
vn 0.000000 0.000000 -1.000000
vn 0.000000 0.000000 1.000000
vn 0.000000 0.000000 1.000000
vn 0.000000 0.000000 1.000000
vn 0.000000 0.000000 1.000000
vn 0.000000 0.000000 1.000000
vn 0.000000 0.000000 1.000000
vn 0.000000 0.000000 1.000000
vn 0.000000 0.000000 1.000000
vn 0.000000 0.000000 1.000000
vn 0.000000 0.000000 1.000000
vn 0.000000 0.000000 1.000000
vn 0.000000 0.000000 1.000000
vn 0.000000 0.000000 -1.000000
vn 0.000000 0.000000 -1.000000
vn 0.000000 0.000000 -1.000000
vn 0.000000 0.000000 -1.000000
vn 0.000000 0.000000 -1.000000
vn 0.000000 0.000000 -1.000000
vn 0.000000 0.000000 -1.000000
vn 0.000000 0.000000 -1.000000
vn 0.000000 0.000000 -1.000000
vn 0.000000 0.000000 -1.000000
vn 0.000000 0.000000 -1.000000
vn 0.000000 0.000000 -1.000000
vn 0.000000 0.000000 -1.000000
vn 0.000000 0.000000 -1.000000
vn 0.000000 0.000000 -1.000000
vn 0.000000 0.000000 -1.000000
vn 0.000000 0.000000 -1.000000
vn 0.000000 0.000000 -1.000000
vn 0.000000 0.000000 -1.000000
vn 0.000000 0.000000 -1.000000
vn 0.000000 0.000000 -1.000000
vn 0.000000 0.000000 -1.000000
vn 0.000000 0.000000 -1.000000
vn 0.000000 0.000000 -1.000000
vn 0.000000 0.000000 -1.000000
vn 0.000000 0.000000 -1.000000
vn 0.000000 0.000000 -1.000000
vn 0.000000 0.000000 -1.000000
vn 0.000000 0.000000 -1.000000
vn 0.000000 0.000000 -1.000000
vn 0.000000 0.000000 -1.000000
vn 0.000000 0.000000 -1.000000
vn 0.000000 0.000000 -1.000000
vn 0.000000 0.000000 -1.000000
vn 0.000000 0.000000 -1.000000
vn 0.000000 0.000000 -1.000000
vn 0.000000 0.000000 1.000000
vn 0.000000 0.000000 1.000000
vn 0.000000 0.000000 1.000000
vn 0.000000 0.000000 1.000000
vn 0.000000 0.000000 1.000000
vn 0.000000 0.000000 1.000000
vn 0.000000 0.000000 1.000000
vn 0.000000 0.000000 1.000000
vn 0.000000 0.000000 1.000000
vn 0.000000 0.000000 1.000000
vn 0.000000 0.000000 1.000000
vn 0.000000 0.000000 1.000000
vn 0.000000 0.000000 1.000000
vn 0.000000 0.000000 1.000000
vn 0.000000 0.000000 1.000000
vn 0.000000 0.000000 1.000000
vn 0.000000 0.000000 1.000000
vn 0.000000 0.000000 1.000000
vn 0.000000 0.000000 1.000000
vn 0.000000 0.000000 1.000000
vn 0.000000 0.000000 1.000000
vn 0.000000 0.000000 1.000000
vn 0.000000 0.000000 1.000000
vn 0.000000 0.000000 1.000000
vn 1.000000 0.000000 0.000000
vn 1.000000 0.000000 0.000000
vn 1.000000 0.000000 0.000000
vn 1.000000 0.000000 0.000000
vn 0.000000 1.000000 0.000000
vn 0.000000 1.000000 0.000000
vn 0.000000 1.000000 0.000000
vn 0.000000 1.000000 0.000000
vn -1.000000 0.000000 0.000000
vn -1.000000 0.000000 0.000000
vn -1.000000 0.000000 0.000000
vn -1.000000 0.000000 0.000000
vn 0.000000 -1.000000 0.000000
vn 0.000000 -1.000000 0.000000
vn 0.000000 -1.000000 0.000000
vn 0.000000 -1.000000 0.000000
vn 0.000000 1.000000 0.000000
vn 0.000000 1.000000 0.000000
vn 0.000000 1.000000 0.000000
vn 0.000000 1.000000 0.000000
vn 1.000000 0.000000 0.000000
vn 1.000000 0.000000 0.000000
vn 1.000000 0.000000 0.000000
vn 1.000000 0.000000 0.000000
vn 0.000000 -1.000000 0.000000
vn 0.000000 -1.000000 0.000000
vn 0.000000 -1.000000 0.000000
vn 0.000000 -1.000000 0.000000
vn -1.000000 0.000000 0.000000
vn -1.000000 0.000000 0.000000
vn -1.000000 0.000000 0.000000
vn -1.000000 0.000000 0.000000
vn 0.000000 0.000000 1.000000
vn 0.000000 0.000000 1.000000
vn 0.000000 0.000000 1.000000
vn 0.000000 0.000000 1.000000
vn -0.000000 0.000000 -1.000000
vn -0.000000 0.000000 -1.000000
vn -0.000000 0.000000 -1.000000
vn -0.000000 0.000000 -1.000000
vn 0.000000 0.000000 -1.000000
vn 0.000000 0.000000 -1.000000
vn 0.000000 0.000000 -1.000000
vn 0.000000 0.000000 -1.000000
vn 0.000000 0.000000 1.000000
vn 0.000000 0.000000 1.000000
vn 0.000000 0.000000 1.000000
vn 0.000000 0.000000 1.000000
vn -0.000000 0.000000 1.000000
vn -0.000000 0.000000 1.000000
vn -0.000000 0.000000 1.000000
vn -0.000000 0.000000 1.000000
vn 0.000000 0.000000 -1.000000
vn 0.000000 0.000000 -1.000000
vn 0.000000 0.000000 -1.000000
vn 0.000000 0.000000 -1.000000
vn 0.000000 0.000000 1.000000
vn 0.000000 0.000000 1.000000
vn 0.000000 0.000000 1.000000
vn 0.000000 0.000000 1.000000
vn 0.000000 0.000000 -1.000000
vn 0.000000 0.000000 -1.000000
vn 0.000000 0.000000 -1.000000
vn 0.000000 0.000000 -1.000000
vn 0.000000 1.000000 0.000000
vn 0.000000 1.000000 0.000000
vn 0.000000 1.000000 0.000000
vn 0.000000 1.000000 0.000000
vn 0.832879 0.553455 0.000000
vn 0.832879 0.553455 0.000000
vn 0.832879 0.553455 0.000000
vn 0.832879 0.553455 0.000000
vn -0.832879 0.553455 0.000000
vn -0.832879 0.553455 0.000000
vn -0.832879 0.553455 0.000000
vn -0.832879 0.553455 0.000000
vn 0.000000 0.000000 -1.000000
vn 0.000000 0.000000 -1.000000
vn 0.000000 0.000000 -1.000000
vn 0.000000 0.000000 -1.000000
vn 0.000000 0.000000 -1.000000
vn 0.000000 0.000000 -1.000000
vn 0.000000 0.000000 -1.000000
vn 0.000000 0.000000 -1.000000
vn -0.000000 0.000000 -1.000000
vn -0.000000 0.000000 -1.000000
vn -0.000000 0.000000 -1.000000
vn -0.000000 0.000000 -1.000000
vn -0.000000 0.000000 1.000000
vn -0.000000 0.000000 1.000000
vn -0.000000 0.000000 1.000000
vn -0.000000 0.000000 1.000000
vn 0.000000 0.000000 1.000000
vn 0.000000 0.000000 1.000000
vn 0.000000 0.000000 1.000000
vn 0.000000 0.000000 1.000000
vn -0.000000 0.000000 1.000000
vn -0.000000 0.000000 1.000000
vn -0.000000 0.000000 1.000000
vn -0.000000 0.000000 1.000000
vn 0.853006 -0.521900 0.000000
vn 0.853006 -0.521900 0.000000
vn 0.853006 -0.521900 0.000000
vn 0.853006 -0.521900 0.000000
vn -0.853006 -0.521900 0.000000
vn -0.853006 -0.521900 0.000000
vn -0.853006 -0.521900 0.000000
vn -0.853006 -0.521900 0.000000
vn 0.000000 -1.000000 0.000000
vn 0.000000 -1.000000 0.000000
vn 0.000000 -1.000000 0.000000
vn 0.000000 -1.000000 0.000000
s off
f 65/209/1 66/210/2 67/211/3 68/212/4
f 68/213/5 69/214/6 70/215/7 65/216/8
f 71/217/9 70/218/10 69/219/11 72/220/12
f 66/221/13 71/222/14 72/223/15 67/224/16
f 30/163/17 31/87/18 27/43/19 26/104/20
f 45/120/21 46/117/22 35/51/23 36/157/24
f 8/11/25 9/191/26 56/76/27 29/45/28 25/41/29 52/95/30 10/25/31 2/172/32
f 8/171/33 6/12/34 11/90/35 23/177/36 18/85/37 9/26/38
f 32/159/39 53/81/40 11/27/41 6/174/42 4/4/43 12/179/44 49/100/45 28/44/46
f 4/173/47 2/19/48 10/102/49 17/189/50 24/107/51 12/28/52
f 40/152/53 33/122/54 48/114/55 13/187/56 7/169/57 1/1/58 14/142/59 44/134/60
f 1/170/61 3/22/62 15/184/63 22/145/64 20/143/65 14/141/66
f 3/175/67 5/14/68 16/130/69 45/119/70 36/158/71 37/148/72 41/139/73 15/183/74
f 5/176/75 7/13/76 13/188/77 19/186/78 21/181/79 16/129/80
f 25/168/81 29/83/82 30/162/83 26/105/84
f 47/113/85 48/64/86 33/49/87 34/125/88
f 46/118/89 47/112/90 34/50/91 35/128/92
f 27/166/93 31/88/94 32/48/95 28/109/96
f 41/140/97 42/137/98 22/38/99 15/31/100
f 49/101/101 50/98/102 27/165/103 28/110/104
f 50/99/105 51/93/106 26/42/107 27/164/108
f 51/94/109 52/68/110 25/167/111 26/106/112
f 43/133/113 44/60/114 14/30/115 20/144/116
f 42/138/117 43/132/118 20/36/119 22/146/120
f 55/75/121 56/72/122 9/192/123 18/86/124
f 54/80/125 55/74/126 18/34/127 23/178/128
f 53/82/129 54/79/130 23/39/131 11/91/132
f 39/55/133 34/124/134 33/121/135 40/153/136
f 38/54/137 35/127/138 34/123/139 39/149/140
f 36/52/141 35/126/142 38/154/143 37/147/144
f 37/53/145 38/155/146 42/136/147 41/57/148
f 38/156/149 39/150/150 43/131/151 42/58/152
f 39/151/153 40/56/154 44/135/155 43/59/156
f 21/182/157 46/116/158 45/61/159 16/32/160
f 19/35/161 47/111/162 46/62/163 21/37/164
f 13/29/165 48/115/166 47/63/167 19/185/168
f 24/108/169 50/97/170 49/65/171 12/180/172
f 17/190/173 51/92/174 50/66/175 24/40/176
f 10/103/177 52/96/178 51/67/179 17/33/180
f 32/160/181 31/89/182 54/78/183 53/69/184
f 31/47/185 30/46/186 55/73/187 54/70/188
f 30/161/189 29/84/190 56/77/191 55/71/192
f 5/5/193 58/195/194 57/194/195 7/24/196
f 59/197/197 58/196/198 5/18/199 3/3/200
f 1/20/201 60/199/202 59/198/203 3/17/204
f 7/7/205 57/193/206 60/200/207 1/9/208
f 4/15/209 6/6/210 62/204/211 61/201/212
f 63/206/213 62/203/214 6/16/215 8/8/216
f 64/208/217 63/205/218 8/23/219 2/10/220
f 61/202/221 64/207/222 2/2/223 4/21/224
f 59/225/225 60/226/226 66/227/227 65/228/228
f 64/229/229 61/230/230 68/231/231 67/232/232
f 61/230/233 62/233/234 69/234/235 68/231/236
f 58/235/237 59/225/238 65/228/239 70/236/240
f 57/237/241 58/235/242 70/236/243 71/238/244
f 62/233/245 63/239/246 72/240/247 69/234/248
f 60/226/249 57/237/250 71/238/251 66/227/252
f 63/239/253 64/229/254 67/232/255 72/240/256
f 73/241/257 74/242/258 76/243/259 75/244/260
f 74/245/261 80/246/262 78/247/263 76/248/264
f 79/249/265 73/250/266 75/251/267 77/252/268
f 75/253/269 76/254/270 82/255/271 81/256/272
f 76/257/273 78/258/274 83/259/275 82/260/276
f 77/261/277 75/262/278 81/263/279 84/264/280
f 80/265/281 74/266/282 87/267/283 86/268/284
f 74/269/285 73/270/286 88/271/287 87/272/288
f 73/273/289 79/274/290 85/275/291 88/276/292
f 84/277/293 81/278/294 88/279/295 85/280/296
f 83/281/297 86/282/298 87/283/299 82/284/300
f 82/285/301 87/286/302 88/287/303 81/288/304
