# This file uses meters as units for non-parametric coordinates.

v -0.206008 0.791993 -0.338314
v 0.206008 0.791993 -0.338314
v -0.206008 1.004417 -0.338314
v 0.206008 1.004417 -0.338314
v -0.206008 1.004417 -0.647058
v 0.206008 1.004417 -0.647058
v -0.206008 0.791993 -0.647058
v 0.206008 0.791993 -0.647058
v -0.179070 0.651588 0.008749
v 0.183825 0.651588 0.008749
v -0.179070 0.980656 0.008749
v 0.183825 0.980656 0.008749
v -0.179070 0.980656 -0.579248
v 0.183825 0.980656 -0.579248
v -0.179070 0.651588 -0.579248
v 0.183825 0.651588 -0.579248
v -0.113469 0.651588 -0.470444
v 0.118224 0.651588 -0.470444
v 0.118224 0.651588 -0.176098
v -0.113469 0.651588 -0.176098
v -0.113469 0.146259 -0.470444
v 0.118224 0.146259 -0.470444
v 0.118224 0.146259 -0.176098
v -0.113469 0.146259 -0.176098
v -0.052897 0.146259 -0.440295
v 0.057652 0.146259 -0.440295
v 0.057652 0.146259 -0.274422
v -0.052897 0.146259 -0.274422
v -0.052897 0.000000 -0.440295
v 0.057652 0.000000 -0.440295
v 0.057652 0.000000 -0.274422
v -0.052897 0.000000 -0.274422
v -0.161861 0.667193 0.008749
v 0.166616 0.667193 0.008749
v 0.166616 0.965051 0.008749
v -0.161861 0.965051 0.008749
v -0.099351 0.723876 0.647058
v 0.104106 0.723876 0.647058
v 0.104106 0.908368 0.647058
v -0.099351 0.908368 0.647058
v 0.129502 0.931397 0.077931
v -0.124747 0.931397 0.077931
v -0.124747 0.700847 0.077931
v 0.129502 0.700847 0.077931
v 0.166616 0.965051 0.077931
v -0.161861 0.965051 0.077931
v -0.161861 0.667193 0.077931
v 0.166616 0.667193 0.077931
v -0.067126 0.753098 0.345706
v -0.067126 0.879147 0.345706
v 0.071881 0.879147 0.345706
v 0.071881 0.753098 0.345706
v 0.129502 0.931397 0.248325
v -0.124747 0.931397 0.248325
v -0.124747 0.700847 0.248325
v 0.129502 0.700847 0.248325
v -0.099351 0.723876 0.563827
v -0.099351 0.908368 0.563827
v 0.104106 0.908368 0.563827
v 0.104106 0.723876 0.563827
v 0.071881 0.879147 0.490005
v -0.067126 0.879147 0.490005
v -0.067126 0.753098 0.490005
v 0.071881 0.753098 0.490005
v -0.058241 0.761154 0.647058
v 0.062996 0.761154 0.647058
v 0.062996 0.871090 0.647058
v -0.058241 0.871090 0.647058
v 0.118224 0.571371 -0.176098
v -0.113469 0.571371 -0.176098
v -0.113469 0.242663 -0.176098
v 0.118224 0.242663 -0.176098
v -0.113469 0.242663 -0.371853
v -0.113469 0.571371 -0.371853
v 0.118224 0.242663 -0.371853
v 0.118224 0.571371 -0.371853
vt 0.200421 0.063621
vt 0.173959 0.063621
vt 0.234722 0.063621
vt 0.200421 0.063621
vt 0.173959 0.063621
vt 0.234722 0.063621
vt 0.139658 0.063621
vt 0.173959 0.063621
vt 0.139658 0.063621
vt 0.139658 0.063621
vt 0.200421 0.063621
vt 0.200421 0.063621
vt 0.200421 0.063621
vt 0.200421 0.063621
vt 0.234722 0.063621
vt 0.173959 0.063621
vt 0.173959 0.063621
vt 0.234722 0.063621
vt 0.200421 0.063621
vt 0.173959 0.063621
vt 0.173959 0.063621
vt 0.200421 0.063621
vt 0.139658 0.063621
vt 0.173959 0.063621
vt 0.143782 0.476890
vt 0.143782 0.476890
vt 0.143782 0.476890
vt 0.143782 0.476890
vt 0.267807 0.170290
vt 0.267807 0.170290
vt 0.267807 0.170290
vt 0.267807 0.170290
vt 0.207044 0.170290
vt 0.207044 0.170290
vt 0.207044 0.170290
vt 0.207044 0.170290
vt 0.172743 0.085214
vt 0.172743 0.085214
vt 0.172743 0.085214
vt 0.172743 0.085214
vt 0.232131 0.170229
vt 0.232131 0.170229
vt 0.232131 0.170229
vt 0.232131 0.170229
vt 0.233505 0.170290
vt 0.233505 0.170290
vt 0.233505 0.170290
vt 0.233505 0.170290
vt 0.172743 0.170290
vt 0.172743 0.170290
vt 0.172743 0.170290
vt 0.172743 0.170290
vt 0.172743 0.170290
vt 0.172743 0.170290
vt 0.172743 0.170290
vt 0.172743 0.170290
vt 0.172743 0.170290
vt 0.172743 0.170290
vt 0.172743 0.170290
vt 0.172743 0.170290
vt 0.172743 0.170290
vt 0.172743 0.170290
vt 0.172743 0.170290
vt 0.172743 0.170290
vt 0.206555 0.170290
vt 0.206555 0.170290
vt 0.206555 0.170290
vt 0.206555 0.170290
vt 0.201228 0.060066
vt 0.201228 0.060066
vt 0.201228 0.060066
vt 0.201228 0.060066
vt 0.175652 0.060127
vt 0.175652 0.060127
vt 0.175652 0.060127
vt 0.175652 0.060127
vt 0.232131 0.170229
vt 0.232131 0.170229
vt 0.232131 0.170229
vt 0.232131 0.170229
vt 0.172743 0.170290
vt 0.172743 0.170290
vt 0.172743 0.170290
vt 0.172743 0.170290
vt 0.172743 0.170290
vt 0.172743 0.170290
vt 0.172743 0.170290
vt 0.172743 0.170290
vt 0.172743 0.170290
vt 0.172743 0.170290
vt 0.172743 0.170290
vt 0.172743 0.170290
vt 0.172743 0.170290
vt 0.172743 0.170290
vt 0.172743 0.170290
vt 0.172743 0.170290
vt 0.206555 0.085214
vt 0.206555 0.085214
vt 0.206555 0.085214
vt 0.206555 0.085214
vt 0.232131 0.085153
vt 0.232131 0.085153
vt 0.232131 0.085153
vt 0.232131 0.085153
vt 0.206555 0.085214
vt 0.206555 0.085214
vt 0.206555 0.085214
vt 0.206555 0.085214
vt 0.232131 0.085153
vt 0.232131 0.085153
vt 0.232131 0.085153
vt 0.232131 0.085153
vt 0.207044 0.170290
vt 0.207044 0.170290
vt 0.207044 0.170290
vt 0.207044 0.170290
vt 0.207044 0.170290
vt 0.207044 0.170290
vt 0.207044 0.170290
vt 0.207044 0.170290
vt 0.207044 0.170290
vt 0.207044 0.170290
vt 0.207044 0.170290
vt 0.207044 0.170290
vt 0.207044 0.170290
vt 0.207044 0.170290
vt 0.207044 0.170290
vt 0.207044 0.170290
vt 0.107425 0.062253
vt 0.107425 0.062253
vt 0.107425 0.062253
vt 0.107425 0.062253
vt 0.168506 0.062309
vt 0.168506 0.062309
vt 0.168506 0.062309
vt 0.168506 0.062309
vt 0.200137 0.062309
vt 0.200137 0.062309
vt 0.200137 0.062309
vt 0.200137 0.062309
vt 0.168506 0.062309
vt 0.168506 0.062309
vt 0.168506 0.062309
vt 0.168506 0.062309
vt 0.204863 0.088593
vt 0.204863 0.088593
vt 0.204863 0.088593
vt 0.204863 0.088593
vt 0.204863 0.088593
vt 0.204863 0.088593
vt 0.204863 0.088593
vt 0.204863 0.088593
vt 0.204863 0.088593
vt 0.204863 0.088593
vt 0.204863 0.088593
vt 0.204863 0.088593
vt 0.204863 0.088593
vt 0.204863 0.088593
vt 0.204863 0.088593
vt 0.204863 0.088593
vt 0.265943 0.088486
vt 0.265943 0.088486
vt 0.265943 0.088486
vt 0.265943 0.088486
vt 0.234312 0.088486
vt 0.234312 0.088486
vt 0.234312 0.088486
vt 0.234312 0.088486
vt 0.173232 0.088430
vt 0.173232 0.088430
vt 0.173232 0.088430
vt 0.173232 0.088430
vt 0.234312 0.088486
vt 0.234312 0.088486
vt 0.234312 0.088486
vt 0.234312 0.088486
vt 0.170687 0.062309
vt 0.170687 0.062309
vt 0.170687 0.062309
vt 0.170687 0.062309
vt 0.202318 0.062309
vt 0.202318 0.062309
vt 0.202318 0.062309
vt 0.202318 0.062309
vt 0.170687 0.062309
vt 0.170687 0.062309
vt 0.170687 0.062309
vt 0.170687 0.062309
vt 0.109607 0.062253
vt 0.109607 0.062253
vt 0.109607 0.062253
vt 0.109607 0.062253
vt 0.235040 0.062309
vt 0.235040 0.062309
vt 0.235040 0.062309
vt 0.235040 0.062309
vt 0.203409 0.062309
vt 0.203409 0.062309
vt 0.203409 0.062309
vt 0.203409 0.062309
vt 0.142329 0.062253
vt 0.142329 0.062253
vt 0.142329 0.062253
vt 0.142329 0.062253
vt 0.203409 0.062309
vt 0.203409 0.062309
vt 0.203409 0.062309
vt 0.203409 0.062309
vt 0.203409 0.062309
vt 0.203409 0.062309
vt 0.203409 0.062309
vt 0.203409 0.062309
vt 0.235040 0.062309
vt 0.235040 0.062309
vt 0.235040 0.062309
vt 0.235040 0.062309
vt 0.203409 0.062309
vt 0.203409 0.062309
vt 0.203409 0.062309
vt 0.203409 0.062309
vt 0.142329 0.062253
vt 0.142329 0.062253
vt 0.142329 0.062253
vt 0.142329 0.062253
vt 0.235040 0.062309
vt 0.235040 0.062309
vt 0.235040 0.062309
vt 0.235040 0.062309
vt 0.203409 0.062309
vt 0.203409 0.062309
vt 0.203409 0.062309
vt 0.203409 0.062309
vt 0.142329 0.062253
vt 0.142329 0.062253
vt 0.142329 0.062253
vt 0.142329 0.062253
vt 0.203409 0.062309
vt 0.203409 0.062309
vt 0.203409 0.062309
vt 0.203409 0.062309
vt 0.176141 0.062309
vt 0.176141 0.062309
vt 0.176141 0.062309
vt 0.176141 0.062309
vt 0.176141 0.062309
vt 0.176141 0.062309
vt 0.176141 0.062309
vt 0.176141 0.062309
vt 0.176141 0.062309
vt 0.176141 0.062309
vt 0.176141 0.062309
vt 0.176141 0.062309
vt 0.176141 0.062309
vt 0.176141 0.062309
vt 0.176141 0.062309
vt 0.176141 0.062309
vt 0.206555 0.170290
vt 0.206555 0.170290
vt 0.206555 0.170290
vt 0.206555 0.170290
vt 0.232131 0.170229
vt 0.232131 0.170229
vt 0.232131 0.170229
vt 0.232131 0.170229
vt 0.232131 0.170229
vt 0.232131 0.170229
vt 0.232131 0.170229
vt 0.232131 0.170229
vt 0.206555 0.170290
vt 0.206555 0.170290
vt 0.206555 0.170290
vt 0.206555 0.170290
vt 0.232131 0.170229
vt 0.232131 0.170229
vt 0.232131 0.170229
vt 0.232131 0.170229
vt 0.201228 0.060066
vt 0.201228 0.060066
vt 0.201228 0.060066
vt 0.201228 0.060066
vn 0.000000 0.000000 1.000000
vn 0.000000 0.000000 1.000000
vn 0.000000 0.000000 1.000000
vn 0.000000 0.000000 1.000000
vn 0.000000 1.000000 0.000000
vn 0.000000 1.000000 0.000000
vn 0.000000 1.000000 0.000000
vn 0.000000 1.000000 0.000000
vn 0.000000 0.000000 -1.000000
vn 0.000000 0.000000 -1.000000
vn 0.000000 0.000000 -1.000000
vn 0.000000 0.000000 -1.000000
vn 0.000000 -1.000000 0.000000
vn 0.000000 -1.000000 0.000000
vn 0.000000 -1.000000 0.000000
vn 0.000000 -1.000000 0.000000
vn 1.000000 0.000000 0.000000
vn 1.000000 0.000000 0.000000
vn 1.000000 0.000000 0.000000
vn 1.000000 0.000000 0.000000
vn -1.000000 0.000000 0.000000
vn -1.000000 0.000000 0.000000
vn -1.000000 0.000000 0.000000
vn -1.000000 0.000000 0.000000
vn 0.000000 0.000000 1.000000
vn 0.000000 0.000000 1.000000
vn 0.000000 0.000000 1.000000
vn 0.000000 0.000000 1.000000
vn 0.000000 1.000000 0.000000
vn 0.000000 1.000000 0.000000
vn 0.000000 1.000000 0.000000
vn 0.000000 1.000000 0.000000
vn 0.000000 0.000000 -1.000000
vn 0.000000 0.000000 -1.000000
vn 0.000000 0.000000 -1.000000
vn 0.000000 0.000000 -1.000000
vn 0.000000 -1.000000 0.000000
vn 0.000000 -1.000000 0.000000
vn 0.000000 -1.000000 0.000000
vn 0.000000 -1.000000 0.000000
vn 1.000000 0.000000 0.000000
vn 1.000000 0.000000 0.000000
vn 1.000000 0.000000 0.000000
vn 1.000000 0.000000 0.000000
vn -1.000000 0.000000 0.000000
vn -1.000000 0.000000 0.000000
vn -1.000000 0.000000 0.000000
vn -1.000000 0.000000 0.000000
vn 0.000000 -1.000000 -0.000000
vn 0.000000 -1.000000 -0.000000
vn 0.000000 -1.000000 -0.000000
vn 0.000000 -1.000000 -0.000000
vn 0.000000 -1.000000 0.000000
vn 0.000000 -1.000000 0.000000
vn 0.000000 -1.000000 0.000000
vn 0.000000 -1.000000 0.000000
vn 0.000000 -1.000000 0.000000
vn 0.000000 -1.000000 0.000000
vn 0.000000 -1.000000 0.000000
vn 0.000000 -1.000000 0.000000
vn 0.000000 -1.000000 0.000000
vn 0.000000 -1.000000 0.000000
vn 0.000000 -1.000000 0.000000
vn 0.000000 -1.000000 0.000000
vn 0.000000 0.000000 -1.000000
vn 0.000000 0.000000 -1.000000
vn 0.000000 0.000000 -1.000000
vn 0.000000 0.000000 -1.000000
vn 1.000000 0.000000 0.000000
vn 1.000000 0.000000 0.000000
vn 1.000000 0.000000 0.000000
vn 1.000000 0.000000 0.000000
vn 0.000000 0.000000 1.000000
vn 0.000000 0.000000 1.000000
vn 0.000000 0.000000 1.000000
vn 0.000000 0.000000 1.000000
vn -1.000000 -0.000000 0.000000
vn -1.000000 0.000000 0.000000
vn -1.000000 0.000000 0.000000
vn -1.000000 -0.000000 0.000000
vn 0.000000 -1.000000 -0.000000
vn 0.000000 -1.000000 -0.000000
vn 0.000000 -1.000000 -0.000000
vn 0.000000 -1.000000 -0.000000
vn 0.000000 -1.000000 0.000000
vn 0.000000 -1.000000 0.000000
vn 0.000000 -1.000000 0.000000
vn 0.000000 -1.000000 0.000000
vn 0.000000 -1.000000 0.000000
vn 0.000000 -1.000000 0.000000
vn 0.000000 -1.000000 0.000000
vn 0.000000 -1.000000 0.000000
vn 0.000000 -1.000000 0.000000
vn 0.000000 -1.000000 0.000000
vn 0.000000 -1.000000 0.000000
vn 0.000000 -1.000000 0.000000
vn 0.000000 0.000000 -1.000000
vn 0.000000 0.000000 -1.000000
vn 0.000000 0.000000 -1.000000
vn 0.000000 0.000000 -1.000000
vn 1.000000 0.000000 0.000000
vn 1.000000 0.000000 0.000000
vn 1.000000 0.000000 0.000000
vn 1.000000 0.000000 0.000000
vn 0.000000 0.000000 1.000000
vn 0.000000 0.000000 1.000000
vn 0.000000 0.000000 1.000000
vn 0.000000 0.000000 1.000000
vn -1.000000 0.000000 0.000000
vn -1.000000 0.000000 0.000000
vn -1.000000 0.000000 0.000000
vn -1.000000 0.000000 0.000000
vn 0.000000 0.000000 1.000000
vn 0.000000 0.000000 1.000000
vn 0.000000 0.000000 1.000000
vn 0.000000 0.000000 1.000000
vn 0.000000 0.000000 1.000000
vn 0.000000 0.000000 1.000000
vn 0.000000 0.000000 1.000000
vn 0.000000 0.000000 1.000000
vn 0.000000 0.000000 1.000000
vn 0.000000 0.000000 1.000000
vn 0.000000 0.000000 1.000000
vn 0.000000 0.000000 1.000000
vn -0.000000 0.000000 1.000000
vn -0.000000 0.000000 1.000000
vn -0.000000 0.000000 1.000000
vn -0.000000 0.000000 1.000000
vn 0.000000 -0.992161 0.124966
vn 0.000000 -0.992161 0.124967
vn 0.000000 -0.958421 0.285358
vn 0.000000 -0.958421 0.285358
vn 0.989856 0.000000 0.142076
vn 0.989856 0.000000 0.142076
vn 0.951070 0.000000 0.308977
vn 0.951070 0.000000 0.308977
vn 0.000000 0.992161 0.124967
vn 0.000000 0.992161 0.124966
vn 0.000000 0.958421 0.285358
vn 0.000000 0.958421 0.285358
vn -0.989856 0.000000 0.142077
vn -0.989856 0.000000 0.142077
vn -0.951069 0.000000 0.308979
vn -0.951069 0.000000 0.308979
vn 0.000000 0.980140 0.198307
vn 0.000000 0.980140 0.198309
vn 0.000000 0.944871 0.327442
vn 0.000000 0.944871 0.327442
vn -0.969518 0.000000 0.245021
vn -0.969518 0.000000 0.245021
vn -0.938883 0.000000 0.344238
vn -0.938882 0.000000 0.344238
vn 0.000000 -0.980140 0.198307
vn 0.000000 -0.980140 0.198306
vn 0.000000 -0.944872 0.327441
vn 0.000000 -0.944872 0.327440
vn 0.969517 0.000000 0.245026
vn 0.969517 0.000000 0.245025
vn 0.938881 0.000000 0.344241
vn 0.938882 0.000000 0.344241
vn 0.000000 1.000000 0.000000
vn 0.000000 1.000000 0.000000
vn 0.000000 0.980140 0.198309
vn 0.000000 0.980140 0.198307
vn -1.000000 0.000000 0.000000
vn -1.000000 0.000000 0.000000
vn -0.969518 0.000000 0.245021
vn -0.969518 0.000000 0.245021
vn 0.000000 -1.000000 0.000000
vn 0.000000 -1.000000 0.000000
vn 0.000000 -0.980140 0.198306
vn 0.000000 -0.980140 0.198307
vn 1.000000 0.000000 0.000000
vn 1.000000 0.000000 0.000000
vn 0.969517 0.000000 0.245025
vn 0.969517 0.000000 0.245026
vn -0.982447 0.000000 -0.186541
vn -0.982447 0.000000 -0.186541
vn -0.987374 0.000000 -0.158407
vn -0.987374 0.000000 -0.158407
vn 0.000000 0.985187 -0.171484
vn 0.000000 0.985187 -0.171484
vn 0.000000 0.989982 -0.141192
vn 0.000000 0.989982 -0.141192
vn 0.982448 0.000000 -0.186538
vn 0.982448 0.000000 -0.186538
vn 0.987374 0.000000 -0.158405
vn 0.987374 0.000000 -0.158405
vn 0.000000 -0.985187 -0.171485
vn 0.000000 -0.985187 -0.171485
vn 0.000000 -0.989982 -0.141192
vn 0.000000 -0.989982 -0.141192
vn 0.000000 0.944871 0.327442
vn 0.000000 0.944871 0.327442
vn 0.000000 0.992161 0.124966
vn 0.000000 0.992161 0.124967
vn -0.938882 0.000000 0.344238
vn -0.938883 0.000000 0.344238
vn -0.989856 0.000000 0.142077
vn -0.989856 0.000000 0.142077
vn 0.000000 -0.944872 0.327440
vn 0.000000 -0.944872 0.327441
vn 0.000000 -0.992161 0.124967
vn 0.000000 -0.992161 0.124966
vn 0.938882 0.000000 0.344241
vn 0.938881 0.000000 0.344241
vn 0.989856 0.000000 0.142076
vn 0.989856 0.000000 0.142076
vn -0.987374 0.000000 -0.158407
vn -0.987374 0.000000 -0.158407
vn -1.000000 0.000000 0.000000
vn -1.000000 0.000000 0.000000
vn 0.000000 0.989982 -0.141192
vn 0.000000 0.989982 -0.141192
vn 0.000000 1.000000 0.000000
vn 0.000000 1.000000 0.000000
vn 0.987374 0.000000 -0.158405
vn 0.987374 0.000000 -0.158405
vn 1.000000 0.000000 0.000000
vn 1.000000 0.000000 0.000000
vn 0.000000 -0.989982 -0.141192
vn 0.000000 -0.989982 -0.141192
vn 0.000000 -1.000000 0.000000
vn 0.000000 -1.000000 0.000000
vn 0.000000 0.958421 0.285358
vn 0.000000 0.958421 0.285358
vn 0.000000 0.985187 -0.171484
vn 0.000000 0.985187 -0.171484
vn -0.951069 0.000000 0.308979
vn -0.951069 0.000000 0.308979
vn -0.982447 0.000000 -0.186541
vn -0.982447 0.000000 -0.186541
vn 0.000000 -0.958421 0.285358
vn 0.000000 -0.958421 0.285358
vn 0.000000 -0.985187 -0.171485
vn 0.000000 -0.985187 -0.171485
vn 0.951070 0.000000 0.308977
vn 0.951070 0.000000 0.308977
vn 0.982448 0.000000 -0.186538
vn 0.982448 0.000000 -0.186538
vn 0.000000 0.000000 1.000000
vn 0.000000 0.000000 1.000000
vn 0.000000 0.000000 1.000000
vn 0.000000 0.000000 1.000000
vn 0.000001 0.000000 1.000000
vn 0.000001 0.000000 1.000000
vn 0.000001 0.000000 1.000000
vn 0.000001 0.000000 1.000000
vn 0.000000 0.000000 1.000000
vn 0.000000 0.000000 1.000000
vn 0.000000 0.000000 1.000000
vn 0.000000 0.000000 1.000000
vn -0.000001 0.000000 1.000000
vn -0.000001 0.000000 1.000000
vn -0.000001 0.000000 1.000000
vn -0.000001 0.000000 1.000000
vn 0.000000 0.000000 1.000000
vn 0.000000 0.000000 1.000000
vn 0.000000 0.000000 1.000000
vn 0.000000 0.000000 1.000000
vn -1.000000 0.000000 0.000000
vn -1.000000 0.000000 0.000000
vn -1.000000 0.000000 0.000000
vn -1.000000 0.000000 0.000000
vn 1.000000 0.000000 0.000000
vn 1.000000 0.000000 0.000000
vn 1.000000 0.000000 0.000000
vn 1.000000 0.000000 0.000000
vn -1.000000 -0.000000 0.000000
vn -1.000000 -0.000000 0.000000
vn -1.000000 -0.000000 0.000000
vn -1.000000 -0.000000 0.000000
vn 0.000000 0.000000 1.000000
vn 0.000000 0.000000 1.000000
vn 0.000000 0.000000 1.000000
vn 0.000000 0.000000 1.000000
vn 1.000000 0.000000 0.000000
vn 1.000000 0.000000 0.000000
vn 1.000000 0.000000 0.000000
vn 1.000000 0.000000 0.000000
vn -1.000000 0.000000 0.000000
vn -1.000000 0.000000 0.000000
vn -1.000000 -0.000000 0.000000
vn -1.000000 -0.000000 0.000000
vn 1.000000 0.000000 0.000000
vn 1.000000 0.000000 0.000000
vn 1.000000 0.000000 0.000000
vn 1.000000 0.000000 0.000000
s off
f 1/20/1 2/2/2 4/21/3 3/17/4
f 3/3/5 4/15/6 6/6/7 5/18/8
f 5/5/9 6/16/10 8/8/11 7/24/12
f 7/7/13 8/23/14 2/10/15 1/9/16
f 2/19/17 8/11/18 6/12/19 4/4/20
f 7/13/21 1/1/22 3/22/23 5/14/24
f 65/25/25 66/26/26 67/27/27 68/28/28
f 11/29/29 12/30/30 14/31/31 13/32/32
f 13/33/33 14/34/34 16/35/35 15/36/36
f 29/37/37 30/38/38 31/39/39 32/40/40
f 10/41/41 16/42/42 14/43/43 12/44/44
f 15/45/45 9/46/46 11/47/47 13/48/48
f 15/49/49 16/50/50 18/51/51 17/52/52
f 16/53/53 10/54/54 19/55/55 18/56/56
f 10/57/57 9/58/58 20/59/59 19/60/60
f 9/61/61 15/62/62 17/63/63 20/64/64
f 17/65/65 18/66/66 22/67/67 21/68/68
f 75/69/69 76/70/70 69/71/71 72/72/72
f 69/73/73 70/74/74 71/75/75 72/76/76
f 73/77/77 74/78/78 17/79/79 21/80/80
f 21/81/81 22/82/82 26/83/83 25/84/84
f 22/85/85 23/86/86 27/87/87 26/88/88
f 23/89/89 24/90/90 28/91/91 27/92/92
f 24/93/93 21/94/94 25/95/95 28/96/96
f 25/97/97 26/98/98 30/99/99 29/100/100
f 26/101/101 27/102/102 31/103/103 30/104/104
f 27/105/105 28/106/106 32/107/107 31/108/108
f 28/109/109 25/110/110 29/111/111 32/112/112
f 9/113/113 10/114/114 34/115/115 33/116/116
f 10/117/117 12/118/118 35/119/119 34/120/120
f 12/121/121 11/122/122 36/123/123 35/124/124
f 11/125/125 9/126/126 33/127/127 36/128/128
f 55/129/129 56/130/130 52/131/131 49/132/132
f 56/133/133 53/134/134 51/135/135 52/136/136
f 53/137/137 54/138/138 50/139/139 51/140/140
f 54/141/141 55/142/142 49/143/143 50/144/144
f 45/145/145 46/146/146 42/147/147 41/148/148
f 46/149/149 47/150/150 43/151/151 42/152/152
f 47/153/153 48/154/154 44/155/155 43/156/156
f 48/157/157 45/158/158 41/159/159 44/160/160
f 35/161/161 36/162/162 46/163/163 45/164/164
f 36/165/165 33/166/166 47/167/167 46/168/168
f 33/169/169 34/170/170 48/171/171 47/172/172
f 34/173/173 35/174/174 45/175/175 48/176/176
f 62/177/177 63/178/178 57/179/179 58/180/180
f 61/181/181 62/182/182 58/183/183 59/184/184
f 64/185/185 61/186/186 59/187/187 60/188/188
f 63/189/189 64/190/190 60/191/191 57/192/192
f 41/193/193 42/194/194 54/195/195 53/196/196
f 42/197/197 43/198/198 55/199/199 54/200/200
f 43/201/201 44/202/202 56/203/203 55/204/204
f 44/205/205 41/206/206 53/207/207 56/208/208
f 58/209/209 57/210/210 37/211/211 40/212/212
f 59/213/213 58/214/214 40/215/215 39/216/216
f 60/217/217 59/218/218 39/219/219 38/220/220
f 57/221/221 60/222/222 38/223/223 37/224/224
f 51/225/225 50/226/226 62/227/227 61/228/228
f 50/229/229 49/230/230 63/231/231 62/232/232
f 49/233/233 52/234/234 64/235/235 63/236/236
f 52/237/237 51/238/238 61/239/239 64/240/240
f 37/241/241 38/242/242 66/243/243 65/244/244
f 38/245/245 39/246/246 67/247/247 66/248/248
f 39/249/249 40/250/250 68/251/251 67/252/252
f 40/253/253 37/254/254 65/255/255 68/256/256
f 19/257/257 20/258/258 70/259/259 69/260/260
f 20/261/261 17/79/262 74/78/263 70/262/264
f 18/263/265 19/264/266 69/265/267 76/266/268
f 71/267/269 73/77/270 21/80/271 24/268/272
f 72/269/273 71/270/274 24/271/275 23/272/276
f 22/273/277 75/274/278 72/275/279 23/276/280
f 70/277/281 74/278/282 73/279/283 71/280/284
f 18/263/285 76/266/286 75/274/287 22/273/288
