# This file uses meters as units for non-parametric coordinates.

v 0.680883 0.000000 0.232049
v 0.680883 0.000000 -0.400352
v 0.680883 0.465174 0.400352
v 0.680883 0.405730 -0.277259
v -0.680883 0.465174 0.400352
v -0.680883 0.405730 -0.277259
v -0.680883 0.000000 0.232049
v -0.680883 0.000000 -0.400352
v -0.586124 0.054373 0.251722
v 0.586124 0.054373 0.251722
v 0.586124 0.410801 0.380679
v -0.586124 0.410801 0.380679
v -0.042363 0.410801 0.380679
v -0.042363 0.054373 0.251722
v 0.042363 0.410801 0.380679
v 0.042363 0.054373 0.251722
v -0.680883 0.563940 0.127374
v 0.680883 0.563940 0.127374
vt 0.234504 0.087338
vt 0.218336 0.087338
vt 0.268806 0.087338
vt 0.234504 0.087338
vt 0.218337 0.087338
vt 0.249935 0.087338
vt 0.173742 0.087338
vt 0.218336 0.087338
vt 0.173742 0.087338
vt 0.173742 0.087338
vt 0.234504 0.087338
vt 0.234504 0.087338
vt 0.234504 0.087338
vt 0.234504 0.087338
vt 0.249935 0.087338
vt 0.218336 0.087338
vt 0.218337 0.087338
vt 0.268806 0.087338
vt 0.234504 0.087338
vt 0.218337 0.087338
vt 0.218336 0.087338
vt 0.234504 0.087338
vt 0.173742 0.087338
vt 0.218337 0.087338
vt 0.234504 0.087338
vt 0.234504 0.087338
vt 0.234504 0.087338
vt 0.234504 0.087338
vt 0.234504 0.087338
vt 0.234504 0.087338
vt 0.234504 0.087338
vt 0.234504 0.087338
vt 0.218337 0.087338
vt 0.249935 0.087338
vt 0.268806 0.087338
vt 0.218337 0.087338
vt 0.268806 0.087338
vt 0.249935 0.087338
vt 0.218337 0.087338
vt 0.218337 0.087338
vt 0.218336 0.087338
vt 0.218337 0.087338
vt 0.218337 0.087338
vt 0.218337 0.087338
vt 0.218336 0.087338
vt 0.218337 0.087338
vt 0.054753 0.985006
vt 0.054753 0.985006
vt 0.054753 0.985006
vt 0.054753 0.985006
vt 0.054753 0.985006
vt 0.054753 0.985006
vt 0.054753 0.985006
vt 0.054753 0.985006
vn 1.000000 0.000000 0.000000
vn 1.000000 0.000000 0.000000
vn 1.000000 -0.000000 0.000000
vn 0.000000 0.996174 -0.087390
vn 0.000000 0.996174 -0.087390
vn 0.000000 0.931341 -0.364149
vn 0.000000 0.931341 -0.364149
vn -1.000000 0.000000 0.000000
vn -1.000000 0.000000 0.000000
vn -1.000000 0.000000 0.000000
vn 0.000000 -1.000000 0.000000
vn 0.000000 -1.000000 0.000000
vn 0.000000 -1.000000 0.000000
vn 0.000000 -1.000000 0.000000
vn 0.000000 0.290319 -0.956930
vn 0.000000 0.290319 -0.956930
vn 0.000000 0.290319 -0.956930
vn 0.000000 0.290319 -0.956930
vn 0.000000 -0.340222 0.940345
vn 0.000000 -0.340222 0.940345
vn 0.000000 -0.340222 0.940345
vn 0.000000 -0.340222 0.940345
vn 0.000000 -0.340222 0.940345
vn 0.000000 -0.340222 0.940345
vn 0.000000 -0.340222 0.940345
vn 0.000000 -0.340222 0.940345
vn 0.000000 -0.340222 0.940345
vn 0.000000 -0.340222 0.940345
vn -0.000000 -0.340222 0.940345
vn -0.000000 -0.340222 0.940345
vn -0.000000 -0.340222 0.940345
vn -0.000000 -0.340222 0.940345
vn 0.000000 -0.340223 0.940345
vn 0.000000 -0.340223 0.940345
vn 0.000000 -0.340223 0.940345
vn 0.000000 -0.340223 0.940345
vn 0.000000 -0.340223 0.940345
vn 0.000000 -0.340223 0.940345
vn 0.000000 -0.340222 0.940345
vn 0.000000 -0.340222 0.940345
vn 0.000000 -0.340222 0.940345
vn 0.000000 -0.340222 0.940345
vn 0.000000 -0.340222 0.940345
vn 0.000000 -0.340222 0.940345
vn 0.000000 -0.340222 0.940345
vn 0.000000 -0.340222 0.940345
vn 0.000000 -0.340222 0.940345
vn 0.000000 -0.340222 0.940345
vn 0.000000 -0.340222 0.940345
vn 0.000000 -0.340222 0.940345
vn 0.000000 0.940345 0.340223
vn 0.000000 0.996174 -0.087390
vn 0.000000 0.996174 -0.087390
vn 0.000000 0.940345 0.340223
vn -1.000000 0.000000 0.000000
vn -1.000000 0.000000 0.000000
vn -1.000000 0.000000 0.000000
vn -1.000000 0.000000 0.000000
vn -1.000000 0.000000 0.000000
vn -1.000000 0.000000 0.000000
vn 1.000000 0.000000 0.000000
vn 1.000000 -0.000000 0.000000
vn 1.000000 0.000000 0.000000
vn 1.000000 0.000000 0.000000
vn 1.000000 0.000000 0.000000
vn 1.000000 0.000000 0.000000
s off
f 1/40/1 4/21/2 18/42/3
f 17/34/4 18/38/5 4/15/6 6/6/7
f 5/5/8 17/46/9 7/43/10
f 7/7/11 8/23/12 2/10/13 1/9/14
f 2/19/15 8/11/16 6/12/17 4/4/18
f 15/47/19 16/48/20 10/49/21 11/50/22
f 7/13/23 1/1/24 10/26/25 16/32/26 14/30/27 9/25/28
f 1/1/29 3/22/30 11/27/31 10/26/32
f 3/22/33 5/14/34 12/28/35 13/29/36 15/31/37 11/27/38
f 5/14/39 7/13/40 9/25/41 12/28/42
f 9/51/43 14/52/44 13/53/45 12/54/46
f 16/32/47 15/31/48 13/29/49 14/30/50
f 3/3/51 18/35/52 17/37/53 5/18/54
f 7/44/55 6/16/56 8/8/57
f 7/24/58 17/33/59 6/45/60
f 1/39/61 18/36/62 3/17/63
f 1/20/64 2/2/65 4/41/66
