# This file uses meters as units for non-parametric coordinates.

v 1.113461 0.000000 0.500000
v 1.113461 0.000000 -0.500000
v 1.113461 1.536423 0.500000
v 1.113461 1.536423 -0.500000
v -1.113461 1.536423 0.500000
v -1.113461 1.536423 -0.500000
v -1.113461 0.000000 0.500000
v -1.113461 0.000000 -0.500000
v -0.862468 0.369122 0.500000
v 0.862468 0.369122 0.500000
v 0.862468 1.167302 0.500000
v -0.862468 1.167302 0.500000
v -0.803974 0.436019 0.500000
v 0.803973 0.436019 0.500000
v 0.803973 1.100404 0.500000
v -0.803974 1.100404 0.500000
v 0.044737 1.100404 0.500000
v 0.044737 0.436019 0.500000
v -0.044738 1.100404 0.500000
v -0.044738 0.436019 0.500000
v 0.161823 0.962076 0.500000
v 0.161823 0.874867 0.500000
v 0.397760 0.874867 0.500000
v 0.397760 0.962076 0.500000
v -0.397760 0.874867 0.500000
v -0.161824 0.874867 0.500000
v -0.161824 0.962076 0.500000
v -0.397760 0.962076 0.500000
v 0.811758 1.536423 0.364521
v 0.811758 1.536423 -0.364521
v -0.811759 1.536423 -0.364521
v -0.811759 1.536423 0.364521
v 0.811758 1.650133 0.364521
v 0.811758 1.650133 -0.364521
v -0.811759 1.650133 -0.364521
v -0.811759 1.650133 0.364521
v 0.074931 1.650133 -0.132360
v 0.074931 1.650133 -0.276804
v -0.074932 1.650133 -0.276804
v -0.074932 1.650133 -0.132360
v 0.246586 3.154396 -0.107523
v 0.246586 3.154396 -0.301641
v -0.246587 3.154396 -0.301641
v -0.246588 3.154396 -0.107523
v -0.246588 2.654008 -0.107523
v 0.246586 2.654008 -0.107523
v 0.246586 2.654008 -0.301641
v -0.246587 2.654008 -0.301641
v -0.074932 2.654008 -0.132360
v 0.074931 2.654008 -0.132360
v 0.074931 2.654008 -0.276804
v -0.074932 2.654008 -0.276804
v 0.831485 2.176289 0.089581
v 0.831485 2.176289 -0.093333
v 0.831485 3.350994 0.089581
v 0.831485 3.350994 -0.093332
v -0.835945 3.350994 0.089581
v -0.835945 3.350994 -0.093333
v -0.835945 2.176289 0.089581
v -0.835945 2.176289 -0.093333
v -0.686028 2.281906 0.089581
v 0.681567 2.281906 0.089581
v 0.681567 3.245377 0.089581
v -0.686028 3.245377 0.089581
v -0.686028 2.281906 0.040347
v 0.681567 2.281906 0.040347
v 0.681567 3.245377 0.040348
v -0.686028 3.245377 0.040347
vt 0.328398 0.475915
vt 0.301937 0.475915
vt 0.362700 0.475915
vt 0.328398 0.475915
vt 0.301937 0.475915
vt 0.362700 0.475915
vt 0.267636 0.475915
vt 0.301937 0.475915
vt 0.267636 0.475915
vt 0.267636 0.475915
vt 0.328398 0.475915
vt 0.328398 0.475915
vt 0.328398 0.475915
vt 0.328398 0.475915
vt 0.362700 0.475915
vt 0.301937 0.475915
vt 0.301937 0.475915
vt 0.362700 0.475915
vt 0.328398 0.475915
vt 0.301937 0.475915
vt 0.301937 0.475915
vt 0.328398 0.475915
vt 0.267636 0.475915
vt 0.301937 0.475915
vt 0.178616 0.062593
vt 0.178616 0.062593
vt 0.178616 0.062593
vt 0.178616 0.062593
vt 0.299011 0.475915
vt 0.299011 0.475915
vt 0.178616 0.062593
vt 0.299011 0.475915
vt 0.178616 0.062593
vt 0.178616 0.062593
vt 0.299011 0.475915
vt 0.178616 0.062593
vt 0.178616 0.062593
vt 0.178616 0.062593
vt 0.178616 0.062593
vt 0.299011 0.475915
vt 0.299011 0.475915
vt 0.178616 0.062593
vt 0.178616 0.062593
vt 0.178616 0.062593
vt 0.178616 0.062593
vt 0.299011 0.475915
vt 0.178616 0.062593
vt 0.178616 0.062593
vt 0.178616 0.062593
vt 0.178616 0.062593
vt 0.178616 0.062593
vt 0.299011 0.475915
vt 0.328398 0.475915
vt 0.178616 0.062593
vt 0.328398 0.475915
vt 0.178616 0.062593
vt 0.328398 0.475915
vt 0.178616 0.062593
vt 0.328398 0.475915
vt 0.178616 0.062593
vt 0.171981 0.063541
vt 0.299011 0.475915
vt 0.299011 0.475915
vt 0.299011 0.475915
vt 0.171981 0.063541
vt 0.299011 0.475915
vt 0.299011 0.475915
vt 0.299011 0.475915
vt 0.171981 0.063541
vt 0.299011 0.475915
vt 0.171981 0.063541
vt 0.171981 0.063541
vt 0.171981 0.063541
vt 0.299011 0.475915
vt 0.171981 0.063541
vt 0.171981 0.063541
vt 0.299011 0.475915
vt 0.299011 0.475915
vt 0.299011 0.475915
vt 0.299011 0.475915
vt 0.299011 0.475915
vt 0.299011 0.475915
vt 0.299011 0.475915
vt 0.299011 0.475915
vt 0.299011 0.475915
vt 0.299011 0.475915
vt 0.299011 0.475915
vt 0.299011 0.475915
vt 0.299011 0.475915
vt 0.299011 0.475915
vt 0.299011 0.475915
vt 0.299011 0.475915
vt 0.294445 0.089861
vt 0.326676 0.089861
vt 0.294445 0.089861
vt 0.326676 0.089861
vt 0.362700 0.089861
vt 0.326676 0.089861
vt 0.294445 0.089861
vt 0.326676 0.089861
vt 0.326676 0.089861
vt 0.294445 0.089861
vt 0.362700 0.475915
vt 0.294445 0.089861
vt 0.326676 0.089861
vt 0.326676 0.089861
vt 0.362700 0.475915
vt 0.326676 0.089861
vt 0.362700 0.089861
vt 0.362700 0.089861
vt 0.294445 0.089861
vt 0.362700 0.475915
vt 0.294445 0.089861
vt 0.362700 0.089861
vt 0.294445 0.089861
vt 0.362700 0.475915
vt 0.293497 0.089137
vt 0.327624 0.089137
vt 0.293497 0.089137
vt 0.327624 0.089137
vt 0.271693 0.086293
vt 0.236617 0.086293
vt 0.202490 0.086293
vt 0.236617 0.086293
vt 0.236617 0.086293
vt 0.202490 0.086293
vt 0.362700 0.089861
vt 0.202490 0.086293
vt 0.236617 0.086293
vt 0.327624 0.089137
vt 0.362700 0.089861
vt 0.327624 0.089137
vt 0.271693 0.086293
vt 0.271693 0.086293
vt 0.293497 0.089137
vt 0.362700 0.089861
vt 0.202490 0.086293
vt 0.271693 0.086293
vt 0.293497 0.089137
vt 0.362700 0.089861
vt 0.202490 0.086293
vt 0.236617 0.086293
vt 0.236617 0.086293
vt 0.202490 0.086293
vt 0.202490 0.086293
vt 0.236617 0.086293
vt 0.236617 0.086293
vt 0.202490 0.086293
vt 0.202490 0.086293
vt 0.236617 0.086293
vt 0.327624 0.089137
vt 0.293497 0.089137
vt 0.293497 0.089137
vt 0.327624 0.089137
vt 0.327624 0.089137
vt 0.293497 0.089137
vt 0.236617 0.086293
vt 0.202490 0.086293
vt 0.327624 0.089137
vt 0.293497 0.089137
vt 0.202490 0.086293
vt 0.236617 0.086293
vt 0.236617 0.086293
vt 0.202490 0.086293
vt 0.236617 0.086293
vt 0.202490 0.086293
vt 0.202490 0.086293
vt 0.236617 0.086293
vt 0.236617 0.086293
vt 0.202490 0.086293
vt 0.202490 0.086293
vt 0.236617 0.086293
vt 0.362700 0.089861
vt 0.362700 0.089861
vt 0.362700 0.089861
vt 0.362700 0.089861
vt 0.362700 0.089861
vt 0.362700 0.089861
vt 0.362700 0.089861
vt 0.362700 0.089861
vt 0.204295 0.063541
vt 0.204295 0.063541
vt 0.204295 0.063541
vt 0.204295 0.063541
vt 0.265057 0.063541
vt 0.265057 0.063541
vt 0.265057 0.063541
vt 0.265057 0.063541
vt 0.204295 0.063541
vt 0.204295 0.063541
vt 0.204295 0.063541
vt 0.204295 0.063541
vt 0.169993 0.063541
vt 0.169993 0.063541
vt 0.169993 0.063541
vt 0.169993 0.063541
vt 0.230756 0.063541
vt 0.230756 0.063541
vt 0.230756 0.063541
vt 0.230756 0.063541
vt 0.599585 0.600445
vt 0.997501 0.600445
vt 0.997501 0.998362
vt 0.599585 0.998362
vt 0.230756 0.063541
vt 0.230756 0.063541
vt 0.230756 0.063541
vt 0.230756 0.063541
vt 0.230756 0.063541
vt 0.230756 0.063541
vt 0.230756 0.063541
vt 0.230756 0.063541
vt 0.299011 0.063541
vt 0.299011 0.063541
vt 0.299011 0.063541
vt 0.299011 0.063541
vt 0.172929 0.063541
vt 0.172929 0.063541
vt 0.172929 0.063541
vt 0.172929 0.063541
vt 0.172929 0.063541
vt 0.172929 0.063541
vt 0.172929 0.063541
vt 0.172929 0.063541
vt 0.172929 0.063541
vt 0.172929 0.063541
vt 0.172929 0.063541
vt 0.172929 0.063541
vn 1.000000 0.000000 0.000000
vn 1.000000 0.000000 0.000000
vn 1.000000 0.000000 0.000000
vn 1.000000 0.000000 0.000000
vn 0.000000 1.000000 0.000000
vn 0.000000 1.000000 0.000000
vn 0.000000 1.000000 0.000000
vn 0.000000 1.000000 0.000000
vn -1.000000 0.000000 -0.000000
vn -1.000000 0.000000 -0.000000
vn -1.000000 0.000000 -0.000000
vn -1.000000 0.000000 -0.000000
vn 0.000000 -1.000000 0.000000
vn 0.000000 -1.000000 0.000000
vn 0.000000 -1.000000 0.000000
vn 0.000000 -1.000000 0.000000
vn 0.000000 0.000000 -1.000000
vn 0.000000 0.000000 -1.000000
vn 0.000000 0.000000 -1.000000
vn 0.000000 0.000000 -1.000000
vn 0.000000 0.000000 1.000000
vn 0.000000 0.000000 1.000000
vn 0.000000 0.000000 1.000000
vn 0.000000 0.000000 1.000000
vn 0.000000 0.000000 1.000000
vn 0.000000 0.000000 1.000000
vn 0.000000 0.000000 1.000000
vn 0.000000 0.000000 1.000000
vn -0.000000 0.000000 1.000000
vn -0.000000 0.000000 1.000000
vn -0.000000 0.000000 1.000000
vn -0.000000 0.000000 1.000000
vn 0.000000 0.000000 1.000000
vn 0.000000 0.000000 1.000000
vn 0.000000 0.000000 1.000000
vn 0.000000 0.000000 1.000000
vn 0.000000 0.000000 1.000000
vn 0.000000 0.000000 1.000000
vn 0.000000 0.000000 1.000000
vn 0.000000 0.000000 1.000000
vn 0.000000 0.000000 1.000000
vn 0.000000 0.000000 1.000000
vn 0.000000 0.000000 1.000000
vn 0.000000 0.000000 1.000000
vn 0.000000 0.000000 1.000000
vn 0.000000 0.000000 1.000000
vn 0.000001 0.000000 1.000000
vn 0.000001 0.000000 1.000000
vn 0.000001 0.000000 1.000000
vn 0.000001 0.000000 1.000000
vn 0.000000 0.000000 1.000000
vn 0.000000 0.000000 1.000000
vn 0.000000 0.000000 1.000000
vn 0.000000 0.000000 1.000000
vn 0.000000 0.000000 1.000000
vn 0.000000 0.000000 1.000000
vn -0.000001 0.000000 1.000000
vn -0.000001 0.000000 1.000000
vn -0.000001 0.000000 1.000000
vn -0.000001 0.000000 1.000000
vn 0.000001 0.000000 1.000000
vn 0.000001 0.000000 1.000000
vn 0.000001 0.000000 1.000000
vn 0.000001 0.000000 1.000000
vn 0.000000 0.000000 1.000000
vn 0.000000 0.000000 1.000000
vn 0.000000 0.000000 1.000000
vn 0.000000 0.000000 1.000000
vn -0.000000 0.000000 1.000000
vn -0.000000 0.000000 1.000000
vn -0.000000 0.000000 1.000000
vn -0.000000 0.000000 1.000000
vn 0.000000 0.000000 1.000000
vn 0.000000 0.000000 1.000000
vn 0.000000 0.000000 1.000000
vn 0.000000 0.000000 1.000000
vn -0.000000 0.000000 1.000000
vn -0.000000 0.000000 1.000000
vn -0.000000 0.000000 1.000000
vn -0.000000 0.000000 1.000000
vn 0.000000 0.000000 1.000000
vn 0.000000 0.000000 1.000000
vn 0.000000 0.000000 1.000000
vn 0.000000 0.000000 1.000000
vn 0.000000 0.000000 1.000000
vn 0.000000 0.000000 1.000000
vn 0.000000 0.000000 1.000000
vn 0.000000 0.000000 1.000000
vn -0.000000 0.000000 1.000000
vn -0.000000 0.000000 1.000000
vn -0.000000 0.000000 1.000000
vn -0.000000 0.000000 1.000000
vn 0.000000 0.000000 1.000000
vn 0.000000 0.000000 1.000000
vn 0.000000 0.000000 1.000000
vn 0.000000 0.000000 1.000000
vn 0.000000 0.000000 1.000000
vn 0.000000 0.000000 1.000000
vn 0.000000 0.000000 1.000000
vn 0.000000 0.000000 1.000000
vn 0.000000 1.000000 0.000000
vn 0.000000 1.000000 0.000000
vn 0.000000 1.000000 0.000000
vn 0.000000 1.000000 0.000000
vn 0.000000 1.000000 0.000001
vn 0.000000 1.000000 0.000001
vn 0.000000 1.000000 0.000001
vn 0.000000 1.000000 0.000001
vn 0.000000 1.000000 0.000000
vn 0.000000 1.000000 0.000000
vn 0.000000 1.000000 0.000000
vn 0.000000 1.000000 0.000000
vn 0.000000 1.000000 0.000000
vn 0.000000 1.000000 0.000000
vn 0.000000 1.000000 0.000000
vn 0.000000 1.000000 0.000000
vn 1.000000 0.000000 0.000000
vn 1.000000 0.000000 0.000000
vn 1.000000 0.000000 0.000000
vn 1.000000 0.000000 0.000000
vn 0.000000 0.000000 -1.000000
vn 0.000000 0.000000 -1.000000
vn 0.000000 0.000000 -1.000000
vn 0.000000 0.000000 -1.000000
vn -1.000000 0.000000 0.000000
vn -1.000000 0.000000 0.000000
vn -1.000000 0.000000 0.000000
vn -1.000000 0.000000 0.000000
vn 0.000000 0.000000 1.000000
vn 0.000000 0.000000 1.000000
vn 0.000000 0.000000 1.000000
vn 0.000000 0.000000 1.000000
vn 0.000000 1.000000 0.000000
vn 0.000000 1.000000 0.000000
vn 0.000000 1.000000 0.000000
vn 0.000000 1.000000 0.000000
vn 0.000000 1.000000 -0.000002
vn 0.000000 1.000000 -0.000002
vn 0.000000 1.000000 -0.000002
vn 0.000000 1.000000 -0.000002
vn 0.000000 1.000000 0.000000
vn 0.000000 1.000000 0.000000
vn 0.000000 1.000000 0.000000
vn 0.000000 1.000000 0.000000
vn 0.000000 1.000000 0.000000
vn 0.000000 1.000000 0.000000
vn 0.000000 1.000000 0.000000
vn 0.000000 1.000000 0.000000
vn 0.964994 -0.262272 0.000001
vn 0.964994 -0.262272 0.000001
vn 1.000000 0.000000 0.000001
vn 1.000000 0.000000 0.000001
vn 0.000000 -0.002960 -0.999996
vn 0.000000 -0.002960 -0.999996
vn 0.000000 0.000000 -1.000000
vn 0.000000 0.000000 -1.000000
vn -0.964994 -0.262272 -0.000001
vn -0.964994 -0.262272 -0.000001
vn -1.000000 0.000000 -0.000001
vn -1.000000 0.000000 -0.000001
vn 0.000000 -0.002960 0.999996
vn 0.000000 -0.002960 0.999996
vn 0.000000 0.000000 1.000000
vn 0.000000 0.000000 1.000000
vn 0.000000 -0.100791 0.994908
vn 0.000000 -0.100790 0.994908
vn 0.000000 -0.002960 0.999996
vn 0.000000 -0.002960 0.999996
vn 0.976905 -0.213676 0.000000
vn 0.976905 -0.213676 0.000000
vn 0.964994 -0.262272 0.000001
vn 0.964994 -0.262272 0.000001
vn 0.000000 -0.100790 -0.994908
vn 0.000000 -0.100790 -0.994908
vn 0.000000 -0.002960 -0.999996
vn 0.000000 -0.002960 -0.999996
vn -0.976905 -0.213676 0.000000
vn -0.976905 -0.213676 0.000000
vn -0.964994 -0.262272 -0.000001
vn -0.964994 -0.262272 -0.000001
vn 0.000000 0.000000 1.000000
vn 0.000000 0.000000 1.000000
vn 0.000000 -0.100790 0.994908
vn 0.000000 -0.100791 0.994908
vn 1.000000 0.000000 0.000000
vn 1.000000 0.000000 0.000000
vn 0.976905 -0.213676 0.000000
vn 0.976905 -0.213676 0.000000
vn 0.000000 0.000000 -1.000000
vn 0.000000 0.000000 -1.000000
vn 0.000000 -0.100790 -0.994908
vn 0.000000 -0.100790 -0.994908
vn -1.000000 0.000000 0.000000
vn -1.000000 0.000000 0.000000
vn -0.976905 -0.213676 0.000000
vn -0.976905 -0.213676 0.000000
vn 1.000000 0.000000 0.000000
vn 1.000000 0.000000 0.000000
vn 1.000000 0.000000 0.000000
vn 1.000000 0.000000 0.000000
vn 0.000000 1.000000 0.000000
vn 0.000000 1.000000 0.000000
vn 0.000000 1.000000 0.000000
vn 0.000000 1.000000 0.000000
vn -1.000000 0.000000 -0.000000
vn -1.000000 0.000000 -0.000000
vn -1.000000 0.000000 -0.000000
vn -1.000000 0.000000 -0.000000
vn 0.000000 -1.000000 -0.000001
vn 0.000000 -1.000000 -0.000001
vn 0.000000 -1.000000 -0.000001
vn 0.000000 -1.000000 -0.000001
vn 0.000000 0.000000 -1.000000
vn 0.000000 0.000000 -1.000000
vn 0.000000 0.000000 -1.000000
vn 0.000000 0.000000 -1.000000
vn -0.000000 -0.000000 1.000000
vn -0.000000 -0.000000 1.000000
vn -0.000000 -0.000000 1.000000
vn -0.000000 -0.000000 1.000000
vn -0.000000 0.000000 1.000000
vn -0.000000 0.000000 1.000000
vn -0.000000 0.000000 1.000000
vn -0.000000 0.000000 1.000000
vn 0.000000 -0.000000 1.000000
vn 0.000000 -0.000000 1.000000
vn 0.000000 -0.000000 1.000000
vn 0.000000 -0.000000 1.000000
vn -0.000000 -0.000000 1.000000
vn -0.000000 -0.000000 1.000000
vn -0.000000 -0.000000 1.000000
vn -0.000000 -0.000000 1.000000
vn 0.000000 -0.000000 1.000000
vn 0.000000 -0.000000 1.000000
vn 0.000000 -0.000000 1.000000
vn 0.000000 -0.000000 1.000000
vn 0.000000 1.000000 0.000000
vn 0.000000 1.000000 0.000000
vn 0.000000 1.000000 0.000000
vn 0.000000 1.000000 0.000000
vn -1.000000 0.000000 0.000000
vn -1.000000 0.000000 0.000000
vn -1.000000 0.000000 0.000000
vn -1.000000 0.000000 0.000000
vn 0.000000 -1.000000 0.000000
vn 0.000000 -1.000000 0.000000
vn 0.000000 -1.000000 0.000000
vn 0.000000 -1.000000 0.000000
vn 1.000000 0.000000 0.000000
vn 1.000000 0.000000 0.000000
vn 1.000000 0.000000 0.000000
vn 1.000000 0.000000 0.000000
s off
f 1/20/1 2/2/2 4/21/3 3/17/4
f 41/121/5 42/138/6 43/134/7 44/133/8
f 5/5/9 6/16/10 8/8/11 7/24/12
f 7/7/13 8/23/14 2/10/15 1/9/16
f 2/19/17 8/11/18 6/12/19 4/4/20
f 21/61/21 22/76/22 23/75/23 24/73/24
f 7/13/25 1/1/26 10/57/27 9/59/28
f 1/1/29 3/22/30 11/55/31 10/57/32
f 3/22/33 5/14/34 12/53/35 11/55/36
f 5/14/37 7/13/38 9/59/39 12/53/40
f 9/25/41 10/58/42 14/48/43 18/42/44 20/39/45 13/49/46
f 10/26/47 11/56/48 15/51/49 14/47/50
f 11/27/51 12/54/52 16/44/53 19/37/54 17/45/55 15/31/56
f 12/28/57 9/60/58 13/50/59 16/43/60
f 18/34/61 17/33/62 19/38/63 20/36/64
f 25/65/65 26/72/66 27/71/67 28/69/68
f 17/46/69 18/91/70 22/89/71 21/74/72
f 18/41/73 14/90/74 23/87/75 22/62/76
f 14/30/77 15/88/78 24/85/79 23/63/80
f 15/52/81 17/92/82 21/86/83 24/64/84
f 13/29/85 20/83/86 26/81/87 25/70/88
f 20/40/89 19/82/90 27/79/91 26/66/92
f 19/35/93 16/80/94 28/77/95 27/67/96
f 16/32/97 13/84/98 25/78/99 28/68/100
f 3/3/101 4/15/102 30/107/103 29/116/104
f 4/15/105 6/6/106 31/112/107 30/107/108
f 6/6/109 5/18/110 32/103/111 31/112/112
f 5/18/113 3/3/114 29/116/115 32/103/116
f 29/93/117 30/115/118 34/104/119 33/113/120
f 30/94/121 31/106/122 35/105/123 34/98/124
f 31/95/125 32/111/126 36/102/127 35/99/128
f 32/96/129 29/108/130 33/101/131 36/100/132
f 33/97/133 34/179/134 38/177/135 37/140/136
f 34/114/137 35/178/138 39/175/139 38/131/140
f 35/110/141 36/176/142 40/174/143 39/136/144
f 36/109/145 33/180/146 37/173/147 40/127/148
f 46/144/149 47/167/150 42/128/151 41/137/152
f 47/146/153 48/165/154 43/129/155 42/122/156
f 48/148/157 45/171/158 44/126/159 43/123/160
f 45/142/161 46/169/162 41/125/163 44/124/164
f 49/150/165 50/163/166 46/143/167 45/172/168
f 50/164/169 51/161/170 47/145/171 46/170/172
f 51/162/173 52/157/174 48/147/175 47/168/176
f 52/158/177 49/149/178 45/141/179 48/166/180
f 40/120/181 37/132/182 50/151/183 49/159/184
f 37/117/185 38/139/186 51/153/187 50/152/188
f 38/118/189 39/130/190 52/155/191 51/154/192
f 39/119/193 40/135/194 49/160/195 52/156/196
f 53/181/197 54/182/198 56/183/199 55/184/200
f 55/185/201 56/186/202 58/187/203 57/188/204
f 57/189/205 58/190/206 60/191/207 59/192/208
f 59/193/209 60/194/210 54/195/211 53/196/212
f 54/197/213 60/198/214 58/199/215 56/200/216
f 65/201/217 66/202/218 67/203/219 68/204/220
f 59/205/221 53/206/222 62/207/223 61/208/224
f 53/206/225 55/209/226 63/210/227 62/207/228
f 55/209/229 57/211/230 64/212/231 63/210/232
f 57/211/233 59/205/234 61/208/235 64/212/236
f 61/213/237 62/214/238 66/215/239 65/216/240
f 62/217/241 63/218/242 67/219/243 66/220/244
f 63/221/245 64/222/246 68/223/247 67/224/248
f 64/225/249 61/226/250 65/227/251 68/228/252
