# This file uses meters as units for non-parametric coordinates.

v -7.252600 0.000000 14.202790
v 7.252589 0.000000 14.202790
v -7.252600 4.335552 -10.695083
v 7.252589 4.335552 -10.695083
v -7.252600 0.000000 -10.695083
v 7.252589 0.000000 -10.695083
v -7.252600 4.335552 -4.278033
v 7.252589 4.335552 -4.278033
v -0.000006 0.000000 14.202790
v -0.000006 4.335552 -4.278033
v -0.000006 4.335552 -10.695083
v -0.000006 0.000000 -10.695083
v 6.527313 0.000000 14.202790
v 6.527313 4.335552 -4.278033
v 6.527313 4.335552 -10.695083
v 6.527313 0.000000 -10.695083
v -6.527351 4.335552 -10.695083
v -6.527351 4.335552 -4.278032
v -6.527351 0.000000 14.202790
v -6.527351 0.000000 -10.695083
vt 0.327280 0.064463
vt 0.361581 0.064463
vt 0.327280 0.064463
vt 0.300819 0.064463
vt 0.392887 0.064463
vt 0.266518 0.064463
vt 0.300819 0.064463
vt 0.266518 0.064463
vt 0.266518 0.064463
vt 0.327280 0.064463
vt 0.327280 0.064463
vt 0.327280 0.064463
vt 0.327280 0.064463
vt 0.361581 0.064463
vt 0.300819 0.064463
vt 0.392888 0.064463
vt 0.266518 0.064463
vt 0.300819 0.064463
vt 0.327280 0.064463
vt 0.361581 0.064463
vt 0.392887 0.064463
vt 0.327280 0.064463
vt 0.392888 0.064463
vt 0.361581 0.064463
vt 0.236357 0.181861
vt 0.141293 0.181861
vt 0.267663 0.181861
vt 0.236357 0.181861
vt 0.175595 0.181861
vt 0.267663 0.181861
vt 0.141293 0.181861
vt 0.175595 0.181861
vt 0.236357 0.181861
vt 0.141293 0.181861
vt 0.392887 0.064463
vt 0.361581 0.064463
vt 0.300819 0.064463
vt 0.392887 0.064463
vt 0.266518 0.064463
vt 0.300819 0.064463
vt 0.175595 0.181861
vt 0.267663 0.181861
vt 0.392888 0.064463
vt 0.361581 0.064463
vt 0.361581 0.064463
vt 0.266518 0.064463
vt 0.266518 0.064463
vt 0.300819 0.064463
vt 0.141293 0.181861
vt 0.175595 0.181861
vt 0.392888 0.064463
vt 0.300819 0.064463
vt 0.236357 0.181861
vt 0.141293 0.181861
vt 0.267663 0.181861
vt 0.236357 0.181861
vt 0.141293 0.181861
vt 0.175595 0.181861
vt 0.236357 0.181861
vt 0.141293 0.181861
vt 0.267663 0.181861
vt 0.236357 0.181861
vt 0.175595 0.181861
vt 0.267663 0.181861
vt 0.175595 0.181861
vt 0.141293 0.181861
vt 0.361581 0.064463
vt 0.266518 0.064463
vt 0.267663 0.181861
vt 0.175595 0.181861
vt 0.236357 0.181861
vt 0.267663 0.181861
vn 0.000000 1.000000 0.000000
vn -0.000000 0.985175 0.171552
vn 0.000000 0.985175 0.171552
vn 0.000000 1.000000 0.000000
vn 0.000000 0.000000 -1.000000
vn 0.000000 0.000000 -1.000000
vn 0.000000 0.000000 -1.000000
vn 0.000000 0.000000 -1.000000
vn 0.000000 -1.000000 0.000000
vn 0.000000 -1.000000 0.000000
vn 0.000000 -1.000000 0.000000
vn 0.000000 -1.000000 0.000000
vn 1.000000 0.000000 0.000000
vn 1.000000 0.000000 0.000000
vn 1.000000 0.000000 0.000000
vn 1.000000 0.000000 0.000000
vn -1.000000 0.000000 0.000000
vn -1.000000 0.000000 0.000000
vn -1.000000 0.000000 0.000000
vn -1.000000 0.000000 0.000000
vn -0.000000 0.985175 0.171552
vn 0.000000 0.973568 0.228397
vn 0.000000 0.973568 0.228397
vn 0.000000 0.985175 0.171552
vn 0.000000 0.985175 0.171552
vn 0.000000 0.973568 0.228397
vn 0.000000 0.973568 0.228397
vn 0.000000 0.985175 0.171552
vn 0.000000 1.000000 0.000000
vn 0.000000 0.985175 0.171552
vn 0.000000 0.985175 0.171552
vn 0.000000 1.000000 0.000000
vn 0.000000 0.000000 -1.000000
vn 0.000000 0.000000 -1.000000
vn 0.000000 0.000000 -1.000000
vn 0.000000 0.000000 -1.000000
vn 0.000000 -1.000000 0.000000
vn 0.000000 -1.000000 0.000000
vn 0.000000 -1.000000 0.000000
vn 0.000000 -1.000000 0.000000
vn 0.000000 0.985175 0.171552
vn 0.000000 0.973568 0.228397
vn 0.000000 0.973568 0.228396
vn 0.000000 0.985175 0.171552
vn 0.000000 1.000000 0.000000
vn 0.000000 0.985175 0.171552
vn 0.000000 0.985175 0.171552
vn 0.000000 1.000000 0.000000
vn 0.000000 0.000000 -1.000000
vn 0.000000 0.000000 -1.000000
vn 0.000000 0.000000 -1.000000
vn 0.000000 0.000000 -1.000000
vn 0.000000 -1.000000 0.000000
vn 0.000000 -1.000000 0.000000
vn 0.000000 -1.000000 0.000000
vn 0.000000 -1.000000 0.000000
vn -0.000000 0.985175 0.171552
vn -0.000000 0.985175 0.171552
vn 0.000000 1.000000 0.000000
vn 0.000000 1.000000 0.000000
vn -0.000000 0.973568 0.228397
vn 0.000000 0.973568 0.228397
vn -0.000000 0.985175 0.171552
vn -0.000000 0.985175 0.171552
vn 0.000000 -1.000000 0.000000
vn 0.000000 -1.000000 0.000000
vn 0.000000 -1.000000 0.000000
vn 0.000000 -1.000000 0.000000
vn 0.000000 0.000000 -1.000000
vn 0.000000 0.000000 -1.000000
vn 0.000000 0.000000 -1.000000
vn 0.000000 0.000000 -1.000000
s off
f 17/42/1 18/55/2 10/27/3 11/64/4
f 20/50/5 17/41/6 11/29/7 12/58/8
f 19/54/9 20/49/10 12/31/11 9/60/12
f 2/3/13 6/10/14 4/11/15 8/22/16
f 5/12/17 1/1/18 7/19/19 3/13/20
f 18/56/21 19/53/22 9/25/23 10/62/24
f 10/28/25 9/59/26 13/33/27 14/71/28
f 11/30/29 10/61/30 14/72/31 15/69/32
f 12/32/33 11/63/34 15/70/35 16/65/36
f 9/26/37 12/57/38 16/66/39 13/34/40
f 14/36/41 13/67/42 2/14/43 8/24/44
f 15/38/45 14/35/46 8/21/47 4/5/48
f 16/40/49 15/37/50 4/15/51 6/7/52
f 13/68/53 16/39/54 6/17/55 2/9/56
f 7/23/57 18/43/58 17/51/59 3/16/60
f 1/2/61 19/45/62 18/44/63 7/20/64
f 5/6/65 20/47/66 19/46/67 1/8/68
f 3/4/69 17/52/70 20/48/71 5/18/72
