# This file uses meters as units for non-parametric coordinates.

v 0.000008 13.671541 2.436935
v 0.000008 18.171438 2.436935
v 0.000008 13.671541 -2.436935
v 0.000008 18.171438 -2.436935
v -10.708714 6.016881 -2.436935
v -10.708714 6.016881 2.436935
v -15.582581 7.631405 2.436935
v -15.582581 7.631405 -2.436935
v -7.338844 18.171438 2.436935
v -5.136436 13.671541 2.436935
v -5.136436 13.671541 -2.436935
v -7.338844 18.171438 -2.436935
v 10.708729 6.016881 -2.436935
v 10.708729 6.016881 2.436935
v 15.582592 7.631405 2.436935
v 15.582592 7.631405 -2.436935
v 7.338852 18.171438 2.436935
v 5.136448 13.671541 2.436935
v 5.136448 13.671541 -2.436935
v 7.338852 18.171438 -2.436935
v -15.582588 2.943205 2.436935
v -10.708721 2.943205 2.436935
v -10.708721 2.943205 -2.436935
v -15.582588 2.943205 -2.436935
v 10.708729 2.943205 -2.436935
v 10.708729 2.943205 2.436935
v 15.582592 2.943205 2.436935
v 15.582592 2.943205 -2.436935
v -10.156059 0.000000 -3.291367
v -10.156059 0.000000 3.291367
v -16.225456 0.000000 3.291367
v -16.225456 0.000000 -3.291367
v -10.156063 2.943205 3.291367
v -16.225464 2.943205 3.291367
v -10.156063 2.943205 -3.291367
v -16.225464 2.943205 -3.291367
v 10.156067 0.000000 -3.291367
v 16.225464 0.000000 -3.291367
v 16.225464 0.000000 3.291367
v 10.156067 0.000000 3.291367
v 10.156067 2.943205 3.291367
v 10.156067 2.943205 -3.291367
v 16.225464 2.943205 3.291367
v 16.225464 2.943205 -3.291367
v -12.697273 11.320416 2.436935
v -8.758415 8.696012 2.436935
v -8.758415 8.696012 -2.436935
v -12.697273 11.320416 -2.436935
v -10.224152 14.482427 -2.436935
v -7.086735 10.992410 -2.436935
v -7.086735 10.992410 2.436935
v -10.224152 14.482427 2.436935
v 10.224159 14.482427 2.436935
v 7.086746 10.992410 2.436935
v 7.086746 10.992410 -2.436935
v 10.224159 14.482427 -2.436935
v 8.758430 8.696012 -2.436935
v 8.758430 8.696012 2.436935
v 12.697285 11.320416 2.436935
v 12.697285 11.320416 -2.436935
v -2.201649 18.171440 -2.436935
v -2.201649 18.171440 2.436935
v -1.540928 13.671541 2.436935
v -1.540928 13.671541 -2.436935
v 1.540936 13.671541 2.436935
v 2.201656 18.171440 2.436935
v 2.201656 18.171440 -2.436935
v 1.540936 13.671541 -2.436935
vt 0.302406 0.475742
vt 0.328205 0.475742
vt 0.419375 0.476314
vt 0.323332 0.476314
vt 0.075411 0.197792
vt 0.328205 0.475742
vt 0.075411 0.197792
vt 0.075411 0.197792
vt 0.363815 0.475742
vt 0.419375 0.476314
vt 0.302406 0.475742
vt 0.270240 0.476314
vt 0.323332 0.476314
vt 0.323332 0.476314
vt 0.075411 0.197792
vt 0.328205 0.475742
vt 0.363815 0.475742
vt 0.323332 0.476314
vt 0.328205 0.475742
vt 0.270240 0.476314
vt 0.108434 0.197792
vt 0.134233 0.197792
vt 0.108434 0.197792
vt 0.134233 0.197792
vt 0.134233 0.197792
vt 0.201034 0.197792
vt 0.134233 0.197792
vt 0.201034 0.197792
vt 0.134233 0.197792
vt 0.230276 0.197792
vt 0.108434 0.197792
vt 0.134233 0.197792
vt 0.108434 0.197792
vt 0.134233 0.197792
vt 0.134233 0.197792
vt 0.201034 0.197792
vt 0.134233 0.197792
vt 0.134233 0.197792
vt 0.134233 0.197792
vt 0.134233 0.197792
vt 0.134233 0.197792
vt 0.134233 0.197792
vt 0.134233 0.197792
vt 0.134233 0.197792
vt 0.075411 0.197792
vt 0.075411 0.197792
vt 0.075411 0.197792
vt 0.075411 0.197792
vt 0.169842 0.197792
vt 0.230276 0.197792
vt 0.201034 0.197792
vt 0.169842 0.197792
vt 0.081141 0.197792
vt 0.081141 0.197792
vt 0.108434 0.197792
vt 0.108434 0.197792
vt 0.302406 0.475742
vt 0.302406 0.475742
vt 0.328205 0.475742
vt 0.328205 0.475742
vt 0.363815 0.475742
vt 0.363815 0.475742
vt 0.328205 0.475742
vt 0.328205 0.475742
vt 0.323332 0.476314
vt 0.323332 0.476314
vt 0.270240 0.476314
vt 0.270240 0.476314
vt 0.323332 0.476314
vt 0.323332 0.476314
vt 0.419375 0.476314
vt 0.419375 0.476314
vt 0.201034 0.197792
vt 0.230276 0.197792
vt 0.230276 0.197792
vt 0.201034 0.197792
vt 0.201034 0.197792
vt 0.201034 0.197792
vt 0.169842 0.197792
vt 0.169842 0.197792
vt 0.108434 0.197792
vt 0.108434 0.197792
vt 0.081141 0.197792
vt 0.081141 0.197792
vt 0.391613 0.475746
vt 0.134233 0.197792
vt 0.391613 0.475746
vt 0.108434 0.197792
vt 0.134233 0.197792
vt 0.391613 0.475746
vt 0.169842 0.197792
vt 0.391613 0.475746
vt 0.108434 0.197792
vt 0.391613 0.475746
vt 0.391613 0.475746
vt 0.134233 0.197792
vt 0.391613 0.475746
vt 0.169842 0.197792
vt 0.134233 0.197792
vt 0.391613 0.475746
vt 0.328205 0.475742
vt 0.391613 0.475746
vt 0.302406 0.475742
vt 0.302406 0.475742
vt 0.328205 0.475742
vt 0.328205 0.475742
vt 0.391613 0.475746
vt 0.363815 0.475742
vt 0.302406 0.475742
vt 0.391613 0.475746
vt 0.328205 0.475742
vt 0.328205 0.475742
vt 0.363815 0.475742
vt 0.363815 0.475742
vt 0.391613 0.475746
vt 0.328205 0.475742
vt 0.391613 0.475746
vt 0.391613 0.475746
vt 0.302406 0.475742
vt 0.328205 0.475742
vt 0.391613 0.475746
vt 0.391613 0.475746
vt 0.169842 0.197792
vt 0.391613 0.475746
vt 0.391613 0.475746
vt 0.391613 0.475746
vt 0.134233 0.197792
vt 0.391613 0.475746
vt 0.134233 0.197792
vt 0.391613 0.475746
vt 0.108434 0.197792
vt 0.391613 0.475746
vt 0.391613 0.475746
vt 0.391613 0.475746
vt 0.328205 0.475742
vt 0.363815 0.475742
vt 0.391613 0.475746
vt 0.391613 0.475746
vt 0.134233 0.197792
vt 0.391613 0.475746
vt 0.391613 0.475746
vt 0.391613 0.475746
vt 0.108434 0.197792
vt 0.391613 0.475746
vt 0.169842 0.197792
vt 0.391613 0.475746
vt 0.134233 0.197792
vt 0.391613 0.475746
vt 0.134233 0.197792
vt 0.108434 0.197792
vt 0.134233 0.197792
vt 0.134233 0.197792
vt 0.108434 0.197792
vt 0.134233 0.197792
vt 0.134233 0.197792
vt 0.134233 0.197792
vt 0.134233 0.197792
vt 0.134233 0.197792
vt 0.134233 0.197792
vt 0.108434 0.197792
vt 0.134233 0.197792
vt 0.134233 0.197792
vt 0.134233 0.197792
vt 0.134233 0.197792
vt 0.134233 0.197792
vt 0.134233 0.197792
vt 0.134233 0.197792
vt 0.108434 0.197792
vt 0.393057 0.476199
vt 0.326256 0.476199
vt 0.134233 0.197792
vt 0.108434 0.197792
vt 0.326256 0.476199
vt 0.108434 0.197792
vt 0.393057 0.476199
vt 0.134233 0.197792
vt 0.393057 0.476199
vt 0.326256 0.476199
vt 0.134233 0.197792
vt 0.108434 0.197792
vt 0.134233 0.197792
vt 0.108434 0.197792
vt 0.201034 0.197792
vt 0.134233 0.197792
vt 0.326256 0.476199
vt 0.201034 0.197792
vt 0.300457 0.476199
vt 0.134233 0.197792
vt 0.108434 0.197792
vt 0.134233 0.197792
vt 0.134233 0.197792
vt 0.201034 0.197792
vt 0.300457 0.476199
vt 0.326256 0.476199
vt 0.108434 0.197792
vt 0.134233 0.197792
vt 0.134233 0.197792
vt 0.201034 0.197792
vt 0.134233 0.197792
vt 0.201034 0.197792
vt 0.393057 0.476199
vt 0.326256 0.476199
vt 0.108434 0.197792
vt 0.134233 0.197792
vt 0.326256 0.476199
vt 0.393057 0.476199
vt 0.300457 0.476199
vt 0.326256 0.476199
vt 0.134233 0.197792
vt 0.393057 0.476199
vt 0.108434 0.197792
vt 0.326256 0.476199
vt 0.326256 0.476199
vt 0.393057 0.476199
vt 0.300457 0.476199
vt 0.326256 0.476199
vt 0.326256 0.476199
vt 0.393057 0.476199
vt 0.134233 0.197792
vt 0.201034 0.197792
vt 0.300457 0.476199
vt 0.326256 0.476199
vt 0.326256 0.476199
vt 0.300457 0.476199
vt 0.134233 0.197792
vt 0.300457 0.476199
vt 0.201034 0.197792
vt 0.326256 0.476199
vt 0.134233 0.197792
vt 0.201034 0.197792
vt 0.326256 0.476199
vt 0.300457 0.476199
vt 0.419375 0.476314
vt 0.323332 0.476314
vt 0.230276 0.197792
vt 0.134233 0.197792
vt 0.134233 0.197792
vt 0.081141 0.197792
vt 0.134233 0.197792
vt 0.081141 0.197792
vt 0.270240 0.476314
vt 0.323332 0.476314
vt 0.134233 0.197792
vt 0.230276 0.197792
vt 0.134233 0.197792
vt 0.230276 0.197792
vt 0.081141 0.197792
vt 0.134233 0.197792
vt 0.323332 0.476314
vt 0.270240 0.476314
vt 0.134233 0.197792
vt 0.081141 0.197792
vt 0.419375 0.476314
vt 0.323332 0.476314
vt 0.323332 0.476314
vt 0.419375 0.476314
vt 0.270240 0.476314
vt 0.323332 0.476314
vt 0.230276 0.197792
vt 0.134233 0.197792
vt 0.323332 0.476314
vt 0.270240 0.476314
vt 0.419375 0.476314
vt 0.323332 0.476314
vn 0.000000 0.000000 1.000000
vn 0.000000 0.000000 1.000000
vn 0.000000 0.000000 1.000000
vn 0.000000 0.000000 1.000000
vn 0.000000 0.000000 -1.000000
vn 0.000000 0.000000 -1.000000
vn 0.000000 0.000000 -1.000000
vn 0.000000 0.000000 -1.000000
vn 0.000000 -1.000000 0.000000
vn 0.000000 -1.000000 0.000000
vn 0.000000 -1.000000 0.000000
vn 0.000000 -1.000000 0.000000
vn -0.787686 0.616077 0.000000
vn -0.787686 0.616077 0.000000
vn -0.787686 0.616077 0.000000
vn -0.787686 0.616077 0.000000
vn 0.808472 -0.588534 0.000000
vn 0.808472 -0.588534 0.000000
vn 0.808472 -0.588534 0.000000
vn 0.808472 -0.588534 0.000000
vn 1.000000 -0.000003 0.000000
vn 1.000000 -0.000003 0.000000
vn 0.947056 -0.321069 0.000000
vn 0.947056 -0.321069 0.000000
vn 0.000000 0.000000 1.000000
vn 0.000000 0.000000 1.000000
vn 0.000000 0.000000 1.000000
vn 0.000000 0.000000 1.000000
vn -1.000000 0.000002 0.000000
vn -1.000000 0.000002 0.000000
vn -0.945490 0.325650 0.000000
vn -0.945490 0.325650 0.000000
vn 0.000000 0.000000 -1.000000
vn -0.000000 0.000000 -1.000000
vn -0.000000 0.000000 -1.000000
vn 0.000000 0.000000 -1.000000
vn 0.000000 0.000000 1.000000
vn 0.000000 0.000000 1.000000
vn 0.000000 0.000000 1.000000
vn 0.000000 0.000000 1.000000
vn 0.000000 -1.000000 0.000000
vn 0.000000 -1.000000 0.000000
vn 0.000000 -1.000000 0.000000
vn 0.000000 -1.000000 0.000000
vn 0.000000 0.000000 -1.000000
vn -0.000000 0.000000 -1.000000
vn -0.000000 0.000000 -1.000000
vn 0.000000 0.000000 -1.000000
vn 0.000000 1.000000 0.000000
vn 0.000000 1.000000 0.000000
vn 0.000001 1.000000 0.000000
vn 0.000001 1.000000 0.000000
vn 0.000000 0.000000 1.000000
vn 0.000000 0.000000 1.000000
vn 0.000000 0.000000 1.000000
vn 0.000000 0.000000 1.000000
vn -0.000000 0.000000 -1.000000
vn 0.000000 0.000000 -1.000000
vn 0.000000 0.000000 -1.000000
vn -0.000000 0.000000 -1.000000
vn 0.000000 -1.000000 0.000000
vn 0.000000 -1.000000 0.000000
vn 0.000000 -1.000000 0.000000
vn 0.000000 -1.000000 0.000000
vn 0.787686 0.616077 0.000000
vn 0.787686 0.616077 0.000000
vn 0.787686 0.616077 0.000000
vn 0.787686 0.616077 0.000000
vn -0.808472 -0.588535 0.000000
vn -0.808472 -0.588535 0.000000
vn -0.808472 -0.588535 0.000000
vn -0.808472 -0.588535 0.000000
vn -1.000000 0.000000 0.000000
vn -1.000000 0.000000 0.000000
vn -0.947056 -0.321068 0.000000
vn -0.947056 -0.321068 0.000000
vn 0.000000 0.000000 1.000000
vn 0.000000 0.000000 1.000000
vn 0.000000 0.000000 1.000000
vn 0.000000 0.000000 1.000000
vn 1.000000 0.000000 0.000000
vn 1.000000 0.000000 0.000000
vn 0.945491 0.325649 0.000000
vn 0.945491 0.325649 0.000000
vn 0.000000 0.000000 -1.000000
vn 0.000000 0.000000 -1.000000
vn 0.000000 0.000000 -1.000000
vn 0.000000 0.000000 -1.000000
vn 0.000000 0.000000 1.000000
vn 0.000000 0.000000 1.000000
vn 0.000000 0.000000 1.000000
vn 0.000000 0.000000 1.000000
vn 0.000000 -1.000000 0.000000
vn 0.000000 -1.000000 0.000000
vn 0.000000 -1.000000 0.000000
vn 0.000000 -1.000000 0.000000
vn 0.000000 0.000000 -1.000000
vn 0.000000 0.000000 -1.000000
vn 0.000000 0.000000 -1.000000
vn 0.000000 0.000000 -1.000000
vn 0.000000 1.000000 0.000000
vn 0.000000 1.000000 0.000000
vn -0.000001 1.000000 0.000000
vn -0.000001 1.000000 0.000000
vn 0.000000 0.000000 1.000000
vn 0.000000 0.000000 1.000000
vn 0.000000 0.000000 1.000000
vn 0.000000 0.000000 1.000000
vn 1.000000 0.000001 0.000000
vn 1.000000 0.000001 0.000000
vn 1.000000 0.000001 0.000000
vn 1.000000 0.000001 0.000000
vn 0.000000 0.000000 -1.000000
vn 0.000000 0.000000 -1.000000
vn 0.000000 0.000000 -1.000000
vn 0.000000 0.000000 -1.000000
vn -1.000000 -0.000003 0.000000
vn -1.000000 -0.000003 0.000000
vn -1.000000 -0.000003 0.000000
vn -1.000000 -0.000003 0.000000
vn -1.000000 0.000000 0.000000
vn -1.000000 0.000000 0.000000
vn -1.000000 0.000000 0.000000
vn -1.000000 0.000000 0.000000
vn 0.000000 0.000000 1.000000
vn 0.000000 0.000000 1.000000
vn 0.000000 0.000000 1.000000
vn 0.000000 0.000000 1.000000
vn 1.000000 0.000000 0.000000
vn 1.000000 0.000000 0.000000
vn 1.000000 0.000000 0.000000
vn 1.000000 0.000000 0.000000
vn 0.000000 0.000000 -1.000000
vn 0.000000 0.000000 -1.000000
vn 0.000000 0.000000 -1.000000
vn 0.000000 0.000000 -1.000000
vn 0.000000 1.000000 -0.000000
vn 0.000000 1.000000 -0.000000
vn 0.000000 1.000000 -0.000000
vn 0.000000 1.000000 -0.000000
vn 0.000000 1.000000 0.000000
vn 0.000000 1.000000 0.000000
vn 0.000000 1.000000 0.000000
vn 0.000000 1.000000 0.000000
vn 0.000000 1.000000 0.000000
vn 0.000000 1.000000 0.000000
vn 0.000000 1.000000 0.000000
vn 0.000000 1.000000 0.000000
vn 0.000000 1.000000 0.000000
vn 0.000000 1.000000 0.000000
vn 0.000000 1.000000 0.000000
vn 0.000000 1.000000 0.000000
vn 0.000000 1.000000 0.000000
vn 0.000000 1.000000 0.000000
vn 0.000000 1.000000 0.000000
vn 0.000000 1.000000 0.000000
vn -0.000000 1.000000 -0.000000
vn -0.000000 1.000000 -0.000000
vn -0.000000 1.000000 -0.000000
vn -0.000000 1.000000 -0.000000
vn 0.000000 1.000000 0.000000
vn 0.000000 1.000000 0.000000
vn 0.000000 1.000000 0.000000
vn 0.000000 1.000000 0.000000
vn -0.000000 1.000000 0.000000
vn -0.000000 1.000000 0.000000
vn -0.000000 1.000000 0.000000
vn -0.000000 1.000000 0.000000
vn 0.000000 0.000000 1.000000
vn 0.000000 0.000000 1.000000
vn 0.000000 0.000000 1.000000
vn 0.000000 0.000000 1.000000
vn 0.808472 -0.588534 0.000000
vn 0.808472 -0.588534 0.000000
vn 0.947056 -0.321069 0.000000
vn 0.947056 -0.321069 0.000000
vn 0.000000 0.000000 -1.000000
vn 0.000000 0.000000 -1.000000
vn 0.000000 0.000000 -1.000000
vn 0.000000 0.000000 -1.000000
vn -0.945490 0.325650 0.000000
vn -0.945490 0.325650 0.000000
vn -0.787686 0.616077 0.000000
vn -0.787686 0.616077 0.000000
vn 0.000000 0.000000 -1.000000
vn 0.000000 0.000000 -1.000000
vn -0.000000 0.000000 -1.000000
vn -0.000000 0.000000 -1.000000
vn 0.434992 -0.900434 0.000000
vn 0.808472 -0.588534 0.000000
vn 0.808472 -0.588534 0.000000
vn 0.434992 -0.900434 0.000000
vn 0.000000 0.000000 1.000000
vn 0.000000 0.000000 1.000000
vn 0.000000 0.000000 1.000000
vn 0.000000 0.000000 1.000000
vn -0.787686 0.616077 0.000000
vn -0.787686 0.616077 0.000000
vn -0.417781 0.908548 0.000000
vn -0.417781 0.908548 0.000000
vn 0.000000 0.000000 1.000000
vn 0.000000 0.000000 1.000000
vn 0.000000 0.000000 1.000000
vn 0.000000 0.000000 1.000000
vn -0.434992 -0.900434 0.000000
vn -0.434992 -0.900434 0.000000
vn -0.808472 -0.588535 0.000000
vn -0.808472 -0.588535 0.000000
vn 0.000000 0.000000 -1.000000
vn 0.000000 0.000000 -1.000000
vn 0.000000 0.000000 -1.000000
vn 0.000000 0.000000 -1.000000
vn 0.787686 0.616077 0.000000
vn 0.787686 0.616077 0.000000
vn 0.417781 0.908548 0.000000
vn 0.417781 0.908548 0.000000
vn -0.808472 -0.588535 0.000000
vn -0.808472 -0.588535 0.000000
vn -0.947056 -0.321068 0.000000
vn -0.947056 -0.321068 0.000000
vn 0.000000 0.000000 1.000000
vn 0.000000 0.000000 1.000000
vn 0.000000 0.000000 1.000000
vn 0.000000 0.000000 1.000000
vn 0.945491 0.325649 0.000000
vn 0.787686 0.616077 0.000000
vn 0.787686 0.616077 0.000000
vn 0.945491 0.325649 0.000000
vn 0.000000 0.000000 -1.000000
vn -0.000000 0.000000 -1.000000
vn -0.000000 0.000000 -1.000000
vn 0.000000 0.000000 -1.000000
vn -0.417781 0.908548 0.000000
vn 0.000000 1.000000 0.000000
vn 0.000000 1.000000 0.000000
vn -0.417781 0.908548 0.000000
vn 0.000000 0.000000 1.000000
vn 0.000000 0.000000 1.000000
vn 0.000000 0.000000 1.000000
vn 0.000000 0.000000 1.000000
vn 0.434992 -0.900434 0.000000
vn 0.000000 -1.000000 0.000000
vn 0.000000 -1.000000 0.000000
vn 0.434992 -0.900434 0.000000
vn -0.000000 0.000000 -1.000000
vn -0.000000 0.000000 -1.000000
vn -0.000000 0.000000 -1.000000
vn -0.000000 0.000000 -1.000000
vn 0.000000 0.000000 1.000000
vn 0.000000 0.000000 1.000000
vn 0.000000 0.000000 1.000000
vn 0.000000 0.000000 1.000000
vn 0.417781 0.908548 0.000000
vn 0.417781 0.908548 0.000000
vn 0.000000 1.000000 0.000000
vn 0.000000 1.000000 0.000000
vn 0.000000 0.000000 -1.000000
vn 0.000000 0.000000 -1.000000
vn 0.000000 0.000000 -1.000000
vn 0.000000 0.000000 -1.000000
vn -0.434992 -0.900434 0.000000
vn -0.434992 -0.900434 0.000000
vn 0.000000 -1.000000 0.000000
vn 0.000000 -1.000000 0.000000
s off
f 51/222/1 52/217/2 45/170/3 46/231/4
f 48/228/5 49/178/6 50/223/7 47/173/8
f 29/5/9 30/7/10 31/8/11 32/15/12
f 52/218/13 49/177/14 48/175/15 45/169/16
f 47/226/17 50/224/18 51/221/19 46/232/20
f 22/88/21 23/143/22 5/21/23 6/153/24
f 21/86/25 22/147/26 6/24/27 7/154/28
f 24/91/29 21/145/30 7/80/31 8/79/32
f 5/167/33 23/89/34 24/139/35 8/27/36
f 62/264/37 63/261/38 1/14/39 2/18/40
f 63/262/41 64/257/42 3/12/43 1/20/44
f 3/4/45 64/258/46 61/234/47 4/13/48
f 61/233/49 62/263/50 2/3/51 4/10/52
f 53/185/53 54/212/54 58/208/55 59/205/56
f 57/194/57 55/216/58 56/213/59 60/202/60
f 37/45/61 38/46/62 39/47/63 40/48/64
f 60/201/65 56/214/66 53/210/67 59/206/68
f 54/187/69 55/215/70 57/193/71 58/207/72
f 25/93/73 26/131/74 14/56/75 13/160/76
f 26/96/77 27/127/78 15/40/79 14/151/80
f 27/98/81 28/123/82 16/49/83 15/52/84
f 13/41/85 16/159/86 28/99/87 25/129/88
f 65/242/89 66/255/90 2/65/91 1/66/92
f 68/250/93 65/241/94 1/67/95 3/68/96
f 3/69/97 4/70/98 67/254/99 68/249/100
f 66/256/101 67/253/102 4/71/103 2/72/104
f 30/19/105 33/101/106 34/135/107 31/2/108
f 29/11/109 35/103/110 33/104/111 30/1/112
f 36/105/113 35/106/114 29/16/115 32/6/116
f 31/17/117 34/136/118 36/108/119 32/9/120
f 37/57/121 40/58/122 41/109/123 42/119/124
f 40/59/125 39/60/126 43/111/127 41/112/128
f 39/61/129 38/62/130 44/113/131 43/114/132
f 42/120/133 44/116/134 38/63/135 37/64/136
f 22/87/137 21/146/138 34/102/139 33/141/140
f 23/90/141 22/148/142 33/142/143 35/137/144
f 24/92/145 23/144/146 35/138/147 36/133/148
f 21/85/149 24/140/150 36/134/151 34/107/152
f 26/95/153 25/130/154 42/110/155 41/125/156
f 27/97/157 26/132/158 41/126/159 43/121/160
f 28/100/161 27/128/162 43/122/163 44/117/164
f 25/94/165 28/124/166 44/118/167 42/115/168
f 46/171/169 45/229/170 7/25/171 6/152/172
f 47/174/173 46/172/174 6/23/175 5/168/176
f 5/22/177 8/166/178 48/176/179 47/225/180
f 8/28/181 7/26/182 45/230/183 48/227/184
f 50/179/185 49/219/186 12/35/187 11/34/188
f 10/31/189 51/182/190 50/180/191 11/33/192
f 9/163/193 52/184/194 51/181/195 10/32/196
f 49/220/197 52/183/198 9/76/199 12/36/200
f 17/37/201 18/158/202 54/188/203 53/209/204
f 18/81/205 19/82/206 55/189/207 54/211/208
f 56/191/209 55/190/210 19/157/211 20/155/212
f 53/186/213 56/192/214 20/73/215 17/51/216
f 58/195/217 57/203/218 13/55/219 14/150/220
f 59/197/221 58/196/222 14/39/223 15/149/224
f 16/77/225 60/200/226 59/198/227 15/78/228
f 13/161/229 57/204/230 60/199/231 16/44/232
f 9/30/233 62/235/234 61/259/235 12/75/236
f 10/165/237 63/237/238 62/236/239 9/29/240
f 11/84/241 64/240/242 63/238/243 10/83/244
f 61/260/245 64/239/246 11/164/247 12/162/248
f 18/38/249 17/156/250 66/243/251 65/251/252
f 17/74/253 20/50/254 67/246/255 66/244/256
f 68/248/257 67/245/258 20/43/259 19/42/260
f 19/54/261 18/53/262 65/252/263 68/247/264
