# This file uses meters as units for non-parametric coordinates.

v -2.946076 0.000000 0.000000
v 0.000000 0.000000 0.000000
v -2.946076 0.380131 0.000000
v 0.000000 0.380131 0.000000
v -2.946076 0.380131 -1.102339
v 0.000000 0.380131 -1.102339
v -2.946076 0.000000 -1.102339
v 0.000000 0.000000 -1.102339
v -2.946076 0.590956 -0.186846
v 0.000000 0.590956 -0.186846
v 0.000000 0.590956 -0.915493
v -2.946076 0.590956 -0.915493
v -2.946076 1.925472 -0.186846
v 0.000000 1.925472 -0.186846
v 0.000000 1.925472 -0.915493
v -2.946076 1.925472 -0.915493
v -1.155520 1.480633 -0.915493
v -1.155520 1.035795 -0.915493
v -1.155520 1.035795 -0.186846
v -1.155520 1.480633 -0.186846
v -1.790555 1.480633 -0.915493
v -1.790555 1.035795 -0.915493
v -1.790555 1.035795 -0.186846
v -1.790555 1.480633 -0.186846
v -0.491012 1.480633 -0.915493
v -0.491012 1.035795 -0.915493
v -0.491012 1.035795 -0.186846
v -0.491012 1.480633 -0.186846
v -2.455063 1.480633 -0.915493
v -2.455063 1.035795 -0.915493
v -2.455063 1.035795 -0.186846
v -2.455063 1.480633 -0.186846
vt 0.236692 0.170432
vt 0.267008 0.170432
vt 0.267008 0.170432
vt 0.236692 0.170432
vt 0.236692 0.170432
vt 0.236692 0.170432
vt 0.236692 0.170432
vt 0.267008 0.170432
vt 0.267008 0.170432
vt 0.267008 0.170432
vt 0.267008 0.170432
vt 0.267008 0.170432
vt 0.267008 0.170432
vt 0.267008 0.170432
vt 0.329887 0.170432
vt 0.267008 0.170432
vt 0.267008 0.170432
vt 0.267008 0.170432
vt 0.329887 0.170432
vt 0.110920 0.170432
vt 0.329887 0.170432
vt 0.267008 0.170432
vt 0.110920 0.170432
vt 0.110920 0.170432
vt 0.267008 0.170432
vt 0.267008 0.170432
vt 0.267008 0.170432
vt 0.110920 0.170432
vt 0.267008 0.170432
vt 0.267008 0.170432
vt 0.267008 0.170432
vt 0.267008 0.170432
vt 0.267008 0.170432
vt 0.267008 0.170432
vt 0.110920 0.170432
vt 0.267008 0.170432
vt 0.110920 0.170432
vt 0.267008 0.170432
vt 0.267008 0.170432
vt 0.110920 0.170432
vt 0.267008 0.170432
vt 0.110920 0.170432
vt 0.110920 0.170432
vt 0.267008 0.170432
vt 0.110920 0.170432
vt 0.110920 0.170432
vt 0.267008 0.170432
vt 0.110920 0.170432
vt 0.110920 0.170432
vt 0.110920 0.170432
vt 0.110920 0.170432
vt 0.110920 0.170432
vt 0.110920 0.170432
vt 0.110920 0.170432
vt 0.267008 0.170432
vt 0.329887 0.170432
vt 0.329887 0.170432
vt 0.329887 0.170432
vt 0.329887 0.170432
vt 0.329887 0.170432
vt 0.329887 0.170432
vt 0.267008 0.170432
vt 0.236692 0.170432
vt 0.236692 0.170432
vt 0.329887 0.170432
vt 0.329887 0.170432
vt 0.329887 0.170432
vt 0.236692 0.170432
vt 0.236692 0.170432
vt 0.236692 0.170432
vt 0.236692 0.170432
vt 0.236692 0.170432
vt 0.236692 0.170432
vt 0.236692 0.170432
vt 0.236692 0.170432
vt 0.236692 0.170432
vt 0.267008 0.170432
vt 0.110920 0.170432
vt 0.267008 0.170432
vt 0.110920 0.170432
vt 0.267008 0.170432
vt 0.267008 0.170432
vt 0.267008 0.170432
vt 0.267008 0.170432
vt 0.267008 0.170432
vt 0.267008 0.170432
vt 0.267008 0.170432
vt 0.267008 0.170432
vt 0.267008 0.170432
vt 0.267008 0.170432
vt 0.267008 0.170432
vt 0.267008 0.170432
vt 0.267008 0.170432
vt 0.267008 0.170432
vt 0.267008 0.170432
vt 0.267008 0.170432
vt 0.267008 0.170432
vt 0.267008 0.170432
vt 0.236692 0.170432
vt 0.267008 0.170432
vt 0.267008 0.170432
vt 0.267008 0.170432
vt 0.267008 0.170432
vt 0.236692 0.170432
vt 0.236692 0.170432
vt 0.236692 0.170432
vt 0.236692 0.170432
vt 0.236692 0.170432
vt 0.267008 0.170432
vt 0.236692 0.170432
vt 0.267008 0.170432
vt 0.236692 0.170432
vt 0.267008 0.170432
vt 0.267008 0.170432
vt 0.267008 0.170432
vt 0.267008 0.170432
vt 0.267008 0.170432
vt 0.267008 0.170432
vt 0.267008 0.170432
vt 0.267008 0.170432
vt 0.267008 0.170432
vt 0.267008 0.170432
vt 0.267008 0.170432
vt 0.267008 0.170432
vt 0.267008 0.170432
vt 0.267008 0.170432
vt 0.267008 0.170432
vt 0.267008 0.170432
vn 1.000000 0.000000 0.000000
vn 1.000000 0.000000 0.000000
vn 1.000000 0.000000 0.000000
vn 1.000000 0.000000 0.000000
vn -1.000000 0.000000 0.000000
vn -1.000000 0.000000 0.000000
vn -1.000000 0.000000 0.000000
vn -1.000000 0.000000 0.000000
vn 1.000000 0.000000 0.000000
vn 1.000000 0.000000 0.000000
vn 1.000000 0.000000 0.000000
vn 1.000000 0.000000 0.000000
vn -1.000000 0.000000 0.000000
vn -1.000000 0.000000 0.000000
vn -1.000000 0.000000 0.000000
vn -1.000000 0.000000 0.000000
vn -1.000000 0.000000 0.000000
vn -1.000000 0.000000 0.000000
vn -1.000000 0.000000 0.000000
vn -1.000000 0.000000 0.000000
vn 0.000000 0.000000 -1.000000
vn 0.000000 0.000000 -1.000000
vn 0.000000 0.000000 -1.000000
vn 0.000000 0.000000 -1.000000
vn 1.000000 0.000000 0.000000
vn 1.000000 0.000000 0.000000
vn 1.000000 0.000000 0.000000
vn 1.000000 0.000000 0.000000
vn 0.000000 0.000000 1.000000
vn 0.000000 0.000000 1.000000
vn 0.000000 0.000000 1.000000
vn 0.000000 0.000000 1.000000
vn 0.000000 0.000000 -1.000000
vn 0.000000 0.000000 -1.000000
vn 0.000000 0.000000 -1.000000
vn 0.000000 0.000000 -1.000000
vn 0.000000 0.000000 -1.000000
vn 0.000000 0.000000 -1.000000
vn 0.000000 0.000000 -1.000000
vn 0.000000 0.000000 -1.000000
vn 0.000000 0.000000 -1.000000
vn 0.000000 0.000000 -1.000000
vn 0.000000 0.000000 1.000000
vn 0.000000 0.000000 1.000000
vn 0.000000 0.000000 1.000000
vn 0.000000 0.000000 1.000000
vn 0.000000 0.000000 1.000000
vn 0.000000 0.000000 1.000000
vn 0.000000 0.000000 1.000000
vn 0.000000 0.000000 1.000000
vn 0.000000 0.000000 1.000000
vn 0.000000 0.000000 1.000000
vn 0.000000 1.000000 0.000000
vn 0.000000 1.000000 0.000000
vn 0.000000 1.000000 0.000000
vn 0.000000 1.000000 0.000000
vn 0.000000 0.000000 -1.000000
vn 0.000000 0.000000 -1.000000
vn 0.000000 0.000000 -1.000000
vn 0.000000 0.000000 -1.000000
vn 0.000000 0.000000 -1.000000
vn 0.000000 0.000000 -1.000000
vn 0.000000 0.000000 -1.000000
vn 0.000000 0.000000 -1.000000
vn 0.000000 0.000000 -1.000000
vn 0.000000 0.000000 -1.000000
vn 0.000000 0.000000 -1.000000
vn 0.000000 0.000000 -1.000000
vn 0.000000 0.663264 -0.748386
vn 0.000000 0.663264 -0.748386
vn 0.000000 0.663264 -0.748386
vn 0.000000 0.663264 -0.748386
vn 0.000000 0.000000 -1.000000
vn 0.000000 0.000000 -1.000000
vn 0.000000 0.000000 -1.000000
vn 0.000000 0.000000 -1.000000
vn 0.000000 -1.000000 0.000000
vn 0.000000 -1.000000 0.000000
vn 0.000000 -1.000000 0.000000
vn 0.000000 -1.000000 0.000000
vn 0.000000 0.000000 1.000000
vn 0.000000 0.000000 1.000000
vn 0.000000 0.000000 1.000000
vn 0.000000 0.000000 1.000000
vn 0.000000 0.663264 0.748385
vn 0.000000 0.663264 0.748385
vn 0.000000 0.663264 0.748385
vn 0.000000 0.663264 0.748385
vn 0.000000 0.000000 1.000000
vn 0.000000 0.000000 1.000000
vn 0.000000 0.000000 1.000000
vn 0.000000 0.000000 1.000000
vn 0.000000 0.000000 1.000000
vn 0.000000 0.000000 1.000000
vn 0.000000 0.000000 1.000000
vn 0.000000 0.000000 1.000000
vn 0.000000 0.000000 1.000000
vn 0.000000 0.000000 1.000000
vn 0.000000 0.000000 1.000000
vn 0.000000 0.000000 1.000000
vn 0.000000 0.000000 -1.000000
vn 0.000000 0.000000 -1.000000
vn 0.000000 0.000000 -1.000000
vn 0.000000 0.000000 -1.000000
vn 0.000000 0.000000 1.000000
vn 0.000000 0.000000 1.000000
vn 0.000000 0.000000 1.000000
vn 0.000000 0.000000 1.000000
vn 0.000000 0.000000 -1.000000
vn 0.000000 0.000000 -1.000000
vn 0.000000 0.000000 -1.000000
vn 0.000000 0.000000 -1.000000
vn 0.000000 0.000000 -1.000000
vn 0.000000 0.000000 -1.000000
vn 0.000000 0.000000 -1.000000
vn 0.000000 0.000000 -1.000000
vn 0.000000 0.000000 -1.000000
vn 0.000000 0.000000 -1.000000
vn 0.000000 0.000000 1.000000
vn 0.000000 0.000000 1.000000
vn 0.000000 0.000000 1.000000
vn 0.000000 0.000000 1.000000
vn 0.000000 0.000000 1.000000
vn 0.000000 0.000000 1.000000
vn 0.000000 0.000000 1.000000
vn 0.000000 0.000000 1.000000
vn 0.000000 0.000000 1.000000
vn 0.000000 0.000000 1.000000
s off
f 2/76/1 8/4/2 6/5/3 4/105/4
f 7/6/5 1/1/6 3/75/7 5/108/8
f 4/63/9 6/107/10 11/64/11 10/104/12
f 5/7/13 3/106/14 9/74/15 12/110/16
f 12/72/17 9/99/18 13/71/19 16/70/20
f 30/36/21 12/109/22 16/117/23 29/92/24
f 10/73/25 11/112/26 15/69/27 14/68/28
f 9/100/29 31/86/30 32/38/31 13/93/32
f 25/128/33 17/119/34 15/121/35
f 26/50/36 18/54/37 17/53/38 25/49/39
f 11/113/40 18/115/41 26/127/42
f 19/97/43 10/102/44 27/126/45
f 20/23/46 19/48/47 27/45/48 28/46/49
f 14/123/50 20/95/51 28/125/52
f 13/61/53 14/15/54 15/67/55 16/60/56
f 17/120/57 21/90/58 16/9/59 15/16/60
f 18/116/61 22/88/62 21/44/63 17/17/64
f 11/114/65 12/111/66 22/87/67 18/18/68
f 6/66/69 5/58/70 12/59/71 11/19/72
f 7/77/73 5/26/74 6/3/75 8/79/76
f 1/28/77 7/78/78 8/20/79 2/80/80
f 3/55/81 1/27/82 2/2/83 4/62/84
f 9/56/85 3/57/86 4/21/87 10/65/88
f 23/84/89 9/8/90 10/14/91 19/98/92
f 24/82/93 23/29/94 19/22/95 20/96/96
f 13/94/97 24/81/98 20/47/99 14/124/100
f 11/13/101 26/32/102 25/31/103 15/122/104
f 28/34/105 27/33/106 10/103/107 14/11/108
f 21/91/109 29/41/110 16/118/111
f 22/43/112 30/42/113 29/35/114 21/24/115
f 12/12/116 30/89/117 22/25/118
f 31/39/119 9/101/120 23/85/121
f 32/40/122 31/37/123 23/51/124 24/52/125
f 13/10/126 32/83/127 24/30/128
