# This file uses meters as units for non-parametric coordinates.

v -0.925949 0.000000 1.136726
v -0.663025 0.000000 0.887104
v -0.925823 0.186211 1.089836
v -0.709988 0.186211 0.884918
v -1.161615 0.152857 0.842648
v -0.945782 0.152857 0.637730
v -1.213186 0.000000 0.835613
v -0.950264 0.000000 0.585987
v 0.941459 0.000000 -0.042217
v 0.943357 0.000000 0.192867
v 0.963622 0.109062 -0.021400
v 0.965180 0.109062 0.171581
v 1.185125 0.087434 -0.023708
v 1.186684 0.087434 0.169270
v 1.211288 0.000000 -0.045029
v 1.213186 0.000000 0.190052
v -0.925949 0.000000 1.136726
v -0.663025 0.000000 0.887104
v -0.925823 0.186211 1.089836
v -0.709988 0.186211 0.884918
v -1.161615 0.152857 0.842648
v -0.945782 0.152857 0.637730
v -1.213186 0.000000 0.835613
v -0.950264 0.000000 0.585987
v -0.825748 0.000000 -0.716389
v -0.460018 0.000000 -0.517834
v -0.774509 0.218657 -0.732872
v -0.474280 0.218657 -0.569878
v -0.588230 0.180372 -1.077923
v -0.288002 0.180372 -0.914928
v -0.598827 0.000000 -1.136723
v -0.233097 0.000000 -0.938164
v 0.941459 0.000000 -0.042217
v 0.943357 0.000000 0.192867
v 0.963622 0.109062 -0.021400
v 0.965180 0.109062 0.171581
v 1.185125 0.087434 -0.023708
v 1.186684 0.087434 0.169270
v 1.211288 0.000000 -0.045029
v 1.213186 0.000000 0.190052
vt 0.174281 0.047107
vt 0.204441 0.047107
vt 0.267568 0.047107
vt 0.174281 0.047107
vt 0.204441 0.047107
vt 0.267568 0.047107
vt 0.144120 0.047107
vt 0.204441 0.047107
vt 0.144120 0.047107
vt 0.144120 0.047107
vt 0.174280 0.047107
vt 0.174280 0.047107
vt 0.174281 0.047107
vt 0.174281 0.047107
vt 0.174281 0.047107
vt 0.204441 0.047107
vt 0.204441 0.047107
vt 0.174281 0.047107
vt 0.204441 0.047107
vt 0.144120 0.047107
vt 0.267568 0.047107
vt 0.204441 0.047107
vt 0.267568 0.047107
vt 0.204441 0.047107
vt 0.204441 0.047107
vt 0.204441 0.047107
vt 0.204441 0.047107
vt 0.204441 0.047107
vt 0.267568 0.047107
vt 0.267568 0.047107
vt 0.267568 0.047107
vt 0.267568 0.047107
vt 0.204441 0.047107
vt 0.204441 0.047107
vt 0.204441 0.047107
vt 0.204441 0.047107
vt 0.144120 0.047107
vt 0.144120 0.047107
vt 0.144120 0.047107
vt 0.144120 0.047107
vt 0.174281 0.047107
vt 0.174280 0.047107
vt 0.174280 0.047107
vt 0.174281 0.047107
vt 0.174281 0.047107
vt 0.174281 0.047107
vt 0.174281 0.047107
vt 0.174281 0.047107
vt 0.204441 0.047107
vt 0.204441 0.047107
vt 0.204441 0.047107
vt 0.204441 0.047107
vt 0.267568 0.047107
vt 0.267568 0.047107
vt 0.267568 0.047107
vt 0.267568 0.047107
vt 0.204441 0.047107
vt 0.204441 0.047107
vt 0.204441 0.047107
vt 0.204441 0.047107
vt 0.144120 0.047107
vt 0.144120 0.047107
vt 0.144120 0.047107
vt 0.144120 0.047107
vt 0.174281 0.047107
vt 0.174280 0.047107
vt 0.174280 0.047107
vt 0.174281 0.047107
vt 0.174281 0.047107
vt 0.174281 0.047107
vt 0.174281 0.047107
vt 0.174281 0.047107
vt 0.204441 0.047107
vt 0.204441 0.047107
vt 0.204441 0.047107
vt 0.204441 0.047107
vt 0.267568 0.047107
vt 0.267568 0.047107
vt 0.267568 0.047107
vt 0.267568 0.047107
vt 0.204441 0.047107
vt 0.204441 0.047107
vt 0.204441 0.047107
vt 0.204441 0.047107
vt 0.144120 0.047107
vt 0.144120 0.047107
vt 0.144120 0.047107
vt 0.144120 0.047107
vt 0.174281 0.047107
vt 0.174280 0.047107
vt 0.174280 0.047107
vt 0.174281 0.047107
vt 0.174281 0.047107
vt 0.174281 0.047107
vt 0.174281 0.047107
vt 0.174281 0.047107
vt 0.204441 0.047107
vt 0.204441 0.047107
vt 0.204441 0.047107
vt 0.204441 0.047107
vt 0.267568 0.047107
vt 0.267568 0.047107
vt 0.267568 0.047107
vt 0.267568 0.047107
vt 0.204441 0.047107
vt 0.204441 0.047107
vt 0.204441 0.047107
vt 0.204441 0.047107
vt 0.144120 0.047107
vt 0.144120 0.047107
vt 0.144120 0.047107
vt 0.144120 0.047107
vt 0.174281 0.047107
vt 0.174280 0.047107
vt 0.174280 0.047107
vt 0.174281 0.047107
vt 0.174281 0.047107
vt 0.174281 0.047107
vt 0.174281 0.047107
vt 0.174281 0.047107
vn 0.677379 0.179207 0.713472
vn 0.677379 0.179207 0.713472
vn 0.677379 0.179207 0.713472
vn 0.677379 0.179207 0.713472
vn -0.066908 0.995267 -0.070472
vn -0.066908 0.995267 -0.070472
vn -0.066908 0.995267 -0.070472
vn -0.066908 0.995267 -0.070472
vn -0.665447 0.256766 -0.700893
vn -0.665447 0.256766 -0.700893
vn -0.665447 0.256766 -0.700893
vn -0.665447 0.256766 -0.700893
vn 0.000000 -1.000000 0.000000
vn 0.000000 -1.000000 0.000000
vn 0.000000 -1.000000 0.000000
vn 0.000000 -1.000000 0.000000
vn 0.704902 0.188265 -0.683864
vn 0.704902 0.188265 -0.683864
vn 0.704902 0.188265 -0.683864
vn 0.704902 0.188265 -0.683864
vn -0.716349 0.188197 0.671883
vn -0.716349 0.188197 0.671883
vn -0.716349 0.188197 0.671883
vn -0.716349 0.188197 0.671883
vn -0.980232 0.197692 0.007914
vn -0.980232 0.197692 0.007914
vn -0.980232 0.197692 0.007914
vn -0.980232 0.197692 0.007914
vn 0.097172 0.995267 -0.000785
vn 0.097172 0.995267 -0.000785
vn 0.097172 0.995267 -0.000785
vn 0.097172 0.995267 -0.000785
vn 0.957481 0.288392 -0.007731
vn 0.957481 0.288392 -0.007731
vn 0.957481 0.288392 -0.007731
vn 0.957481 0.288392 -0.007731
vn 0.000000 -1.000000 0.000000
vn 0.000000 -1.000000 0.000000
vn 0.000000 -1.000000 0.000000
vn 0.000000 -1.000000 0.000000
vn 0.019434 0.209752 0.977561
vn 0.019434 0.209752 0.977562
vn 0.019434 0.209752 0.977562
vn 0.019434 0.209752 0.977561
vn -0.000959 0.209657 -0.977775
vn -0.000959 0.209657 -0.977775
vn -0.000959 0.209657 -0.977775
vn -0.000959 0.209657 -0.977775
vn 0.677379 0.179207 0.713472
vn 0.677379 0.179207 0.713472
vn 0.677379 0.179207 0.713472
vn 0.677379 0.179207 0.713472
vn -0.066908 0.995267 -0.070472
vn -0.066908 0.995267 -0.070472
vn -0.066908 0.995267 -0.070472
vn -0.066908 0.995267 -0.070472
vn -0.665447 0.256766 -0.700893
vn -0.665447 0.256766 -0.700893
vn -0.665447 0.256766 -0.700893
vn -0.665447 0.256766 -0.700893
vn 0.000000 -1.000000 0.000000
vn 0.000000 -1.000000 0.000000
vn 0.000000 -1.000000 0.000000
vn 0.000000 -1.000000 0.000000
vn 0.704902 0.188265 -0.683864
vn 0.704902 0.188265 -0.683864
vn 0.704902 0.188265 -0.683864
vn 0.704902 0.188265 -0.683864
vn -0.716349 0.188197 0.671883
vn -0.716349 0.188197 0.671883
vn -0.716349 0.188197 0.671883
vn -0.716349 0.188197 0.671883
vn -0.469733 0.175299 0.865229
vn -0.469733 0.175299 0.865229
vn -0.469733 0.175299 0.865229
vn -0.469733 0.175299 0.865229
vn 0.046365 0.995267 -0.085401
vn 0.046364 0.995267 -0.085401
vn 0.046364 0.995267 -0.085401
vn 0.046364 0.995267 -0.085401
vn 0.461946 0.250232 -0.850876
vn 0.461946 0.250232 -0.850876
vn 0.461946 0.250232 -0.850876
vn 0.461946 0.250232 -0.850876
vn 0.000000 -1.000000 0.000000
vn 0.000000 -1.000000 0.000000
vn 0.000000 -1.000000 0.000000
vn 0.000000 -1.000000 0.000000
vn 0.868781 0.183791 0.459827
vn 0.868781 0.183791 0.459827
vn 0.868781 0.183791 0.459827
vn 0.868781 0.183791 0.459827
vn -0.861109 0.183717 -0.474068
vn -0.861109 0.183717 -0.474068
vn -0.861108 0.183717 -0.474068
vn -0.861109 0.183717 -0.474068
vn -0.980232 0.197692 0.007914
vn -0.980232 0.197692 0.007914
vn -0.980232 0.197692 0.007914
vn -0.980232 0.197692 0.007914
vn 0.097172 0.995267 -0.000785
vn 0.097172 0.995267 -0.000785
vn 0.097172 0.995267 -0.000785
vn 0.097172 0.995267 -0.000785
vn 0.957481 0.288392 -0.007731
vn 0.957481 0.288392 -0.007731
vn 0.957481 0.288392 -0.007731
vn 0.957481 0.288392 -0.007731
vn 0.000000 -1.000000 0.000000
vn 0.000000 -1.000000 0.000000
vn 0.000000 -1.000000 0.000000
vn 0.000000 -1.000000 0.000000
vn 0.019434 0.209752 0.977561
vn 0.019434 0.209752 0.977562
vn 0.019434 0.209752 0.977562
vn 0.019434 0.209752 0.977561
vn -0.000959 0.209657 -0.977775
vn -0.000959 0.209657 -0.977775
vn -0.000959 0.209657 -0.977775
vn -0.000959 0.209657 -0.977775
s off
f 1/16/1 2/2/2 4/17/3 3/24/4
f 3/3/5 4/23/6 6/6/7 5/21/8
f 5/5/9 6/19/10 8/8/11 7/22/12
f 7/7/13 8/20/14 2/10/15 1/9/16
f 2/15/17 8/11/18 6/12/19 4/4/20
f 7/13/21 1/1/22 3/18/23 5/14/24
f 9/25/25 10/26/26 12/27/27 11/28/28
f 11/29/29 12/30/30 14/31/31 13/32/32
f 13/33/33 14/34/34 16/35/35 15/36/36
f 15/37/37 16/38/38 10/39/39 9/40/40
f 10/41/41 16/42/42 14/43/43 12/44/44
f 15/45/45 9/46/46 11/47/47 13/48/48
f 17/49/49 18/50/50 20/51/51 19/52/52
f 19/53/53 20/54/54 22/55/55 21/56/56
f 21/57/57 22/58/58 24/59/59 23/60/60
f 23/61/61 24/62/62 18/63/63 17/64/64
f 18/65/65 24/66/66 22/67/67 20/68/68
f 23/69/69 17/70/70 19/71/71 21/72/72
f 25/73/73 26/74/74 28/75/75 27/76/76
f 27/77/77 28/78/78 30/79/79 29/80/80
f 29/81/81 30/82/82 32/83/83 31/84/84
f 31/85/85 32/86/86 26/87/87 25/88/88
f 26/89/89 32/90/90 30/91/91 28/92/92
f 31/93/93 25/94/94 27/95/95 29/96/96
f 33/97/97 34/98/98 36/99/99 35/100/100
f 35/101/101 36/102/102 38/103/103 37/104/104
f 37/105/105 38/106/106 40/107/107 39/108/108
f 39/109/109 40/110/110 34/111/111 33/112/112
f 34/113/113 40/114/114 38/115/115 36/116/116
f 39/117/117 33/118/118 35/119/119 37/120/120
